<svg xmlns="http://www.w3.org/2000/svg" xmlns:xlink="http://www.w3.org/1999/xlink" version="1.1" id="Laag_1" x="0px" y="0px" style="enable-background:new 0 0 200 595.3;" xml:space="preserve" viewBox="22.52 20.4 157.75 558.5">
<style type="text/css">
	.st0{fill:#4A4A49;}
</style>
<path class="st0" d="M89.3,535.7c0.1-1.9,0.2-3.8,0.2-5.7c-0.3-0.3-0.7-0.4-1.4-0.3c-0.6,0-1.1,0.1-1.4,0.3c0,0.4,0,1.1-0.1,2.1  c-0.1,1-0.2,2-0.4,3c-0.2,0.9-0.5,1.4-0.9,1.5c-0.8,0.3-1.8,0.4-3.1,0.4c-1.3,0-2.6,0-4,0H37.6c-1.4,0-2.8,0-4,0  c-1.2,0-2.2-0.2-3-0.4c-0.3-0.1-0.6-0.6-0.9-1.5c-0.3-0.9-0.4-1.9-0.5-3c-0.1-1-0.1-1.8-0.1-2.1c-0.3-0.2-0.7-0.3-1.4-0.3  c-0.6,0-1.1,0.1-1.4,0.3c0,1.9,0,3.7,0.1,5.5c0.1,1.8,0.1,3.7,0.1,5.9c0,6.4-0.1,12.1-0.2,17.1c-0.1,5.1-0.2,10.2-0.2,15.3  c2.1,0.3,4.6,1,7.5,2.1c2.9,1.1,5.7,2.1,8.3,3c0.4-0.4,0.6-1.2,0.6-2.3c0-0.8-0.2-1.2-0.6-1.4c-2-0.8-3.9-1.6-5.6-2.4  c-1.7-0.8-3-2-3.9-3.5c-0.8-1.3-1.5-3.1-1.9-5.3c-0.5-2.2-0.7-4.4-0.7-6.7v-4.6c0-2,0-3.5,0.1-4.4c0.1-0.9,0.4-1.7,0.8-2.4  c0.2-0.3,1-0.4,2.4-0.4c1.4,0,2.6,0,3.5,0h0.6h18.1c0.3,0,0.5,0.4,0.6,1.2s0.2,1.7,0.2,2.8c0,1.1,0,2,0,2.9c0,1.2,0,2.5,0,3.9  c0,1.4-0.1,2.7-0.2,3.8s-0.3,1.9-0.5,2.2c-0.2,0.3-0.4,0.6-0.7,0.8c-0.3,0.2-0.8,0.5-1.7,0.8c-0.8,0.3-2.1,0.7-3.9,1.1  c-0.5,0.2-0.7,0.7-0.7,1.5s0.1,1.3,0.4,1.6h17.9c0.3-0.3,0.5-0.9,0.5-1.7c0-0.8-0.2-1.3-0.7-1.4c-1.6-0.4-2.8-0.7-3.7-1.1  c-0.9-0.3-1.6-0.8-2-1.4c-0.5-0.6-0.7-1.5-0.9-2.8c-0.1-1.3-0.2-3-0.2-5.3v-5c0-1,0-2,0.1-2.8c0.1-0.8,0.2-1.3,0.5-1.3h17.7h1.1  c1.1,0,2.2,0,3.2,0c1,0,1.9,0.1,2.5,0.3c0.3,0.1,0.6,0.6,0.7,1.6c0.1,0.9,0.2,1.9,0.2,2.9c0,1,0,1.8,0,2.1v8.2  c0,2.5-0.5,4.7-1.6,6.6c-1,1.9-3.5,3.3-7.3,4.4c-0.5,0.1-0.7,0.5-0.7,1.4c0,0.8,0.2,1.3,0.5,1.7c2.1-0.5,4.2-0.9,6.2-1.5  c2-0.5,4.2-0.9,6.6-1.3c0-5.1-0.1-10.4-0.3-15.8c-0.2-5.4-0.3-10.3-0.3-14.8C89.2,539.4,89.2,537.5,89.3,535.7 M33.6,508  c-0.3,0-0.6,0-0.8,0c-0.2,0-0.4-0.2-0.5-0.5c-0.7-1.4-1.4-3.1-2.1-5c-0.7-1.9-1-4.1-1-6.6c0-4.2,0.9-7.8,2.6-10.9  c1.7-3.1,4-5.6,6.9-7.7c2.9-2,6.1-3.6,9.7-4.6c3.6-1,7.2-1.5,10.9-1.5c3.3,0,6.6,0.5,9.9,1.6c3.3,1.1,6.3,2.6,9,4.7  c2.7,2,4.8,4.5,6.4,7.4c1.6,2.9,2.4,6,2.4,9.5c0,4-0.6,7.1-1.7,9.5c-1.1,2.4-2.5,4.2-4.1,5.5c-1.6,1.3-3.2,2.1-4.7,2.6  c-1.5,0.5-2.6,0.8-3.3,0.9c-0.2,0.3-0.3,0.7-0.3,1.2c0,0.5,0.1,1,0.4,1.5c0.3,0.5,0.5,0.6,0.8,0.6c0.3,0,1.1-0.1,2.6-0.3  c1.5-0.2,3.1-0.5,4.9-0.7c1.8-0.3,4-0.6,6.7-1.1c0.8-3.5,1.3-7,1.6-10.4c0.3-3.4,0.4-6.7,0.4-9.8c0-4.7-0.9-9-2.6-12.9  c-1.7-3.9-4.1-7.3-7.2-10.2c-3.1-2.9-6.5-5.1-10.5-6.7c-3.9-1.6-8.1-2.4-12.6-2.4c-4.2,0-8.2,0.8-11.9,2.3c-3.7,1.5-7,3.7-9.9,6.5  c-2.9,2.8-5.2,6.2-6.8,10.1c-1.7,3.9-2.5,8.2-2.5,12.9c0,4.2,0.3,7.7,0.8,10.4c0.5,2.7,1.2,4.9,1.9,6.7c0.8,1.8,1.5,3.4,2.2,4.7  c0.5,0.8,0.8,1.4,1,1.6c0.2,0.2,0.4,0.3,0.7,0.3c0.5,0,1-0.2,1.6-0.5c0.5-0.3,1.3-0.5,2.3-0.5h6.7c1.4,0,2.8,0,4,0  c1.2,0,2.2,0.2,3,0.4c0.4,0.1,0.7,0.6,0.9,1.5c0.2,0.8,0.4,1.8,0.5,2.7c0.1,1,0.1,1.7,0.1,2c0.3,0.2,0.7,0.3,1.4,0.3  c0.6,0,1.1-0.1,1.4-0.3c-0.1-1.9-0.2-3.7-0.3-5.4c-0.1-1.7-0.2-3.4-0.2-5.3c0-1.8,0.1-3.6,0.2-5.5c0.1-1.8,0.2-3.7,0.3-5.6  c-0.3-0.3-0.7-0.4-1.4-0.3c-0.6,0-1.1,0.1-1.4,0.3c0,0.4,0,1.1-0.1,2.1c-0.1,1-0.3,2-0.5,2.9c-0.2,0.9-0.5,1.4-0.9,1.5  c-0.6,0.2-1.5,0.3-2.5,0.3c-1,0-2.1,0-3.4,0h-0.6h-0.6H33.6z M89.6,393.7c0.1-1.4,0.2-3.2,0.2-5.4c-0.3-0.1-0.6-0.2-1.2-0.3  c-0.5-0.1-1,0-1.6,0.3c0,0.4-0.1,1.1-0.2,2.2c-0.1,1.1-0.3,2.2-0.6,3.3c-0.3,1.1-0.6,1.7-1,1.9c-0.7,0.5-1.5,0.7-2.4,0.8  c-0.9,0.1-2.3,0.1-4.1,0.1H37.4c-1.8,0-3.2,0-4-0.1c-0.9-0.1-1.7-0.4-2.4-0.8c-0.4-0.2-0.7-0.8-1-1.9c-0.3-1.1-0.5-2.2-0.7-3.3  c-0.2-1.1-0.2-1.9-0.2-2.2c-0.5-0.3-1-0.4-1.6-0.3c-0.5,0.1-0.9,0.2-1.2,0.3c0.1,1.5,0.1,2.7,0.2,3.7c0.1,0.9,0.1,1.9,0.2,2.9  c0.1,1,0.1,2.2,0.1,3.7c0,2.1,0,3.9-0.1,5.6c-0.1,1.6-0.2,3.4-0.3,5.3c0.3,0.1,0.8,0.2,1.4,0.2c0.6,0,1-0.1,1.4-0.4  c0-0.5,0.1-1.3,0.3-2.4c0.2-1.1,0.4-2.1,0.7-3c0.3-0.9,0.6-1.5,0.9-1.7c0.8-0.5,1.6-0.7,2.6-0.8c0.9-0.1,2.3-0.1,3.9-0.1h43.2  l-52.4,41.5c-0.8,0.7-1.4,1.4-1.8,2c-0.3,0.6-0.5,1.1-0.5,1.3c0,0.1,0,0.4,0.1,0.7c0.1,0.3,0.2,0.5,0.5,0.6c1.7-0.1,3.2-0.1,4.4-0.1  c1.3,0,2.6,0,3.9,0h4.8h38.7c1.8,0,3.2,0,4.1,0.1c0.9,0.1,1.7,0.3,2.4,0.8c0.4,0.3,0.7,0.9,1,1.9c0.3,1,0.5,2.1,0.6,3.3  c0.1,1.1,0.2,1.9,0.2,2.3c0.5,0.3,1,0.4,1.6,0.3c0.5-0.1,0.9-0.2,1.2-0.3c-0.1-1.4-0.1-2.6-0.2-3.7c-0.1-1-0.1-2-0.1-2.9  c0-0.9,0-2.2,0-3.7c0-2.1,0-3.9,0.1-5.6c0.1-1.7,0.2-3.4,0.2-5.3c-0.3-0.1-0.7-0.1-1.3-0.1c-0.6,0-1.1,0.1-1.4,0.3  c0,0.5-0.1,1.3-0.2,2.4c-0.2,1.1-0.4,2.1-0.7,3.1c-0.3,1-0.6,1.6-0.9,1.8c-0.8,0.5-1.7,0.8-2.6,0.9c-1,0.1-2.3,0.1-4,0.1h-36  c2.9-2.1,6.2-4.5,9.8-7.4c3.6-2.9,7.3-5.8,11-8.9c3.7-3.1,7.3-6,10.8-8.9c3.5-2.9,6.6-5.4,9.3-7.5c2.7-2.1,4.8-3.7,6.3-4.7  c-0.1-0.6-0.1-1.7-0.1-3v-4.2C89.4,396.5,89.5,395,89.6,393.7 M55.2,360.9c-0.3-0.1-0.5-0.2-0.5-0.3c-0.1-1.4-0.1-2.7-0.2-3.9  c-0.1-1.2-0.1-2.5-0.1-4c0-1,0-2.4,0-4.1c0-1.7,0.1-3.2,0.1-4.4c0-0.1,0.1-0.1,0.4-0.2l23.2,8.7L55.2,360.9z M35.1,331.9  c-1.5-0.7-2.9-1.5-4.1-2.5c-0.6-0.5-1.1-1.4-1.4-2.8c-0.3-1.4-0.4-2.4-0.4-3c-0.3-0.1-0.8-0.2-1.5-0.2c-0.7,0-1.1,0.1-1.2,0.2  c0.1,1.5,0.1,2.7,0.2,3.7c0.1,1,0.1,1.9,0.2,2.9c0.1,1,0.1,2.2,0.1,3.6c0,1.4,0,2.6-0.1,3.5c-0.1,0.9-0.1,1.8-0.2,2.6  c-0.1,0.9-0.1,1.9-0.2,3.2c0.3,0.1,0.8,0.2,1.5,0.1c0.7-0.1,1.1-0.2,1.2-0.3c0-0.3,0.1-0.9,0.2-2c0.1-1.1,0.4-2.1,0.8-3.1  c0.4-1,1-1.5,1.7-1.5c0.6,0,1.5,0.1,2.6,0.2c1.1,0.2,2.5,0.5,4.1,1.1c1.6,0.5,3.2,1.1,5,1.8c1.8,0.7,4,1.5,6.6,2.5  c0.2,0.3,0.3,0.4,0.3,0.5c0.1,2.1,0.2,3.9,0.2,5.3c0,1.4,0,3,0,5v0.9v1v4c0,1.4,0,2.6-0.1,3.6c0,0.1-0.1,0.3-0.4,0.6  c-2.1,0.8-4,1.6-5.7,2.2c-1.7,0.6-3.4,1.3-5.1,1.9c-1.8,0.6-3.3,1.2-4.7,1.6c-1.4,0.4-2.4,0.6-3,0.6c-0.6,0-1.1-0.1-1.4-0.4  c-0.4-0.5-0.7-1.3-0.9-2.5c-0.2-1.2-0.3-2.1-0.3-2.7c-0.3-0.3-0.7-0.4-1.4-0.4c-0.6,0-1.1,0.1-1.4,0.3c0.1,2.2,0.2,4,0.3,5.5  c0.1,1.5,0.1,3.3,0.1,5.5c0,2.1,0,3.9-0.1,5.4c-0.1,1.5-0.2,3.2-0.3,5.1c0.1,0.1,0.5,0.1,1.2,0.2c0.7,0.1,1.2,0,1.5-0.3  c0-0.3,0.1-0.9,0.3-1.8c0.2-0.9,0.6-1.9,1.1-2.8c0.5-0.9,1.1-1.6,1.9-1.9c0.4-0.2,2.5-1,6.2-2.4l50.8-19.4c0.1-0.1,0.1-0.2,0.1-0.2  c0,0,0-0.1,0-0.2c0-0.5-0.3-1.1-1-2c-0.6-0.9-1.2-1.4-1.8-1.7c-2.5-1-5.3-2.1-8.6-3.4c-3.2-1.3-6.6-2.6-10.2-3.9  c-3.5-1.4-7-2.7-10.3-4c-3.3-1.3-6.4-2.5-9.1-3.6c-2.7-1-5.7-2.2-8.9-3.4C38.2,333.2,36.6,332.6,35.1,331.9 M89.3,265.9  c0.1-1.9,0.2-3.8,0.2-5.7c-0.3-0.3-0.8-0.4-1.5-0.3c-0.7,0-1.3,0.1-1.5,0.3c0,0.4,0,1.1-0.1,2.1c-0.1,1-0.2,2-0.4,3  c-0.2,0.9-0.5,1.4-0.9,1.5c-0.8,0.3-1.8,0.4-3.1,0.4c-1.3,0-2.6,0-4,0h-40c-1.4,0-2.8,0-4,0c-1.2,0-2.2-0.2-3-0.4  c-0.3-0.1-0.6-0.6-0.9-1.5c-0.3-0.9-0.4-1.9-0.5-3c-0.1-1-0.1-1.8-0.1-2.1c-0.3-0.2-0.8-0.3-1.5-0.3c-0.7,0-1.2,0.1-1.5,0.3  c0.1,1.9,0.2,3.9,0.3,5.7c0.1,1.9,0.1,3.7,0.1,5.6c0,1.9,0,3.7-0.1,5.5c-0.1,1.8-0.2,3.7-0.3,5.6c0.3,0.3,0.8,0.4,1.5,0.3  c0.7,0,1.2-0.1,1.5-0.3c0-0.4,0-1.1,0.1-2.1c0.1-1,0.3-2,0.5-2.9c0.3-0.9,0.6-1.4,0.9-1.6c0.6-0.2,1.5-0.3,2.5-0.3c1,0,2.1,0,3.4,0  h0.6h0.6h18.9c0.1,0,0.1,0,0.2,0.1c0.1,0.1,0.1,0.5,0.2,1.2c0.1,0.6,0.1,2,0.2,4.1c0.1,2.1,0.1,5.3,0.1,9.7c0,2.5,0,4.9-0.1,7.5  c-0.1,2.5-0.2,4.9-0.2,7.1c-0.1,0.1-0.2,0.2-0.3,0.2H37.9c-1.4,0-2.8,0-4,0c-1.2,0-2.2-0.2-3-0.4c-0.3-0.1-0.6-0.6-0.9-1.5  c-0.3-0.9-0.4-1.9-0.5-2.9c-0.1-1-0.1-1.7-0.1-2.1c-0.3-0.2-0.8-0.3-1.5-0.3c-0.7,0-1.2,0.1-1.5,0.3c0.1,1.9,0.2,3.8,0.3,5.7  c0.1,1.8,0.1,3.7,0.1,5.5c0,1.9,0,3.7-0.1,5.5c-0.1,1.8-0.2,3.7-0.3,5.6c0.3,0.3,0.8,0.4,1.5,0.3c0.7,0,1.2-0.1,1.5-0.3  c0-0.4,0-1.1,0.1-2.1c0.1-1,0.3-2,0.5-2.9c0.3-0.9,0.6-1.4,0.9-1.6c0.8-0.3,1.8-0.4,3-0.4c1.2,0,2.6,0,4,0h40c1.4,0,2.8,0,4,0  c1.3,0,2.3,0.2,3.1,0.4c0.4,0.1,0.7,0.6,0.9,1.6c0.2,0.9,0.3,1.9,0.4,2.9c0.1,1,0.1,1.7,0.1,2.1c0.3,0.2,0.8,0.3,1.5,0.3  c0.7,0,1.2-0.1,1.5-0.3c-0.1-1.9-0.1-3.8-0.2-5.6c-0.1-1.8-0.1-3.6-0.1-5.5c0-1.8,0-3.7,0.1-5.5c0.1-1.9,0.2-3.8,0.2-5.7  c-0.3-0.3-0.8-0.4-1.5-0.3c-0.7,0-1.3,0.1-1.5,0.3c0,0.4,0,1.1-0.1,2.1c-0.1,1-0.2,2-0.4,2.9c-0.2,0.9-0.5,1.4-0.9,1.5  c-0.8,0.3-1.8,0.4-3.1,0.4c-1.3,0-2.6,0-4,0H61.4c-0.1,0-0.2-0.1-0.3-0.2c-0.1-2.1-0.1-4.5-0.2-7.2c-0.1-2.6-0.1-5.1-0.1-7.4  c0-2.7,0-5.2,0.1-7.7c0.1-2.5,0.1-4.9,0.2-7.2c0.1-0.1,0.1-0.2,0.2-0.2H78h0.6h0.6c1.2,0,2.4,0,3.4,0c1,0,1.9,0.1,2.5,0.3  c0.4,0.1,0.7,0.6,0.9,1.6c0.2,0.9,0.3,1.9,0.4,2.9c0.1,1,0.1,1.8,0.1,2.1c0.3,0.2,0.8,0.3,1.5,0.3c0.7,0,1.2-0.1,1.5-0.3  c-0.1-1.9-0.1-3.8-0.2-5.6c-0.1-1.8-0.1-3.6-0.1-5.5C89.2,269.6,89.2,267.8,89.3,265.9 M87.4,215.6c-1.7-3.9-4.1-7.3-7.2-10.2  c-3.1-2.9-6.5-5.1-10.5-6.7c-3.9-1.6-8.1-2.4-12.6-2.4c-4.2,0-8.2,0.8-11.9,2.3c-3.7,1.5-7,3.7-9.9,6.5c-2.9,2.8-5.2,6.2-6.8,10.1  c-1.7,3.9-2.5,8.2-2.5,12.9c0,4.4,0.4,8.3,1.1,11.6c0.7,3.3,1.8,6.3,3.2,8.9c0.3,0.3,1.1,0.7,2.3,1.1c1.2,0.4,2.6,0.7,4.2,1.1  c1.6,0.3,3.1,0.6,4.4,0.8c1.4,0.2,2.3,0.3,2.7,0.3c0.6-0.9,0.9-1.9,0.8-3c-1.6-0.3-3.4-0.9-5.5-1.8c-2.1-0.8-4-2.2-5.6-4.1  c-1.2-1.4-2.3-3.1-3.2-5.1c-0.9-2-1.4-4.5-1.4-7.5c0-4.2,0.9-7.8,2.6-10.9c1.7-3.1,4-5.6,6.9-7.7c2.9-2,6.1-3.6,9.7-4.6  c3.6-1,7.2-1.5,10.9-1.5c3.3,0,6.6,0.5,9.9,1.6c3.3,1.1,6.3,2.6,9,4.7s4.8,4.5,6.4,7.4c1.6,2.9,2.4,6,2.4,9.5c0,4-0.6,7.1-1.7,9.5  c-1.1,2.4-2.5,4.2-4.1,5.5c-1.6,1.3-3.2,2.1-4.7,2.6c-1.5,0.5-2.6,0.8-3.3,0.9c-0.2,0.3-0.3,0.7-0.3,1.2c0,0.5,0.1,1,0.4,1.5  c0.3,0.5,0.5,0.6,0.8,0.6c0.3,0,1.1-0.1,2.6-0.3c1.5-0.2,3.1-0.5,4.9-0.7c1.8-0.3,4-0.6,6.7-1.1c0.8-3.5,1.3-7,1.6-10.4  c0.3-3.4,0.4-6.7,0.4-9.8C90,223.8,89.2,219.5,87.4,215.6"/>
<path class="st0" d="M174.3,470.6c0.1-1.9,0.2-3.8,0.2-5.7c-0.3-0.3-0.7-0.4-1.4-0.3c-0.6,0-1.1,0.1-1.4,0.3c0,0.4,0,1.1-0.1,2.1  c-0.1,1-0.2,2-0.4,3c-0.2,0.9-0.5,1.4-0.9,1.5c-0.8,0.3-1.8,0.4-3.1,0.4c-1.3,0-2.6,0-4,0h-40.6c-1.4,0-2.8,0-4,0  c-1.2,0-2.2-0.2-3-0.4c-0.3-0.1-0.6-0.6-0.9-1.5c-0.3-0.9-0.4-1.9-0.5-3c-0.1-1-0.1-1.8-0.1-2.1c-0.3-0.2-0.7-0.3-1.4-0.3  c-0.6,0-1.1,0.1-1.4,0.3c0,1.9,0,3.7,0.1,5.5c0.1,1.8,0.1,3.7,0.1,5.9c0,6.4-0.1,12.1-0.2,17.1c-0.1,5.1-0.2,10.2-0.2,15.3  c2.1,0.3,4.6,1,7.5,2.1c2.9,1.1,5.7,2.1,8.3,3c0.4-0.4,0.6-1.2,0.6-2.3c0-0.8-0.2-1.2-0.6-1.4c-2-0.8-3.9-1.6-5.6-2.4  c-1.7-0.8-3-2-3.9-3.5c-0.8-1.3-1.5-3.1-1.9-5.3c-0.5-2.2-0.7-4.4-0.7-6.7v-4.6c0-2,0-3.5,0.1-4.4c0.1-0.9,0.4-1.7,0.8-2.4  c0.2-0.3,1-0.4,2.4-0.4c1.4,0,2.6,0,3.5,0h0.6h18.1c0.3,0,0.5,0.4,0.6,1.2c0.1,0.8,0.2,1.7,0.2,2.8c0,1.1,0,2,0,2.9  c0,1.2,0,2.5,0,3.9c0,1.4-0.1,2.7-0.2,3.8c-0.1,1.2-0.3,1.9-0.5,2.2c-0.2,0.3-0.4,0.6-0.7,0.8c-0.3,0.2-0.8,0.5-1.7,0.8  c-0.8,0.3-2.1,0.7-3.9,1.1c-0.5,0.2-0.7,0.7-0.7,1.5c0,0.8,0.1,1.3,0.4,1.6h17.9c0.3-0.3,0.5-0.9,0.5-1.7c0-0.8-0.2-1.3-0.7-1.4  c-1.6-0.4-2.8-0.7-3.7-1.1c-0.9-0.3-1.6-0.8-2-1.4c-0.5-0.6-0.7-1.5-0.9-2.8c-0.1-1.3-0.2-3-0.2-5.3v-5c0-1,0-2,0.1-2.8  c0.1-0.8,0.2-1.3,0.5-1.3h17.7h1.1c1.1,0,2.2,0,3.2,0c1,0,1.9,0.1,2.5,0.3c0.3,0.1,0.5,0.6,0.7,1.6c0.1,0.9,0.2,1.9,0.2,2.9  c0,1,0,1.8,0,2.1v8.2c0,2.5-0.5,4.7-1.6,6.6c-1,1.9-3.5,3.3-7.3,4.4c-0.5,0.1-0.7,0.5-0.7,1.4c0,0.8,0.2,1.3,0.5,1.7  c2.1-0.5,4.2-0.9,6.2-1.5c2-0.5,4.2-0.9,6.6-1.3c0-5.1-0.1-10.4-0.3-15.8c-0.2-5.4-0.3-10.3-0.3-14.8  C174.2,474.3,174.2,472.5,174.3,470.6 M174.3,401.7c0.1-1.9,0.2-3.8,0.2-5.7c-0.3-0.3-0.8-0.4-1.5-0.3c-0.7,0-1.3,0.1-1.5,0.3  c0,0.4,0,1.1-0.1,2.1c-0.1,1-0.2,2-0.4,3c-0.2,0.9-0.5,1.4-0.9,1.5c-0.8,0.3-1.8,0.4-3.1,0.4c-1.3,0-2.6,0-4,0h-40c-1.4,0-2.8,0-4,0  c-1.2,0-2.2-0.2-3-0.4c-0.3-0.1-0.6-0.6-0.9-1.5c-0.3-0.9-0.4-1.9-0.5-3c-0.1-1-0.1-1.8-0.1-2.1c-0.3-0.2-0.8-0.3-1.5-0.3  c-0.7,0-1.2,0.1-1.5,0.3c0.1,1.9,0.2,3.9,0.3,5.7c0.1,1.9,0.1,3.7,0.1,5.6c0,1.9,0,3.7-0.1,5.5c-0.1,1.8-0.2,3.7-0.3,5.6  c0.3,0.3,0.8,0.4,1.5,0.3c0.7,0,1.2-0.1,1.5-0.3c0-0.4,0-1.1,0.1-2.1c0.1-1,0.3-2,0.5-2.9c0.3-0.9,0.6-1.4,0.9-1.6  c0.6-0.2,1.5-0.3,2.5-0.3c1,0,2.1,0,3.4,0h0.6h0.6h18.9c0.1,0,0.1,0,0.2,0.1c0.1,0.1,0.1,0.5,0.2,1.2c0.1,0.6,0.1,2,0.2,4.1  c0.1,2.1,0.1,5.3,0.1,9.7c0,2.5,0,4.9-0.1,7.5c-0.1,2.5-0.2,4.9-0.2,7.1c-0.1,0.1-0.2,0.2-0.3,0.2H123c-1.4,0-2.8,0-4,0  c-1.2,0-2.2-0.2-3-0.4c-0.3-0.1-0.6-0.6-0.9-1.5c-0.3-0.9-0.4-1.9-0.5-2.9s-0.1-1.7-0.1-2.1c-0.3-0.2-0.8-0.3-1.5-0.3  c-0.7,0-1.2,0.1-1.5,0.3c0.1,1.9,0.2,3.8,0.3,5.7c0.1,1.8,0.1,3.7,0.1,5.5c0,1.9,0,3.7-0.1,5.5c-0.1,1.8-0.2,3.7-0.3,5.6  c0.3,0.3,0.8,0.4,1.5,0.3c0.7,0,1.2-0.1,1.5-0.3c0-0.4,0-1.1,0.1-2.1c0.1-1,0.3-2,0.5-2.9c0.3-0.9,0.6-1.4,0.9-1.6  c0.8-0.3,1.8-0.4,3-0.4c1.2,0,2.6,0,4,0h40c1.4,0,2.8,0,4,0c1.3,0,2.3,0.2,3.1,0.4c0.4,0.1,0.7,0.6,0.9,1.6c0.2,0.9,0.3,1.9,0.4,2.9  c0.1,1,0.1,1.7,0.1,2.1c0.3,0.2,0.8,0.3,1.5,0.3c0.7,0,1.2-0.1,1.5-0.3c-0.1-1.9-0.1-3.8-0.2-5.6c-0.1-1.8-0.1-3.6-0.1-5.5  c0-1.8,0-3.7,0.1-5.5c0.1-1.9,0.2-3.8,0.2-5.7c-0.3-0.3-0.8-0.4-1.5-0.3c-0.7,0-1.3,0.1-1.5,0.3c0,0.4,0,1.1-0.1,2.1s-0.2,2-0.4,2.9  c-0.2,0.9-0.5,1.4-0.9,1.5c-0.8,0.3-1.8,0.4-3.1,0.4c-1.3,0-2.6,0-4,0h-16.6c-0.1,0-0.2-0.1-0.3-0.2c-0.1-2.1-0.1-4.5-0.2-7.2  c-0.1-2.6-0.1-5.1-0.1-7.4c0-2.7,0-5.2,0.1-7.7c0.1-2.5,0.1-4.9,0.2-7.2c0.1-0.1,0.1-0.2,0.2-0.2H163h0.6h0.6c1.2,0,2.4,0,3.4,0  c1,0,1.9,0.1,2.5,0.3c0.4,0.1,0.7,0.6,0.9,1.6c0.2,0.9,0.3,1.9,0.4,2.9c0.1,1,0.1,1.8,0.1,2.1c0.3,0.2,0.8,0.3,1.5,0.3  c0.7,0,1.2-0.1,1.5-0.3c-0.1-1.9-0.1-3.8-0.2-5.6c-0.1-1.8-0.1-3.6-0.1-5.5C174.2,405.4,174.2,403.5,174.3,401.7 M174.6,343.2  c0-0.8,0.1-1.7,0.4-2.8c0.3-1.1,0.6-1.9,0.8-2.5c0.1-0.3,0.2-0.6,0.3-1.1c0.1-0.5,0.1-0.8,0-1.2c-2.9-0.3-5.7-0.7-8.5-1.1  c-2.7-0.4-5.4-0.8-7.9-1.4c-0.1,0.1-0.3,0.3-0.5,0.6c-0.2,0.3-0.3,0.7-0.2,1.1c0,0.7,0.2,1.2,0.5,1.4c3.3,0.7,6.1,1.8,8.3,3.3  c2.2,1.5,3.3,3.4,3.3,5.8v12.3h-48.5c-1.4,0-2.8,0-4,0c-1.2,0-2.2-0.2-3-0.4c-0.3-0.1-0.6-0.6-0.9-1.5c-0.3-0.9-0.4-1.9-0.5-3  c-0.1-1-0.1-1.8-0.1-2.1c-0.3-0.2-0.7-0.3-1.4-0.3c-0.6,0-1.1,0.1-1.4,0.3c0.1,1.9,0.2,3.9,0.3,5.7c0.1,1.9,0.1,3.7,0.1,5.6  c0,1.9,0,3.7-0.1,5.5c-0.1,1.8-0.2,3.7-0.3,5.6c0.3,0.3,0.7,0.4,1.4,0.3c0.6,0,1.1-0.1,1.4-0.3c0-0.4,0-1.1,0.1-2.1  c0.1-1,0.3-2,0.5-2.9c0.3-0.9,0.6-1.4,0.9-1.6c0.8-0.3,1.8-0.4,3-0.4c1.2,0,2.6,0,4,0h48.5v12.1c0,2.4-1.1,4.3-3.3,5.8  c-2.2,1.5-5,2.6-8.3,3.2c-0.3,0.2-0.5,0.6-0.5,1.4c-0.1,0.5,0,0.8,0.2,1.2c0.2,0.3,0.4,0.6,0.5,0.7c2.5-0.5,5.2-1,7.9-1.4  c2.7-0.4,5.6-0.8,8.5-1.1c0.1-0.3,0.2-0.5,0.2-0.7c0-0.2-0.1-0.6-0.4-1.1c-0.3-0.6-0.6-1.5-0.9-2.7c-0.3-1.2-0.5-2.2-0.5-3V343.2z   M174.3,257.9c0.1-1.9,0.2-3.8,0.2-5.7c-0.3-0.3-0.7-0.4-1.4-0.3c-0.6,0-1.1,0.1-1.4,0.3c0,0.4,0,1.1-0.1,2.1c-0.1,1-0.2,2-0.4,3  c-0.2,0.9-0.5,1.4-0.9,1.5c-0.8,0.3-1.8,0.4-3.1,0.4c-1.3,0-2.6,0-4,0h-40.6c-1.4,0-2.8,0-4,0c-1.2,0-2.2-0.2-3-0.4  c-0.3-0.1-0.6-0.6-0.9-1.5c-0.3-0.9-0.4-1.9-0.5-3c-0.1-1-0.1-1.8-0.1-2.1c-0.3-0.2-0.7-0.3-1.4-0.3c-0.6,0-1.1,0.1-1.4,0.3  c0,1.9,0,3.7,0.1,5.5c0.1,1.8,0.1,3.7,0.1,5.9c0,6.4-0.1,12.1-0.2,17.1c-0.1,5.1-0.2,10.2-0.2,15.3c2.1,0.3,4.6,1,7.5,2.1  c2.9,1.1,5.7,2.1,8.3,3c0.4-0.4,0.6-1.2,0.6-2.3c0-0.8-0.2-1.2-0.6-1.4c-2-0.8-3.9-1.6-5.6-2.4c-1.7-0.8-3-2-3.9-3.5  c-0.8-1.3-1.5-3.1-1.9-5.3c-0.5-2.2-0.7-4.4-0.7-6.7v-4.6c0-2,0-3.5,0.1-4.4c0.1-0.9,0.4-1.7,0.8-2.4c0.2-0.3,1-0.4,2.4-0.4  c1.4,0,2.6,0,3.5,0h0.6h18.1c0.3,0,0.5,0.4,0.6,1.2c0.1,0.8,0.2,1.7,0.2,2.8c0,1.1,0,2,0,2.9c0,1.2,0,2.5,0,3.9  c0,1.4-0.1,2.7-0.2,3.8c-0.1,1.2-0.3,1.9-0.5,2.2c-0.2,0.3-0.4,0.6-0.7,0.8c-0.3,0.2-0.8,0.5-1.7,0.8c-0.8,0.3-2.1,0.7-3.9,1.1  c-0.5,0.2-0.7,0.7-0.7,1.5c0,0.8,0.1,1.3,0.4,1.6h17.9c0.3-0.3,0.5-0.9,0.5-1.7c0-0.8-0.2-1.3-0.7-1.4c-1.6-0.4-2.8-0.7-3.7-1.1  c-0.9-0.3-1.6-0.8-2-1.4c-0.5-0.6-0.7-1.5-0.9-2.8c-0.1-1.3-0.2-3-0.2-5.3v-5c0-1,0-2,0.1-2.8c0.1-0.8,0.2-1.3,0.5-1.3h17.7h1.1  c1.1,0,2.2,0,3.2,0c1,0,1.9,0.1,2.5,0.3c0.3,0.1,0.5,0.6,0.7,1.6c0.1,0.9,0.2,1.9,0.2,2.9c0,1,0,1.8,0,2.1v8.2  c0,2.5-0.5,4.7-1.6,6.6c-1,1.9-3.5,3.3-7.3,4.4c-0.5,0.1-0.7,0.5-0.7,1.4c0,0.8,0.2,1.3,0.5,1.7c2.1-0.5,4.2-0.9,6.2-1.5  c2-0.5,4.2-0.9,6.6-1.3c0-5.1-0.1-10.4-0.3-15.8c-0.2-5.4-0.3-10.3-0.3-14.8C174.2,261.6,174.2,259.8,174.3,257.9 M163.2,211.5h0.6  h0.7c1.2,0,2.4,0,3.5,0c1.1,0,1.9,0.1,2.4,0.3c0.5,0.2,0.7,0.9,0.8,2.1c0.1,1.2,0.1,2.1,0.1,2.7c0,4.4-1.2,8-3.5,10.7  c-2.3,2.7-5.6,4-9.8,4c-1.8,0-3.6-0.4-5.3-1.2c-1.7-0.8-3.1-2.1-4.2-3.8c-1.1-1.8-1.7-4.1-1.7-6.9v-7.9H163.2z M143.2,217.2  c0,4.9-0.7,8.6-2.2,11.2c-1.5,2.6-3.4,4.3-5.6,5.2c-2.2,0.9-4.6,1.4-7,1.4c-3.8,0-6.8-0.8-8.8-2.3c-2-1.6-3.4-3.5-4.1-5.8  c-0.7-2.3-1.1-4.7-1.1-7.1c0-1.8,0.1-3.3,0.3-4.5c0.2-1.3,0.7-2.3,1.5-3c0.3-0.2,0.8-0.4,1.7-0.5c0.8-0.1,1.7-0.2,2.7-0.2  c0.9,0,1.6,0,2.1,0h20.6V217.2z M174.3,213.4c-0.1-2.1-0.1-4.2-0.1-6c0-1.8,0-3.7,0.1-5.6c0.1-1.9,0.2-3.8,0.2-5.7  c-0.3-0.3-0.7-0.4-1.4-0.3c-0.6,0-1.1,0.1-1.4,0.3c0,0.4,0,1.1-0.1,2.1c-0.1,1-0.2,2-0.4,3c-0.2,0.9-0.5,1.4-0.9,1.5  c-0.8,0.3-1.8,0.4-3.1,0.4c-1.3,0-2.6,0-4,0h-40.6c-1.4,0-2.8,0-4,0c-1.2,0-2.2-0.2-3-0.4c-0.3-0.1-0.6-0.6-0.9-1.5  c-0.3-0.9-0.4-1.9-0.5-3c-0.1-1-0.1-1.8-0.1-2.1c-0.3-0.2-0.7-0.3-1.4-0.3c-0.6,0-1.1,0.1-1.4,0.3V218c0.1,3.6,0.5,7.3,1.2,11  c0.7,3.7,2.1,6.7,3.9,9c1.9,2.3,4.1,4,6.4,4.9c2.3,0.9,4.9,1.4,7.6,1.4c2.3,0,4.4-0.5,6.3-1.5c1.9-1,3.5-2.2,4.8-3.7  c1.3-1.5,2.4-3.1,3.1-4.6c0.7-1.6,1.1-2.9,1.2-4.1c0.1-0.2,0.3-0.2,0.4,0c0.5,1.1,1.3,2.4,2.5,3.9c1.2,1.5,2.8,2.9,4.8,4  c1.9,1.1,4.1,1.7,6.5,1.7c2.7,0,5-0.6,6.8-1.8c1.8-1.2,3.3-2.7,4.3-4.6c1.1-1.9,1.9-4,2.3-6.2c0.5-2.3,0.7-4.5,0.7-6.6  C174.4,218,174.3,215.5,174.3,213.4"/>
<path class="st0" d="M154,72.4c-9.8,6.3-20.4,11.4-30.7,17.1c-8,4.4-16.1,8.5-21.8,15.7c-0.1,0.2-0.2,0.3-0.4,0.5  c-0.1-0.2-0.2-0.3-0.4-0.5C95.1,98,87,93.8,79,89.5c-10.3-5.6-20.9-10.8-30.7-17.1c-8.8-5.6-14.9-13.2-14-24.2  c0.7-9.2,4.6-16.5,13.6-20.5c8.8-3.9,17.7-5,26.2,1.4c4.9,3.7,10.3,7,15.8,10.1c3.4,1.9,7.2,3.1,11.3,2.9c4.1,0.2,7.8-0.9,11.3-2.9  c5.4-3.1,10.8-6.3,15.8-10.1c8.5-6.4,17.4-5.3,26.2-1.4c9,4,12.9,11.3,13.6,20.5C168.9,59.2,162.8,66.8,154,72.4 M154.6,23.6  c-12.6-4.2-25.2-4.4-37.9,0.2c-4.9,1.8-10.1,2.9-15.4,4.2c-5.4-1.3-10.5-2.5-15.4-4.2c-12.7-4.5-25.3-4.4-37.9-0.2  c-19.3,6.5-29.5,23.5-24,40.3c3.1,9.4,10.2,15.9,18.7,20.9c10.1,5.9,20.7,11.1,30.9,17c5.4,3.1,10.7,6.6,15.2,10.7  c7.2,6.6,7.1,18.6,0.5,25.7c-6.7,7.2-18.5,8.6-26.9,3.1c-5.6-3.6-10.9-7.5-16.6-11c-4.5-2.7-9.5-3.9-15.1-3.3v15  c7.5,1.6,14.5,3.1,21.5,4.5c14.4,2.9,28.4,1.6,41.3-5.3c3.3-1.8,5.9-4.1,8-6.7c2.1,2.6,4.7,4.9,8,6.7c12.9,6.9,26.9,8.2,41.3,5.3  c7-1.4,13.9-2.9,21.5-4.5v-15c-5.6-0.7-10.7,0.6-15.1,3.3c-5.7,3.4-11,7.3-16.6,11c-8.3,5.4-20.2,4-26.9-3.1  c-6.6-7.1-6.7-19.1,0.5-25.7c4.5-4.1,9.8-7.6,15.2-10.7c10.1-5.9,20.8-11,30.9-17c8.5-5,15.7-11.5,18.7-20.9  C184,47.1,173.9,30.1,154.6,23.6"/>
<path class="st0" d="M173.1,95.4v-2.1h1.8c0.2,0,0.4,0,0.6,0c0.2,0,0.4,0.1,0.5,0.1c0.1,0.1,0.3,0.2,0.4,0.3  c0.1,0.1,0.1,0.3,0.1,0.6c0,0.3-0.1,0.5-0.2,0.7c-0.1,0.1-0.3,0.3-0.5,0.3c-0.2,0.1-0.5,0.1-0.7,0.1h-0.7H173.1z M175.3,96  c0.3,0,0.5,0,0.8-0.1c0.2-0.1,0.5-0.2,0.6-0.3c0.2-0.1,0.3-0.3,0.4-0.5c0.1-0.2,0.1-0.5,0.1-0.7c0-0.5-0.2-0.9-0.5-1.1  c-0.3-0.3-0.9-0.4-1.7-0.4h-2.8v5.9h0.8V96h1.4l1.8,2.7h0.9L175.3,96z M172.5,100c-0.6-0.2-1.1-0.6-1.5-1c-0.4-0.4-0.7-0.9-1-1.5  c-0.2-0.6-0.4-1.2-0.4-1.8c0-0.6,0.1-1.2,0.4-1.8c0.2-0.6,0.6-1,1-1.5c0.4-0.4,0.9-0.7,1.5-1c0.6-0.2,1.2-0.4,1.9-0.4  c0.7,0,1.3,0.1,1.9,0.4c0.6,0.2,1.1,0.6,1.5,1c0.4,0.4,0.7,0.9,1,1.5c0.2,0.6,0.4,1.2,0.4,1.8c0,0.7-0.1,1.3-0.4,1.8  c-0.2,0.6-0.6,1-1,1.5c-0.4,0.4-0.9,0.7-1.5,1c-0.6,0.2-1.2,0.4-1.9,0.4C173.7,100.4,173.1,100.3,172.5,100 M176.6,100.7  c0.7-0.3,1.3-0.7,1.8-1.1c0.5-0.5,0.9-1,1.2-1.7c0.3-0.6,0.4-1.3,0.4-2.1c0-0.7-0.1-1.4-0.4-2.1c-0.3-0.6-0.7-1.2-1.2-1.7  c-0.5-0.5-1.1-0.9-1.8-1.1c-0.7-0.3-1.4-0.4-2.2-0.4c-0.8,0-1.5,0.1-2.2,0.4c-0.7,0.3-1.3,0.7-1.8,1.1c-0.5,0.5-0.9,1-1.2,1.7  c-0.3,0.6-0.4,1.3-0.4,2.1c0,0.7,0.1,1.4,0.4,2.1c0.3,0.6,0.7,1.2,1.2,1.7c0.5,0.5,1.1,0.9,1.8,1.1c0.7,0.3,1.4,0.4,2.2,0.4  C175.2,101.1,175.9,100.9,176.6,100.7"/>
</svg>