<?xml version="1.0" encoding="utf-8"?>
<!-- Generator: Adobe Illustrator 28.0.0, SVG Export Plug-In . SVG Version: 6.00 Build 0)  -->
<svg version="1.1" id="Laag_1" xmlns="http://www.w3.org/2000/svg" xmlns:xlink="http://www.w3.org/1999/xlink" x="0px" y="0px"
	 viewBox="0 0 1000 1000" style="enable-background:new 0 0 1000 1000;" xml:space="preserve">
<style type="text/css">
	.st0{fill:none;stroke:#4A4A49;stroke-width:4;stroke-linecap:round;stroke-linejoin:round;stroke-miterlimit:10;}
	.st1{fill:#4A4A49;stroke:#4A4A49;stroke-width:4;stroke-miterlimit:10;}
</style>
<path class="st0" d="M490.4,143.5c-16.2,3.1-32.5,6.2-48.7,9.2c-29.1,5.5-55.2,17.9-79.6,33.7c-54.2,35.2-96.8,83.5-133.1,137.7
	c-26.1,39-46.8,81.7-57.6,128c-11.9,51.2-15.9,102.4-3.4,156c13.8,58.9,43.2,104.4,84.2,144c39.6,38.2,86.4,63.4,137.9,78.5
	c22.3,6.6,45.6,8.9,68.8,10c33.5,1.6,67.4,0.6,100.1-5.4c93.4-17.2,174.7-58.9,228.2-144.2c30.9-49.3,47-105.4,51.1-165.3
	c5.1-74.7-5.7-145.3-42.8-210c-43.1-75.3-102.2-129.6-184.6-154.8c-39.3-12-78.5-18.5-119.2-17.5"/>
<g>
	<path class="st1" d="M374.1,563c-1.5-1.2-2.2-2.7-2.2-4.5v-0.8c2.8-3.4,5.6-9,8.4-16.9c1.3-3.8,2.3-6.5,3.2-8.2
		c8.3-18.4,14.3-35,18.1-49.7c3.8-14.8,5.7-30.4,5.7-46.8c0-17.6-3.4-26.6-10.1-27c-2.2,1.1-3.8,4.4-4.6,9.9c-0.3,2.3-1,4.1-2.1,5.6
		c-1.1,1.5-2.5,2.2-4.2,2.2c-3.4,0-5.1-2.2-5.1-6.5c0-6.6,2-12.2,5.9-16.6c2.1-2.2,4.6-3.4,7.6-3.4v-0.2c4.8,0,8.8,1.1,12,3.2
		c2.4,1.4,4.6,4.1,6.7,8c1.1,2.3,2.2,6,3.2,11.2c0.3,2.5,0.5,4.9,0.5,7.1c0.1,2.2,0.2,3.8,0.3,4.7v5.7c0,9.6-1.2,19.9-3.5,31.1
		c-2.3,11.2-5.1,21.1-8.3,29.8c-3.7,10-7.3,19.5-11,28.5c-4.4,11-7.5,19.4-9.5,25.3c8-1.4,16.3-2.1,24.9-2.1c3,2.1,4.4,4.1,4.4,5.9
		c0,1.7-0.9,3.2-2.7,4.6c-2.7,0-6.5,0.2-11.4,0.6l-4.6,0.2c-5.9,0.7-11.3,1.1-16.2,1.1C377.4,564.8,375.6,564.2,374.1,563z"/>
	<path class="st1" d="M483,531c-2-1.2-3.6-2.7-4.8-4.4c-1.2-1.7-1.8-3.4-1.8-5.1v-1.9c-0.1-0.5-0.1-1.2-0.1-1.9
		c0-4,1.5-8.1,4.4-12.1c0.4-0.9,1.6-2.1,3.7-3.6c2-1.5,3.5-2.2,4.3-2.2c2.7,0,5.1,0.5,7.2,1.4c2.1,0.9,3.7,2.2,4.8,3.9
		c1.9,3.2,2.8,6.3,2.8,9.4c0,3-0.5,5.9-1.5,8.6c-1.4,3.9-3.6,6.6-6.7,8.4c-1.9,0.9-3.9,1.4-6.1,1.4C487,532.8,485,532.2,483,531z"/>
	<path class="st1" d="M542.7,563c-1.5-1.2-2.2-2.7-2.2-4.5v-0.8c2.8-3.4,5.6-9,8.4-16.9c1.3-3.8,2.3-6.5,3.2-8.2
		c8.3-18.4,14.3-35,18.1-49.7c3.8-14.8,5.7-30.4,5.7-46.8c0-17.6-3.4-26.6-10.1-27c-2.2,1.1-3.8,4.4-4.6,9.9c-0.3,2.3-1,4.1-2.1,5.6
		c-1.1,1.5-2.5,2.2-4.2,2.2c-3.4,0-5.1-2.2-5.1-6.5c0-6.6,2-12.2,5.9-16.6c2.1-2.2,4.6-3.4,7.6-3.4v-0.2c4.8,0,8.8,1.1,12,3.2
		c2.4,1.4,4.6,4.1,6.7,8c1.1,2.3,2.2,6,3.2,11.2c0.3,2.5,0.5,4.9,0.5,7.1c0.1,2.2,0.2,3.8,0.3,4.7v5.7c0,9.6-1.2,19.9-3.5,31.1
		c-2.3,11.2-5.1,21.1-8.3,29.8c-3.7,10-7.3,19.5-11,28.5c-4.4,11-7.5,19.4-9.5,25.3c8-1.4,16.3-2.1,24.9-2.1c3,2.1,4.4,4.1,4.4,5.9
		c0,1.7-0.9,3.2-2.7,4.6c-2.7,0-6.5,0.2-11.4,0.6l-4.6,0.2c-5.9,0.7-11.3,1.1-16.2,1.1C546,564.8,544.2,564.2,542.7,563z"/>
	<path class="st1" d="M605.9,583.1c-1.4,0-2.2-0.6-2.5-1.9V580l5.1-6.3c1.8-2.5,3-4.8,3.6-7c0.1-0.4,0.2-1.1,0.2-1.9
		c0-0.9-0.1-1.5-0.2-1.9c-2.2,0-4-0.7-5.2-2c-1.2-1.3-2-3.4-2.4-6.2c-0.4-2.5,0.3-4.5,2.2-5.8c1.9-1.3,4.3-2,7.3-2
		c4.4,0,7,2.3,7.8,7c0.6,3.5-0.4,8.2-3,13.9c-2.5,5.8-5.8,10.5-9.7,14.1c-0.8,0.7-1.7,1.1-2.5,1.3H605.9z"/>
	<path class="st1" d="M644.4,561.2c0-1.5,0.6-2.7,1.9-3.6c1.3-0.8,2.7-1.3,4.4-1.3c2.2,0,4.1,0.6,5.5,1.9c3.1-1.1,5.7-4.8,7.8-11.1
		c2.1-6.2,3.2-12.1,3.2-17.6c0-7-0.1-13-0.2-17.9c-0.4-6.3-1.1-12-2.1-17.1c-0.6-3-1.2-5.4-1.9-7.4c-0.7-2-1.8-4.1-3.2-6.5
		c-2-3.5-5.2-6.2-9.7-8c-2.4-0.7-4.7-1.1-7-1.1c-3.2,0-5.4-1.3-6.5-4c-0.7-2.1-1.1-4.8-1.1-8c0-1.1,0.2-3,0.6-5.5l0.4-5.3
		c0-6.5-0.4-12.4-1.1-17.9l-2.7-17.5l-1.3-8.6l3.6-3.8h17.1c5.9,0,8.9,1.8,8.9,5.5v1.1l-4,3.2h-5.3v-0.6H643c0.1,7,1.5,23.8,4,50.2
		l4.2,0.4c3.1,0.3,6,0.8,8.9,1.5c1.5,0.4,2.9,1.1,4,1.9c3,2.1,5.6,6.8,7.8,14c2.2,7.3,3.7,14.7,4.4,22.5c0.7,7.5,1.1,13.5,1.1,18.1
		c0,6.5-0.1,11.8-0.4,16c-0.1,3-0.4,5.3-0.8,7.1c-0.4,1.7-1.1,4.1-2.1,7.1c-0.8,2.4-1.9,4.5-3.1,6.3c-1.2,1.8-2.8,3.8-4.7,5.9
		c-2,2-4.2,4-6.7,6.1h-1.5h-2.1C648.2,567.1,644.4,565.1,644.4,561.2z"/>
</g>
<path class="st0" d="M271.7,508.8c-16.7,2.7-33.5,4.9-50,8.6c-4.3,1-8.5,0.4-12.6,1.3"/>
<path class="st0" d="M806.1,501.4c-37.5-0.1-19.8-0.7-56.6,4.9"/>
<path class="st0" d="M517.8,195.5c0,17.5,0,35,0,52.5"/>
<path class="st0" d="M314,628.2c-12.9,11-26.2,21.5-38.4,33.2c-3.2,3.1-7.1,4.7-10.1,7.6"/>
<path class="st0" d="M768,346.1c-32.1,19.3-17.3,9.6-45.9,33.4"/>
<path class="st0" d="M646.3,694.3c9,15,18.1,30,27.1,45"/>
<path class="st0" d="M363.1,232.8c9,15,18.1,30,27.1,45"/>
<path class="st0" d="M661.2,236.3c-18.3,32.7-10.3,16.9-23.3,51.8"/>
<path class="st0" d="M728.1,599c15.3,8.5,30.5,17.1,45.8,25.6"/>
<path class="st0" d="M253.4,338.5c15.3,8.5,30.5,17.1,45.8,25.6"/>
</svg>
