<?xml version="1.0" encoding="utf-8"?>
<!-- Generator: Adobe Illustrator 28.0.0, SVG Export Plug-In . SVG Version: 6.00 Build 0)  -->
<svg version="1.1" id="Laag_1" xmlns="http://www.w3.org/2000/svg" xmlns:xlink="http://www.w3.org/1999/xlink" x="0px" y="0px"
	 viewBox="0 0 1000 1000" style="enable-background:new 0 0 1000 1000;" xml:space="preserve">
<style type="text/css">
	.st0{fill:#4A4A49;stroke:#4A4A49;stroke-width:4;stroke-linecap:round;stroke-linejoin:round;stroke-miterlimit:10;}
	.st1{fill:none;stroke:#4A4A49;stroke-width:4;stroke-linecap:round;stroke-linejoin:round;stroke-miterlimit:10;}
	.st2{fill:#4A4A49;}
</style>
<path class="st0" d="M511.4,524.7c-2.1-1.3-3.7-2.8-5-4.6c-1.3-1.8-1.9-3.6-1.9-5.3v-2c-0.1-0.5-0.1-1.2-0.1-2
	c0-4.2,1.5-8.4,4.6-12.6c0.4-1,1.7-2.2,3.8-3.8c2.1-1.5,3.6-2.3,4.5-2.3c2.8,0,5.3,0.5,7.5,1.5c2.2,1,3.9,2.3,5,4c2,3.3,3,6.6,3,9.8
	c0,3.1-0.5,6.1-1.6,9c-1.4,4-3.8,6.9-7,8.7c-2,1-4.1,1.5-6.3,1.5C515.6,526.6,513.5,526,511.4,524.7z"/>
<path class="st1" d="M489.9,135.6c-16.9,3.3-33.9,6.4-50.8,9.6c-30.4,5.7-57.6,18.7-83.1,35.2c-56.6,36.8-101.1,87.2-139,143.8
	c-27.3,40.7-48.9,85.4-60.1,133.7c-12.5,53.5-16.6,107-3.5,163c14.4,61.5,45.1,109.1,88,150.4c41.4,39.9,90.2,66.2,144,82
	c23.3,6.9,47.7,9.3,71.9,10.5c35,1.7,70.3,0.7,104.6-5.6c97.5-18,182.4-61.5,238.3-150.7c32.3-51.5,49.1-110,53.4-172.6
	c5.3-78-6-151.7-44.7-219.3C763.7,236.9,702,180.2,616,153.9c-41-12.5-82-19.4-124.5-18.3"/>
<path class="st1" d="M261.5,517.1c-17.4,2.9-35,5.1-52.3,9c-4.5,1-8.8,0.4-13.2,1.3"/>
<path class="st1" d="M819.7,509.4c-39.1-0.1-20.6-0.8-59.1,5.1"/>
<path class="st1" d="M523.3,755.3c0,18.3,0,36.6,0,54.8"/>
<path class="st1" d="M518.6,189.8c0,18.3,0,36.6,0,54.8"/>
<path class="st1" d="M305.7,641.8c-13.5,11.4-27.3,22.5-40.1,34.6c-3.4,3.2-7.4,4.9-10.6,7.9"/>
<path class="st1" d="M779.9,347.1c-33.5,20.1-18.1,10-48,34.9"/>
<path class="st1" d="M652.8,710.8c9.4,15.7,18.9,31.3,28.3,47"/>
<path class="st1" d="M357,228.8c9.4,15.7,18.9,31.3,28.3,47"/>
<path class="st1" d="M402.6,723.4c-6,16.6-12.6,33.1-17.7,50c-1.3,4.4-4,7.9-5.3,12.1"/>
<path class="st1" d="M668.3,232.4c-19.1,34.1-10.7,17.6-24.4,54.1"/>
<path class="st1" d="M738.2,611.3c16,8.9,31.9,17.8,47.9,26.8"/>
<path class="st1" d="M242.4,339.3c16,8.9,31.9,17.8,47.9,26.8"/>
<g>
	<path class="st2" d="M319.3,606.8c-2.1-1.7-3.2-3.9-3.2-6.5v-1.2c4-4.8,8.1-12.9,12.1-24.2c1.8-5.4,3.3-9.4,4.5-11.8
		c11.9-26.4,20.5-50.2,26-71.3c5.4-21.2,8.2-43.5,8.2-67.1c0-25.2-4.8-38.1-14.5-38.7c-3.2,1.6-5.4,6.3-6.6,14.2
		c-0.4,3.2-1.4,5.9-3,8c-1.6,2.1-3.6,3.2-6,3.2c-4.8,0-7.3-3.1-7.3-9.4c0-9.5,2.8-17.4,8.5-23.9c3-3.2,6.7-4.8,10.9-4.8V373
		c6.8,0,12.6,1.5,17.2,4.5c3.4,2,6.7,5.8,9.7,11.5c1.6,3.2,3.1,8.6,4.5,16c0.4,3.6,0.6,7,0.8,10.1c0.1,3.1,0.3,5.4,0.5,6.8v8.2
		c0,13.7-1.7,28.6-5,44.6c-3.3,16-7.3,30.3-11.9,42.8c-5.2,14.3-10.5,27.9-15.7,40.8c-6.2,15.7-10.8,27.8-13.6,36.3
		c11.5-2,23.4-3,35.7-3c4.2,3,6.3,5.8,6.3,8.5c0,2.4-1.3,4.6-3.9,6.6c-3.8,0-9.3,0.3-16.3,0.9l-6.7,0.3c-8.5,1-16.2,1.5-23.3,1.5
		C324,609.3,321.4,608.5,319.3,606.8z"/>
	<path class="st2" d="M441,608.4c-1.8-3-2.7-6.3-2.7-10v-0.9c1-4,1.5-7.7,1.5-10.9c0-3.6-0.3-8.6-0.9-14.8
		c-0.8-5.8-1.2-10.8-1.2-14.8v-6.7c0.2-1.8,0.3-3.9,0.3-6.3c0-2.2-0.2-5.3-0.6-9.4l-7.9,0.9c-4,0.6-7,0.9-8.8,0.9
		c-3.8,0-7.8-1.6-11.8-4.8c0-4.2,0.5-8.2,1.5-11.8c-1-5-1.5-10.7-1.5-16.9c0-5.8,0.8-16.2,2.4-31.1c1.4-12.9,2.1-23.1,2.1-30.5
		v-55.9c0-2.6,0.7-4.2,2.1-4.8c1-0.6,2.2-0.9,3.6-0.9c2.6,0,4.8,0.7,6.5,2c1.7,1.3,2.6,3.1,2.6,5.3c0,4.4-0.2,8.4-0.6,11.8
		l-0.6,11.8v2.7c-0.2,0.8-0.3,1.7-0.3,2.7c0,1.6,0.2,3.4,0.6,5.4v1.2c0.6,5,0.9,10.4,0.9,16c0,9.9-0.7,22.7-2.1,38.4
		c-1.4,15.7-2.1,28.5-2.1,38.4c0,1.4,0.2,3.7,0.6,7c4.6-0.4,8.3-1,10.9-1.8c0-7.3,0.5-21.5,1.5-42.6c0.8-16.9,1.2-30.8,1.2-41.7
		c0-2,0.9-3.7,2.6-5c1.7-1.3,3.5-2,5.3-2l4.8,5.4v14.5c0,26.2-0.2,49.6-0.6,70.1c0.2,0,0.6,0,1.1-0.2c0.5-0.1,1.4-0.2,2.6-0.2
		c1.4-0.2,3.1-0.3,5.1-0.3c6,0,9.1,2.1,9.1,6.3c0,4.8-4,7.3-12.1,7.3c-3.4,0-5.1,0.9-5.1,2.7c0,8.5,0.3,18.3,0.9,29.5
		c0.6,11.2,1.4,17.8,2.4,19.8c-0.4,1.6-0.6,3.5-0.6,5.7c0,2.6,0.4,4.6,1.2,6v5.4c0,3.2-0.6,5.9-1.7,8.2c-1.1,2.2-2.9,3.3-5.3,3.3
		C445.1,613,442.8,611.4,441,608.4z"/>
	<path class="st2" d="M602.7,608.6c-3.8-2.1-7-5.2-9.4-9.2c-4.8-8.5-8-18-9.4-28.7c-1.4-9.3-2.1-20.4-2.1-33.3
		c-0.6-21.8-0.9-48.4-0.9-79.8l-0.3-23.3c-0.2-1.2-0.3-3.2-0.3-6c-0.4-7.7-0.6-12.3-0.6-13.9c1.8-4.2,3.9-6.3,6.4-6.3
		c2.4,0,4.6,1.8,6.5,5.4c1.9,3.6,2.9,7.6,2.9,11.8v82.2c0,8.1,0.7,18.7,2.1,32c1.4,16.5,2.1,27.2,2.1,32c0,14.9,6.4,22.4,19,22.4
		c14.5,0,21.8-54.2,21.8-162.6v-16.9v-2.7c-0.2-0.6-0.3-1.4-0.3-2.4c0-2.4,0.6-4.2,1.7-5.3c1.1-1.1,3.3-1.7,6.5-1.7
		c2.6,0,4.7,0.8,6.2,2.3c1.5,1.5,2.5,3.3,2.9,5.3c0.2,1.2,0.3,3.5,0.3,7c0,3.2-0.3,8.4-0.9,15.4c-0.8,5.8-1.2,10.9-1.2,15.1
		c0,4.6-0.2,8.8-0.6,12.4l-0.6,12.7v2.4c0.2,0.8,0.3,1.7,0.3,2.7c0,89.5-13,134.2-39,134.2C610.8,611.7,606.5,610.7,602.7,608.6z"/>
</g>
</svg>
