<?xml version="1.0" encoding="utf-8"?>
<!-- Generator: Adobe Illustrator 28.0.0, SVG Export Plug-In . SVG Version: 6.00 Build 0)  -->
<svg version="1.1" id="Laag_1" xmlns="http://www.w3.org/2000/svg" xmlns:xlink="http://www.w3.org/1999/xlink" x="0px" y="0px"
	 viewBox="0 0 1000 1000" style="enable-background:new 0 0 1000 1000;" xml:space="preserve">
<style type="text/css">
	.st0{fill:none;stroke:#4A4A49;stroke-width:4;stroke-linecap:round;stroke-linejoin:round;stroke-miterlimit:10;}
</style>
<g>
	<path class="st0" d="M464,321.7c0-53.7-44-97.7-97.7-97.7c-18.4,1.6-158.8-3.3-173.2,3.2c-101.4,19.1-67.8,172-72.9,243
		c-0.1,124.5,158.3,95.3,238.8,97.7c-20.4,61-70.9,104.1-130,104.1v104.2C461.4,766.7,476.4,511.8,464,321.7z"/>
	<path class="st0" d="M878.2,321.7c0-53.7-44-97.7-97.7-97.7c-18.4,1.6-158.8-3.3-173.2,3.2c-101.4,19.1-67.8,172-72.9,243
		c-0.1,124.5,158.3,95.3,238.8,97.7c-20.4,61-70.9,104.1-130,104.1v104.2C875.6,766.7,890.6,511.8,878.2,321.7z"/>
</g>
</svg>
