<?xml version="1.0" encoding="UTF-8"?>
<svg id="Laag_1" data-name="Laag 1" xmlns="http://www.w3.org/2000/svg" viewBox="0 0 31.89 42">
  <defs>
    <style>
      .cls-1 {
        fill: #494948;
        stroke-width: 0px;
      }
    </style>
  </defs>
  <path class="cls-1" d="M28.67,42c-.14,0-.28,0-.42,0-2.67-.07-5.38-.05-8.01-.04-1.12,0-2.25.01-3.37.01H.14v-.38c0-1.26-.03-2.49-.07-3.71-.08-2.69-.15-5.24.15-7.78.67-5.69,4.33-9.8,9.56-10.72,3.28-.58,6.66-.7,10.33-.37,5.24.47,8.69,2.79,10.25,6.89,1.45,3.82,1.85,7.32,1.21,10.68h.01c-.09.43,0,1.49.04,1.65.39,1.3.34,2.24-.13,2.86-.58.76-1.67.91-2.82.91ZM23.6,41.19c1.56,0,3.12.01,4.68.05,1.48.04,2.27-.14,2.62-.61.32-.41.32-1.15.01-2.19-.08-.28-.16-1.34-.08-1.91h-.01c.64-3.26.26-6.65-1.16-10.37-1.45-3.81-4.69-5.97-9.62-6.41-3.61-.32-6.92-.2-10.14.37-4.89.86-8.31,4.72-8.94,10.07-.29,2.49-.22,5.01-.15,7.67.03,1.1.06,2.22.07,3.35h15.99c1.12,0,2.25,0,3.37-.01,1.11,0,2.23-.01,3.36-.01ZM15.07,16.21c-.09,0-.18,0-.27,0-2.77-.17-6.7-3.25-7.07-6.29-.4-3.22.32-5.86,2.07-7.61C11.65.46,14.59-.32,18.08.12c2.97.37,6.15,4.48,6.18,7.99.01,1.4.04,3.52-1.62,5.43l-.09.08c-3.23,1.93-5.98,2.6-7.49,2.6ZM16.24.75c-2.48,0-4.54.72-5.92,2.09-1.58,1.58-2.23,4-1.86,6.99.3,2.47,3.7,5.47,6.37,5.63,1.33.09,4.01-.52,7.27-2.46,1.44-1.69,1.42-3.53,1.4-4.88-.03-3.13-2.92-6.93-5.53-7.25-.6-.07-1.19-.11-1.75-.11ZM22.36,13.29h0,0Z"/>
</svg>