<?xml version="1.0" encoding="UTF-8"?>
<svg id="Laag_1" data-name="Laag 1" xmlns="http://www.w3.org/2000/svg" viewBox="0 0 38.37 41.05">
  <defs>
    <style>
      .cls-1 {
        fill: #494948;
        stroke-width: 0px;
      }
    </style>
  </defs>
  <path class="cls-1" d="M13.6,41.05c-1.9,0-3.48-.97-4.87-1.93-2.14-1.49-3.87-3.53-5.6-6.61C-.21,26.6-.88,20.56,1.13,14.56c1.23-3.68,3.75-4.57,5.65-4.68,2.87-.16,5.35.31,7.57,1.43.85.43,1.69.6,2.51.54-.41-1.08-.33-2.17-.25-3.23.02-.24.04-.48.05-.72,0-.1-.05-.24-.1-.38-.05-.12-.11-.28-.13-.44-.65-.17-1.01-.63-1.34-1.05-.09-.11-.17-.22-.26-.32-.65-.74-1.12-1.58-1.57-2.39-.43-.77-.84-1.5-1.39-2.15-.63.73-1.2,1.43-1.37,2.41-.3,1.75.23,3.17,1.47,3.88.76.44,1.61.78,2.44,1.1.38.15.75.3,1.12.46.19.08.28.3.2.49-.08.19-.3.28-.49.2-.36-.16-.74-.3-1.11-.45-.85-.34-1.73-.69-2.53-1.15-1.5-.86-2.19-2.6-1.83-4.65.21-1.23.94-2.08,1.64-2.89l.34-.4c.13-.16.37-.18.53-.05.14.12.17.32.08.48.64.73,1.1,1.56,1.55,2.37.46.82.89,1.59,1.48,2.26.1.11.19.23.29.35.3.38.54.68.94.79.04-.05.08-.09.14-.13.43-.36.58-.87.74-1.4.06-.18.11-.37.18-.54.77-2.07,1.95-3.37,3.73-4.1.19-.08.41.01.49.2.08.19-.01.41-.2.49-1.57.65-2.62,1.81-3.31,3.67-.06.16-.11.33-.16.5-.18.59-.38,1.26-.97,1.76-.09.08-.11.11.03.46.08.2.17.43.15.69-.01.25-.03.49-.05.74-.08,1.05-.16,2.04.23,2.99,0,.02.01.03.02.05.67-.19,1.33-.54,1.97-1.07,1.42-1.18,3.01-1.84,4.74-1.95,1.25-.08,2.51,0,3.72.08,1.02.07,2.08.14,3.12.11.82,0,1.68.41,2.24.79,2.63,1.76,4.24,4.48,4.78,8.07.72,4.76-.57,9.41-1.84,13.41-1.05,3.32-3.39,5.75-5.71,7.96-1.59,1.53-3.53,2.08-6.08,1.75-1.36-.18-2.71-.59-4.26-1.29-1.38-.63-2.49-.5-3.49.42-.04.04-.08.09-.13.14-.19.21-.53.58-1.05.54-.04.03-.08.06-.13.08-.66.22-1.29.32-1.88.32ZM7.84,10.6c-.33,0-.67,0-1.02.03-2.39.13-4.11,1.57-4.98,4.17-1.94,5.79-1.28,11.63,1.94,17.34,1.68,2.98,3.34,4.94,5.38,6.36,1.66,1.15,3.62,2.32,6.03,1.54.09-.14.26-.21.43-.15.17.06.26-.01.5-.27.06-.07.12-.14.18-.19,1.21-1.12,2.66-1.3,4.31-.55,1.49.68,2.74,1.06,4.04,1.23,2.34.3,4.02-.18,5.46-1.55,2.24-2.14,4.51-4.5,5.51-7.65,1.24-3.91,2.5-8.47,1.81-13.07-.51-3.37-2.01-5.92-4.46-7.56-.66-.44-1.29-.67-1.8-.66-1.07.03-2.15-.04-3.2-.11-1.19-.08-2.42-.16-3.62-.08-1.56.1-3.01.7-4.31,1.78-1.87,1.55-3.96,1.81-6.04.76-1.84-.92-3.86-1.38-6.17-1.38ZM8.67,18.8s-.04,0-.05,0c-.2-.03-.35-.22-.32-.42.02-.17-.04-.38-.11-.6-.16-.5-.39-1.26.52-1.89.81-.55,1.62-.79,2.52-.76.21,0,.37.18.36.39s-.18.37-.39.36c-.76-.03-1.39.16-2.06.63-.44.3-.39.52-.23,1.05.09.28.18.59.14.93-.03.19-.19.32-.37.32Z"/>
</svg>