<?xml version="1.0" encoding="utf-8"?>
<!-- Generator: Adobe Illustrator 28.0.0, SVG Export Plug-In . SVG Version: 6.00 Build 0)  -->
<svg version="1.1" id="Laag_1" xmlns="http://www.w3.org/2000/svg" xmlns:xlink="http://www.w3.org/1999/xlink" x="0px" y="0px"
	 viewBox="0 0 1000 1000" style="enable-background:new 0 0 1000 1000;" xml:space="preserve">
<style type="text/css">
	.st0{fill:none;stroke:#4A4A49;stroke-width:4;stroke-linecap:round;stroke-linejoin:round;stroke-miterlimit:10;}
</style>
<path class="st0" d="M493.6,386.6c-43.2-126.1,22.2-154.7,17.7-165.6c-2.2-0.6-25.2-21.9-27.6-18.9c-66.4,34.6-24,163.8-15,188.8
	c-271.2-85.1-323.7,138.4-178.5,323.1c67.4,70.4,162.9,105.2,254,71.1c116.6,7.1,216.1-56.2,239-182.7
	C826.6,314.8,616,259.4,462.9,412.6"/>
<path class="st0" d="M713,445.9c-4-30.9-29.1-57.3-59.7-62.9"/>
<path class="st0" d="M710.3,449.5"/>
<path class="st0" d="M727.1,525.9c6-15.8,6.6-33.3,1.5-49.4"/>
<path class="st0" d="M364.7,617.6c-4.3,0.6-3.1,8.2,1.2,7.4C370.1,624.5,369,616.9,364.7,617.6z"/>
<path class="st0" d="M353.9,691.9c-4.5-2.8-7.2,4.3-2.5,6.1C355.9,700.8,358.6,693.6,353.9,691.9z"/>
<path class="st0" d="M443.6,664.7c-4.3,0.6-3.1,8.2,1.2,7.4C449.1,671.5,447.9,663.9,443.6,664.7z"/>
<path class="st0" d="M394.7,731.6c-4.8-0.3-5,7.1-0.1,6.5C399.4,738.4,399.6,731,394.7,731.6z"/>
<path class="st0" d="M386.6,672.4c-4.3,0.6-3.1,8.2,1.2,7.5C392.1,679.2,390.9,671.7,386.6,672.4z"/>
<path class="st0" d="M441.6,724.1c-4,3.1,0.8,9.1,4.3,5.1C449.8,726,445,720.1,441.6,724.1z"/>
</svg>
