<?xml version="1.0" encoding="utf-8"?>
<!-- Generator: Adobe Illustrator 28.0.0, SVG Export Plug-In . SVG Version: 6.00 Build 0)  -->
<svg version="1.1" id="Laag_1" xmlns="http://www.w3.org/2000/svg" xmlns:xlink="http://www.w3.org/1999/xlink" x="0px" y="0px"
	 viewBox="0 0 1000 1000" style="enable-background:new 0 0 1000 1000;" xml:space="preserve">
<style type="text/css">
	.st0{fill:none;stroke:#4A4A49;stroke-width:4;stroke-linecap:round;stroke-linejoin:round;stroke-miterlimit:10;}
</style>
<g>
	<path class="st0" d="M682.4,456.4c-104.3-5.6-246.7,2.1-357.2,34.5"/>
	<path class="st0" d="M684.9,519.7c-87.7-8.4-258.5,5.7-357.2,36.9"/>
	<path class="st0" d="M794.5,365c-11.5-29.5-10.4-69.9-52.4-64.8c-29.5-1.1-64,8.5-65.9,42.8c-0.7,55.5,12.5,110,12.2,165.7
		c10.6,48.2-16,161.4,51.3,168.1c73.1,4.2,62.3-47.9,61.4-101.1c5.6-44.4-31.7-223.2,17.9-226.5c26.2-4.4,67.1-8.4,75.2,23.7
		c5.9,20.1-7.2,40.6-0.3,61.3c4.3,75.8,49.1,263-89.6,169.5"/>
	<path class="st0" d="M325.3,557.8c-14.3,47.2,38.4,154.2-24.4,170.9c-29.2,3.6-65.2,13.5-74.9-24.5
		c-19.6-87.7-9.6-179.8-30.9-267.2c-16.7-86.1,106-110.1,120.8-20.6c13.2,45.6-1,95.9,10.5,140.1"/>
	<path class="st0" d="M192.4,433.5c-127.3-29.6-83.9,90.8-80.2,166.9c6.8,33.9,0.6,73.8,26.6,99.9c21.9,14.3,63,6.1,80.4-12.2"/>
	<path class="st0" d="M240,534.7c8.3,22.4,42.1,25.1,54.2,45.1"/>
	<path class="st0" d="M714.1,472.2c13.9,16.8,41.8,22.2,51.2,41.4"/>
	<path class="st0" d="M755.5,428.3c-11.5-16.9-34.5-23.5-50.6-36.6"/>
	<path class="st0" d="M233.3,461.6c16.2,13.3,38.7,20.8,51.2,37.8"/>
	<path class="st0" d="M750.7,365c-11-16.6-27.7-23.4-46.3-26.8"/>
	<path class="st0" d="M234.5,399.4c16.9,12.2,33.7,24.4,50.6,36.6"/>
	<path class="st0" d="M142.5,549.3c6.6,18.3,28.7,30.6,46.3,39"/>
	<path class="st0" d="M248.5,617.5c14.6,11.8,29.2,23.6,43.9,35.3"/>
	<path class="st0" d="M132.7,481.1c14.8,11.1,30,21.7,41.4,36.6"/>
	<path class="st0" d="M828,390.6c8.8,14.5,26.6,20.1,35.3,34.1"/>
	<path class="st0" d="M721.4,552.6c-0.4,2.5,0,5,2.5,6c14.9,6.4,26.1,18.6,40.2,26.3"/>
	<path class="st0" d="M831.1,462.4c4.8,13.2,27.4,16.7,37.8,27.4"/>
	<path class="st0" d="M834.1,553.2c8,12.2,27.4,13.8,33.5,26.2"/>
	<path class="st0" d="M760.4,630.6c-11.1,0.9-20.4-5-30.5-7.9"/>
	<path class="st0" d="M154.7,629.7c2,11,18.3,12.8,25.6,20.7"/>
</g>
</svg>
