<?xml version="1.0" encoding="utf-8"?>
<!-- Generator: Adobe Illustrator 28.0.0, SVG Export Plug-In . SVG Version: 6.00 Build 0)  -->
<svg version="1.1" id="Laag_1" xmlns="http://www.w3.org/2000/svg" xmlns:xlink="http://www.w3.org/1999/xlink" x="0px" y="0px"
	 viewBox="0 0 1000 1000" style="enable-background:new 0 0 1000 1000;" xml:space="preserve">
<style type="text/css">
	.st0{fill:none;stroke:#4A4A49;stroke-width:4.5464;stroke-linecap:round;stroke-linejoin:round;stroke-miterlimit:10;}
</style>
<g>
	<path class="st0" d="M449.2,201.4c-97.6-2.9-59.4,76.2-66.7,140.6c-2.6,137.6-7.2,275.2,0.6,412.5c5.6,42.5,65.8,57.1,101.3,60.1
		c242.1,22.5,170.2-105.9,179-278.4c-2.4-101.2-0.6-202.6-1.9-303.5c2.2-26-42-34-62.5-29.5"/>
	<path class="st0" d="M656.4,243.9c-83.8,30.6-186.3,30.9-268.2-5.5"/>
	<path class="st0" d="M451,203.2c3.6,26.6,5.5,31.4,38.9,34.3c35,2.4,121,13.3,103.5-45.4c-2.6-33-8.2-39.2-40.7-38.6
		c-40,1.8-108.6-12.6-101.7,47.8"/>
	<path class="st0" d="M587.9,173.6c-42.9,19-86.1,17.8-129.5,1.8"/>
	<path class="st0" d="M523.2,486.3c-3.7-16.2,26.2-83.3,24-86.9c-18,8.7-90.6,135-90.6,135c19.6-6.5,40-9.1,61.3-13.2
		c2.5,34.8-23.9,65.8-15,100.1l70.3-149.8c-22,2.4-39.8,15.2-59.2,24"/>
</g>
</svg>
