<?xml version="1.0" encoding="utf-8"?>
<!-- Generator: Adobe Illustrator 28.0.0, SVG Export Plug-In . SVG Version: 6.00 Build 0)  -->
<svg version="1.1" id="Laag_1" xmlns="http://www.w3.org/2000/svg" xmlns:xlink="http://www.w3.org/1999/xlink" x="0px" y="0px"
	 viewBox="0 0 1000 1000" style="enable-background:new 0 0 1000 1000;" xml:space="preserve">
<style type="text/css">
	.st0{fill:none;stroke:#4A4A49;stroke-width:4.2;stroke-linecap:round;stroke-linejoin:round;stroke-miterlimit:10;}
</style>
<g>
	<g>
		<path class="st0" d="M730.9,897.6c2.5-2.6,2.3-5.9,1.9-9c-2-14.9-1.1-29.8-0.5-44.7c0.5-12.1,6.4-107.8,5.8-121.1
			c-0.4-8.8,0.5-17.4,0.6-26.1c0.1-8.1,0.8-173,1.3-190.8c0.4-12.7-1.6-25.4-3.7-37.9c-3.6-20.9-17.1-35.5-31.2-49.8
			c-10.7-10.9-22.5-20.2-37.9-23.9c-3.3-0.8-5.3-3-5.3-7.3c0.2-12.3,1.4-24.5,0.2-36.8c-0.8-8.6-1.2-166.8-0.5-180.6
			c0.6-11.1,0-77.2,0.9-85.5c0.3-2.9-0.1-6.2-1.2-9c-0.8-2.2-3.3-3.4-6.1-3.5c-4.6-0.3-9-0.4-13.6,0.4c-7.1,1.2-14.3,0.5-21.5-0.4
			c-7.6-0.9-9,0.8-9.7,8.5c-2.5,27.3-4.1,104.2-2.3,114.8c1,6.2,2.6,169.9,3,177.8c0.1,2.6,0.2,5.3,0.6,7.9c0.6,4.7-1.7,7.9-6.2,6.6
			c-11.8-3.5-20.4,2.4-28.9,8.7c-14.5,10.8-23.1,26.1-31.2,41.8c-6.5,12.6-10.5,25.9-13.8,39.6c-2.2,9-2.5,18.2-4.3,27.2
			c-2.2,11.4-1.4,23.1-1.4,34.5c0,13.4-0.1,26.8,0.3,40.2c0.1,4-5.4,219.5-4,223.5"/>
		<path class="st0" d="M687.6,511c0.6,1.8,1.2,3.6,1.2,5.7c-0.1,8.3,0.8,16.7-0.2,24.9c-1.7,14,0.3,28-1,41.9
			c-3.1,31.7-1.6,63.4-2.4,95.1c-0.3,11.4-1.8,22.6-2.6,34c-0.7,10.3-5.3,64.8-2.5,75"/>
		<path class="st0" d="M692.7,507.9c-12.5,3.8-108.7,2-114.3,3.1"/>
		<path class="st0" d="M522.3,835.9c0.2,0.2,0.5,0.4,0.5,0.6c-0.3,15.1,1.9,30.2,1.2,45.3c-0.2,5.3,0.2,10.6,0.5,15.8
			c0.3,5.4,3.1,8.4,8.5,9c3,0.4,6.1,0.4,9.1,0.4c20.2,0.6,40.3,3.7,60.6,3.1c14.5-0.5,29.1-0.1,43.6-0.1c1.3,0,2.6,0.4,4,0.5"/>
		<path class="st0" d="M582.3,511c-2.9,10.8-1.4,21.9-2.2,32.8c-1.7,24.9-3.7,49.8-4,74.7c-0.2,17.4,0.1,34.7-0.1,52.1
			c-0.1,10.2-1.1,20.4-1,30.6c0.2,14.2,1.4,28.3,1.5,42.5c0,6.6-0.9,13.2-1.1,19.8c-0.3,8.9,1.2,26.6,1.2,26.6s-2.5,2.9,63.1,3.2"/>
		<path class="st0" d="M729.5,910.1c-13,0.4-35.1,1-48.1,1.1c-8.3,0-16.6-0.8-24.9-0.9c-2.1,0-5.4-2.1-6.2,2.1"/>
		<path class="st0" d="M660.4,197.4c-0.9,0-2.1-0.3-2.8,0.1c-10.2,5.2-21.1,3-31.7,3.2c-3,0.1-6.4-0.4-8.9-1.8
			c-2.6-1.4-4.3-0.7-6.3,0.2"/>
	</g>
	<g>
		<path class="st0" d="M416.4,891.2c-2.4,0.7-4.1,2.2-5.7,3.9c-7.7,8.1-17.4,11.8-28.2,13.7c-11.5,2-23.2,2.3-34.8,2
			c-9.4-0.2-18.8-1.2-28.2-2.9c-5.8-1.1-11.7-1.7-17.3-3.9c-4.2-1.7-8.1-3.5-10.9-7.3c-0.4-0.6-0.9-1.3-1.5-1.5
			c-4.4-1.7-4.7-5.7-5.4-9.4c-1.4-7.2-1.4-14.5-1.4-21.8c-0.1-10.4-1.1-20.8-1.5-31.2c-0.4-12.7-1.9-25.5-3.3-38.1
			c-0.6-5.5-1.5-10.9-2.2-16.4c-1.5-11.7-4.1-23.1-7.1-34.5c-2.4-9-4.9-18-7.6-26.9c-4.2-14-7.9-28.2-11.6-42.4
			c-2.4-9.1-4.2-18.4-6.2-27.6c-1.4-6.4-2.1-12.9-2.8-19.4c-0.9-9.1-2-18.1-1.8-27.2c0.1-3.5-0.3-6.9-0.4-10.3
			c0-7.9-0.2-15.8,0.4-23.6c0.7-10.2,1.2-20.4,2.2-30.6c0.7-6.7,1.1-13.5,1.7-20.3c0.2-2,0.1-4.3,1-6c1.4-2.4,1.3-4.4,0.2-6.7
			c0,0,8.7-15.7,109.6-13.3S457,501.7,457,501.7c-0.2,1.8-0.6,3.6,1.1,5.2c1.2,1.2,1.4,3.2,1.6,5.1c0.6,6.2,1.2,12.3,1.8,18.5
			c0.6,6.4,1.3,12.7,1.5,19.1c0.2,10.5,2,21,1.2,31.5c-0.4,5.4,0.5,10.7,0.1,16.1c-0.3,5.3-0.2,10.7-0.7,16
			c-0.7,7.4-1.5,14.8-2.5,22.1c-1.2,8.5-2.9,17-4.5,25.4c-1.7,8.8-3.9,17.4-6.3,26c-2.9,10.4-5.7,20.9-9,31.2
			c-2.5,8-4.7,16.1-7,24.2c-2.8,10-5.4,20.1-6.8,30.3c-2.1,14.5-3.9,29.2-4.7,43.9c-0.4,6.8-1,13.5-1.3,20.3
			c-0.3,7.5-0.7,14.9-1.2,22.4c-0.5,8.2-0.7,16.4-1.4,24.5c-0.1,1.2-0.5,2.2-0.9,3.3c-0.9,2.4-1.9,4.8-0.1,7.3
			c0.4,0.6,0.4,1.6,0.3,2.4c-0.2,5.9-0.2,11.7-0.6,17.6c-0.3,4.6-2,8.3-10.6,10c-10.1,1.9-20.3,3.1-30.6,3.8
			c-8.3,0.5-16.6,1.1-24.8,0.8c-8-0.3-16-0.8-23.9-1.7c-7.1-0.7-14.1-1.6-21.2-2.6c-5.1-0.7-10-1.9-14.9-3.8
			c-5-1.9-7.1-5.4-7.2-10.4c-0.1-4,0-8.1,0-12.1c0-1.8,0.8-3.2,1.8-4.5"/>
		<path class="st0" d="M443.9,644.8c-0.7,4.4-2.2,8.7-3.3,13c-2.7,10.6-5.7,21.1-9.1,31.5c-3.6,11.2-7.3,22.3-10.6,33.6
			c-2.1,7.1-3.8,14.3-5.1,21.5c-1.7,9-2.9,18.1-3.7,27.2c-0.6,6.8-1.5,13.5-2.1,20.3c-0.7,7.6-1.6,15.1-1.9,22.7
			c-0.4,9.5-1.1,19-1.6,28.5"/>
		<path class="st0" d="M399.8,604.3c-9.3-0.6-18.6-1.7-27.8-0.8c-6.5,0.6-13,1.6-19.4,3.2c-9.5,2.3-18.8,1.1-28.2-1.7
			c-8.6-2.6-17.5-4.1-26.6-4c-3.5,0-6.9-0.5-10.3-1.5c-5.3-1.6-10.9-0.9-16.3-0.9c-4.5,0-8.6-0.9-12.7-2.7
			c-4.2-1.9-8.8-2.1-13.3-1.2c-1.6,0.3-3.2,0.5-4.9,0.5"/>
		<path class="st0" d="M279.5,712.9c1.6,5.7,3.2,11.3,4.8,17c3.2,11.3,5.3,22.9,7.3,34.5c1.8,10.5,3.3,21,4.4,31.5
			c0.6,6.1,1.1,12.3,1.5,18.4c0.6,12,0.9,24,1.5,36c0.2,3.9,0.8,7.9,0.8,11.8"/>
		<path class="st0" d="M463.1,586.1c-2.3-0.2-4.3,0.6-6.4,1.5c-13.4,6-27.3,10.4-41.5,14c-4.6,1.2-9.1,2.6-13.9,2.4
			c-0.9,0-1.4,0.2-1.2,1.2"/>
		<path class="st0" d="M381.6,702.7c2.3,0.1,3.7-1.1,4.5-3c0.6-1.5,0.5-2.9-0.6-4.2c-1.4-1.7-3.2-1.8-5.2-1.2c-2,0.6-3,2.2-3,4.2
			c0,2.1,1,3.8,3.3,4.2c0.2,0,0.4,0.2,0.6,0.3"/>
		<path class="st0" d="M368.9,761.4c-2.6,0.5-4.9,2.9-5.1,5.4c-0.2,2.4,1.1,4.6,3.3,5.4c2.1,0.8,4.8-0.1,6.3-2.4
			c1.2-1.9,1.2-4.1,0-6c-0.8-1.2-1.9-2.8-3.9-2.5"/>
		<path class="st0" d="M415.2,625.5c-2.1-3.3-4.3-3.6-6.7-1.2c-1.3,1.3-1.5,2.9-1.1,4.2c0.4,1.2,1.6,2.2,3.2,2.2
			c1.8,0,3.2-0.4,3.9-2.1c0.4-0.9,0.6-1.8,0.9-2.7"/>
		<path class="st0" d="M410.1,856.7c-0.1,6.5-0.2,12.9-0.3,19.4"/>
	</g>
</g>
</svg>
