<?xml version="1.0" encoding="utf-8"?>
<!-- Generator: Adobe Illustrator 28.0.0, SVG Export Plug-In . SVG Version: 6.00 Build 0)  -->
<svg version="1.1" id="Laag_1" xmlns="http://www.w3.org/2000/svg" xmlns:xlink="http://www.w3.org/1999/xlink" x="0px" y="0px"
	 viewBox="0 0 1000 1000" style="enable-background:new 0 0 1000 1000;" xml:space="preserve">
<style type="text/css">
	.st0{fill:none;stroke:#4A4A49;stroke-width:4;stroke-linecap:round;stroke-linejoin:round;stroke-miterlimit:10;}
</style>
<g>
	<g>
		<g>
			<path class="st0" d="M648.3,458.6c-0.2,2.5-1.1,4.4-3.5,5.8C635.5,470,631,479,628,489c-2.8,9-4.8,18.3-6.4,27.6
				c-1.3,7.7-3.2,15.4-4.3,23.2c-1.2,8.7-3,17.3-4.6,26c-1.6,9-3.8,17.9-6.3,26.6c-3.1,11.1-6.8,22-12,32.3
				c-7.2,14.4-16.7,26.9-30.8,35.1c-5.9,3.5-12.5,5.7-19.3,7.1c-8.4,1.6-16.9,2.8-25.4,2.1c-16-1.4-30.6-6.6-43.5-16.4
				c-13.8-10.6-24-24.2-32.6-39.1c-7.8-13.5-13.8-27.8-19.1-42.5c-5.6-15.6-10.3-31.6-14.5-47.6c-2.9-11-5.2-22.2-9-33
				c-2.6-7.4-6-14.5-10.5-20.9c-0.8-1.1-1.2-2.3-1.8-3.5"/>
			<path class="st0" d="M358.8,454.8c-4.1,1.7-8.1,2.8-12.7,1.6c-7.4-1.9-15-1.4-22.5-1.3c-6.6,0.1-13.1,0.2-19.7,0.7
				c-6.6,0.5-13.2,1.9-20.1,1.4c1.2,6.7,2.3,12.7,3.5,18.8c1.5,7.7,3,15.4,4.6,23.1c2.2,10.5,4.7,21,7.5,31.4c1,3.6,1,7.4,1.3,11.1
				c1.3,12.5,0.9,25.2,1.8,37.7c0.4,5.9,0.1,11.8,0.1,17.8c0,11,0.1,22,0,33c-0.3,20.1-0.6,40.2-1.3,60.2
				c-0.4,10.8-0.9,21.6-1.3,32.3c-0.2,7.2-0.6,14.4-1.3,21.6c-0.8,8.5-0.7,16.9-0.3,25.4c0.2,6.2,1,12.5,1.5,18.7
				c0.6,6.4,1.1,12.9,1.6,19.3c1,12.2,1.6,24.3,0.9,36.5c-0.7,11.5-1.1,23-1.1,34.6c0,4.5,1,8.7,2.1,13c0.3,1,0.3,1.9,0.5,2.9"/>
			<path class="st0" d="M711.4,452.2c0.9,0.9,2,1.3,3.1,1.7c0.3,1.8,0.2,3.4-0.2,5.3c-0.8,4.1-0.9,8.4-1.4,12.7
				c-0.7,5.3-0.7,10.6-1.8,15.9c-0.6,2.6-0.2,5.3-0.6,7.9c-0.9,5.7-0.8,11.6-1.5,17.4c-0.8,7.1-0.4,14.2-1.8,21.3
				c-0.1,0.4,0,0.8,0,1.3c-0.8,20.4-2,40.8-1.1,61.2c0.4,9.9,0.5,19.9,0.5,29.8c-0.1,8.2-0.8,16.3-1.6,24.4
				c-0.5,5.1-1,10.4-1.7,15.5c-0.8,6.9-1,13.8-2.3,20.6c-0.5,2.8-0.1,5.7-0.1,8.5c0,4.1-0.1,8.2,0,12.4c0.3,8,1.3,15.9,2.3,23.8
				c0.6,4.4,1.4,8.8,1.6,13.3c0.1,4.7,1.4,9.3,1.7,14c0.2,2.4,0.6,4.8,0.7,7.3c0.6,9.6,1.6,19.2,1.8,28.9c0.2,9.3,0.7,18.6,0.8,27.9
				c0.1,15.9,1.7,31.7,1.1,47.6c-0.3,7.2-1.3,14.4-4.7,20.9c-0.4,0.9-1.1,1.2-1.9,1.6c-3.5,1.7-7.3,1.6-11.1,1.6
				c-7.3-0.1-14.6,0.2-21.9-0.4c-10.5-0.9-20.9-0.8-31.4-1.1c-11.4-0.3-22.8-1.5-34.2-1.3c-2.9,0-5.7-0.4-8.6-0.6"/>
			<path class="st0" d="M618.8,454.3l-18.4,8.1c-4.2,3.7-4.5,9.1-6,14c-1.4,4.4-2.1,9.1-3.2,13.6c-1.3,5.3-2.1,10.8-3.3,16.2
				c-3.2,14.8-2.1,29.8-2.5,44.7c-0.2,7.2-0.6,14.4-1.3,21.6c-1.6,14.6-4.1,29.1-10,42.8c-8.1,18.9-22.6,29.9-42.2,34.9
				c-4.4,1.1-8.9,1.9-13.3,1.8c-11.9-0.2-22.7-4-32-11.6c-11.4-9.4-18.9-21.5-24.8-34.9c-5.5-12.7-9.1-26-12.8-39.3
				c-1.6-6-3.3-12.1-4.7-18.2c-1.8-7.5-3.2-15.2-4.7-22.8c-1.5-7.6-2.8-15.2-4.3-22.9c-1.5-8.1-2.8-16.2-5.2-24.1
				c-1.2-4-2.2-8.4-4.6-11.6c-2.6-3.6-5.5-7.4-9.9-9.4c-1.4-0.6-3.3-1.2-3.9-3.1"/>
			<path class="st0" d="M307,896.8c-0.8-1.6-2.3-2.1-4.4-1.7c-4,0.6-8,0.5-12,0.8c-11.9,0.7-23.9,0.1-35.8,0.3
				c-1.1,0-2.2-0.4-3.2,0.3"/>
			<path class="st0" d="M571.2,892.3c-0.9-0.9-1.9-1.3-3.2-1.3c-15.1-0.2-30.2-1.2-45.3-0.5c-18.8,0.8-37.6,0.2-56.4,0.6
				c-20.8,0.5-41.6,1-62.5,1.3c-16,0.3-31.9,0.9-47.9,1.3c-15.3,0.4-30.6,1.3-46,1.1c-1.3,0-2.3,0.3-3.2,1.3"/>
			<path class="st0" d="M262.7,307.6"/>
			<path class="st0" d="M260.5,235c-0.6-0.1-1,0-1.6-0.6c-11.4-11.4-22.9-22.6-34.1-34c-2.3-2.3-5.4-2.6-7.7-4.6
				c-6.2-5.6-12.7-11-19-16.5c-6.7-5.8-13.7-11.1-21-16.1c-0.7-0.5-1.6-1-2.5-1.4c-4.4-1.6-5.9-3.2-7.6,3.5
				c-1.2,4.9-4.2,8.7-8.2,11.7c-1.6,1.2-3.2,2.5-5,3.8c3,4.9,6.9,9,10.4,13.3c12.2,14.8,24.6,29.4,37.9,43.2
				c6.8,7.1,14.2,13.7,21.1,20.8c10,10.2,19,21.2,27.7,32.5"/>
			<path class="st0" d="M528.1,227.7c-4.1-4.8-6.6-3.8-12.5-2.1c-1.6,0.5-3,0.8-4.6,1c-3.7,0.4-6.2,2.9-7.3,6.5
				c-1.5,5-4.9,8.6-8.6,11.7c-7.9,6.5-16,12.6-24.4,18.5c-12.8,8.9-22.3,20.4-27.6,35.2c-2.2,6.3-3.7,12.8-4.3,19.6
				c-0.6,5.9-0.7,11.9-0.4,17.8c0.4,6.8,0.7,13.7,3,20.3c0.8,2.4,3.2,4.1,2.9,7"/>
			<path class="st0" d="M549,245.8c2.7-1.7,5.7-2.6,8.9-2.9c2.5-0.2,5.1,0.4,7.6-0.6c2.5-1.1,3-2.1,1.6-4.5
				c-1.1-1.9-2.6-3.5-4.1-5.1c-2.5-2.5-5-3.7-9.2-1.2"/>
			<path class="st0" d="M705,296.8c3.2,1.4,2.8,4.7,3.4,7.3c0.4,1.7,0.7,3.2,2,4.4c3.2-0.2,5.1-3.1,7.9-4.2c5.5-2.2,7.9-2,12.1,2
				c1.2,1.1,2.1,2.2,4.2,1.1c1.5-0.7,3.1,1.1,3.7,2.7c2.2,6.7,3.9,13.6,5.2,20.6c1.1,6.2,1.5,12.5,2.1,18.7c0.5,4.7,0.5,9.3,0,14
				c-0.6,5.9-0.9,11.9-2.3,17.7c-1.2,5.2-2.7,10.2-4.3,15.3c-5.8,17.4-14.7,33-26.1,47.2c-0.5,0.6-0.8,1.2-0.9,1.9
				c-1.1,5.4-5.4,7.1-9.8,8.9c-5,2-10.1,1.5-15.2,1.7c-5.9,0.2-11.8,0.7-17.8,0.7c-4.4,0-8.9,0.8-13.4-0.7c-1.3-0.4-3.1,0.7-4.7,1.1
				c-1.1,0.3-2.4,1.2-3.1,0.8c-3.8-2-23.4-6.8-29.2-3.9"/>
			<path class="st0" d="M357.8,278.2"/>
			<path class="st0" d="M326.1,214.4"/>
			<path class="st0" d="M343.6,327.6c-1.5,0-2.7-0.6-3.8-1.6c-10-9.1-17.2-20.4-23.7-32c-11.3-20.4-19.6-42.2-29.9-63.1
				c-3.5-7.1-6.9-14.1-9.4-21.6c-0.2-0.6-0.9-1-0.7-1.9c1.3-5.1-1.9-9-3.5-13.3c-4.7-13.1-10.8-25.5-15.2-38.7
				c-0.7-2.1-2.9-3-3.5-5.1c-1.1-3.7-2.3-7.4-3.5-11.1c-0.6-1.9,0.1-3.3,1.3-4.8c4.1-5.1,9.1-5.9,15.2-2.8c3.8,1.9,6.5,5.3,9.2,8.5
				c6,7,66.1,175.4,71.2,180.3"/>
			<path class="st0" d="M578.5,406.2c1.3,2.4,3.9,3,6,4.1c9.1,4.4,17.7,9.8,24.7,17.2c3.9,4.1,7.3,8.7,8.7,14.5
				c0.5,2.3,1.1,4.7,0.8,7c-0.2,1.7-0.3,3.4,0.1,5.2c-4.2,2-8.7,0.4-13,0.7c-1,0.1-2.1-0.2-3.2-0.2c-13.6,0-27.3,0-40.9,0
				c-7.9,0-15.9-0.5-23.8-0.9c-1.5-0.1-3,0.3-4.4,0.3c-21.1-0.2-42.3-0.6-63.4-0.8c-11.5-0.1-23-0.3-34.6-0.6
				c-5.6-0.1-11.2-0.7-16.8-0.6c-2.4,0.1-4.9-0.5-6.9,1c-0.8,0.6-1.4,0-1.9-0.1c-7.8-1.6-15.6-2.4-23.5-1.6c-1.8,0.2-3.6,0-5.4,0"/>
			<path class="st0" d="M271.9,382.1c3-2.1,5.5-4.7,8.5-6.7c2.9-1.9,2.6-7-0.3-9.1c-1-0.8-2.1-1.4-3.2-2.2c-3.1-2.5-4.5-2.6-7.6-0.3
				c-4.7,3.5-8,8.3-12,12.4c-0.9,0.9-0.7,2.6,0,3.7c1.3,2.3,3,4.3,5.6,5.1c3.9-2.7,5.3-2.6,8.6,0.9c4.7,5,6.7,11.3,7.7,18
				c0.3,2.2-0.1,4.5-0.8,6.3c-2.9,7.2-0.6,13.5,3.1,19.3c4.2,6.6,9,12.7,13.6,19.1c1.6,2.2,3.2,4.5,4.4,7"/>
			<path class="st0" d="M361.5,96.8c-1.3,4.3-0.5,8.7-0.4,13c0.1,12.3-1.6,24.5-1.2,36.8c0.3,8.4,1.3,16.8,3.3,25.1
				c1.9,7.9,3.4,16,4.8,24.1c0.7,4.3,1.9,8.6,2.1,13c0.1,1.5-0.4,2.6-0.8,3.8"/>
			<path class="st0" d="M388,318.7c-0.3-1.9-0.7-3.8-0.9-5.7c-1.1-7.6-2.1-15.2-3.2-22.8c-0.9-5.8-1.9-11.6-2.8-17.4
				c-1.4-8.4-2.7-16.7-4.2-25c-1.1-6.2-2.3-12.3-3.8-18.4c-1.6-6.5-2.4-13-6-19.2c-5.8-10.3-9.3-21.7-11.8-33.4
				c-0.8-3.5-0.9-7.3-3.1-10.5c0,0-10.7-57.7-10.8-59.3c-0.3-2.8-1.2-5.4-2.5-7.9c-0.8-1.6-1.9-1.6-3.2-0.9
				c-6.7,3.6-13.4,3.9-20.3,0.6c-0.2-0.1-0.6,0.2-0.9,0.3"/>
			<path class="st0" d="M373.8,333.9"/>
			<path class="st0" d="M313.6,97.7c0.7,3,0.3,6.1,1,9.2c1.3,6.2,2.8,12.3,4.5,18.4c2.6,9,5.6,17.9,8.1,27c2.7,9.5,5.3,19,7.6,28.5
				c1.4,5.8,3.9,11.4,3.8,17.4c-0.1,5,1.5,9.4,2.6,14c0.7,2.8,5.8,16.3,6.3,20.9c0.5,4.2,22.5,103,22.4,107.3"/>
			<path class="st0" d="M643.8,284.2c-2-1.3-4.3-2-6.1-3.7c-0.9-0.8-2.3-0.8-3.4,0.3c-4.4,4.1-5.9,9.5-6.6,15.2
				c-0.2,1.8,1,3.4,1.2,5.4c0.2,2.1,3.2,2.8,5.4,2.2c4.2-1.1,7.6,0.3,11.1,2.2c1.9,1.1,2.6,2.5,2.8,4.5c0.7,6-1.4,11.5-3.1,17.2
				c-2.1,7.2-6,13.5-8.9,20.3c-5,11.5-9.7,23-14.6,34.5c-0.3,0.8-0.8,1.5-1.3,2.2c-1.1,1.9-2.3,2.6-4.8,2c-6.9-1.8-14-2.2-21.2-2.5
				c-4.1-0.1-6.8,1.2-9.6,3.9c-5.3,5.1-11.7,8.6-18.3,11.8c-2.3,1.1-4.5,2-6,4.1c-0.4,0.6-1.2,1-1.9,1.3c-9.2,3.2-14.4,10-17.1,19
				c-2.3,7.7-3.5,15.4-2.6,23.5c0.3,2.1,0,4.2,0,6.3"/>
			<path class="st0" d="M281.4,375.2c2.8,2,4.6,5,7,7.2c3.8,3.4,8.6,4.6,13.6,5.1c9,0.8,16.3,3.9,21.6,11.7
				c11,16.2,22.4,32.2,33.5,48.2c0.8,1.1,1.2,2.4,1.3,3.8c0.1,1.5,0.9,2.4,2.2,2.5c1.6,0.1,3,0,4.2-1.5c1.1-1.3,1.4-2.6,0.5-3.8"/>
			<path class="st0" d="M265.3,233.7c-3.8-1.5-26-50.3-27.9-53.2c-6.5-10-11.3-21-17.1-31.4c-3.8-6.9-7.3-14-13-19.6
				c-4.1-4-8.7-4.6-12.7,0c-1.3,1.4-2.3,3-3.5,4.5c-3.3,4.5-7.1,8.5-12.3,10.9c-1.7,0.8-3.9,0.6-5.1,2.5"/>
			<path class="st0" d="M297.3,109.9c5.4,3.1,6.8,9,9,13.9c6.6,15.1,12.6,30.5,18.5,45.9c3.7,9.5,17.1,45.3,17.1,45.3"/>
			<path class="st0" d="M397.3,271.8c-1.3-6.1,17.3-35.3,17.6-35.5c6.1-4.4,21.1-21.1,32-24.8c6.7-2.3,13.2-3.2,20.1-0.1
				c3.7,1.6,6.7,4.4,10.7,5.2c2.1,0.4,4.2,0.6,6.3,1c6.6,1.1,13.1,1.7,19.7-0.3c2-0.6,4,0.5,4.4,2.5c0.4,2.2,1.1,4.3,1.9,6.3"/>
			<path class="st0" d="M563.3,287.7c-6.4-2.4-13.1-4.2-20-4c-6,0.2-12.2-0.8-18.1,1.6c-6.3,2.5-12.1,5.6-17.8,9.4
				c-4.8,3.2-8.6,7.7-13.4,10.7c-4.2,2.6-6.2,7-9.5,10.2c-5.9,5.7-6.4,13.1-7.5,20.4c-2.2,14.9,1.1,28.6,9.2,41.2
				c0.6,1,1.7,1.8,1.6,3.2"/>
			<path class="st0" d="M362,98c2.7,0.7,3.9,3.1,5.7,4.8c3.4,3.4,7.1,4.7,11.6,3.2c1.6,2,1,4.5,1.3,6.6c0.4,3.2,0.8,6.5,0.9,9.8
				c0.2,4.5,0.7,9,1.1,13.5c0.2,2.6,0.5,5.1,0.6,7.7c0.2,3.7,11.9,161.4,11.9,161.4l-11.7-157.7"/>
			<path class="st0" d="M369.9,436c-1.9,0.1-2.9-1.4-3.8-2.6c-8.3-12.4-17.7-23.9-27.3-35.2c-6.1-7.1-11.9-14.8-19.5-20.1
				c0,0-22.1-18.3-23.3-19c-10.8-5.9-22-10.7-33.3-15.6c-5.4-2.4-10.9-4.6-16.3-6.6c-3-1.1-5-2.4-6.2-5.1c-0.8-1.9-1.3-4.6,0.6-5.9
				c2.7-1.8,6.1-3.8,9.4-2.5c3.1,1.2,6.2,2,9.3,3c6.1,2,11.9,5,17.6,7.8c2.3,1.2,14.7,9.3,14.7,9.3c1.2,0,25.8,14.5,36.1,22.6
				c1.3,1,2.6,1.6,4.2,1.5"/>
			<path class="st0" d="M723.1,289.6c-2.1,0.1-3.8-1.4-5.7-1.5c-3.6-0.3-6.9-1-10.9,0.1c-4.1,1.2-7.6,2.4-10.3,5.5
				c-2.5,3-4.2,6.6-5.1,10.4c-2.1,8.7-5.5,16.8-8.9,25.1c-3.6,8.8-7.2,17.6-10.8,26.3c-1.6,3.9-3.1,8-5.2,11.7
				c-1.5,2.6-2.2,5.1-1.8,8"/>
			<path class="st0" d="M346.4,210.6"/>
			<path class="st0" d="M354.7,394.2c-6-8.9-12.9-17-20.6-24.5c-0.9-0.8-1.4-2-1.8-3.4c-0.7-3-3.3-5-5.3-7.3
				c-4.9-5.7-9.7-11.4-14.9-16.8c-11.6-11.9-24-23-39.3-30.1c-1.1-0.5-2.6-2-4.1-0.4"/>
			<path class="st0" d="M215.6,119.8c2.3,2.5,3.6,5.5,5.3,8.4c17.6,25.5,17.8,49.6,19.9,55.5"/>
			<path class="st0" d="M624.5,161.4c-3.2,0-5.4,2.7-8.3,3.5c-3.4,0.9-6.9,1.9-10.5,1.9c-3,0-4.3,1-5.1,3.8c-0.9,3.3-2,6.5-2.4,9.8
				c-0.3,2.4-1.5,3.9-3.3,4.3c-6,1.5-6,6.4-7,10.9c-0.8,3.7-0.9,7.8-5.4,9.5"/>
			<path class="st0" d="M636.9,400.9c0,1.1,0.1,2.1,0,3.2c-0.2,3,2.1,5.2,5.1,4.3c1.1-0.3,2.2-0.3,3.2-0.6c2.3-0.8,4.3-1.6,6.2-3.6
				c3.6-3.9,9-5.3,14.1-6.5c1.9-0.5,3.8-1,5.7-1.2c5.1-0.6,6.1-3.5,5.7-7.3c-0.5-4.2-2.3-7.7-6-9.8c-2-1.1-4.3-1.1-6.3,0
				c-2.1,1.2-4.1,2.5-6.7,2.2"/>
			<path class="st0" d="M221.5,197.6c0.1-1.6-0.4-2.9-1.6-4.2c-11.5-12.4-23.5-24.3-35.9-35.8c-2.6-2.4-5.5-4.7-8.2-7
				c-0.8-0.7-2-0.8-2.3-2.2c-0.3-1.7-1.9-1.2-3.1-1.3"/>
			<path class="st0" d="M599.5,315.2c0,1.5,0.5,2.8,1.2,4.2c1.5,2.9,2.4,6.4,4.1,9c2.4,3.5,2.6,6.4,1.1,10c-0.4,0.9-0.1,2.1-0.1,3.1
				c0.2,13.5-4,25.5-11.7,36.5c-1.2,1.7-2.9,3.1-3.2,5.4"/>
			<path class="st0" d="M628.9,403.7c-6.1,0.1-10.2,3.7-14.2,7.6c-1.4,1.4-2.5,3-3.8,4.4c-1.5,1.7-3.3,2.1-5.4,1
				c-5.1-2.9-10.1-6-15.3-8.8c-2.5-1.4-5.3-2.9-8.2-2.5c-6.1,0.8-12-2.1-18.1-0.5c-0.9,0.2-2.1-0.4-3.2-0.6"/>
			<path class="st0" d="M253.8,152.3c-3.3,4-1.3,8.3-0.5,12.3c1.9,10,19.9,64.3,23.1,74.9c1,3.2,2,6.1,3.7,8.8"/>
			<path class="st0" d="M706.3,892.7c1.2,1,2.7,1,4.1,1c7,0,14,0,20.9,0c8.4,0,16.7,1,25.1,0.6"/>
			<path class="st0" d="M542.7,419.2c-3.8-1.3-3.9-4.9-4.7-7.9c-2.7-9.9-6.6-19-15.2-25.4c-3.4-2.6-7.1-2.6-10.8-2
				c-1.1,0.2-2.4,0.2-3.5,0.5"/>
			<path class="st0" d="M601.7,134.2c-0.8,0.1-1.8-0.3-2.5,0.3c-3.2,2.7-7.4,2.4-11.1,3c-3.3,0.6-7,1.2-9,3.4
				c-4.8,5.3-9.9,10.5-11.1,18.2c-0.6,3.9-0.6,8.2-3.2,11.8c-0.9,1.2,0,3.5,0.9,4.9c0.9,1.3,0.9,2.5,0.6,3.9c-0.6,3,0.2,6.2-0.1,9.2
				c-1,10.9,1.9,21.2,3.4,31.7c0.6,4,0.2,8,2.4,11.7c2,3.6,0.1,7.6,0.3,11.4c0.1,1.4-0.3,3,0.1,4.4"/>
			<path class="st0" d="M318.4,176.4"/>
			<path class="st0" d="M293.6,120.6c1.6,5.3,34,95,35.9,100.2"/>
			<path class="st0" d="M273.2,127.2c5-1,8.5-3.8,11.5-7.9c3.5-4.8,6.1-3.8,8.9,1.3"/>
			<path class="st0" d="M564.3,171c-1.6-1.1-3.1-2.2-4.8-3.2c-4.3-2.7-5.2-5-3.4-9.8c0.6-1.6,1.1-3.1,0.9-4.8
				c-0.3-2.4-1.1-2.9-3.2-1.9c-0.4,0.2-1,0.3-1.2,0.7c-2.4,3.3-5.2,2.4-7.9,0.6c-3-1.9-6.5-2.7-9.8-3.4c-4.3-1-6.8,1.1-8.3,5.6
				c-0.4,1.2-1.2,2.2-1.2,3.5"/>
			<path class="st0" d="M366.7,392.6c-1.9,1.6-2,3.9-2.5,6c-1.6,6.7,0,13.2,1.5,19.7c1.1,4.7,3.8,9,4.1,13.9c0.2,4.4,2.1,8,4.1,11.8
				c0.6,1.2,1.3,2.6,1,4.1"/>
			<path class="st0" d="M249.7,138.1c-2.2-1.5-3.5-3.5-4.2-6.2c-1.4-5.2-3.1-10.4-6.3-14.9c-2.3-3.3-3.5-3.5-6.3-0.6
				c-2.7,2.7-5.4,5.2-9.2,6.4c-1.5,0.5-3.1-0.3-4.5,0.6"/>
			<path class="st0" d="M656.8,229c4.7,7.3,7.2,15.6,10.4,23.5c2.2,5.3,6.6,7.6,11.5,9.4c2.5,0.9,3.7-0.4,3.8-3.1
				c0.1-1.9-0.2-3.8,0.5-5.7c0.8-2.3-1.5-4.3-5.3-5.1c-3.2-0.6-6.3-1.6-7.9-4.7c-1-1.9-1.4-3.9-0.3-6"/>
			<path class="st0" d="M661.9,157.6c-3.3-2-6.8-0.8-9.8,0.4c-8.4,3.2-16.7,7.1-25.2,10.1c-7.8,2.8-12.7,8.4-18,13.9
				c-7.3,7.8-14,16.2-20,25c-0.9,1.3-2.1,2.1-3.4,2.9c-3.5,2.2-6,5.5-8.5,8.6c-1.9,2.4-0.9,8.2,1.5,10.3c1.6,1.4,1.2,3,1.2,4.5
				c0,1.3,0.5,1.8,1.6,2.3c1.3,0.5,2,0.2,2.6-1c3.7-8.3,10.9-13,18.1-17.8c1.2-0.8,2.2-1.8,3.2-2.8c2.1-2.2,1.9-3.6-0.6-5.4
				c-0.4-0.3-0.8-0.5-1.3-0.7c-2.3-1-4.8-1.7-6.7-3.4"/>
			<path class="st0" d="M641.6,199c-1.7,1.2-3.2,2.5-5.7,2.6c-2.1,0.1-4.1,2-6,3.3c-5.8,4.1-11.6,8.1-18.1,11.1
				c-2.9,1.3-5.4,3.3-7.3,6c-1.5,2-2.5,4.1-2.2,6.7"/>
			<path class="st0" d="M709.5,222.5c-1.5,1.4-3.1,2.3-5,3.1c-4.4,1.7-8.1,4.6-11.1,8.2c-3.9,4.9-9.3,6.1-15,7.3
				c-0.9,0.2-1.4-0.6-2.2-0.7c-2.7-0.3-4.1-2.7-6.3-3.8c-0.8-0.4-0.3-1.6-0.5-2.5"/>
			<path class="st0" d="M708.8,222.6c-2.6-3.1-6.5-3-9.8-4.4c-3.7-1.6-6.9-0.6-10.2,1.5c-4.6,2.9-10.3,3.1-15.5,4.5
				c-0.4,0.1-1-0.4-1.6-0.6"/>
			<path class="st0" d="M655.3,455.7c1-4.4-2.2-7-4.8-9.4c-2.4-2.1-1.7-5.2-3.3-7.4c-1.5-2-1.8-4.7-3-7c-0.9-1.8-0.5-4.1,0.8-5.6
				c4.7-5.9,11.5-6.5,18.3-6.3c0.5,0,1.2,0.5,1.9,0.6c9.1,0.8,13.9,7,16.7,14.6c2.4,6.6,4,13.5,4.6,20.6"/>
			<path class="st0" d="M661,198.2c4.3,0.4,7.8,4,7.9,8.2c0,2.4,1.1,3.5,3.5,3.5c2,0.1,4.7-1,5.6,1.6c0.8,2.2-1.1,4.1-2.5,5.6
				c-2.4,2.6-3.3,6.4-6.6,8.3c-1.6,1-3.4,1.9-5.1,1.8c-6-0.3-10.9,2.5-16.2,4.6c-2.1,0.8-4,1.9-6.4,2c-2.4,0-4.5,2.9-5.1,5.6
				c-0.5,2.1,0.4,4.7-1.9,6.3"/>
			<path class="st0" d="M628.3,182.7c-2.9,2.3-6.6,2.4-9.8,3.8c-2.7,1.2-5.6,1.8-7.9,3.8c-1.1,0.9-1.8,1.8-2.3,3.2
				c-0.9,2.6-3.1,4.2-5.3,5.8c-2,1.5-4.8,2.4-5.4,5.3"/>
			<path class="st0" d="M596.1,111.7c-2.7,2.6-2.3,6.5-4.1,9.6c-2,3.6-4,6.5-7.8,8.2c-0.7,0.3-1.2,1.2-1.9,1.5
				c-0.9,0.3-1,0.9-0.9,1.6c0.1,0.9,0.9,1.3,1.6,1.2c1.5-0.1,2.9,0.4,4.5-0.5c2.9-1.7,6.2-1.3,9.5-1.3c1.4,0,2.3,0.7,2.9,1.9"/>
			<path class="st0" d="M389.9,465c-2.7,2.1-5.1,0.1-6.2-1.4c-3.6-4.8-8.7-6.6-14.1-8.2c-1.6-0.5-3.4-0.7-4.8-1.9"/>
			<path class="st0" d="M561.4,120.2c-0.8,0.8-1.9,1.6-2.5,2.6c-1,1.4-1.1,2.9,0.2,4.4c1.8,2.1,4.3,3,6.7,4.1c7,3.2,7.3,6,5.6,12.4
				c-0.5,2.1-1.3,4-0.2,6.1"/>
			<path class="st0" d="M673.7,291.1c-2.6-2.4-6-3.5-9.2-4.3c-2.7-0.7-5.7-0.7-8.6,1c-3.9,2.3-5.7,5.5-6.4,9.9c-0.4,2.6-1,4.9,1,7"
				/>
			<path class="st0" d="M550,204.3c-1.2,1.3-2.6,0.4-3.4-0.1c-3.9-2.4-8.3-3.9-12.4-6.1c-4-2.2-8.6-3.8-10.6-8.7
				c-1.2-2.8-5.8-3.7-9.4-2.6c-3.4,1.1-6.8,2.2-9.8,4.1c-2,1.3-4.2,1.9-6.6,1"/>
			<path class="st0" d="M633.1,245.8c-1.2-1.1-1.8-2.5-1.9-4.1c-0.3-3.5-2.5-5.6-6-5.7c-3.6-0.1-7.2,0-10.8,1.2
				c-1.5,0.5-2.6,1.3-3.4,2.3c-1.1,1.3,0.1,3.3,1.9,3.5c7.6,0.7,10.2,3.5,10.1,11.1c0,2.1,0,4.2-0.5,6.4c-0.4,1.9-0.8,4.1,0.5,6
				c1.2,1.8-0.4,3.3-1,4.7c-1.1,2.6-3.5,4.5-4.8,6.8c-1.2,2-1.2,4.7-2.6,6.9c-1.4,2.2-3.2,3.8-4.9,5.6c-1.8,1.8-2.5,3.8-2.7,6.1
				c-0.3,2.8-0.5,5.5-2.8,7.7c-1.1,1.1-1.7,3-1.9,4.7c-0.2,1.9-1.2,3.4-2,5.1"/>
			<path class="st0" d="M581.4,207.7c0.8-1.8,0.9-3.4,0.5-5.4c-0.5-2.7,0.5-5.6-0.1-8.6c-0.3-1.5-0.8-2.9-1.4-4.1
				c-1.6-2.8-4.6-2.8-6.2,0c-2.7,4.7-4.2,8.5-0.3,13.9c2.1,2.9,1.4,5.9,1.5,8.9c0.1,2-0.2,4,1.6,5.4"/>
			<path class="st0" d="M678.7,276.9c-0.9-0.9-1.4-1.9-1.2-3.2c0.2-1.1-0.3-2-0.7-2.8c-0.7-1.3-1.6-2.9-3.4-2.5
				c-2.2,0.5-3.8,3-3.5,5.3c0.4,2.9,1,5.7,1.6,8.6c0.5,2.3,1.4,4.6,0.6,7"/>
			<path class="st0" d="M231.6,306.4c0.3-0.7,0.4-1.3,0.9-1.9c3.1-4,3.1-5.3,0-9.5c-0.6-0.8-0.4-2.1-1.8-2.5c-4.1,0.7-5,1.3-5.7,5.4
				c-0.5,2.9-1.7,6.1,1.8,8.2c0.2,0.1,0.5,0.6,0.6,0.6c3.6-0.6,6.9,1.5,10.5,1c7.1-1.1,14.2-1.1,21.2,0.3c2,0.4,4.1-0.1,6.1,1.5
				c2,1.6,2.9,3.4,4.1,5.5c2.1,3.6,4.8,6.8,7.2,10.2c1.7,2.3,3.4,4.7,5.1,7c0.9,1.2,1.2,2.4,0.9,3.8"/>
			<path class="st0" d="M562.4,249c-0.6,5.3-2.4,10.3-3.5,15.5c-1.4,6.9-3.1,13.9-0.4,20.9"/>
			<path class="st0" d="M631.5,215.7c-5.2,0.9-9.5,3.4-13.7,6.6c-4.2,3.2-9.2,5.3-14.5,6.4c-0.5,0.1-0.9,0.3-1.3,0.7
				c-3.3,3.2-4.5,7.6-6.7,11.4c1.7,5.1-1.8,9.1-2.9,13.6c-0.6,2.4-2.6,4.3-2.2,7"/>
			<path class="st0" d="M526.8,154.8c7.9,1.3,14.3,6.8,21.9,8.8c2.2,0.6,4.2,2,6.6,1.3"/>
			<path class="st0" d="M657.3,194.1c3.8,3.5,3.7,8.1,3.7,12.7c0,4.1-0.5,8.3,1.1,12.4c0.6,1.4,0.4,3.4-0.9,4.7
				c-0.9,0.9-1.5,2-1.9,3.2"/>
			<path class="st0" d="M524.9,224.6c3-1.9,1.4-3.8,0.4-6.1c-1.3-3.1-2.5-5.9-5.8-7.3c-4.4-1.8-11.5,0.8-14.6,5.4"/>
			<path class="st0" d="M561.7,219.8c-1.5,0-3-0.3-4.5-0.8c-2.2-0.8-4.4-1.9-6.9-1.8c-0.9,0-1.8-0.6-2.6-1.4c-1.6-1.7-3.8-3-5.6-4.5
				c-1.2-1-2.4-1-3.8-0.8c-0.5,2.8-0.3,5.6-2.1,8.2c-1.5,2.1,0.5,4.1,1.6,6.5c3.4-3.3,6.5-6.4,10.4-8.5"/>
			<path class="st0" d="M612.1,277.2c-3.9-0.9-6.7,1.4-8.1,4.2c-2.1,4.4-5.5,8.4-5.5,13.6c0.1,4.9-3.3,8-5.5,11.7"/>
			<path class="st0" d="M540.8,284.5c2.5,3.6,6.8,4.3,10.5,6c1.7,0.8,3.6,1.1,5.4,1.6c2.8,0.8,4.6,0.2,6-2.2
				c1.4-2.5,2.9-4.9,3.8-7.6c2.1-6.6,6.7-11.3,11.2-16.1c1.6-1.8,3.2-2.3,5.1,0c1.9,2.4,4.8,3.7,7.3,5.4c2.7,1.8,5.4,3.6,7.5,6.1
				c1.7,2.1,3.8,3.1,6.4,3.5"/>
			<path class="st0" d="M588,254.4c-2.5,0.7-4.7,1.8-6.7,3.4c-2.3,1.8-5.4,2.4-8.2,2.5c-2.6,0-4.4,1.9-4.5,3.3
				c-0.3,3.9-1.7,7.8-0.5,11.7c0.1,0.3,0.4,0.4,0.6,0.6"/>
			<path class="st0" d="M660.7,158c0,2-1.3,3.2-2.5,4.4c-2.9,3.1-6.7,5.1-9.3,8.5c-0.7,1-2.4,1-3.7,1c-2.6,0.1-5.3,0-8,0.5
				c-4.1,0.7-6.5,3.3-8.9,6.1c-0.9,1.1-0.6,2.1,0,3.2c0.7,1.3,1.6,0.6,2.5,0.7c2,0.3,3.7-1.2,5.7-0.7"/>
			<path class="st0" d="M563.9,288c7.2,4.5,15,8,21.3,13.9c0.6,0.5,1.7,0.5,2.5,0.7"/>
			<path class="st0" d="M697.1,265.5c-2.5-0.9-3.1-3.5-4.8-5.1c-1.2,0.2-2,0.6-2.9,1.9c-2.7,3.9-4.9,8.1-7.4,12.2
				c-0.5,0.8-1.2,1.4-1.7,2.2"/>
			<path class="st0" d="M708.8,287c-0.9-1.9,0.1-3.7,0.4-5.4c0.9-5.1,0.9-10.1-1.1-15c3.9-3.4,8.6-3.7,13.4-3.3
				c2.7,0.2,4,3.7,2.2,6.2c-2.2,3.1-2.6,6.3-2.5,9.9c0,1.6,0.8,2.9,1,4.4c0.5,6.2,5,9.9,8.9,13.9c2.5,2.6,3.7,5.6,3.8,9.2"/>
			<path class="st0" d="M669.2,420.5c0-4.9-3.1-8.1-6.4-11.1c-2.7-2.5-10.3-3.6-12.5-1.2c-3,3.2-6.9,4.5-10.3,6.9
				c-2.8,2-3,4.4-0.6,6.9c1.5,1.6,3.2,3,4.7,4.5"/>
			<path class="st0" d="M400.3,359.6c-1.8,4.2-5.2,6.7-9.2,8.6c-2.9,1.4-5.2,3.7-8.2,4.8c-0.7,0.3-8.8,12.9-12.4,18.3
				c-0.5,0.8-1.8,0.7-2.8,0.7"/>
			<path class="st0" d="M634,246.6c-1.1,6.4-3.8,12.2-7.3,17.6c-0.8,1.3-1.8,2.4-3.2,3.2"/>
			<path class="st0" d="M663.8,371.7c-3,1.1-4.6,4-5.2,6.4c-1.1,4.8-4.8,7-7.9,9.7c-4.4,3.9-9,7.7-13.3,11.7
				c-2.1,1.9-4.7,3.6-7.8,3.9"/>
			<path class="st0" d="M699.3,277.8c-1.2,1.9-3.3,2.4-5.1,3.1c-6.2,2.2-11,5.9-13.6,12.1"/>
			<path class="st0" d="M231.6,292.7c3.4-2,6.8-0.6,10.2,0c3.6,0.6,24.4,8,24.4,8c17.8,6.7,35.3,14.1,51.7,24
				c13.9,8.4,26.3,18.5,37.3,30.2c1.6,1.7,2.6,4.1,4.8,4.9c1.1,0.4,1.7,1,2.1,1.8c1.2,2.2,2.1,4.6,3.1,6.9"/>
			<path class="st0" d="M587.4,209.6c0.8,1.8-0.1,3.6-0.7,5c-1.9,4.1-3.6,8.2-5,12.4c-0.4,1.1-1.2,2-2.2,2.5"/>
			<path class="st0" d="M244.3,325.1c0.2,1.9-0.4,3.8,0.6,5.7c1,2,2.5,3.5,4.8,3.1c2.2-0.4,3.7-2,4.1-4.4c0.2-1.2,0.4-2.3,0.6-3.5"
				/>
			<path class="st0" d="M529.4,167.2c-0.1,2.3-0.8,4.7,0.3,7c0.5,1,0.1,2.1-0.9,2.8c-2.6,1.9-2.1,4.2-1,6.7c0.5,1.2,1.1,2.3,1.6,3.5
				c1.2,2.6,1.9,5.3,1,8.2"/>
			<path class="st0" d="M520.5,177.3c-2.7-3.4-4.6-7.3-7.9-10.1c-2-1.6-4.3-1.6-6.6-1c-1.2,0.3-2.3,0.6-3.5,1"/>
			<path class="st0" d="M512.3,177.9c-2.5,0-4,1.2-4.5,3.8c-0.3,1.4-0.8,2.8-2.8,2.9c-4.1,0.3-5.6,1.8-6,6c0,0.4,0,0.8,0,1.3"/>
			<path class="st0" d="M679,293c-1.4-1.2-2.9-2.1-4.9-2.2c-1.2,2.8-2.8,5-6.5,4.2c-0.8-0.2-1.7,0-2.5,0.2c-2.5,0.6-4.4,2-6.3,3.6
				c-2.7,2.2-5.5,4.4-8.2,6.7"/>
			<path class="st0" d="M358.1,452.2c-5.2-0.2-10.4,0.3-15.5,0.6c-1.2,0.1-2.1,0.5-2.9,1.3"/>
			<path class="st0" d="M601.4,158.6c-5.4,3-10.7,6.2-16.2,8.8c-2.5,1.2-5.5,2.1-8.5,1.1"/>
			<path class="st0" d="M297.3,110.4c-2.1,3.1,0.5,5.7,0.9,8.6"/>
			<path class="st0" d="M594.4,302.2c-1.4-0.8-1.4-2.1-1.3-3.5c0.5-3.9-1-7.6-1.3-11.4c-0.1-1.2-1.2-1.9-2.2-2.5"/>
			<path class="st0" d="M586.8,274.7c1.4,2.6,1.9,5.4,2.5,8.2c0.1,0.6,0.2,1.4,0,1.9c-2.5,4.8-0.7,10-1.2,14.9
				c-0.4,3.5,1.2,5.8,4.4,6.9c0.9,0.3,1.2,1,1.6,1.6c2,4.1,5.2,6.6,9.5,7.9"/>
			<path class="st0" d="M628.3,301.3c-1.7,0.3-3.2,0.8-5.1,0.1c-3.5-1.2-5.1-0.1-7.3,3c-2,2.9-2.9,6.4-4.3,9.6
				c-0.4,0.9-0.8,1.5-1.4,2.2"/>
			<path class="st0" d="M594.4,161.8c-4.5-5.5-9.2-6.8-16.5-4.4"/>
			<path class="st0" d="M608,291.5c-2.2-3.2-0.3-6,1.3-8.5c2-2.9,3.8-5.6,3.7-9.3c0-0.8,0-1.5,0.4-2.2c1.2-2.6,0.7-3.9-1.7-5.7
				c-2.6-1.9-5-2.9-8.6-2.4c-3.7,0.5-7.5-1.1-11.4-1.2c-1.3-0.1-2.2-0.1-3.2,0.6c-1.8,1.4-4.4,1.2-6,3"/>
			<path class="st0" d="M595,240.7c-1.3,0.3-2.1,1.3-2.8,2.2c-1.7,2.5-3.6,4.8-5.7,7c-1.4,1.5-2.5,3.2-2.2,5.4"/>
			<path class="st0" d="M549.4,175.4c-0.4,3.2-1.6,6.3-2.8,9.1c-1.1,2.6-1.4,5.1-2,7.7c-0.3,1.2,0.7,2,1.3,2.8
				c1.9,2.7,3.7,5.3,4.4,8.6c0.2,0.9,0.7,1.1,1.3,1.6c2.6,2.7,5.5,5,7.7,8.2c1.3,1.9,1.9,4,2.7,6c1.2,2.8,3.7,5.3,6.7,6.8"/>
			<path class="st0" d="M562.4,116.4c0.5,1.8-1.3,3.4,0.2,5.5c1.5,2,3,2.3,4.8,1.2c1.5-0.9,2.9-2,4.4-0.6c1.8,1.6,3.3,3.3,2.6,6"/>
			<path class="st0" d="M645.4,283.8c-2.6,0.9-3.7,3.7-5.9,5.2c-3.6,2.4-6.8,5.4-9.3,9.1"/>
			<path class="st0" d="M593.7,114.8c-4-0.5-7.4,0.6-10.5,3.2c-2.8,2.3-4.4,1.8-5.7-1.6"/>
			<path class="st0" d="M605.8,302.9c2,2.6,1.5,5.7,1.8,8.6c0.3,1.9,0.3,3.7,1.3,5.4c0.4,0.8,0.7,0,1,0.1"/>
			<path class="st0" d="M403.5,358.4c0.2-1.2,0.5-2.3,0.6-3.5c0.2-3.2-10.2-17.7,11.4-27.3c0,0,9.6,11.5-11.5,28.4"/>
			<path class="st0" d="M700.6,277.5c-1.9,0.2-1.7-1.7-2.1-2.6c-0.4-1-0.1-2.3-1.7-2.5c-1.4-0.2-2.7-1-4.2,0.3
				c-2.5,2.2-5.3,4-7.9,6.1c-0.9,0.7-1.8,1.6-2.9,1.5c-2.8-0.3-3.7,1.4-4.4,3.6"/>
			<path class="st0" d="M579.8,235.6c-1.4,1.3-1.6,3-2,4.7c-0.9,4.4-3.7,7.7-7.5,10.2c-1.3,0.9-1.9,2.1-2.6,3.4
				c-1.1,2-3.2,2.7-5.6,2.3"/>
			<path class="st0" d="M609.3,317.5c-0.7,4.4,0.1,9.1-2.2,13.3"/>
			<path class="st0" d="M357.8,346.3c-1,2.1,0.5,3.6,1.2,5.4c0.9,2.5,3.5,4.7,2,7.9"/>
			<path class="st0" d="M637.8,202c-0.2,2.1-1.8,3.4-3.2,4.8c-2.2,2.2-3.3,4.8-2.9,7.9c0.1,1,0.6,0.5,1,0.6"/>
			<path class="st0" d="M497.7,163c3,3.1,5.6,6.7,9.5,8.9c2.4,1.3,4.2,3,3.8,6"/>
			<path class="st0" d="M533.2,164.6c-1.9,0.8-3.7,1.8-6,2.1c-2.1,0.2-3.8,2.3-4.4,4.6c-0.4,1.7-1.2,3.2-1.9,4.7"/>
			<path class="st0" d="M691.1,301.3c-2.5-4.2-7-5.6-10.9-7.6"/>
			<path class="st0" d="M575.7,156.7c1-0.2,1.9,0.1,2.2,1c1.3,3.7-0.5,9.5-3.8,12.4c-1.6,1.4-3.3,2.8-4.1,4.8
				c-0.6,1.6-2.3,1.7-3.2,2.8"/>
			<path class="st0" d="M405.4,359.9c2.4,0,4.9,0.1,7.3,0c1.4-0.1,2.5,0.3,3.5,1.3c0,0,40.3,0.6,40.9,26.3
				c0.6,25.7,5.4,56.2,5.4,56.2"/>
			<path class="st0" d="M602.6,263.9c2.7,3.6,6.8,5.5,10.1,8.2"/>
			<path class="st0" d="M547.1,180.2c-3.5,0.5-5.8,3-7.9,5.4c-1.5,1.8,0.6,5.4,3.4,6.6c0.4,0.2,0.9-0.2,1.3,0.3"/>
			<path class="st0" d="M706.6,288.9c0,3.3-0.8,6.2-3.2,8.5c-2.3,2.2-3.5,5.3-5.7,7.6"/>
			<path class="st0" d="M579.2,119.6c-0.2,1.1-0.4,2.1-0.6,3.2c-0.4,2-1,3.9-3.5,4.1"/>
			<path class="st0" d="M627.7,446.2c-0.3,1.6-1.1,2.8-2.5,3.9c-1.5,1.1-3.3,2.1-3.8,4.1"/>
			<path class="st0" d="M497.7,424.2c-7.3-29.6,1.3-39.2,1.3-39.2c2.4,1.1,5.1,1.5,7.6,2.2c2.6-2,1.5-3.9-0.3-5.7
				c0,0-6.6-9.9-3.2-14.7"/>
			<path class="st0" d="M539.2,454.4"/>
			<path class="st0" d="M629.7,155.4c-0.8,1.2-1.4,2.5-2.4,3.5c-2.6,2.5-2.9,6.3-5.3,8.9c-0.4,0.4-0.3,1,0,1.6"/>
			<path class="st0" d="M643.2,431.3c-4.2,2.2-4.6,3.3-2.9,8.2c0.9,2.5,5,4.7,7.6,4.1"/>
			<path class="st0" d="M337.9,464.9"/>
			<path class="st0" d="M348,457.6"/>
			<path class="st0" d="M648.6,171.6c2,1,4.1,1.8,6.3,1.6"/>
			<path class="st0" d="M698.1,265.5c-1.8,1.8-3.9,3.4-3.8,6.3"/>
		</g>
		<path class="st0" d="M488.1,387.2c0,0-9.7-10.5-18,0.3"/>
	</g>
	<path class="st0" d="M341.5,108.6"/>
	<path class="st0" d="M483.2,233.7c0,0-49.9,3.7-70.6,57.1"/>
	<path class="st0" d="M382.2,373.3"/>
	<path class="st0" d="M414.9,236.7"/>
	<path class="st0" d="M414.9,236.7"/>
	<path class="st0" d="M414.9,236.7"/>
	<path class="st0" d="M404,356"/>
</g>
</svg>
