<?xml version="1.0" encoding="utf-8"?>
<!-- Generator: Adobe Illustrator 28.0.0, SVG Export Plug-In . SVG Version: 6.00 Build 0)  -->
<svg version="1.1" id="Laag_1" xmlns="http://www.w3.org/2000/svg" xmlns:xlink="http://www.w3.org/1999/xlink" x="0px" y="0px"
	 viewBox="0 0 1000 1000" style="enable-background:new 0 0 1000 1000;" xml:space="preserve">
<style type="text/css">
	.st0{fill:none;stroke:#4A4A49;stroke-width:4;stroke-linecap:round;stroke-linejoin:round;stroke-miterlimit:10;}
</style>
<g>
	<path class="st0" d="M246.2,573.5c9.3-3.6,18.5-1.1,27.2,1.5c42.7,12.9,86.3,19.6,130.9,22c52.1,2.8,103.9-0.7,155.4-6.2
		c49.2-5.3,98.4-11.6,147.4-19.2c16.9-2.6,33.7-10.8,51.7-6.3c31.5-16.2,68.5-20.1,96.8-43.6c8.6-7.1,14.2-16.3,19-26
		c5.8-11.8,2.9-24.6-6.7-34.1c-14.8-14.5-33.9-20-53.2-24.4c-34.1-7.7-68.7-12.1-103.5-15.6c-52.7-5.3-105.4-6.8-158.2-9.1
		c-30-1.3-60-4.4-90-3.7c-37.3,0.9-74.6,3.6-111.8,7.3c-42.8,4.3-85.1,10.4-126.7,21c-24.4,6.2-48.1,15.1-69.5,28.7
		c-29.5,18.7-30.3,40.7-1.5,61.3c17.6,12.6,37.4,20.7,57.3,28.5c15.9,6.3,29.5,11.5,38.1,30.8c11.1,24.8,36.7,36.9,64.2,41.5
		c36.1,6,72.4,9.6,109.1,9.7c55,0.1,110-0.4,164.9-4.4c35-2.5,70.2-5,104.9-9.8c29.2-4,50.2-22.4,66.8-46c2.3-3.3,3.1-7,1.4-10.9"/>
	<path class="st0" d="M442.5,454.9c-23.4,5.1-47.3,3-70.9,5c-43.8,3.8-87.3,7.5-129.5,20.8c-6.4,2-11.4,5.9-16.2,9.9
		c-5.1,4.2-4.4,8.7,1.1,13.6c11.4,10.4,25.7,13.9,39.7,17.3c42.5,10.6,85.6,17.4,129.4,21.1c49.2,4.2,98.3,2.8,147.2-0.9
		c56.9-4.3,114.2-6.3,170.4-17.3c18.3-3.6,36.5-7.2,53.3-16c2.7-1.4,5.8-2.5,7.9-4.5c11.1-10.4,8.9-19.4-5.3-25.9
		c-23-10.4-47.8-11.5-72.3-13.4c-54-4.2-108-6.5-162.2-7.6c-30.4-0.6-60.9-2-91.3-2.2"/>
</g>
</svg>
