<?xml version="1.0" encoding="utf-8"?>
<!-- Generator: Adobe Illustrator 28.0.0, SVG Export Plug-In . SVG Version: 6.00 Build 0)  -->
<svg version="1.1" id="Laag_1" xmlns="http://www.w3.org/2000/svg" xmlns:xlink="http://www.w3.org/1999/xlink" x="0px" y="0px"
	 viewBox="0 0 1000 1000" style="enable-background:new 0 0 1000 1000;" xml:space="preserve">
<style type="text/css">
	.st0{fill:none;stroke:#4A4A49;stroke-width:4;stroke-linecap:round;stroke-linejoin:round;stroke-miterlimit:10;}
</style>
<path class="st0" d="M621.3,380.8c-26.4-80.7-55.4-165-85.8-243.1c2.9-11.8,7.8-69.7-13.7-45.5c-9.6,14.4-4.8,31.6-6,46.7
	c-24.5,45.2-55.9,86.1-83.6,129.6c-54.6,69.2-77.8,74.9-92.4,169.6c-16.8,102.2-25.4,206.4-22.3,310.1
	c0.5,97.7,15.3,127.7,117.9,135.2c105.9,15.4,144.3,15.7,163.7-101.4c32.8-129.7,43.1-269.4,22.6-400.4
	c-52.2,0.3-105.9-12.5-159-13.6c-32.6-4.2-67.6-0.8-98.8-9.8"/>
<path class="st0" d="M590.1,813.7c-65.5-33.4-45,47.3-132.6-12.4c-15.4-7.6-28.9,4.7-43,9.8c-38.5,14.1-46.7-47.4-93.6-30.5"/>
<path class="st0" d="M625.2,412.7c-90.4-6.1-181-14.8-270.4-29.3"/>
<path class="st0" d="M568,547.2c-56.4,35-120.8,69.6-177.5,107.9"/>
<path class="st0" d="M525.8,151.4c14,33.2,19.8,71,35,104.7c14.1,40,22.9,82.9,35.2,122.8"/>
<path class="st0" d="M534.2,142.3c-27.4,22.7-36.3,61-55.3,90.3c-13.9,27.3-35.3,51.2-48.7,78"/>
<path class="st0" d="M393.8,360.7c4.4-15.3,19.2-26.5,27.2-40.4c4-5.7,6.9-10.2,15.8-8.1c47,3.9,94.7,9.6,141.6,12.7"/>
<path class="st0" d="M505.6,457.5c-40.1,19.6-74.8,49.5-115.1,69.6"/>
<path class="st0" d="M609,413.3c1.9,21.6-1.4,42.9-3.2,65.1c7.5,1.6,14.4,4.5,22,2.5"/>
<path class="st0" d="M548.5,859.2c-20.2,13.6-44.8,9.6-68.3,6.2"/>
<path class="st0" d="M373.7,388.6c-4.2,22.9-7.2,46.7-12.4,68.9"/>
<path class="st0" d="M445.2,860.9c-20,2-39-4.4-58.5-7.5"/>
<path class="st0" d="M561.5,687.6c-21.1,10.6-37.7,29.1-55.3,44.9"/>
<path class="st0" d="M339.2,453.6c7.2,0.4,14.3,0.9,21.5,1.3"/>
</svg>
