<?xml version="1.0" encoding="utf-8"?>
<!-- Generator: Adobe Illustrator 28.0.0, SVG Export Plug-In . SVG Version: 6.00 Build 0)  -->
<svg version="1.1" id="Laag_1" xmlns="http://www.w3.org/2000/svg" xmlns:xlink="http://www.w3.org/1999/xlink" x="0px" y="0px"
	 viewBox="0 0 1000 1000" style="enable-background:new 0 0 1000 1000;" xml:space="preserve">
<style type="text/css">
	.st0{fill:none;stroke:#4A4A49;stroke-width:4;stroke-linecap:round;stroke-linejoin:round;stroke-miterlimit:10;}
</style>
<g>
	<path class="st0" d="M794.5,261c-0.1-6.4-5.9-7.9-9.8-10.4c-34.7-23.1-73.1-37.2-113.5-47c-40-9.7-80.6-14.2-121.6-12.8
		c-38.7,1.3-76.8,7.1-111.8,25.3c-22.4,11.6-41.7,26.7-52.8,50.2c-7.3,15.4-6.4,31.1-0.8,46.6c3.6,10,13.8,11.6,22,13.8
		c17.6,4.8,35.6,8.5,53.7,11.6c24,4.2,47.6,10.2,71.3,16.2c18.9,4.7,37.4,10.8,54.7,20c1.3,0.7,2.9,0.6,4.4,0.9"/>
	<path class="st0" d="M607.8,578c-2.5-11.8-8.9-22.2-10.8-34.3c-3.4-22-4.3-43.8-3.7-66.1c0.6-22.4,3-44.6,4.1-66.9
		c0.7-14.7-2.4-28.5-6.4-42.3c-10.7-35.8-1.4-64.4,30.9-84.6c27.5-17.2,58.1-24.3,89.9-27.1c26-2.3,51.8-1.5,77.5,4.9
		c26.1,6.5,38.4,26.3,35,49.5c-4.2,28.7-6.1,57.5-5.8,86.3c0.3,27.9,2.2,55.8,3.3,83.7c0.3,7.4-1.1,14.8-2.6,22
		c-3.4,15.9-15,23-29,28.3c-22.7,8.6-46.8,12.7-69.7,20.8c-24.1,8.5-48.8,15.1-73,23.2c-13.4,4.5-26,5.9-40.7,4.2
		c-18.5-2.1-35.1-7.7-50.9-16.1c-26.9-14.4-52.6-30.9-79.5-45.3c-17.6-9.4-35.8-18-54.6-24.5c-20.4-7-29.9-21.5-34.1-40.9
		c-5.3-24.1-4-48.7-3.4-73.1c0.4-15.3,0.4-30.5,0.7-45.8c0.1-4.5-1.1-9.4,2.6-13.2"/>
	<path class="st0" d="M815.7,335.8c-0.2-10.9,1.8-21.6,0.2-32.6c-2.9-19.4-15.2-29-32.8-33.4c-25.1-6.3-50.2-5-75.8-1.3
		c-24.5,3.5-47.5,10.6-69.5,21.5c-14,6.9-26.5,15.7-34.5,29.8c-5.8,10.4-5.8,21.4-5.2,32.6c0.1,2.7,0.6,5.3,0.9,7.9"/>
	<path class="st0" d="M574.4,548.9c-31.4-16.5-62.4-33.7-93.6-50.7c-21.1-11.5-42.2-23.8-65-32.1"/>
	<path class="st0" d="M558.5,348.2c-15.3-4.1-30.6-7.9-45.8-12.4c-25.4-7.6-51.3-12.8-77.5-16.8c-7-1.1-14-2.6-21.2-2.5"/>
	<path class="st0" d="M560.3,378.1c-31.1-9.3-62.2-18.2-94.2-23.7c-14.9-2.6-29.6-6.3-44.9-6.2"/>
	<path class="st0" d="M452.8,467.9c37.5,18.9,75.1,37.7,111.9,58c1.6,0.9,3.6,2.9,6.1,1.9"/>
	<path class="st0" d="M667.7,497.9c6.3-1.3,13-1.9,17.1-8c-3-4.7-7.2-5.8-11.8-6.1"/>
	<path class="st0" d="M660.7,330.5c0.5-7.1-3.7-12.3-12.4-13.9c-4.7-0.9-8.9,0.7-8.8,6.9"/>
	<path class="st0" d="M630.7,230.1c-1.2,8,2.9,12,10.5,9.6c4.1-1.3,7.7-4,11.5-6"/>
	<path class="st0" d="M525.1,235.4c-3.7-0.1-8.9-1.5-9.4,3.6c-0.4,4.5,3.4,7.5,8.5,7c3.2-0.4,7,1.7,9.7-1.7"/>
	<path class="st0" d="M639.5,207.2c-3.3,5.3-2.1,9.1,3.5,9.6c4.9,0.4,10.1,0.5,14.1-3.4"/>
	<path class="st0" d="M775.2,348.2c2.2-7.3-2.7-10.6-8-13.1c-3.3-1.5-4.7,1-4.3,4.3"/>
	<path class="st0" d="M791,436.2c3.5,0.1,3.1-2.8,2.5-4.3c-1.1-2.8-4.4-4.9-6.8-4.2c-3,1-5.4-0.6-8-0.3"/>
	<path class="st0" d="M635.1,421.2c3.5-3.3,1.4-5.9-0.8-8.8c-3.9-5-8.2-1.7-12.4-0.8"/>
	<path class="st0" d="M474,219.6c-5.1-0.6-9.2,0.4-10.7,6.9c4.8,4.9,11.2,5.5,17.8,5.4"/>
	<path class="st0" d="M761.1,466.2c3.7,0,7.9-1.3,8.8,4.4c0.9,5.7-2.5,7.2-7.1,7.9"/>
	<path class="st0" d="M584.9,253c-0.6,8.1,1.4,9.5,10.6,7"/>
	<path class="st0" d="M533,267.1c1.1,5.8,0.5,9.8-7.1,7.1c-1.3-0.5-2.9-0.1-4.4-0.1"/>
	<path class="st0" d="M514.5,207.2c-4.3,1.4-2.9,4.4-1.7,7c1.5,3.3,4.7,2.1,7,1.6c2.5-0.5,4.7-2.2,7.1-3.4"/>
	<g>
		<path class="st0" d="M494,707.1c10.9,1.2,19.4-3.6,23.3-13c4.2-10.1,12.1-12.4,21.1-15c48.9-13.9,97.2-29.6,144.6-47.9
			c8.3-3.2,17.3-5.1,24.1-11.9c-3.4-3.7-6.1-3.6-10.6-1.9c-36.1,13.3-72.3,26.3-108.8,38.8c-22.2,7.6-44.7,14.6-67.9,18.9
			c-4.3,0.8-7.5,0.3-10-3c-9.2-12.1-22-10-34.4-8.4c-3.3,0.4-7.2-0.8-10,1.9"/>
		<path class="st0" d="M608.5,723.6c7.5-5.9,17-9.1,22.9-17.2c1.6-2.2,4.8-4.4,4.7-6.4c-0.3-7.6,5.5-8.8,10.3-11.5
			c28.9-16.2,57.7-32.5,86.6-48.6c15-8.4,30.1-16.7,45.1-25.1c1.7-0.9,3.4-1.8,5-2.9c1.7-1.2,3-3,2.1-4.9c-1.3-2.9-4.5-3.9-7-2.8
			c-4.8,2.1-9.1,5.1-13.7,7.7"/>
		<path class="st0" d="M429.5,595.5c18.4-1.1,35.1,2.5,46.4,18.7c2.3,3.4,5.2,5.2,8.7,5.6c22.2,2.1,44.4,2.7,66.6,0.1
			c1.6-0.2,3.3-0.1,5,0c29.3,0.6,58.3-3.3,87.3-6.5c5.7-0.6,11.3-2.3,17.2-2.2c4,0.1,8.3,0.6,8.3,5.1c0,3.5-4,4.3-7.5,5.2
			c-7.6,1.9-15.3,1.3-23,1.8c-34.3,2.6-68.7,3.5-103.1,4.6c-17.7,0.5-35.4-0.1-53,1.9c-5.4,0.6-6.4-2.8-3.6-10.7"/>
		<path class="st0" d="M743,624.8c-27.4,15.5-54.8,31.1-82.3,46.5c-7.7,4.3-15.6,8.4-23.7,12c-2.3,1-0.8,2.2-1.3,3.1"/>
		<path class="st0" d="M314.3,606.9c-12.5,1-22.2,6.8-30.9,15.6c-4.9,5-11.1,8.2-19.2,6.1c-4.9-1.3-10.2-0.7-15-3.1"/>
		<path class="st0" d="M512.6,683.5c-7.1,0.4-11.6,5.2-13.3,10.8c-3.9,13-14.6,16.6-25.4,19.8c-13,3.8-27,2.9-40.1,7.2
			c-1,0.3-2.4-0.4-3.6-0.6"/>
		<path class="st0" d="M436.7,785.9c-5.3-0.2-10.7-1.5-15.8-1.6c-6.2-0.1-12.6,3.3-16.5,9.4c-2.8,4.5-6.2,8.6-9.3,12.9"/>
		<path class="st0" d="M446,617.7c-3.8,0.5-7.6,1.1-11.5,1.4c-7.7,0.7-14.4,3.4-20.1,8.6c-4,3.7-8.1,7.2-12.2,10.8"/>
		<path class="st0" d="M634.2,682.8c-5.4-6.4-12.7-7.2-20-5.6c-8,1.8-16.1,3.6-23.7,7"/>
		<path class="st0" d="M355.1,638.4c-9.8-3.8-19.4-5.2-30.2-2.6c-7.5,1.8-16.6,0.4-24.1-2c-8.1-2.7-16.1-3.8-24.5-3.9"/>
		<path class="st0" d="M346.5,611.2c-10.2,0.1-20.1,1.3-26.5,10.8c-3.3,4.9-8.1,7.8-12.9,10.7"/>
		<path class="st0" d="M477.5,629.8c-10.5,13.6-24.5,17.2-40.8,14.3"/>
		<path class="st0" d="M336.5,707.1c-8.8,4.3-15.1,10.8-20.2,19.2c-6.1,10.1-18.9,15-29.8,11.2c-4.5-1.6-9,0.5-13-1.8"/>
		<path class="st0" d="M396.6,698.5c-8.7,6-16.8,12.4-21,22.8c-1.2,2.8-5.5,4.4-8.3,6.5"/>
		<path class="st0" d="M372.3,637c5.6,3.3,12.2,2,17.9,1.6c7.1-0.4,13.1,1.6,19.3,3.5c8.4,2.5,16.7,2.7,25.1,0.6"/>
		<path class="st0" d="M455.3,690c-7.5,5.2-13.5,11.4-17.4,19.9c-2.4,5.2-7.4,9.2-11.2,13.7"/>
		<path class="st0" d="M322.9,691.4c-8.1-2.6-16.3-0.8-24.3,0.3c-8.3,1.1-15.9-0.3-23.7-2.4"/>
		<path class="st0" d="M266.3,607.6c-4.3,3.8-8,9-13,11.1c-6.3,2.7-13.4,4.7-20.6,2.5c-5.5-1.7-11-3.8-16.5-5.7"/>
		<path class="st0" d="M289.2,693.5c8.1,10,14.3,22.6,30.1,22.3c0.7,0,1.5,1.7,2.9,1.3"/>
		<path class="st0" d="M278.5,729.3c-11.3,0.8-21.4-4.5-32.2-6.4"/>
		<path class="st0" d="M427.7,598.3c-3.8,1.9-7.8,1.5-11.8,1.4c-13.5-0.5-26.5-5.2-40.1-4.3c-1.9,0.1-3.8,0.5-5.7,0.7"/>
		<path class="st0" d="M478.2,758.7c-3.1-1.7-6.2-3.3-9.3-5c-8.3-4.5-16.5-3.1-23.5,2.3c-4.8,3.7-9.9,6.4-15.2,9.1"/>
		<path class="st0" d="M474.6,692.8c-4.5-0.7-9.1-1.1-13.6-2.2c-7.4-1.9-11.9-8-17.2-12.8c-6.4-5.8-13.4-5.2-20.8-2.9
			c-5.1,1.6-10.5,1-15.7,0.5c-2.1-0.2-4.3-0.1-6.5-0.5"/>
		<path class="st0" d="M352.9,688.5c5.5,4.7,11.7,8.6,16,14.9c2.4,3.6,7.7,4,12,5.2"/>
		<path class="st0" d="M584.1,688.5c-9.5,4.6-17.9,11.2-28.5,13.9c-5.9,1.5-11.2,5.9-15.8,10.4"/>
		<path class="st0" d="M491.8,760.8c-6-2.4-11.7-2.8-17.2,1.4c-5.3,4.1-9.5,8.5-10.1,15.8c-1,12.2-10.1,17.1-19.9,21.7
			c-2.6,1.2-5.5,1.5-8.1,3.1c-2.8,1.8-7.5,2.9-8.8-3.1c-8.3,6.8-17.7,5.4-26.8,5.5"/>
		<path class="st0" d="M375.1,684.2c-2.6,2.3-5.7,1.1-8.6,1.4c-8.8,0.9-17.6,2-26.5,1.6c-6-0.3-11.8,1.8-17.5,4.7
			c4.7,3.7,9.2,7,12.6,11.6c3.8,5.2,9.1,8.2,15.7,8.6"/>
		<path class="st0" d="M270.6,588.3c4.9,5,9.9,9.7,13.7,15.7c2.5,3.9,7.8,3.9,11.4,6.5"/>
		<path class="st0" d="M592.7,708.6c-3.2,6.1-4.8,12.8-6.3,19.4c-0.7,3-1.8,5.6-3.7,7.8"/>
		<path class="st0" d="M360.1,731.5c-9.3,0.1-18.6-0.4-27.9,0.7c-6.9,0.8-13.6,3.7-20.8,1.5"/>
		<path class="st0" d="M426,721.5c-11.8,4.4-24.7,2.8-36.5,7.2c-6.8,2.5-13.9,1.2-20.8,1.8c-4.1,0.3-7.4,1.3-10.7,3.2"/>
		<path class="st0" d="M264.9,708.6c-6.5,3.6-13.1,7.2-18.5,12.3c-2.7,2.6-5.9,1.6-8.7,2.7"/>
		<path class="st0" d="M282.1,604.1c-5.3,0.6-10.3,2.9-15.8,2.2c-7.1-0.9-12.5-4.1-16.5-10c-2.5-3.6-5.9-6.5-9-9.5
			c-3.1-3-6.9-4.1-10.2-3.9c-13.5,0.9-26.9,0.6-40.1-2.4"/>
		<path class="st0" d="M635.7,692.8c-7.6,0.9-14.8,3.6-23,2.8c-4.8-0.5-10.7,4.3-15,8.6c-4.5,4.5-10.5,4.3-16.4,0.8
			c-3.8-2.3-8.1-3.9-12.1-5.8"/>
		<path class="st0" d="M541.2,733.6c-10.9-1.5-18.6,2.7-22.7,13.7c-2.8,7.3-4,15.2-5.9,22.8"/>
		<path class="st0" d="M335.1,594c6.9,7.7,13,16.1,21.5,22.2"/>
		<path class="st0" d="M211.9,611.2c-10.5-1-17.8-8.2-26.5-12.9"/>
		<path class="st0" d="M230.5,603.3c-5.8-3.6-11.7-7-16.6-12.1c-3.1-3.3-7.4-1.5-11.4-0.9c-8.9,1.5-17,6.9-26.5,5.8"/>
		<path class="st0" d="M545.5,731.5c-4.9,1.6-5,6.4-6.3,10.1c-2.2,6-3.5,12.4-5.1,18.6"/>
		<path class="st0" d="M305,589.7c1.7-0.2,2.2-2.5,5.1-1.6c11.8,3.5,23.8,6.4,36.5,4c6.4-1.3,13.4,0.2,19.2,2.9
			c5.8,2.7,7.9,9.7,11.4,14.9c2.4,3.6,5,6.5,8.8,8.5"/>
		<path class="st0" d="M290.7,697.8c-8.7,0.8-17.1,2.8-25.1,6.4"/>
		<path class="st0" d="M302.1,711.4c-9.1,4-14.4,12.8-22.6,18.4c-6.2,4.2-11.8,6.7-18.9,6.7"/>
		<path class="st0" d="M516.9,720.7c2.4-1.2,4.7-2.5,7.2-3.6c10.5-4.7,21-4.4,30.6,1.6c3.1,1.9,5.9,1.3,8.7,2c4.6,1.2,5.2-2.5,7.3-5
			c3-3.7,7.6-5.6,12.1-7.3"/>
		<path class="st0" d="M565.5,722.2c1.1,7.2-0.9,13.8-4.4,20c-0.8,1.4-2.7,2.3-2.1,4.3"/>
		<path class="st0" d="M609.9,694.3c-9.8-7.5-21-9.2-32.9-7.9"/>
		<path class="st0" d="M410.2,613.4c-6,2-12.6-0.5-18.7,2.7c-3.8,2-6.2,5.1-8.4,8.2c-6.2,8.9-13.1,15.9-25.2,14.3
			c-1.2-0.2-2,0.8-2.1,2.1"/>
		<path class="st0" d="M529.7,732.9c-13.4-4.2-26.8-5.9-40.1,0.6c-2.3,1.1-4.6,1.9-5.7,4.4"/>
		<path class="st0" d="M413.8,593.3c9.2-0.7,15.7,5,22,10.2c4.4,3.6,8.4,8,11,13.4c2,4.3,5.6,6.8,10.7,7.3c6.2,0.6,12.1,4,18.6,2.1"
			/>
		<path class="st0" d="M460.3,750.1c4-4.7,10.2-6.1,15.2-9c7.3-4.3,15.7-3.1,22.7,2c5.8,4.1,11.8,5.6,18.7,4.9"/>
		<path class="st0" d="M247.7,703.6c9.1-0.9,17.2,1.8,24.3,7.2c5.2,4,10.8,6.6,17.2,7.8"/>
		<path class="st0" d="M379.4,614.8c-3.8,1.2-7.6-0.2-11.5-0.1c-7,0.2-13,1.9-17.9,7.2c-3.5,3.8-7.6,7.2-11.4,10.8"/>
		<path class="st0" d="M483.2,684.2c-4.8,2.9-7.5,7.5-9.9,12.2c-3.9,7.6-9.9,13.4-15.8,19.3"/>
		<path class="st0" d="M587,737.9c-2.2,0.5-3.8-0.5-5.2-2.4c-6.2,5.5-13.2,9.7-21.3,11.6c-5.2,1.3-9.8,4-13.4,7.4
			c-7.3,6.7-17.6,5.3-25.4,11.1c-5.5,4.1-12.3,6.3-16.3,12.4"/>
		<path class="st0" d="M413.8,703.6c-2.6,9.1-10.4,14.4-15.7,21.5"/>
		<path class="st0" d="M429.5,766.5c-9.4,1.1-15,8-21.5,13.6"/>
		<path class="st0" d="M494,759.4c-3.8,6.9-5.8,14.5-9,21.6c-2.2,4.9-4.9,7.4-9.6,8.5"/>
		<path class="st0" d="M398.8,677.1c-6.9,1.9-13.8,3.8-20.8,5.7"/>
		<path class="st0" d="M463.2,667.1c-6.5-4.7-13.9-1.1-20.8-2.1"/>
		<path class="st0" d="M619.2,697.1c-1.7,6.9-3.3,13.8-5,20.8"/>
		<path class="st0" d="M461,668.5c-6.6,3.1-14.5,1.6-20.8,5.7"/>
		<path class="st0" d="M251.3,599.8c-13.5-2.2-23.2,7.7-35,10.9c-1.1,0.3-3.5,1.9-1.5,4.2"/>
		<path class="st0" d="M465.3,668.5c4.1,2.7,8.4,5,11.6,9.2c4.3,5.5,10.8,7.1,17.7,7.3c3.1,0.1,6.3-1,9.3,0.7"/>
		<path class="st0" d="M326.5,614.1c-8.6-5.1-15.1-12.1-20.1-20.7c-3.6-6-9.8-7.6-16.4-7.1c-10.6,0.7-21,1.6-31.6-1.9
			c-5.3-1.7-11.8-2.6-17.8-0.3"/>
		<path class="st0" d="M452.1,624.1c-4.4,6.7-9.7,12.4-16.1,17.2"/>
		<path class="st0" d="M442.4,698.5c-4.2-1.2-8.9-0.4-12.9-2.9c-3.3-2.1-4.8,1.7-7.2,2.1c-3.7,0.5-4.5,5.6-9.3,4.6
			c-7.5-1.5-15.1-1.9-20.7-8c-4-4.4-8.5-8.2-14.3-10"/>
		<path class="st0" d="M465.3,770.8c-8.9,3.2-17.4,2.7-25.8-2c-2.4-1.3-5.7-1.1-8.5-1.6"/>
		<path class="st0" d="M365.8,704.3c-6.1,0.9-11.2,4.1-14.9,8.7c-4.3,5.3-7.7,11.4-11.6,17.1"/>
		<path class="st0" d="M448.9,773.7c-6.1,4.1-10.3,9.5-13,16.4c-1.5,3.8-4.2,7.2-6.3,10.8"/>
		<path class="st0" d="M507.6,748.7c-3.7,3.7-9.2,5.4-12.2,10"/>
		<path class="st0" d="M425.2,724.3c-4,2.5-8.3,4-12.9,5"/>
		<path class="st0" d="M402.3,599.8c2.6,3.8,5.8,7.4,7.7,11.5c2.3,5,6.9,7.1,10.9,10"/>
		<path class="st0" d="M249.9,621.2c-1.7,5.8-6.3,5.1-10.7,5"/>
		<path class="st0" d="M471,792.3c-6.1,2-12.3,4.1-17.2,8.6"/>
		<path class="st0" d="M373.7,681.4c-3.2-1.6-6.7-0.3-10-0.7"/>
		<path class="st0" d="M399.5,674.2c-3-2.2-6.5-2.2-10-2.1"/>
		<path class="st0" d="M212.7,614.1c-3.1-0.2-6.2-0.5-9.3-0.7"/>
		<path class="st0" d="M428.8,804.5c-2.9,2-5.5,4.7-9.3,5"/>
		<path class="st0" d="M494,780.9c-3.1-0.3-5.3,3-8.6,2.1"/>
		<path class="st0" d="M400.9,783.7c5.1-3.2,10.4-3.7,15.7-0.7"/>
		<path class="st0" d="M299.3,635.6c-1.7,1.5-3.8,0.3-5.7,0.7"/>
		<path class="st0" d="M400.9,641.3c-1.7,1.5-3.8,0.3-5.7,0.7"/>
		<path class="st0" d="M506.8,775.1c-2.5-1.9-3.8,1.2-5.7,1.4"/>
		<path class="st0" d="M410.2,677.1c1.2,1.7,2.4,3.3,3.6,5"/>
		<path class="st0" d="M290.7,585.5c-0.6-2.5-2.5-2.1-4.3-2.1"/>
	</g>
</g>
</svg>
