<?xml version="1.0" encoding="utf-8"?>
<!-- Generator: Adobe Illustrator 28.0.0, SVG Export Plug-In . SVG Version: 6.00 Build 0)  -->
<svg version="1.1" id="Laag_1" xmlns="http://www.w3.org/2000/svg" xmlns:xlink="http://www.w3.org/1999/xlink" x="0px" y="0px"
	 viewBox="0 0 1000 1000" style="enable-background:new 0 0 1000 1000;" xml:space="preserve">
<style type="text/css">
	.st0{fill:#1D1D1B;}
</style>
<g>
	<path class="st0" d="M167.6,556c-0.2-10.2-0.1-20.6,0.3-31c0.4-10.4,1.1-20.9,2.1-31.4c0.8-11.3,2-28.4,5-51.5
		c3-22.9,6.8-40.4,9.7-52.2c0.1-0.5,0.3-1,0.4-1.6c1.1-4.5,2.9-8.9,5.3-13.2c2.9-5.3,7.9-9.1,14.8-11.5c18.7-6.2,32.2-6.4,40.3-1.8
		c8.1,4.7,9.8,13.2,5.9,25.3c-2.4,7.4-7.7,16-15.7,25.9c-8,10-16.2,18.4-24.9,25.4c12.6,1.3,20.9,6.3,25.3,14.2
		c4.4,7.9,5.4,17.9,3.7,29.9c-0.8,5.7-4.4,13.6-10.4,24c-7.1,12.4-15.7,23.1-26.1,32.5c-6.2,5.4-12.9,10.1-20.3,14.2
		c-0.4,0.2-0.8,0.5-1.2,0.7C172.5,559.2,167.8,560.1,167.6,556z M211.6,424.7c4.7-6,9.5-12.9,14.5-20.7c1.2-2.1,3.1-4.8,5.7-8.2
		c0.8-2.9,1.7-5.8,2.6-8.8c1.5-5,0.2-9-4-12c-4.2-3-10-3.4-17.4-1c-3.7,1.2-6.3,4.5-7.8,9.8c-3.1,11.3-5.3,21.3-6.8,30
		c-1.9,9.4-3.5,18.7-5,28C199.9,438.2,205.9,432.5,211.6,424.7z M211,515.9c6.6-8.9,10.4-17.5,11.4-26.2c0.9-7.5,1-14.1,0.3-19.8
		c-0.7-5.7-2.1-9.7-4.4-12c-2-2.2-4.1-3.9-6.3-5.1c-2.2-1.2-4.2-1.7-5.9-1.7c-0.9,0.1-1.8,0.2-2.7,0.4c-4.2,1.7-8.5,3.5-12.7,5.3
		c-1.7,18.9-4.5,46.6-4.7,82C196.2,532.4,204.5,524.9,211,515.9z"/>
	<path class="st0" d="M310.7,499.9c0-0.2,0.1-0.5,0.1-0.7c1-8,1.1-16.6,0.3-26c-0.8-9.4-2.4-20.6-4.8-33.7
		c-1.8-9.8-3.1-18.7-3.7-26.7c-10.5,31-17.9,62.1-22.4,92.7c-0.4,2.5-1.2,4.5-2.5,6c-1.3,1.5-3.6,2.7-6.9,3.8
		c-2.5,0.8-4.4,0.8-5.7,0.1c-1.3-0.7-1.9-2-1.6-3.9c0.1-0.6,0.1-1.3,0.2-1.9c3-23.2,7.7-46.6,14-70.1c5.9-20.8,13.6-44.3,24.1-70.1
		c4-9.8,8.3-19.5,12.8-29.2c0.9-1.9,2.2-3.3,3.9-4.2c1.6-0.9,4.6-1.6,8.8-2.1c6.6-0.8,12.3-0.6,17,0.3c4.8,1,8.4,2.6,10.9,4.9
		c5.2,4.7,6.9,10.8,5.3,18c-0.5,2.9-1.8,6.4-3.7,10.3c-1.1,2.3-2.7,4.8-4.5,7.6c-1.9,2.8-3.1,4.6-3.7,5.3c-1.2,1.6-3.3,4-6.4,7.2
		c-3,3.2-4.9,5.3-5.8,6.3c-2.3,2.3-4.7,4.6-6.9,7c-2,2.2-3.9,4.3-5.9,6.5c-1.9,5.5-2.9,12.4-3.1,20.4c-0.2,8.1,0.2,15.5,1.2,22.2
		c0.7,4.7,2.2,12.5,4.6,23.3c1.3,6.2,2.7,12.4,4.1,18.5c0,0.2-0.1,0.3-0.1,0.5c-0.6,2.6-1.4,4.8-2.4,6.7c-1.1,2.5-3.5,4.1-7.2,4.8
		C317,504.6,313.6,503.3,310.7,499.9z M321.5,391.3c4.5-6.9,9.2-13.8,14.1-20.7c0.6-0.8,1.2-1.9,1.9-3.3c2.1-4.5,3.1-9.5,3.2-15
		c-0.2-2.6-1-4.8-2.5-6.4c-1.5-1.7-3.5-2.4-6-2.3c-4.1,7.8-8,15.6-11.6,23.4c-5.3,10.6-8.9,18.8-11.1,24.6
		c-2.1,5.5-3.3,9.1-3.7,10.8C309.8,399.6,315.1,395.9,321.5,391.3z"/>
	<path class="st0" d="M398.4,490.5c0.1-0.2,0.2-0.4,0.2-0.6c2.1-7.6,3.5-16,4.1-25.3c0.7-9.3,0.9-20.6,0.7-33.8
		c-0.2-9.9,0.1-18.9,0.7-26.8c-14.6,28.3-26.2,57.1-34.9,86c-0.7,2.4-1.8,4.1-3.2,5.3c-1.4,1.2-3.7,1.9-6.9,2.2
		c-2.4,0.2-4.2-0.1-5.3-1.1c-1.1-1-1.4-2.3-1-4.1c0.2-0.6,0.3-1.2,0.5-1.8c6.2-21.8,14-43.7,23.5-65.3c8.6-19.1,19.4-40.6,33.4-63.9
		c5.3-8.8,10.8-17.5,16.7-26.2c1.1-1.7,2.6-2.8,4.3-3.4c1.7-0.6,4.6-0.7,8.6-0.4c6.3,0.5,11.7,1.6,15.9,3.5c4.3,1.8,7.4,4.1,9.4,6.8
		c4.1,5.6,4.7,11.8,2.1,18.7c-1,2.8-2.7,5.9-5.2,9.4c-1.4,2-3.2,4.2-5.5,6.6c-2.2,2.4-3.7,3.9-4.3,4.6c-1.4,1.3-3.7,3.3-7.1,5.9
		c-3.3,2.6-5.5,4.3-6.4,5.1c-2.6,1.8-5.1,3.7-7.6,5.6c-2.2,1.7-4.4,3.5-6.5,5.3c-2.6,5.1-4.7,11.5-6.1,19.4
		c-1.5,7.9-2.2,15.2-2.4,21.9c-0.1,4.7,0.1,12.6,0.7,23.7c0.3,6.3,0.6,12.6,1,18.9c-0.1,0.1-0.1,0.3-0.2,0.4c-1,2.4-2,4.4-3.2,6.1
		c-1.4,2.2-3.9,3.3-7.4,3.2C403.5,496.3,400.6,494.4,398.4,490.5z M425.1,386.4c5.3-6,10.8-11.8,16.4-17.6c0.7-0.7,1.4-1.6,2.3-2.9
		c2.6-4,4.4-8.7,5.4-14.1c0.3-2.6-0.2-4.9-1.3-6.8c-1.1-1.9-2.9-3-5.3-3.4c-5.1,6.9-10,13.8-14.6,20.8c-6.7,9.4-11.3,16.7-14.3,22
		c-2.8,5-4.5,8.3-5.1,9.9C412.9,392.4,418.4,389.7,425.1,386.4z"/>
	<path class="st0" d="M481,498.1c0.1-0.2,0.2-0.4,0.3-0.6c3.1-7,5.7-15.1,7.9-24.1c2.1-9,4.1-20,6.1-33.1c1.4-9.8,3.1-18.5,5-26.2
		c-18.2,25.2-33.6,51.4-46.1,78c-1,2.2-2.3,3.7-3.8,4.6c-1.5,0.9-3.7,1.2-6.7,0.9c-2.3-0.2-3.8-0.9-4.7-2.1c-0.9-1.1-1-2.6-0.3-4.2
		c0.2-0.5,0.5-1.1,0.7-1.6c9.1-20.2,19.8-40.1,32.1-59.6c11.1-17.2,24.7-36.3,41.6-56.8c6.4-7.7,13.1-15.3,20-22.8
		c1.4-1.5,2.9-2.3,4.6-2.6c1.7-0.3,4.4,0.1,8.2,1.1c5.9,1.6,10.7,3.6,14.4,6.2c3.7,2.5,6.3,5.3,7.7,8.3c2.9,6.2,2.4,12.5-1.2,18.7
		c-1.4,2.6-3.6,5.4-6.5,8.4c-1.7,1.7-3.8,3.6-6.2,5.5c-2.5,2-4.1,3.2-4.8,3.7c-1.5,1.1-4.1,2.6-7.6,4.5c-3.6,2-5.8,3.3-6.9,3.9
		c-2.7,1.4-5.4,2.7-8,4.1c-2.3,1.3-4.7,2.7-7,4c-3.3,4.5-6.3,10.5-8.9,18c-2.7,7.5-4.6,14.5-5.8,21.1c-0.8,4.6-2,12.5-3.2,23.4
		c-0.8,6.3-1.5,12.5-2.1,18.8c-0.1,0.1-0.2,0.3-0.2,0.4c-1.3,2.2-2.6,4-4,5.4c-1.7,1.9-4.1,2.5-7.3,1.8
		C484.9,504.7,482.4,502.3,481,498.1z M522.8,400.6c5.9-4.9,12.1-9.8,18.3-14.5c0.8-0.5,1.6-1.4,2.6-2.4c3.2-3.5,5.6-7.8,7.5-13
		c0.7-2.5,0.7-4.8-0.1-6.9c-0.7-2.1-2.2-3.5-4.4-4.3c-5.9,5.9-11.7,11.9-17.3,17.9c-7.8,8-13.4,14.5-17.1,19.1
		c-3.5,4.4-5.6,7.3-6.4,8.8C510.4,404.3,516,402.7,522.8,400.6z"/>
	<path class="st0" d="M556.2,520.4c0.1-0.2,0.3-0.4,0.4-0.5c4.1-6.4,7.9-13.8,11.4-22.4c3.5-8.5,7.3-19,11.4-31.5
		c3-9.4,6.1-17.7,9.2-25c-21.4,21.7-40.2,44.8-56.1,68.8c-1.3,2-2.7,3.2-4.2,3.9c-1.5,0.6-3.6,0.5-6.4-0.3c-2.1-0.6-3.4-1.6-4-2.9
		c-0.6-1.3-0.5-2.7,0.4-4.2c0.3-0.5,0.6-1,0.9-1.5c11.7-18.2,24.9-36,39.7-53.1c13.3-15,29.3-31.5,48.8-48.8
		c7.4-6.5,15-12.9,22.9-19.1c1.5-1.2,3.1-1.8,4.8-1.8c1.6,0,4.2,0.8,7.5,2.5c5.3,2.5,9.4,5.4,12.5,8.5c3.1,3.1,5,6.3,5.8,9.5
		c1.6,6.6,0,12.7-4.5,18.2c-1.8,2.3-4.3,4.7-7.6,7.2c-1.9,1.4-4.2,2.9-6.9,4.4c-2.7,1.5-4.4,2.5-5.2,2.9c-1.6,0.8-4.3,1.8-8,3.2
		c-3.7,1.4-6.1,2.3-7.2,2.7c-2.8,0.9-5.5,1.8-8.3,2.7c-2.4,0.9-4.9,1.8-7.3,2.8c-3.8,3.9-7.7,9.3-11.5,16.2
		c-3.8,6.9-6.8,13.5-9.1,19.8c-1.6,4.4-4,11.9-7,22.5c-1.8,6-3.5,12.1-5.2,18.1c-0.1,0.1-0.2,0.2-0.3,0.3c-1.5,1.9-3.1,3.5-4.6,4.6
		c-1.9,1.6-4.2,1.8-7.1,0.6C558.6,527.5,556.8,524.7,556.2,520.4z M611.9,431.4c6.4-3.8,13-7.6,19.8-11.2c0.8-0.4,1.8-1.1,2.9-2
		c3.6-2.9,6.7-6.7,9.3-11.5c1.1-2.4,1.5-4.6,1.1-6.8c-0.3-2.2-1.5-3.8-3.4-4.9c-6.6,4.8-13.1,9.7-19.4,14.8
		c-8.8,6.6-15.1,12-19.4,16c-4,3.7-6.5,6.3-7.5,7.6C599.7,432.9,605.1,432.3,611.9,431.4z"/>
	<path class="st0" d="M621.9,554.8c0.2-0.2,0.3-0.3,0.5-0.5c4.9-5.6,9.8-12.3,14.6-20.1c4.8-7.8,10.2-17.5,16.3-29.2
		c4.5-8.7,8.9-16.4,13.2-23.1c-24.1,17.8-45.7,37.5-64.7,58.5c-1.5,1.7-3.1,2.7-4.6,3.1c-1.5,0.4-3.5-0.1-5.8-1.4
		c-1.8-1-2.9-2.1-3.2-3.5c-0.4-1.4,0-2.7,1.1-4c0.4-0.4,0.7-0.9,1.1-1.3c14-16,29.5-31.3,46.4-45.6c15.1-12.6,33.1-26.2,54.7-39.9
		c8.2-5.2,16.5-10.2,25.2-15c1.7-0.9,3.3-1.2,4.9-0.9c1.6,0.3,3.8,1.5,6.7,3.7c4.6,3.3,8,6.8,10.3,10.4c2.4,3.6,3.6,7,3.7,10.3
		c0.3,6.8-2.3,12.4-7.7,17.1c-2.1,2-5,3.9-8.6,5.8c-2.1,1.1-4.5,2.2-7.3,3.2c-2.8,1-4.7,1.7-5.5,2c-1.7,0.5-4.4,1.1-8.1,1.8
		c-3.8,0.7-6.2,1.2-7.3,1.5c-2.8,0.4-5.5,0.9-8.3,1.3c-2.5,0.5-4.9,1-7.4,1.6c-4.3,3.2-9,7.9-13.8,14.1c-4.8,6.2-8.8,12.2-12.1,18
		c-2.3,4.1-5.9,11.1-10.6,21c-2.8,5.6-5.5,11.3-8.1,17c-0.1,0.1-0.2,0.2-0.3,0.3c-1.8,1.7-3.5,2.9-5.1,3.8c-2,1.3-4.2,1.1-6.7-0.6
		C622.9,562.3,621.7,559.2,621.9,554.8z M690.3,476.5c6.8-2.7,13.7-5.3,20.8-7.7c0.9-0.3,1.9-0.8,3.1-1.4c3.9-2.2,7.6-5.5,11-9.8
		c1.5-2.1,2.3-4.3,2.4-6.5c0.1-2.2-0.7-4-2.3-5.4c-7.2,3.6-14.3,7.4-21.1,11.3c-9.5,5.1-16.5,9.3-21.2,12.5c-4.5,3-7.3,5.1-8.5,6.2
		C678.4,476,683.7,476.2,690.3,476.5z"/>
	<path class="st0" d="M676.7,599.2c0.2-0.1,0.3-0.3,0.5-0.4c5.7-4.7,11.5-10.5,17.5-17.4c6-6.9,12.9-15.5,20.9-25.9
		c5.9-7.8,11.6-14.7,16.8-20.5c-26.2,13.6-50.3,29.4-71.9,47c-1.8,1.4-3.4,2.2-4.8,2.3c-1.5,0.1-3.2-0.7-5.2-2.3
		c-1.5-1.2-2.3-2.5-2.4-4c-0.1-1.4,0.5-2.7,1.8-3.8c0.4-0.4,0.9-0.7,1.3-1.1c16-13.5,33.3-26,52-37.4c16.6-9.9,36.2-20.3,59.5-30.2
		c8.8-3.7,17.7-7.3,26.9-10.5c1.8-0.6,3.4-0.7,4.8-0.1c1.4,0.6,3.4,2.1,5.8,4.7c3.7,4,6.4,8,8,11.9c1.6,3.9,2.1,7.4,1.6,10.7
		c-1,6.7-4.6,11.7-10.6,15.5c-2.4,1.6-5.5,3-9.3,4.2c-2.2,0.7-4.7,1.4-7.6,1.9c-2.9,0.5-4.8,0.9-5.6,1c-1.7,0.2-4.4,0.4-8.1,0.5
		c-3.7,0.1-6.1,0.2-7.2,0.3c-2.7,0-5.4-0.1-8.2-0.1c-2.4,0.1-4.9,0.2-7.3,0.3c-4.7,2.4-10,6.3-15.7,11.6
		c-5.7,5.3-10.7,10.5-14.9,15.7c-2.9,3.6-7.7,9.9-14,18.9c-3.7,5.1-7.3,10.2-10.9,15.3c-0.1,0.1-0.2,0.2-0.4,0.2
		c-2,1.3-3.8,2.3-5.5,2.9c-2.2,0.9-4.2,0.4-6.1-1.6C676.2,606.6,675.7,603.4,676.7,599.2z M756.1,533.4c7-1.6,14.1-2.9,21.3-4.1
		c0.9-0.1,1.9-0.4,3.2-0.9c4.2-1.5,8.3-4.1,12.4-7.7c1.8-1.8,3-3.8,3.5-6c0.5-2.1,0.1-4-1.2-5.7c-7.6,2.3-15.1,4.9-22.4,7.6
		c-10.1,3.4-17.5,6.4-22.6,8.8c-4.8,2.2-7.9,3.8-9.2,4.7C744.9,531,749.9,532.1,756.1,533.4z"/>
	<path class="st0" d="M719.5,651c0.2-0.1,0.4-0.2,0.6-0.3c6.3-3.7,13-8.4,20-14.2c7-5.7,15.4-13.1,25-21.9
		c7.2-6.7,13.9-12.4,20.1-17.2c-27.8,8.9-53.7,20.5-77.5,34.2c-1.9,1.1-3.6,1.6-5,1.5c-1.4-0.1-2.9-1.1-4.4-3
		c-1.2-1.4-1.6-2.8-1.4-4.2c0.2-1.4,1-2.5,2.4-3.4c0.5-0.3,0.9-0.6,1.4-0.9c17.6-10.7,36.4-20.1,56.4-28.2
		c17.8-7,38.5-13.9,62.9-19.7c9.2-2.2,18.5-4.1,28-5.7c1.9-0.3,3.4-0.1,4.7,0.7c1.3,0.8,2.9,2.7,4.7,5.6c2.9,4.6,4.7,8.9,5.4,13
		c0.8,4.1,0.6,7.6-0.5,10.7c-2.2,6.3-6.8,10.6-13.3,13.2c-2.7,1.1-6,1.9-9.9,2.5c-2.3,0.3-4.8,0.5-7.8,0.6c-2.9,0-4.8,0-5.6,0
		c-1.7-0.1-4.3-0.4-7.9-0.9c-3.6-0.5-5.9-0.8-7-1c-2.6-0.5-5.2-1-7.8-1.4c-2.4-0.3-4.7-0.6-7.1-0.9c-5,1.6-10.8,4.4-17.4,8.7
		c-6.5,4.2-12.3,8.5-17.3,12.8c-3.5,3.1-9.3,8.4-17.1,16.1c-4.5,4.4-8.9,8.7-13.3,13.2c-0.1,0.1-0.3,0.1-0.4,0.2
		c-2.2,1-4.1,1.6-5.8,2c-2.2,0.6-4-0.3-5.5-2.5C717.6,658.1,717.7,655,719.5,651z M808.2,599.9c7-0.3,14.2-0.5,21.4-0.4
		c0.9,0,2-0.1,3.3-0.3c4.4-0.8,8.8-2.6,13.5-5.4c2.1-1.5,3.6-3.2,4.5-5.2c0.9-2,0.9-3.9-0.1-5.7c-7.8,1-15.5,2.1-23.1,3.5
		c-10.4,1.6-18.1,3.3-23.5,4.7c-5.1,1.4-8.3,2.4-9.8,3C797.9,595.6,802.5,597.5,808.2,599.9z"/>
</g>
</svg>
