<?xml version="1.0" encoding="UTF-8"?>
<svg id="Laag_1" data-name="Laag 1" xmlns="http://www.w3.org/2000/svg" viewBox="0 0 62.58 42">
  <defs>
    <style>
      .cls-1 {
        fill: #494948;
        stroke-width: 0px;
      }
    </style>
  </defs>
  <path class="cls-1" d="M10.87,42c-1.08,0-2.17-.28-3.25-.84-.7-.37-1.17-.88-1.43-1.57-.12-.33-.22-.68-.32-1.02-.07-.24-.14-.47-.22-.71-.15.03-.29.06-.44.09-.37.08-.75.17-1.16.18-.25,0-.49.03-.74.05-.63.06-1.28.12-1.94-.03-.86-.19-1.4-.82-1.33-1.58.03-.37.07-.75.08-1.12.06-1.92.11-3.83.16-5.75,0-.34.06-.77.32-1.17-.01-.02-.02-.04-.04-.06-.23-.42-.35-.84-.36-1.24,0-.56-.05-1.12-.08-1.68-.05-.74-.1-1.5-.08-2.27,0-.15.01-.29.02-.44.01-.23.02-.46.02-.69,0-.33-.02-.66-.03-.99-.02-.41-.04-.81-.04-1.22,0-.79,0-1.59,0-2.38,0-.81,0-1.61,0-2.42v-.46c-.01-.39-.02-.78,0-1.17.04-1.54.05-3.07.07-4.61l.03-2.56c0-.61,0-1.21.04-1.82v-.1c.05-.78.09-1.58.46-2.37.31-.66.75-1.08,1.36-1.33.49-.2.98-.25,1.46-.3l.15-.02c1.38-.16,2.45-.23,3.46-.24.9,0,1.78.02,2.66.05.61.02,1.23.04,1.84.05.4,0,.8-.01,1.2-.03.36-.02.71-.03,1.07-.03,2.8-.01,5.6-.01,8.41,0,.54,0,1.07.02,1.61.03.58.02,1.14.03,1.73.03h.98c1.16,0,2.32,0,3.48-.02.66-.02,1.32-.02,1.98-.03,1.23-.01,2.5-.03,3.74-.1.4-.02.79-.03,1.19-.03.27,0,.54,0,.81-.02.18,0,.36-.02.54-.03.25-.02.5-.04.75-.04h.39c.66-.02,1.33-.04,2,.27,1.46.68,2.19,1.33,2.1,2.96-.05.87,0,1.77.02,2.56.02.48.04.96.07,1.45.07,1.35.14,2.75.1,4.13-.01.44.05.82.21,1.15.22,0,.44-.02.66-.03.21-.02.42-.03.62-.04.93-.02,1.9,0,2.97.04.17,0,.34.03.52.06.26.04.51.08.76.03.65-.12,1.3-.12,1.94-.12.34,0,.67,0,1.01-.02.4-.02.74.09,1.06.36.34.28.64.6.92.9.22.23.44.47.68.69.5.45.93.96,1.35,1.46.41.48.79.94,1.17,1.39.49.59.99,1.17,1.49,1.75.35.4.71.79,1.06,1.19.4.44.81.89,1.2,1.34l.11.13c.2.22.45.49.5.9.02.19.1.39.24.64.2.34.23.69.24.96.04,1.12.07,2.24.08,3.36.01,1.37.02,2.74.03,4.11v1.92c.01.08,0,.16,0,.24,0,.13-.01.26,0,.37.07.39.05.76-.05,1.14-.01.06-.04.11-.08.15-.01.15-.11.27-.26.32-.58.18-1.61.22-2.16.24-1.48.06-2.79.21-3.98.47-.03.29-.1.56-.17.81l-.07.26c-.4,1.54-1.51,2.53-3.38,3-1.02.26-2.07.03-2.94-.64-.76-.58-1.39-1.29-1.89-2.11-.15-.25-.33-.53-.55-.74-.76.11-1.56.22-2.38.24-.86.02-1.71.06-2.56.09-1.24.05-2.49.1-3.73.12-1.37.02-2.71.1-4.2.19-1.39.09-2.8.13-4.17.17l-.98.03c-.49.01-.98.04-1.47.05-.69.03-1.38.06-2.08.07-.48,0-.95.03-1.43.05-.77.03-1.58.07-2.37.05-.78-.02-1.56-.04-2.34-.07-.75-.03-1.49-.06-2.24-.07-.66-.02-1.34.05-2,.11-.24.02-.48.04-.72.06l-.03.12c-.17.78-.35,1.58-.8,2.32-.51.85-1.26,1.33-2.16,1.39-.15.01-.3.02-.46.02ZM6.32,37.46c.1.3.19.6.28.9.09.32.19.65.31.97.19.52.53.89,1.07,1.17,1.12.58,2.2.83,3.3.74.66-.05,1.19-.4,1.58-1.03.38-.63.54-1.34.71-2.09l.07-.32s-.04-.19-.08-.28c-.02-.07-.05-.13-.07-.2-.06-.21-.1-.41-.13-.62-.05-.31-.1-.59-.23-.85-.54-1.05-1.41-1.62-2.65-1.72-.71-.06-1.38.18-2.08.44l-.43.15c-.42.15-.66.59-.91,1.07-.17.31-.28.61-.4.9-.11.27-.21.53-.34.79ZM47.56,36.57c.25.26.45.56.61.83.45.73,1.02,1.38,1.71,1.9.7.54,1.5.71,2.3.5,1.61-.41,2.51-1.2,2.84-2.47l.08-.27c.14-.51.26-.91.02-1.36-.11-.2-.19-.42-.27-.64-.1-.27-.19-.52-.33-.72-.58-.83-1.42-1.38-2.58-1.71-.99-.28-1.8-.16-2.56.37-.26.19-.52.38-.76.59-.54.45-.84,1.01-.91,1.71,0,.11-.02.22-.02.33-.02.3-.04.62-.12.93ZM1.24,28.96c-.13.19-.2.43-.2.78-.04,1.92-.1,3.83-.16,5.75-.01.39-.05.78-.08,1.16-.04.44.36.69.74.78.55.12,1.12.07,1.71.01.26-.02.52-.05.78-.06.34-.01.67-.08,1.02-.16.2-.04.4-.09.6-.12.11-.23.2-.46.3-.7.13-.32.26-.64.42-.95.31-.58.64-1.21,1.34-1.45l.41-.15c.75-.27,1.52-.56,2.41-.48,1.5.13,2.6.85,3.25,2.13.18.36.24.72.3,1.07.03.18.06.36.11.54.01.05.03.1.05.15.02.05.03.09.05.15.22-.02.44-.04.65-.06.68-.06,1.38-.12,2.08-.11.75.02,1.5.04,2.25.07.78.03,1.55.06,2.33.07.77.02,1.56-.02,2.32-.05.48-.02.96-.04,1.45-.05.69-.01,1.37-.04,2.06-.07.49-.02.99-.04,1.48-.06l.99-.03c1.36-.04,2.76-.08,4.14-.17,1.5-.1,2.86-.18,4.24-.19,1.24-.02,2.48-.07,3.71-.12.86-.03,1.72-.07,2.57-.09.77-.02,1.54-.12,2.27-.23.05-.23.07-.47.09-.73,0-.12.01-.24.03-.36.08-.89.48-1.64,1.17-2.22.26-.22.53-.42.81-.62.94-.66,1.98-.82,3.19-.48,1.33.37,2.31,1.03,2.99,2,.2.29.31.6.42.9.07.19.13.37.22.55.06.12.11.24.15.35,1.22-.26,2.54-.41,4.03-.47.43-.02,1.29-.05,1.81-.16.07-.27.08-.54.04-.81-.03-.18-.02-.37-.02-.52,0-.07,0-.14,0-.2v-1.92c-.02-1.37-.03-2.74-.04-4.11-.01-1.11-.05-2.23-.08-3.34,0-.27-.05-.46-.14-.62-.02-.04-.05-.09-.08-.14-.99.28-2.01.34-3,.39h-.17c-.64.04-1.27.06-1.91.08-.61.02-1.22.03-1.83.06-.7.04-1.4.09-2.1.15-.52.04-1.04.08-1.56.12-.23.01-.46,0-.7-.02l-.3-.02c-.13,0-.25-.08-.31-.18-.04-.03-.08-.07-.11-.12-.18-.3-.28-.65-.29-1.05-.01-.39-.02-.78-.02-1.17,0-.42-.01-.85-.03-1.27-.02-.44-.06-.87-.09-1.31l-.14-1.53c-.05-.58-.11-1.17-.16-1.75-.03-.33-.05-.65-.07-.98-.03-.45-.06-.89-.1-1.34,0-.07,0-.14,0-.19-.14-.02-.29-.04-.43-.05-1.05-.05-2-.06-2.92-.04-.19,0-.39.02-.58.03-.25.02-.49.04-.74.04-.09.19-.15.4-.2.67-.07.39-.06.79-.05,1.22,0,.16,0,.33,0,.49,0,.61-.03,1.21-.05,1.82-.02.58-.05,1.15-.05,1.73v.24c-.02,1.98-.04,4.02-.17,6.04-.05.76-.17,1.57-.36,2.46-.11.52-.44.87-.97,1.04-.79.26-1.42.38-2.02.39h-.15c-.99.02-2.01.04-3.03-.03-.63-.04-1.27-.05-1.9-.06-.6,0-1.2-.02-1.8-.05-.82-.05-1.66-.05-2.47-.06-.81,0-1.64,0-2.47-.06-.7-.04-1.42-.04-2.11-.03-.57,0-1.13,0-1.7-.01-.83-.03-1.67-.02-2.5-.02-.79,0-1.57,0-2.36-.02-1.24-.04-2.51.02-3.74.07-.65.03-1.29.06-1.93.07-.6.01-1.2.02-1.79.03-1.07.02-2.15.03-3.22.08-1.07.04-2.14.02-3.14-.02-1.04-.04-2.08-.12-3.09-.21-.44-.04-.87-.07-1.31-.11-.02,0-.05,0-.07,0ZM26.8,28.34c.48,0,.97,0,1.45.04.81.05,1.63.05,2.43.06.82,0,1.67,0,2.51.06.59.04,1.18.04,1.76.05.65,0,1.3.02,1.94.06.98.07,1.99.05,2.96.03h.15c.53-.01,1.08-.12,1.8-.36.29-.09.42-.23.48-.49.18-.86.3-1.62.34-2.35.13-1.99.14-4.03.16-6v-.24c0-.58.03-1.17.05-1.75.02-.6.05-1.19.05-1.79,0-.16,0-.32,0-.47,0-.44-.02-.89.06-1.36.06-.37.16-.67.3-.94-.22-.45-.32-.95-.3-1.53.04-1.35-.03-2.74-.09-4.07-.02-.48-.05-.97-.07-1.45-.03-.81-.07-1.73-.02-2.63.07-1.21-.38-1.64-1.67-2.24-.5-.24-1.06-.22-1.66-.21h-.41c-.23,0-.46.03-.7.04-.19.01-.38.03-.57.04-.28,0-.55.01-.83.02-.39,0-.77,0-1.16.03-1.26.07-2.54.08-3.78.1-.66,0-1.31.01-1.97.03-1.17.03-2.33.03-3.5.02h-.97c-.59,0-1.17-.02-1.76-.04-.53-.02-1.06-.03-1.59-.03-2.8-.01-5.6-.01-8.4,0-.35,0-.69.02-1.04.03-.41.02-.83.04-1.24.03-.62,0-1.24-.03-1.86-.05-.88-.03-1.76-.06-2.63-.05-.98,0-2.03.08-3.39.24l-.16.02c-.45.05-.87.09-1.26.25-.44.18-.74.47-.96.96-.3.65-.34,1.35-.38,2.09v.1c-.04.59-.04,1.19-.05,1.78l-.03,2.56c-.02,1.54-.03,3.08-.07,4.62,0,.38,0,.76,0,1.14v.46c.01.81,0,1.62,0,2.43,0,.79,0,1.58,0,2.38,0,.4.02.79.04,1.19.01.34.03.67.04,1.01,0,.25,0,.49-.02.74,0,.14-.01.28-.02.42-.02.73.03,1.48.08,2.2.04.57.08,1.15.09,1.72,0,.28.09.58.26.89.04.07.05.08.13.09.44.03.88.07,1.32.11,1,.08,2.03.17,3.05.21.98.04,2.03.06,3.08.02,1.08-.05,2.16-.06,3.24-.08.6,0,1.19-.02,1.79-.03.64-.02,1.28-.04,1.92-.07,1.24-.05,2.52-.11,3.79-.07.78.02,1.56.02,2.33.02.84,0,1.69,0,2.53.02.56.02,1.11.02,1.67.01.24,0,.48,0,.72,0ZM50.07,23.45c.05,0,.11,0,.16.01.2.01.4.03.6.02.51-.03,1.03-.08,1.54-.12.71-.06,1.42-.11,2.12-.15.62-.03,1.24-.05,1.86-.06.63-.02,1.26-.03,1.89-.07h.17c.97-.06,1.9-.11,2.79-.36,0-.03,0-.05-.01-.08-.02-.16-.15-.31-.3-.47l-.13-.15c-.38-.45-.78-.89-1.18-1.33-.36-.4-.72-.8-1.08-1.2-.5-.58-1-1.17-1.49-1.76-.38-.45-.76-.9-1.14-1.35-.44-.51-.86-1-1.32-1.43-.25-.23-.49-.48-.72-.73-.29-.3-.55-.59-.86-.84-.18-.15-.34-.2-.54-.19-.35.02-.7.02-1.05.02-.63,0-1.22,0-1.81.11-.09.02-.17.02-.26.03.04.52.07.97.1,1.43.02.32.04.64.07.96.05.58.1,1.16.16,1.74l.14,1.53c.04.45.08.9.1,1.35.01.43.02.86.03,1.29,0,.39,0,.77.02,1.16,0,.24.06.45.16.63Z"/>
</svg>