<?xml version="1.0" encoding="UTF-8"?>
<svg id="Laag_1" data-name="Laag 1" xmlns="http://www.w3.org/2000/svg" viewBox="0 0 29.67 44.85">
  <defs>
    <style>
      .cls-1 {
        fill: #494948;
        stroke-width: 0px;
      }
    </style>
  </defs>
  <path class="cls-1" d="M8.47,44.85c-1.19,0-2.17-.03-2.85-.08-1.78-.15-2.56-.42-2.69-.94-.19-.78-2.33-27.78-2.34-27.99C.54,14.61.07,4.01,0,3.23c-.03-.4.11-.77.43-1.1C2.29.21,11.03-.42,26.41.27c.57.03.94.04,1.06.04,1.6,0,2.04,9.91,2.12,18.29.01.05.02.11,0,.16,0,0,0,.55.01,1.43.13,19.28,0,22.24-.16,22.6-.51,1.17-14.12,2.05-20.98,2.05ZM15.74.75C4.73.75,1.73,1.87.97,2.65c-.22.23-.23.41-.22.52.06.78.54,11.41.58,12.64.05,1.45,2.2,27.22,2.32,27.84.39.42,4.49.71,12.53.23,6.61-.39,11.83-1.06,12.6-1.44.1-.67.2-5.21.09-22.23,0-.78,0-1.16,0-1.36,0-.03-.01-.06-.01-.09-.08-8.22-.64-17.09-1.45-17.72-.04.02-.43,0-1.02-.02-4.19-.19-7.7-.27-10.64-.27ZM7.35,42.51c-.31,0-.62,0-.92-.01-.31,0-.61-.02-.91-.06-.57-.07-.93-.48-1.08-1.2-.12-.6-.16-1.2-.17-1.76-.04-1.32-.1-2.63-.18-3.94-.02-.43-.04-.86-.05-1.29-.01-.33-.02-.66-.04-.99-.03-.61-.06-1.22-.1-1.83l-.12-2.35c-.02-.5-.04-1.01-.08-1.51-.02-.32-.04-.65-.05-.97-.03-.58-.06-1.16-.11-1.74-.02-.21-.03-.42-.04-.63,0-.13-.01-.27-.02-.4-.06-.97-.12-1.95-.17-2.92l-.1-1.84c-.03-.63-.07-1.27-.13-1.9-.03-.33-.05-.67-.07-1-.03-.44-.06-.87-.1-1.31-.03-.31-.06-.61-.09-.92-.05-.6-.11-1.2-.19-1.79-.06-.42-.1-.85-.14-1.28-.04-.41-.08-.83-.14-1.24-.09-.69-.18-1.42-.05-2.16.17-.97.67-1.48,1.61-1.65l.33-.06c.51-.09,1-.17,1.44-.37-.01-.44,0-.96.13-1.48.04-.16.06-.31.08-.45.1-.81.3-1.39,2.02-1.42.27,0,1.88-.08,3.9-.17,4.95-.22,9.08-.41,9.53-.38.2.01.39.01.58,0,.5,0,1.01-.01,1.52.21.4.17.88.61.94,1.74,0,.08.01.17.02.25.02.24.05.49,0,.76l1.27-.05s.06,0,.09,0c.98.21,1.18.68,1.25,1.66.05.71.08,1.42.1,2.13.02.46.03.92.06,1.39.04.71.08,1.42.12,2.13.04.62.07,1.23.11,1.85.03.61.05,1.22.06,1.83.01.76.04,1.53.06,2.29.03.91.05,1.82.07,2.74v.96c.02.79.03,1.58.06,2.36.02.6.02,1.19.03,1.79,0,.71,0,1.42.04,2.12.02.39.02.79.02,1.18,0,.5,0,1,.04,1.5.03.38.03.75.03,1.13,0,.34,0,.67.02,1.01.03.45.04.89.06,1.34.01.47.03.94.06,1.41.03.4.05.79.08,1.19.03.51.06,1.02.1,1.53l.04.46c.05.55.1,1.12.04,1.71-.1.94-.58,1.21-1.28,1.32-1.19.19-2.39.23-3.43.25l-1.21.02c-.98.02-1.97.03-2.95.07-1.03.04-2.05.1-3.08.18-.8.06-1.59.12-2.39.17l-.39.03c-.46.03-.89.05-1.32.13-.19.03-.38.04-.57.05h-.25c-1.52.12-2.81.18-3.98.18ZM6.12,6.01c-.57.29-1.16.39-1.74.49l-.32.06c-.64.12-.89.38-1.01,1.04-.11.64-.04,1.31.05,1.93.06.42.1.84.14,1.27.04.42.08.83.14,1.24.08.61.14,1.22.19,1.83.03.3.05.61.08.91.04.44.08.89.11,1.33.02.33.04.66.07.98.06.64.09,1.28.13,1.92l.1,1.84c.05.97.1,1.94.17,2.91,0,.14.02.28.02.42,0,.2.02.39.03.58.06.59.09,1.18.12,1.78.02.32.03.64.05.96.03.51.05,1.01.08,1.52l.12,2.35c.03.61.07,1.23.1,1.84.02.33.03.67.04,1,.01.43.03.85.05,1.28.08,1.32.14,2.64.18,3.96.02.52.05,1.08.16,1.63.12.56.32.59.44.61.28.04.56.05.83.06,1.4.04,2.93-.01,4.83-.15h.27c.16-.02.32-.03.48-.05.47-.08.94-.11,1.4-.14l.39-.02c.79-.05,1.59-.11,2.39-.17,1.03-.08,2.07-.14,3.1-.18.99-.04,1.98-.06,2.97-.07l1.21-.02c1.01-.02,2.19-.06,3.33-.24.48-.08.6-.15.66-.66.05-.51,0-1.03-.04-1.57l-.04-.47c-.04-.51-.07-1.03-.1-1.54-.02-.39-.05-.79-.08-1.18-.03-.48-.05-.96-.06-1.44-.01-.44-.03-.88-.05-1.31-.02-.35-.02-.71-.03-1.06,0-.36,0-.71-.03-1.07-.04-.52-.04-1.04-.04-1.55,0-.38,0-.77-.02-1.15-.03-.72-.04-1.43-.04-2.15,0-.59,0-1.18-.03-1.77-.03-.79-.04-1.58-.05-2.38v-.96c-.03-.91-.05-1.82-.08-2.73-.02-.77-.04-1.53-.06-2.3-.01-.6-.03-1.2-.06-1.8-.03-.62-.07-1.23-.11-1.85-.04-.71-.09-1.42-.12-2.13-.02-.47-.04-.93-.06-1.4-.02-.7-.05-1.4-.1-2.1-.06-.78-.12-.86-.61-.97l-2.04.08c-.61.14-1.2.11-1.78.08-.2,0-.38-.01-.55,0h0c.18.13.38.28.61.37.37.15.72.32,1.06.52.43.25.71.68.74,1.16.03.49-.19.96-.61,1.28-.39.3-.84.44-1.26.56-1.19.33-11.03.66-11.77.57-.55-.07-1.23-.15-1.86-.44-.4-.18-.69-.41-.91-.71-.2-.28-.27-.67-.19-1.03.09-.38.34-.69.7-.87.16-.08.32-.17.47-.26.2-.11.4-.23.61-.33.25-.12.4-.25.49-.4-.85.04-2.78.21-3.19.26-.02,0-.05,0-.07,0ZM10.22,5.58s-.02.07-.03.12c-.13.52-.44.87-.96,1.12-.19.1-.39.2-.58.31-.17.09-.33.18-.5.27-.21.11-.28.27-.31.38-.04.15,0,.31.07.41.14.19.33.34.61.46.49.22,1.01.3,1.64.38.7.09,10.39-.25,11.48-.55.37-.1.72-.21,1.01-.43.22-.17.34-.4.32-.63-.02-.23-.15-.43-.37-.56-.31-.18-.64-.34-.98-.47-.31-.13-.56-.31-.78-.46-.21-.15-.33-.38-.36-.66,0-.06-.03-.07-.1-.06-.2.04-2.39.12-6.91.28-1.55.05-2.79.1-2.93.11-.11,0-.22,0-.33,0ZM21.18,2.23c-.92,0-5.95.23-9.33.38-2.03.09-3.66.17-3.92.17-1.19.02-1.22.21-1.29.76-.02.17-.04.35-.09.54-.08.32-.12.69-.11,1.14.76-.08,2.54-.26,3.24-.24.03-.04.06-.07.09-.1.12-.12.31-.14.45-.06h.02c.09,0,.17.02.26.01.14-.01,1.39-.05,2.95-.11,2.59-.09,6.51-.23,6.8-.26.33-.06.55.03.67.12.01,0,.02.02.04.03.31-.07.61-.06.89-.05.59.03,1.12.05,1.64-.07,0,0,0,0,.01,0,.14-.03.15-.05.17-.14.05-.18.03-.37,0-.59,0-.09-.02-.19-.02-.28-.02-.41-.12-.93-.49-1.09-.37-.16-.78-.15-1.22-.15-.21,0-.43,0-.64-.01-.03,0-.07,0-.12,0ZM10.66,37.06c-.18,0-.34-.13-.37-.31-.04-.2.1-.4.3-.44.45-.08.89-.07,1.32-.06h.31c1.09.03,2.07,0,3-.07.26-.02.52-.03.77-.04.27-.01.55-.02.82-.04.46-.04.92-.08,1.38-.13.56-.06,1.13-.11,1.7-.15.12,0,.24-.01.37-.02.39-.01.76-.02,1.04-.17.18-.1.41-.03.51.16.1.18.03.41-.16.51-.44.23-.93.25-1.37.26-.11,0-.23,0-.34.01-.56.04-1.12.09-1.67.15-.46.05-.93.09-1.39.13-.28.02-.56.03-.84.05-.25.01-.5.02-.75.04-.95.07-1.95.09-3.07.08h-.32c-.41-.02-.79-.03-1.16.04-.02,0-.05,0-.07,0ZM10.66,35.73c-.18,0-.33-.12-.37-.3-.04-.2.09-.4.3-.44.54-.11,1.08-.09,1.6-.07h.38c1.35.03,2.55,0,3.69-.09.32-.03.64-.04.97-.05.33-.01.66-.03.99-.06.56-.05,1.11-.1,1.67-.16.7-.07,1.4-.15,2.1-.2.15-.01.3-.02.45-.02.48-.02.94-.03,1.31-.24.18-.1.41-.04.51.14.1.18.04.41-.14.51-.52.29-1.12.31-1.65.33-.14,0-.28,0-.42.02-.7.05-1.39.12-2.08.19-.56.06-1.12.12-1.69.17-.34.03-.67.04-1.01.06-.31.01-.63.03-.94.05-1.16.09-2.38.12-3.76.1h-.39c-.5-.03-.98-.04-1.44.05-.02,0-.05,0-.07,0ZM7.97,35.45c-.12,0-.23-.06-.31-.16-.59-.83-1-1.74-1.02-1.77-.08-.19,0-.41.19-.5.19-.08.41,0,.5.19,0,0,.22.48.55,1.04l1.13-3c.07-.19.29-.29.48-.22.19.07.29.29.22.48l-1.39,3.69c-.05.13-.17.22-.3.24-.02,0-.03,0-.05,0ZM7.23,28.83c-.12,0-.23-.06-.31-.16-.59-.83-1-1.74-1.02-1.77-.08-.19,0-.41.19-.5.19-.08.41,0,.5.19,0,0,.22.48.55,1.04l1.13-3c.07-.19.29-.29.48-.22.19.07.29.29.22.48l-1.39,3.69c-.05.13-.17.22-.3.24-.02,0-.03,0-.05,0ZM10.28,28.38c-.2,0-.37-.16-.38-.37,0-.21.16-.38.37-.38l5.13-.12c.38,0,.76,0,1.14-.02l1.12-.04c.98-.04,1.96-.07,2.94-.14.44-.03.89-.06,1.32-.11.31-.04.62-.03.94-.02h.23c.21,0,.37.18.37.38s-.18.38-.38.37h-.24c-.28,0-.56-.01-.84.02-.45.05-.9.08-1.35.11-.98.07-1.97.1-2.96.14l-1.12.04c-.39.01-.77.02-1.16.02l-5.12.12h0ZM7.15,21.25c-.12,0-.23-.06-.31-.16-.59-.82-1-1.73-1.02-1.77-.08-.19,0-.41.19-.5.19-.08.41,0,.5.19,0,0,.22.48.55,1.04l1.13-3c.07-.19.29-.29.48-.22.19.07.29.29.22.48l-1.39,3.69c-.05.13-.17.22-.3.24-.02,0-.03,0-.05,0ZM10.64,21.15c-.19,0-.35-.14-.37-.34-.02-.21.13-.39.33-.41.1-.01.2-.01.29-.01.09,0,.17,0,.26-.01,1.48-.18,3.1-.3,4.8-.35,1.13-.03,2.26-.05,3.39-.06.91,0,1.82-.02,2.73-.02h1.29s0,0,0,0c.21,0,.37.17.38.37,0,.21-.17.38-.37.38h-1.29c-.91.01-1.82.02-2.72.03-1.13.01-2.25.03-3.38.06-1.67.05-3.26.16-4.73.34-.11.01-.22.02-.34.02-.08,0-.15,0-.23.01-.01,0-.03,0-.04,0ZM11.83,15.91c-.26,0-.52-.01-.78-.06-.2-.04-.34-.23-.3-.44.04-.2.24-.34.44-.3.29.06.61.05.95.04h.1c.87-.02,1.74-.03,2.6-.06.46-.01.92-.02,1.39-.04l1-.02c.63-.02,1.25-.04,1.88-.07.51-.02,1.02-.04,1.54-.06.33-.01.66-.02,1-.02.4,0,.8-.01,1.2-.03.12,0,.25,0,.37,0,.23,0,.45,0,.63-.04.2-.04.4.08.45.29.04.2-.08.4-.29.45-.27.06-.54.05-.8.05-.11,0-.22,0-.33,0-.41.02-.81.02-1.22.03-.33,0-.66.01-.98.02-.51.02-1.02.04-1.53.06-.63.03-1.26.05-1.89.07l-1,.02c-.46.01-.92.02-1.38.04-.87.03-1.74.04-2.61.06h-.1c-.11,0-.22,0-.33,0ZM7.15,15.89c-.12,0-.23-.06-.31-.16-.59-.82-1-1.73-1.02-1.77-.08-.19,0-.41.19-.5.19-.08.41,0,.5.19,0,0,.22.48.55,1.04l1.13-3c.07-.19.29-.29.48-.22.19.07.29.29.22.48l-1.39,3.69c-.05.13-.17.22-.3.24-.02,0-.03,0-.05,0Z"/>
</svg>