<?xml version="1.0" encoding="utf-8"?>
<!-- Generator: Adobe Illustrator 28.0.0, SVG Export Plug-In . SVG Version: 6.00 Build 0)  -->
<svg version="1.1" id="Laag_1" xmlns="http://www.w3.org/2000/svg" xmlns:xlink="http://www.w3.org/1999/xlink" x="0px" y="0px"
	 viewBox="0 0 1000 1000" style="enable-background:new 0 0 1000 1000;" xml:space="preserve">
<style type="text/css">
	.st0{fill:none;stroke:#4A4A49;stroke-width:4;stroke-linecap:round;stroke-linejoin:round;stroke-miterlimit:10;}
</style>
<g>
	<path class="st0" d="M753.1,504.3c-2.4-4.2-1.7-8.8-1.9-13.3c-1.6-24.2-9.4-33.1-34.3-34.4c-38.4-1.9-76.9-2.8-115.4-4
		c-45.8-1.5-91.5,3.5-137.3,3c-32.3-0.4-183.4,7.2-191.6,9.8c-14.7,4.6-22.7,15.3-25.9,30.3c-3.3,15.3-1.5,30.5-1.5,45.8
		c0,12.9,6.4,22,12.4,31.2c6.8,10.4,17.6,16.7,30.2,19.3c11.4,2.4,23,3.1,34.3,1.6c28.5-3.7,57.1-4.7,85.8-5.8
		c45.8-1.8,91.6-1.3,137.3-5.1c36.7-3,73.6-2.9,110.6-0.8c24.4,1.4,49.3,0.1,73.4-6.2c16.8-4.4,18.6-12.1,19.8-22.9
		c1.4-12.9,1.5-26,2.1-39.1c0.1-3-0.2-6.1,1.9-8.6"/>
	<path class="st0" d="M752.2,539.5c11.1,0,22.4-1.2,33.3,0.3c13.1,1.9,24.7,8.7,34.3,17.9c13.6,13,32.1,8.7,40.2-8.6
		c5.9-12.6,9.9-25.1,6.1-39.1c-6.9-25.9-33.5-32.2-54.9-21.9c-2.6,1.2-5.8,1.9-7.5,3.9c-12.2,13.7-27.8,13.3-44,11.4
		c-1.8-0.2-3.8,0.6-5.7,0.9"/>
	<path class="st0" d="M242.1,507.1c-6.5-2.6-13.4-0.8-20.1-1.6c-13-1.6-53.6-15.2-62-7c-6.8,6.7-10.4,15.3-12,24
		c-3.6,18.3,7.7,29.7,23.5,34.3c11.3,3.2,22.3,2.1,33.4-1.3c13-4,26.2-7.3,40-4.4"/>
	<path class="st0" d="M686.4,554.8c-7.6,1.8-12.4,8.6-20,10.7c-2.3,0.6-4.5,0.6-6.7,0.8"/>
	<path class="st0" d="M314.5,476.6c-1,4.7-21.3,10.1-25.3,16.2"/>
</g>
</svg>
