<svg width="157" height="237" viewBox="0 0 157 237" fill="none" xmlns="http://www.w3.org/2000/svg">
<path d="M78.4502 236.017C36.6397 236.017 0.00570679 199.483 0.00570679 157.772C0.00570679 120.541 20.7119 92.3684 40.8207 65.1916C55.7531 44.9832 69.7895 25.8698 73.7714 4.7654C74.1696 2.57533 76.1606 0.882996 78.4502 0.882996C80.7399 0.882996 82.6313 2.47578 83.129 4.7654C87.111 25.8698 101.247 44.9832 116.08 65.1916C136.089 92.3684 156.895 120.541 156.895 157.772C156.895 199.483 120.261 236.017 78.4502 236.017ZM78.4502 16.5122C72.2782 35.1278 59.8346 51.9516 46.7937 69.6713C27.4812 95.8526 7.47187 123.029 7.47187 157.772C7.47187 198.288 44.9023 228.551 78.3507 228.551C111.799 228.551 149.229 198.288 149.229 157.772C149.229 123.029 129.22 95.8526 109.908 69.6713C96.8668 51.9516 84.4232 35.1278 78.2511 16.5122H78.4502Z" fill="#494948"/>
<path d="M102.143 218.397C98.6586 218.397 95.3735 216.705 93.3826 213.519C91.7898 211.031 91.3916 207.845 92.3871 204.859C93.3826 201.972 95.5726 199.583 98.36 198.587C110.605 193.709 120.36 186.044 126.632 176.388C133.401 165.935 136.786 152.695 135.691 139.953L143.057 138.758C149.429 165.736 139.474 193.211 117.075 210.334L115.881 211.23C114.985 211.927 113.89 212.723 113.392 213.022L107.518 216.804C105.826 217.9 103.935 218.397 102.043 218.397H102.143ZM129.32 185.347C122.351 194.008 112.695 200.877 101.147 205.555C100.451 205.854 99.8532 206.451 99.5546 207.248C99.2559 208.044 99.3555 208.94 99.7537 209.537C100.55 210.931 102.342 211.329 103.636 210.433L109.41 206.651C109.908 206.352 110.704 205.655 111.5 205.157L112.795 204.162C119.763 198.786 125.338 192.415 129.519 185.248L129.32 185.347Z" fill="#494948"/>
</svg>
