<?xml version="1.0" encoding="utf-8"?>
<!-- Generator: Adobe Illustrator 28.0.0, SVG Export Plug-In . SVG Version: 6.00 Build 0)  -->
<svg version="1.1" id="Laag_1" xmlns="http://www.w3.org/2000/svg" xmlns:xlink="http://www.w3.org/1999/xlink" x="0px" y="0px"
	 viewBox="0 0 1000 1000" style="enable-background:new 0 0 1000 1000;" xml:space="preserve">
<style type="text/css">
	.st0{fill:none;stroke:#4A4A49;stroke-width:4.5464;stroke-linecap:round;stroke-linejoin:round;stroke-miterlimit:10;}
</style>
<g>
	<path class="st0" d="M643.4,745.2c18.6,40.1-1.8,71.3-46.5,72.9c-35.5,1.3-70.9-2-106.2-4c-19.3-1.1-38.9-2-58.3-2.9
		c-32.8-1.4-59.7-15.3-85.8-32.6c-15.5-10.2-30-21.7-47.2-29.2c-26.5-11.6-54.1-12.7-82.2-10.1"/>
	<path class="st0" d="M576.6,560.4"/>
	<path class="st0" d="M530.8,473.6c9.4-12.7,40.9-5.5,37.8-137.2c10.4-77.8-10.2-100.6-16.1-113.9c-7-15.6-19.4-18.1-34.4-18.3
		c-47.1-0.7-21,59.4-27.1,78.3c-10.9,33.6-4.7,47.4-16.6,82.1c-5.1,14.8-3.2,8.9-11.1,23.7c-10.2,18.9-12.7,23.4-23.8,38.3
		c-9.2,12.2-18,22.2-25.2,28.8c-44.4,40.1-85.5,28.2-146.2,27.9c-9.2-0.1-18.4-0.9-27.6-1.4"/>
	<path class="st0" d="M646.3,645.5c21,1.9,36.7,15.7,42.2,37.1c4.7,18.1-3.2,38.6-18.9,49.5c-16.4,11.3-33.5,11.9-45.8,1.5"/>
	<path class="st0" d="M298.6,719c20.9,6.1,39.7,16.6,58.2,27.6"/>
	<path class="st0" d="M666.7,649.2c5.8-3.9,11.7-7.7,17.4-11.7c18.8-13,24.4-34.4,14.6-55.3c0.4-10.2-16.4-25.4-21.6-26.2
		c16.2-9.1,25.2-26.9,21.8-43.7c-2.4-12-21-24.2-37.8-24.7c-49-1.4-113.7-11.5-118.1-16"/>
	<path class="st0" d="M589.8,140.1c-12.2,10.4-16.2,27.1-28.6,37.3"/>
	<path class="st0" d="M480.1,111.7c0.7,16,11.6,29.3,12.1,45.4"/>
	<path class="st0" d="M627.3,207.1c-8.8,7.4-19.3,11.4-29.9,15.2"/>
	<path class="st0" d="M450,193.7c-11-3.2-20.2-9.7-29.3-16.3"/>
	<path class="st0" d="M316.1,697.2c9.2,4.4,18.4,8.7,27.6,13.1"/>
</g>
</svg>
