<?xml version="1.0" encoding="utf-8"?>
<!-- Generator: Adobe Illustrator 28.0.0, SVG Export Plug-In . SVG Version: 6.00 Build 0)  -->
<svg version="1.1" id="Laag_1" xmlns="http://www.w3.org/2000/svg" xmlns:xlink="http://www.w3.org/1999/xlink" x="0px" y="0px"
	 viewBox="0 0 1000 1000" style="enable-background:new 0 0 1000 1000;" xml:space="preserve">
<style type="text/css">
	.st0{fill:none;stroke:#4A4A49;stroke-width:4;stroke-linecap:round;stroke-linejoin:round;stroke-miterlimit:10;}
</style>
<g>
	<g>
		<path class="st0" d="M334.4,292.5c-9.4-7.6-19.3-14.3-30.8-18.6c-18.1-6.8-35.7-4.9-52.7,3.5c-14,6.9-25.8,17.1-36.2,28.7
			c-15.4,17-28.1,36.1-39.2,56.1c-10.3,18.4-19.4,37.4-27.4,56.9c-11.7,28.3-21.7,57.3-29.9,86.9c-5.1,18.4-9.6,37-13.4,55.7
			c-2.2,10.8-3.7,21.8-5,32.8c-1.5,13.3-3.1,26.7-2.8,40.1c0.6,23,5,45.4,13.9,66.6c10.3,24.5,25,46.1,44.6,64.1
			c25.7,23.6,55.3,39.4,89.8,46.1c13.3,2.6,26.6,4,40.1,3.7c39.8-1.1,75.8-13.4,107.5-37.5c25.4-19.3,44.5-43.7,57.4-72.9
			c7.2-16.4,11.6-33.6,14.1-51.4c2.2-16,1.8-31.8,0.1-47.7c-3.5-33.5-10.5-66.3-19.6-98.7c-6.1-21.6-12.8-43-20.8-64.1
			c-8-21.1-16.7-41.9-26.9-62c-9.1-17.9-19-35.2-30.7-51.5c-5.1-7.1-10.5-13.9-16.1-20.6"/>
		<path class="st0" d="M395.9,468.7c5.7,18.4,11.6,36.8,16.1,55.7c2.7,11.5,5.3,23,7.8,34.5c2.1,9.4,3.6,18.9,5,28.3
			c1.6,10.4,3.2,21,3.2,31.6c-0.1,13.5,0.3,27-1.9,40.5c-2.3,13.8-5.6,27.2-10.8,40c-8.4,20.7-20,39.6-35.3,56.1
			c-7.5,8-15.5,15.5-24.4,21.9"/>
	</g>
	<g>
		<path class="st0" d="M444.6,423.7c15.5-74,45.1-153.3,96.7-209.8"/>
		<path class="st0" d="M555.8,200.6c25.7-12.1,50.3-29.7,74.9-15.6c91.4,59.7,126.5,168.7,138.7,270.8"/>
		<path class="st0" d="M500.4,347c-7.9,23.3-14.7,46.6-20.4,70.5"/>
	</g>
	<g>
		<path class="st0" d="M447.5,452.5c46.1-25.2,98.8-21.7,148-14.7c94.9,17.6,186.2,49.2,261.3,107.9"/>
		<path class="st0" d="M872.7,561.1c32.1,34.9,25.1,87.6-13.6,115.7c-77.3,59.7-161.6,84.3-256.5,98.4
			c-56.2,10.5-116,14.1-162.9-16.2"/>
	</g>
</g>
</svg>
