<?xml version="1.0" encoding="utf-8"?>
<!-- Generator: Adobe Illustrator 28.0.0, SVG Export Plug-In . SVG Version: 6.00 Build 0)  -->
<svg version="1.1" id="Laag_1" xmlns="http://www.w3.org/2000/svg" xmlns:xlink="http://www.w3.org/1999/xlink" x="0px" y="0px"
	 viewBox="0 0 1000 1000" style="enable-background:new 0 0 1000 1000;" xml:space="preserve">
<style type="text/css">
	.st0{fill:none;stroke:#4A4A49;stroke-width:4;stroke-linecap:round;stroke-linejoin:round;stroke-miterlimit:10;}
</style>
<path class="st0" d="M268.4,811.8c-58.8-21.7-44.9-95.9-34.8-145.1c9.8-67,55.7-158.8,136.8-124.4c78.7,25.5,133,103.1,217.8,112.8
	c56.6,12.7,121.9-18.6,172.4,15.8c12.7,7,3.4,18.4,5.2,30.6c-8.8,65-107.4,49.3-155.7,61.2c-125.3,10.7-251.9,33.2-377.2,14.8"/>
<path class="st0" d="M755.9,304.5c35.8-15.7,73.8-40.1,70.4-84.9c-1.9-29,9-65.3-13.6-88.3c-9.1-7.5-15.9-8.7-23.2,4.1
	c-13.2,25.1-6.8,54.8-15.1,81.4c-12.6,73.1-153.6,60.4-133,111.6c11.8,31.4,119.8-45.1,115.1-15.8
	c-13.9,113.4-19.2,228.1-42.4,340.3"/>
<path class="st0" d="M715.5,778.3c-133.4,8.1-269,27.3-401.9,37.7"/>
<path class="st0" d="M435.5,676.9c-4.8-84.6-123.7-80.2-136.9-2.7c-20.7,80.7,118.2,106.6,134.1,28.7"/>
<path class="st0" d="M367.7,381.9c-9.6-14.9-32.4-13.5-47.9-12.8c-44.9,10.1-83.8-22-127.4-15.6c-35.2,13.9-19.8,65.4,19.9,64.1
	c42.9-3.3,126.5-1.3,155.4-34.9"/>
<path class="st0" d="M728.5,314.8c-11.7,112.4-35.5,224.7-40.4,338.2"/>
<path class="st0" d="M434.8,677.6c-28,16.4-76.3-32.8-87.1,8.2c5.2,45.5,43.9,2.8,82.3,15.6c15.6-1.6,50.6,7.7,54.1-13.6
	c-7.2-18.6-33.1-6.5-47.9-10.3"/>
<path class="st0" d="M762.7,768.7c2.5,2.3,5.3,4.3,7.5,6.9c8.1,9.4,10.5,21.5-5.5,30c-13,6.9-27.2,8.9-41.7,8.2
	c-7.2-0.3-12.2-4.8-15.7-10.9c-3.7-6.4,0.6-11.3,3.4-16.4c6.3-11.8,18.5-13.1,29.5-16.3c7-2,14.4-2.8,21.9-2.2"/>
<path class="st0" d="M276.7,414.7c12.2,41,28.8,80.8,46.6,119.8"/>
<path class="st0" d="M267.8,812.5c-55.4,44.6,70,61.4,50.8,10.2c-11.1-14.4-33.4-10.5-49.4-10.9"/>
<path class="st0" d="M245.2,418.9c3.4,11.9,8,23.4,12.6,34.9c12,29.9,24,59.8,36,89.7c0.4,0.9,0.9,1.8,1.4,2.7"/>
<path class="st0" d="M762.7,768c1.1-3.2,4.3-4.2,6.9-4.7c24.5-4.4,26.7-21.1,23.6-39.1c-2.5-14.9-9.7-28.4-20.1-39.9
	c-1.4-1.5-2.5-2-4.2-2"/>
<path class="st0" d="M714.1,407.9c-27.9-2-35.1-13.4-34.2,21.9c1.1,9.7,22.3,2.8,30.1,6.8"/>
<path class="st0" d="M215,438.7c-27.2,10.4,3.1,39.1,11.4,10c-3.1-3.4-4.5-9.3-10.7-10"/>
<path class="st0" d="M252,443.5c-8.2,1.8-16.4,3.7-24.6,5.5"/>
</svg>
