<?xml version="1.0" encoding="utf-8"?>
<!-- Generator: Adobe Illustrator 28.0.0, SVG Export Plug-In . SVG Version: 6.00 Build 0)  -->
<svg version="1.1" id="Laag_1" xmlns="http://www.w3.org/2000/svg" xmlns:xlink="http://www.w3.org/1999/xlink" x="0px" y="0px"
	 viewBox="0 0 1000 1000" style="enable-background:new 0 0 1000 1000;" xml:space="preserve">
<style type="text/css">
	.st0{fill:none;stroke:#4A4A49;stroke-width:4;stroke-linecap:round;stroke-linejoin:round;stroke-miterlimit:10;}
</style>
<g>
	<path class="st0" d="M543.6,183.6c0.7,42.2,1.4,84.5,2,126.7c0.5,33.4,9.9,64.1,26.8,92.8c13.4,22.7,27.7,44.9,39.1,68.7
		c6.8,14.1,13,29,13.8,44c0.6,9.8,2.3,19.8,2.2,29.9c-0.4,37.2,0,74.5-0.3,111.7c-0.1,16-1.7,31.9-1.8,47.9
		c0,15.3,2.6,30.7,1.4,45.9c-0.9,12.4,0.3,24.6-0.1,37c-0.9,30.5-22.7,51-52.3,57c-22,4.5-43.7,4.6-65.9,1.3
		c-10.6-1.6-21.9,1.3-32.9,2.1c-25.6,1.7-50-2.1-72.8-14.4c-17.4-9.4-27.2-37.8-24.4-54.8c0.9-5.5-1.1-10-0.7-15.1
		c0.9-11.9,1.2-23.9,1.1-35.9c-0.2-60.8-0.6-121.7-0.9-182.5c0-7.8,0.6-15.4,2.7-23c1.8-6.3-0.4-13.1,1.5-19.9
		c8.1-29.8,23.9-55.7,39.6-81.8c15.1-25.2,30-50.6,33-80.7c1.2-12,2.6-23.9,2.9-35.9c1-37.2,1.5-74.5,2.1-111.7
		c0.1-6.7,1.4-12.8-5.7-18.3c-6.7-5.2-2.1-16.6,6.7-18.5c16.4-3.6,33.2-2.7,49.9-3.8c11.2-0.7,22.7-1.4,33.9,1.7
		c8.7,2.4,14.5,10.2,12.9,19.1c-1.2,6.8-8.3,9.5-18,8.7c-10.6-1-21.3-0.4-31.9-0.8c-2.8-0.1-7.3,2.1-7-3.9"/>
	<path class="st0" d="M624.4,765.1c-16.2,6.7-32.7,12.6-49.9,15.9c-17.1,3.3-34.3,4.8-51.9,3.3c-16.5-1.4-33.3,1-49.8-1.3
		c-27.2-3.6-55.2-0.1-81.8-8.8c-3-1-6.6-0.1-9.9-0.1"/>
	<path class="st0" d="M383,521.7c18.5,4.3,36.1,12,54.8,15.6c34.4,6.6,69,6.7,103.8,3.8c19-1.6,38.2-1.7,56.8-6.6
		c8.2-2.1,16-5.8,24-8.8"/>
	<path class="st0" d="M538.6,639.9c-5.1,15.8-8.7,32.1-17.7,46.5c-1.4,2.2-2.3,2.7-4.2,2.8"/>
	<path class="st0" d="M500.7,179.6c-8.9,2.1-18,0.6-26.9,0.9c-4.1,0.1-8.2,0.1-12,2.1"/>
	<path class="st0" d="M488.7,623.4c-4.4-1.2-4.5,3.1-5.9,5.1c-6.1,8.5-12.3,17-13.6,27.8"/>
	<path class="st0" d="M502.7,641.4c-1.2,8.1-6.4,14.5-9.3,21.8c-1.7,4.2-1.5,8-1.7,12.1"/>
	<path class="st0" d="M469.8,564.6c-33.8,12-54.2,40.7-56,76.8c-1.5,31.6,5.7,60.1,26,84.8c12.8,15.6,28.8,26.7,47.9,32.7
		c7.7,2.4,16,1.8,23.9-0.8c25.8-8.5,49.6-19.7,65.9-42.9c11.2-16,13-34.4,13.7-52.9c0.3-8.3-1.4-16.7-2.8-24.9
		c-5-28.2-24.2-44.7-47.8-58c-21.9-12.3-45.2-16.6-69.9-14.9"/>
</g>
</svg>
