<?xml version="1.0" encoding="utf-8"?>
<!-- Generator: Adobe Illustrator 28.0.0, SVG Export Plug-In . SVG Version: 6.00 Build 0)  -->
<svg version="1.1" id="Laag_1" xmlns="http://www.w3.org/2000/svg" xmlns:xlink="http://www.w3.org/1999/xlink" x="0px" y="0px"
	 viewBox="0 0 1000 1000" style="enable-background:new 0 0 1000 1000;" xml:space="preserve">
<style type="text/css">
	.st0{fill:none;stroke:#4A4A49;stroke-width:4;stroke-linecap:round;stroke-linejoin:round;stroke-miterlimit:10;}
</style>
<g>
	<path class="st0" d="M774.3,433.4c0,0-3.3-344.4-33.4-344.4c-22.6,0-524.6-31.2-518.3,47.9c1.2,14.9,10.3,216.3,11.1,240.5
		c0.5,14.5,41.7,520.6,44.6,531.9c8.9,35,485.5-1.6,493.9-20.7c6.3-14.5,2.1-455.3,2.3-456.4"/>
	<path class="st0" d="M332.9,183.2c-0.6-0.2-1.6-0.3-2.2,0c-12.2,6.6-25.7,8.1-39,10.5c-14.8,2.7-22.3,9.8-25,25.6
		c-2.3,13-0.9,26,0.9,39c2.2,15.9,3,32,5.3,47.9c2.4,17.2,3.5,34.6,5.3,51.9c1.5,14.6,2.1,29.4,3.4,44c1.3,14.8,2,29.7,2.9,44.6
		c1.5,27.5,2.8,55,4.6,82.5c0.4,6.5,0.4,13,1.1,19.5c1.7,17.2,2.1,34.6,3.2,51.8c1,15.6,1.5,31.2,2.3,46.8
		c1.1,20.6,2.3,41.2,3.3,61.9c0.7,14.5,0.9,29,1.8,43.5c1.5,25.1,2.7,50.1,3.4,75.2c0.3,10.8,1,21.7,3.2,32.3
		c2.2,10.5,6.6,16.2,14.5,17.2c5.5,0.7,11.1,1,16.7,1.1c31.1,0.8,62.1-0.7,93.1-2.9c5-0.4,10.1-0.3,15-1.1c11.1-1.9,22.3-2.2,33.5-3
		c15.2-1.1,30.5-2.1,45.7-3.3c19.7-1.5,39.4-2.6,59.1-3.4c26.5-1.1,53.1-1.3,79.7-1.8c21.6-0.5,43.2-1.3,64.6-4.7
		c11.2-1.8,17.1-4.9,18.6-18.8c1.4-13.5-0.6-26.8-1.6-40.1c-1.3-17.3-2.2-34.6-3.4-51.9c-1.2-17.4-1.1-34.9-2.3-52.4
		c-0.9-13.5,0-27.1-1-40.7c-1.3-17-0.3-34.2-1-51.3c-1.1-24.9-0.4-49.8-1.2-74.7c-0.7-21.2-0.8-42.4-1.1-63.5
		c-0.5-32-1.8-63.9-2.4-95.9c-0.2-11.5-0.5-23-1.1-34.6c-1.4-25.3-3.1-50.5-4.4-75.8c-1.1-22.3-1.4-44.6-3-66.9
		c-1.2-16.6-3.5-21.9-18.2-25.1l-40.7,1.6"/>
	<path class="st0" d="M403.1,178.1c-6.7-1.1-63.5,4.2-70.2,5"/>
	<path class="st0" d="M613.8,172c6.2-2.2,12.4-2.2,19-1.9c11.1,0.5,22.4,1.1,33.4-1.5c4.2-1,7.2-2.6,8.6-7.7c1.8-6.3,0.4-12.4,0-19
		c-0.6-11.5-4-22.8-13.7-27c-12-5.2-24.9-2.8-37.9-3.6c-13.9-0.9-241.8,10.2-256.4,10.4c-36.2,0.6-28.9,13.2-33.2,30.2
		c-2.5,9.9-2.7,20.3-2.1,30.6"/>
	<path class="st0" d="M407.2,174.1c-2.7,2.6-3.3,6.3-4.3,10.1c-1.8,7.3-7.4,11.9-14.2,15.2c-7,3.4-13.7,7.5-20.7,11
		c-11,5.6-12.6,18.3-7.2,25.7c3.7,5.2,8.7,8.6,14.5,11.2c10.7,4.8,22,6.4,33.5,7.8c12.2,1.5,199.4-4.3,222.4-10.6
		c7.7-2.1,15.3-4.5,21.7-9.5c13.3-10.1,11-27.3-1.7-34.5c-6.3-3.5-12.8-6.7-19.5-9.4c-4.9-2-9.1-4.9-13.3-8
		c-2.5-1.8-3.7-4.4-4.1-7.7c-0.7-6-4.5-8.4-10.5-7.2c-6.1,1.2-179.8,6.6-187.3,7.2c-2.9,0.2-5.9-0.3-8.9-0.5"/>
	<path class="st0" d="M662.3,463c-25.6,0.2-51.2,0.3-76.9,0.6c-21.6,0.2-43.2,0.5-64.8,1.1c-30.9,0.9-61.4,2.9-91.1,6.5
		c-3.6,0.4-7.2,0.2-10.7,0.5"/>
	<path class="st0" d="M412,609.6c28.1-0.7,56.3-1.4,84.4-2c11.9-0.3,23.8-0.2,35.6-0.7c26-1.1,52-1.7,77.8-3.5
		c8.6-0.6,17.2-1.2,25.6-2.1c7.2-0.8,14.4-0.4,21.5-0.3"/>
	<path class="st0" d="M673,365.4c-6.5,1.4-13.6,0.6-20.4,0.9c-14,0.6-28.1,0.5-42.2,1c-21.8,0.7-43.5,1.8-65.4,2.4
		c-15.2,0.4-30.4,0.7-45.6,1.1c-17.2,0.5-34.5,0.8-51.7,1.1c-6.7,0.1-13.4,0.3-19.7-1"/>
	<path class="st0" d="M672.8,731.9c-10.9,6.1-24.3,4.9-36.5,5.7c-24.1,1.7-48,4.9-72,6.8c-12.4,1-25,1.2-37.4,2.1
		c-23.7,1.8-47.4,2.2-71.2,1.9c-12.2-0.2-24.4-1.3-36.5,1.1"/>
	<path class="st0" d="M626,761.4c-8.9,4.7-19.8,3.7-29.8,4.4c-19.7,1.3-39.1,3.7-58.7,5.2c-10.1,0.8-20.3,0.9-30.5,1.6
		c-19.3,1.4-38.7,1.7-58,1.4c-10-0.2-19.9-1-29.8,0.8"/>
	<path class="st0" d="M378.7,301.2l-26.5,70.3c-11-15.3-18.8-32.6-18.8-32.6"/>
	<path class="st0" d="M378.7,403.3l-26.5,70.3c-11-15.3-18.8-32.6-18.8-32.6"/>
	<path class="st0" d="M380.1,547.7l-26.5,70.3c-11-15.3-18.8-32.6-18.8-32.6"/>
	<path class="st0" d="M394.4,673.9l-26.5,70.3c-11-15.3-18.8-32.6-18.8-32.6"/>
</g>
</svg>
