<?xml version="1.0" encoding="utf-8"?>
<!-- Generator: Adobe Illustrator 28.0.0, SVG Export Plug-In . SVG Version: 6.00 Build 0)  -->
<svg version="1.1" id="Laag_1" xmlns="http://www.w3.org/2000/svg" xmlns:xlink="http://www.w3.org/1999/xlink" x="0px" y="0px"
	 viewBox="0 0 1000 1000" style="enable-background:new 0 0 1000 1000;" xml:space="preserve">
<style type="text/css">
	.st0{fill:none;stroke:#4A4A49;stroke-width:4;stroke-linecap:round;stroke-linejoin:round;stroke-miterlimit:10;}
</style>
<g>
	<path class="st0" d="M219.2,128.5c-5.8,1.5-6.3,6.8-7.5,11.1c-3.3,12.6-1.3,24.9,3,36.9c6,16.7,15.3,31.5,25.9,45.6
		c8.1,10.7,16.8,20.9,25.8,30.8c12.5,13.6,25.7,26.3,39.1,38.9c6.9,6.5,14.1,12.6,21.4,18.7c11.8,9.9,23.5,20,36,29
		c9,6.5,19.1,11.2,29.3,15.7c8.2,3.6,16.5,6.9,24.9,10c9.9,3.6,19.9,7.1,30,10.1c7.7,2.3,15.3,4.9,23.2,6.9c3,0.8,6,1.9,9,2.7
		c1.9,0.5,3.8,0,5.5-1"/>
	<path class="st0" d="M245.4,130.6c-0.8,12.9,2.9,24.8,7.5,36.7c7.1,18.3,16.4,35.5,25.3,52.8c5.5,10.7,10.8,21.4,16.3,32.1
		c4.7,9.2,10.5,17.5,17.2,25.3c17.9,20.7,40.3,35.1,64.7,46.5c18.4,8.6,37.5,15.1,57.3,19.5c3.1,0.7,6.7,0.9,9,3.7"/>
	<path class="st0" d="M786.8,499.2c-1-3.3-3.4-5.6-5.9-7.5c-3.4-2.5-4.3-5.9-5.2-9.7c-3-13.9-9.8-26.2-16.8-38.4
		c-5.5-9.6-12.2-18.3-19.4-26.6c-8.5-9.9-17.9-19-27.3-27.9c-2.1-2-4.4-3.9-6.6-5.9c-0.3-0.3-0.7-0.6-1-0.7
		c-8.5-2.1-14-8.7-19.9-14.3c-11.3-10.8-24.7-16.9-39.5-20.6c-7.7-1.9-15.4-4.2-23.2-5.4c-5.2-0.8-10.3-1.9-15.5-2.4
		c-5.2-0.5-10.3-1.5-15.6-2c-5.5-0.5-11-1.5-16.6-2c-21.6-2-43.3-1.1-64.9-1.6c-7.2-0.2-14.5-0.9-21.8-1.7
		c-5.6-0.6-11.3-1.1-16.9-1.8c-6-0.7-12.1-0.7-18-2.6c-1-0.3-2.5-0.5-3.4,0c-4.4,2.5-8.2-0.3-12.1-1.3c-1.4-0.3-2.8-0.7-4.2-1.1"/>
	<path class="st0" d="M787.5,499.9c0.7,2.6,3.1,4.1,4.6,6.2c2.9,4.1,3,9.2,5.3,13.6c4.2,7.8,6,16.3,6.4,25.2
		c0.1,3.2,0.8,6.4,0.6,9.7c-0.1,1.2,0.5,1.9,1.1,2.8c5.8,8.6,9.6,18.2,11.3,28.3c1.7,10.4,0.3,20.4-5,29.7c-1.2,2-1.5,3.9-0.5,6.6
		c3.4,9.4,5,19.3,4.2,29.3c-0.7,8.4-2.1,16.8-5,24.9c-2.6,7.2-5.5,14.2-9.3,20.7c-0.7,1.2-0.9,2.9-0.8,4.5
		c0.5,7.2-0.7,14.2-2.4,21.1c-2.5,9.7-6.3,18.9-11.3,27.7c-6.9,12-16.1,21.9-26,31.4c-2.9,2.8-6.9,3.4-10.6,5.1
		c-3.6-2.1-7.9-3.5-11.2-6.8c-5.7-5.6-9-12.7-12.4-19.7c-0.3-0.7-0.3-1.6-0.7-2c-4-4.4-3.6-9.7-3-14.9c0.7-6.7-0.2-13.4,0.9-20.1
		c0.6-3.2,1.7-6.8-1.3-9.7c1.7-5.9-1.9-10.8-2.9-16.2c-0.5-2.8-1.1-5.8-3.4-8"/>
	<path class="st0" d="M700.5,382.1c-0.4,2.3,0.4,4.2,1.7,6.3c7,11.1,10.8,23.4,13.2,36.2c0.5,2.8,1.2,5.5,1.3,8.3
		c0.4,10.2-3.5,19-10,26.6c-8,9.3-17.7,16.3-29,21.1c-8.2,3.5-16.7,5.6-25.5,6.7c-7.3,1-14.2,0.1-21.1-1.6c-2-0.5-3.7,0-5.5,0.4"/>
	<path class="st0" d="M769.9,492c-6,3.9-11.8,8.1-18,11.7c-15.5,9.2-32,16.1-49.7,19.3c-10.8,1.9-21.8,2.5-32.8,0.3
		c-4.5-0.9-8.9-2.4-13.4-2.9"/>
	<path class="st0" d="M722.2,753.9c-6.1,3.3-11.5,7.6-17.2,11.5c-14.4,9.9-29.3,18.9-45,26.5c-3.2,1.5-6.6,2.4-10,3.5
		c-9,2.9-13.2,9.5-14.9,18.3c-0.8,4.4-1.3,8.7,0.3,13c0.3,0.8-0.1,1.9-0.3,2.9c-0.8,5.1,1.6,8.1,6.2,10.1c5.9,2.6,11.7,5.5,18.3,5.8
		c0.6,0,1.3,0.3,1.7,0.7c3,3.4,7.7,3.3,11.5,5.1c2.1,1,4.5-0.4,6.5-1.4c14.9-7.2,28.8-15.9,41.5-26.5c8.7-7.3,16.7-15.1,23.2-24.5
		c2.5-3.6,4.9-7.3,5.9-11.7"/>
	<path class="st0" d="M701.8,606.3c6.2,3.4,12.2,7.1,19,9.4c8.2,2.7,16.3,5,24.9,6.2c9,1.3,18,2.4,27,1.8c6.9-0.5,13.9,0.1,20.8-1.9
		c1.8-0.5,3.9-0.3,5.9-0.4"/>
	<path class="st0" d="M551.5,446.4c-2-6.3-7.8-8.2-12.8-11.1c-6.9,2-12.7-2.3-18.9-3.7c-11.1-2.5-22.3-4.1-33.6-3.1
		c-8,0.7-15.3,4.1-20.3,10.6c-2.5,3.2-2.7,7.2-0.7,11c0.8,1.4,1.2,2.9,1,4.5"/>
	<path class="st0" d="M669.4,569.7c-0.5-5.2-2-10.1-4.6-14.5c-6-10.4-12.6-20.5-18.3-31.1c-1-1.8-1.7-3.7-2.3-5.6
		c-2.1-6.3-5.7-11.9-9.9-16.8c-2.9-3.4-7.7-4.4-11.9-6c-8.4-3.3-17.3-5.4-26-7.7c-3.7-1-7.7-1.7-11.7-1.7c-2.4,0-4.4,0.5-5.9,2.5"/>
	<path class="st0" d="M731.5,789.8c-7.1,7.8-14.6,15.3-22.4,22.5c-11.3,10.4-23.2,19.8-36.7,27.2c-3.7,2-8.1,3-11.4,5.9"/>
	<path class="st0" d="M716.7,659.9c2.2,0.3,3.9,1.2,5.6,2.7c10.1,8.8,22,14.7,34.1,20.1c10.5,4.7,21.2,8.8,32.2,12.3
		c1.6,0.5,1.8,1.9,2.7,2.8"/>
	<path class="st0" d="M575,463.3c-3.3,0.9-6,3.3-9.7,3.1c-1,0-1.9-0.1-2.8-0.7c-5.1-3.5-10.8-3.8-16.6-3.4
		c-9.9,0.8-17.9,5.2-24.2,13c-4.7,5.8-8,12.3-11.7,18.7c-0.4,0.7-0.3,1.8-0.4,2.7"/>
	<path class="st0" d="M700.5,787c-10.6,6.7-21.2,13.4-31.8,20c-9.7,6.1-19.3,12.2-29,18.3c-1.1,0.7-2.5,1-3.8,1.4"/>
	<path class="st0" d="M543.6,517.2c0.7-4.4,0.5-8.8,1.6-13.2c2.3-8.9,11.5-16.9,22.6-16.2c2.1,0.1,4.1,0,6.2,0c2.5,0,4.9-0.1,6,3.1
		c0.4,1.2,1.9,1.9,3.3,2.5c8,3.5,16.3,5.6,24.9,6.9c4.4,0.7,8.7,1.5,13.1,1.3c5.2-0.2,7.8-3.9,6.2-8.7c-0.7-2.2-1.7-4.2-2.3-6.5
		c-0.6-2.2-3.7-3-5.7-4.5c-2.3-1.8-5-3.1-6.6-5.9c-1.8-3-5.3-3.7-8.3-4.8c-6-2.3-12.2-4.1-18.6-5c-3.2-0.5-6.2-2-9.4-3
		c-0.5-0.2-1-0.2-1.4-0.7c-4.8-6.6-12.1-9.8-19-13.5c-2.8-1.5-5.4-2.1-8.7-1.8c-4.2,0.4-8.3-1.7-12.4-2.6c-6.6-1.5-13.2-3.8-20-3.7
		c-9.5,0.1-17.3,4.8-19.1,14.4c-0.2,1.1-0.5,3.1-2.7,2.8"/>
	<path class="st0" d="M793.7,556.9c0.1,1.4-0.1,2.3-1.7,3.2c-12.2,6.3-24.8,11.4-38,14.8c-4.9,1.3-9.7,3.2-14.9,3.6
		c-7.7,0.6-15.4,1.8-23.1,1.2c-10.3-0.9-20.4-2.7-29.7-7.4"/>
	<path class="st0" d="M460.7,342.7c-0.7,0-1.2-0.7-2.1,0c-3,2.5-6.8,3.5-10.3,3.7c-4.7,0.2-7.6,3.1-10.7,5.7c-2.2,1.8-2,3.2,0.3,5.1
		c5.6,4.7,12.4,7.4,19,10.4c7,3.2,14.7,4.5,21.1,8.9c2.7,1.8,5.7,3.3,6.9,6.6c0.4,1.2,1.5,1.7,2.5,2c5.4,1.9,9.7,5.4,13.8,9.1
		c9.9,8.8,19.1,18.2,28.3,27.7c2.6,2.7,5,5.6,7.6,8.3c1.3,1.4,2.2,3.1,2.1,5.2"/>
	<path class="st0" d="M688.4,599.3c-0.6,0.3-1.4,0.3-1.4,1.2c0.2,3.5-0.1,6.9,1.9,10.5c4.7,8.5,8.5,17.4,12.6,26.2
		c2.3,4.9,4.3,9.9,6.6,14.8c0.7,1.6,0.9,3,0,4.5"/>
	<path class="st0" d="M567.8,467.1c2,4,6.1,4.2,9.7,5.1c7.9,2.2,15.9,4.2,23.8,6.2c2.2,0.6,4.4,1.1,6.6,1.6c2.2,0.6,4.7,0.4,6.9-0.9
		"/>
	<path class="st0" d="M730.9,725.5c5.1,8.2,12.7,13.8,20.4,19.3c5.3,3.8,11,7.1,16.6,10.3c1.1,0.6,1.3,1.2,1.3,2.2"/>
	<path class="st0" d="M671.9,633.8c7.1,10.6,17.5,16.5,28.9,21.2c2,0.8,4,1.8,6.6,1.6c2.7-0.2,3.6,2.9,3.7,5
		c0.3,7.9,3.1,15.2,4.7,22.8c0.3,1.6,1,3.4-0.2,4.4c-1.3,1.1-3.3,0.5-4.7-0.3c-5.9-3.3-11.3-7.3-15.4-12.7"/>
	<path class="st0" d="M652.6,587.5c8.4,8,17.7,14.6,28.1,19.6c2.1,1,4.1,1.4,6.2,1.3"/>
	<path class="st0" d="M636.5,555.6c2.4-0.2,3.5,1.8,4.8,3.2c6.4,6.6,14.7,9.6,23.2,12c0.4,0.1,1,0.2,1.4,0c4.4-1.8,6.7,1,8.6,4.2
		c3.5,5.9,7.5,11.6,10.5,17.9c1,2.2,1.9,4.3,2.3,6.6"/>
	<path class="st0" d="M521.2,368.3c-0.8-2.2-2.6-2.7-4.5-3.1"/>
	<path class="st0" d="M516.5,364.2c0.9,2.5-1.7,1-2.4,2c-1.3,1.8-2.3,4.7-0.9,6.3"/>
	<path class="st0" d="M699.4,699.3c5.4,8.1,12.7,13.1,22.5,14.5"/>
	<path class="st0" d="M445.5,330c1.1,3,3.8,4.3,6.2,5.8c2.7,1.8,5.6,3.3,7.2,6.2"/>
</g>
</svg>
