<?xml version="1.0" encoding="utf-8"?>
<!-- Generator: Adobe Illustrator 28.0.0, SVG Export Plug-In . SVG Version: 6.00 Build 0)  -->
<svg version="1.1" id="Laag_1" xmlns="http://www.w3.org/2000/svg" xmlns:xlink="http://www.w3.org/1999/xlink" x="0px" y="0px"
	 viewBox="0 0 1000 1000" style="enable-background:new 0 0 1000 1000;" xml:space="preserve">
<style type="text/css">
	.st0{fill:none;stroke:#4A4A49;stroke-width:4;stroke-linecap:round;stroke-linejoin:round;stroke-miterlimit:10;}
</style>
<g>
	<path class="st0" d="M734.9,142.7c11.6-0.7,19,6.6,25.6,14.4c28.7,33.7,45.9,71.5,41.1,117.1c-3,28.8-15.8,52.9-34.4,74.3
		c-34.1,39.2-78.5,64.4-124,87.3c-20.7,10.4-41.8,20.4-61.4,32.4c-16.5,10.1-35.7,12.3-51.8,22.4"/>
	<path class="st0" d="M469,503.8c0,0.6,0.3,1.6,0,1.9c-43.7,41.5-82.8,87.4-125,130.3c-17.4,17.6-38.2,31.8-57.4,47.5
		c-17.7,14.5-38.2,27.9-43.6,53.7c-3.9,18.9-1.2,35.3,13.8,47.5c14.6,11.8,31.3,10.1,47.4,2.1c24.2-11.9,37.8-32.1,45.8-57.1
		c7.9-24.9,23.4-45.1,39.8-64.9c17.3-20.8,35.9-40.3,55.5-58.9c15-14.3,32.2-26.2,43.8-43.9c6.3-9.6,12.7-19.1,19-28.6"/>
	<path class="st0" d="M498.6,466.6c3.8-3.6,6-7.9,5.7-13.3c-1.9-33.2,9.7-62.8,26-90.4C565.4,303.6,601.4,244.8,650,195
		c23.5-24,52.9-37.7,83.1-50.3c-0.6-13.6-11.6-17-21.2-21c-39-16-75.5-7.5-108.4,15.4c-52.4,36.5-85.9,87.7-108.8,146.5
		c-10.5,27.1-18.7,54.6-21.2,83.8c-2.3,26.8-1.7,52.7,10.7,77.2c2.5,5,1,11.4,4.8,16.2"/>
	<path class="st0" d="M733,146.5c4.2,14.2,0.4,26.7-5.4,40.2c-17.1,40-33.6,80.2-56.1,117.5c-22,36.4-50.7,66.6-83,94.3
		c-24.9,21.3-48.6,44.6-65.9,73.1c-2,3.3-4.9,5.4-6.9,8.4"/>
	<path class="st0" d="M530,492.3c3.8,5.1,8.1,9.9,11.3,15.3c6.5,11-0.8,24.8-13.2,24.5c-10.1-0.2-19.6-0.5-28.1-9.8
		c-9.6-10.5-23.7-16.8-34.6-26.4c-11.9-10.4-8.9-20.2,5.5-26.6c14.5-6.5,26.3-6.6,37.5,6.6c5.4,6.4,13.7,10.4,20.7,15.5"/>
</g>
</svg>
