<?xml version="1.0" encoding="utf-8"?>
<!-- Generator: Adobe Illustrator 28.0.0, SVG Export Plug-In . SVG Version: 6.00 Build 0)  -->
<svg version="1.1" id="Laag_1" xmlns="http://www.w3.org/2000/svg" xmlns:xlink="http://www.w3.org/1999/xlink" x="0px" y="0px"
	 viewBox="0 0 1000 1000" style="enable-background:new 0 0 1000 1000;" xml:space="preserve">
<style type="text/css">
	.st0{fill:none;stroke:#4A4A49;stroke-width:4;stroke-linecap:round;stroke-linejoin:round;stroke-miterlimit:10;}
</style>
<path class="st0" d="M419.3,618.4c-2.2,2.8-2.8,5.4-1.2,9.1c12.8,28.3,2.6,59,9,88.3c2.3,7.4,5,13.4,12.5,17
	c38.6,14.4,22.4-44.5,20.3-64.6c-9.2-20.6-3.7-171.9-44-130.2c-9.7,25.3-12.5,53.5-36.1,71.5c-19.4,15.9,4.6,39.8,22.5,24.7
	c4.3-3.4,7.4-8.5,13.6-9"/>
<path class="st0" d="M662.7,766.7c-64.3,59.8-160.5,58.2-243.4,64.5"/>
<path class="st0" d="M744.2,630.9c2.4,41.6-9.3,77.8-40.8,106.4"/>
<path class="st0" d="M556.3,502.9c-94.4,21.8-51.8,209.7,39.6,190.2c68.3-25,47.8-201.5-38.5-190.2"/>
<path class="st0" d="M559.7,541.4c-48.2,16.8-15,88.1,8,115.4c48.9,22.9,44.1-123.1-6.9-115.4"/>
<path class="st0" d="M515.5,226.7C467,238.8,338.2,254.1,349,321.8c10,34,12,129,66.8,98.2c36.3-36.2,148.2-11,148.1-57.5
	c-2.5-45,24.6-138.6-47.2-135.9"/>
<path class="st0" d="M526.9,154.3c-104.6,11.1-310.3,71.4-246.6,210.5c9,21,19.8,41.3,25.8,63.5c20.2,64-68.5,92-82.7,178.8
	c-44.9,134.1,79.2,258.8,207.3,271.4c78.4,9.8,156.4-15.8,227.5-47.1c165.7-75.2,195.2-351.4,13.7-425.9
	c-124.3-52,63.9-252-143.9-251.1"/>
</svg>
