<?xml version="1.0" encoding="UTF-8"?>
<svg id="Laag_1" data-name="Laag 1" xmlns="http://www.w3.org/2000/svg" viewBox="0 0 25.6 39.74">
  <defs>
    <style>
      .cls-1 {
        fill: #494948;
        stroke-width: 0px;
      }
    </style>
  </defs>
  <path class="cls-1" d="M14.7,39.74c-1,0-2.03-.07-3.01-.24-.58-.11-1.13-.31-1.65-.51-.2-.08-.41-.15-.61-.23-2.75-.96-3.13-3.05-3.37-4.43-.07-.4-.13-.74-.23-.97-.08-.19,0-.41.2-.49.19-.08.41,0,.49.2.13.31.2.69.28,1.14.24,1.36.54,3.04,2.88,3.86.21.07.42.15.63.23.52.2,1.01.38,1.52.48,3.11.56,6.84-.02,7.75-.39,3.71-1.51,5.23-3.57,5.25-7.09,0-.38,0-.77,0-1.16,0-.53.02-1.06,0-1.6V6.16c.07-.68-.02-1.33-.12-2.01-.01-.09-.03-.17-.04-.26-1.5,1.1-3.79,2.67-5.82,2.71-.9.68-1.91.81-2.89.94-.24.03-.47.06-.71.1-.75.12-1.5.14-2.22.16-.61.02-1.19.03-1.76.1-1.86.16-4.07.27-6.36-.13-.29-.06-.57-.1-.85-.14-.63-.08-1.29-.17-1.92-.49-.33-.16-.67-.29-1.01-.42-.02,0-.04-.02-.06-.02,0,0,0,0,0,0,.04.29.08.57.17.82.34,1.05,4.84,22.94,5.03,23.88.04.2-.09.4-.29.44-.2.05-.4-.09-.44-.29C3.89,23.67.77,8.56.5,7.75c-.1-.31-.15-.64-.2-.95-.04-.31-.09-.59-.18-.86-.27-.8-.1-1.59.47-2.18.96-1,2.2-1.58,3.29-2.02.19-.08.41.02.49.21.08.19-.02.41-.21.49-1.01.41-2.16.94-3.03,1.84-.27.27-.53.74-.3,1.42.01.04.03.08.04.12.01,0,.02,0,.03.01.15.06.31.12.47.18.37.14.73.28,1.08.45.52.26,1.08.34,1.68.42.3.04.6.08.9.14,2.2.38,4.34.28,6.14.12.6-.07,1.22-.09,1.82-.11.7-.02,1.42-.04,2.12-.15.24-.04.49-.07.73-.1.92-.12,1.8-.23,2.54-.78.1-.07.25-.17.44-.17,1.94-.03,4.3-1.76,5.71-2.8,0,0,.01-.01.02-.02,0-.11-.01-.22-.02-.33-.2-.54-.85-.81-1.47-1.08l-.32-.14c-.19-.09-.27-.31-.19-.5.08-.19.31-.27.5-.19l.3.13c.72.31,1.62.69,1.9,1.59.01.03.02.07.02.11,0,.46.08.92.15,1.41.1.7.21,1.42.13,2.16v22.31c.03.53.02,1.08,0,1.63,0,.38-.01.76,0,1.14-.02,3.83-1.73,6.16-5.72,7.79-.76.31-2.87.67-5.16.67ZM16.5,37.53c-1.28,0-2.55-.15-2.75-.18-.59,0-2.83-.63-3.71-1.22-1.47-.96-1.8-2.91-2.1-4.63-.13-.75-.25-1.46-.46-2.06-.19-.68-.34-1.35-.5-2.02-.11-.49-.23-.99-.35-1.48-.28-1.21-.5-2.44-.7-3.62-.24-1.36-.48-2.76-.83-4.12-.03-.04-.06-.09-.07-.15l-.56-2.32c-.15-.42-.27-.96.04-1.51.05-.09.15-.16.25-.18.43-.08.79.07,1.07.19l.11.05c.73.3,1.49.45,2.3.6.5.1,1.03.19,1.54.34.2.06.32.26.26.46-.06.2-.26.32-.46.26-.48-.13-.99-.23-1.48-.32-.81-.15-1.65-.31-2.45-.65l-.12-.05c-.16-.07-.3-.13-.45-.15-.05.19-.02.42.1.75l.48,2.01s.05.08.06.12c.4,1.5.67,3.05.93,4.54.21,1.18.42,2.39.69,3.57.12.49.24.99.36,1.49.15.66.3,1.32.48,1.97.21.63.34,1.37.48,2.15.29,1.64.58,3.35,1.78,4.13.84.56,3,1.12,3.28,1.1.11,0,3,.37,4.41.04,3.97-.94,4.41-3.11,4.3-5.31,0-.21.15-.38.36-.39.21,0,.38.15.39.36.17,3.41-1.29,5.23-4.88,6.08-.51.12-1.16.16-1.82.16ZM20.85,32.34c-.2,0-.37-.16-.38-.37,0-.47-.18-11.58-.17-12.58,0-.21.17-.37.38-.37h0c.21,0,.37.17.37.38-.01.99.16,12.44.17,12.56,0,.21-.16.38-.37.38h0ZM22.85,27.2h-.02c-.21-.01-.37-.19-.36-.39.09-1.86.06-3.76.02-5.6l-.02-1.57c0-.21.16-.38.37-.38h0c.21,0,.37.17.38.37l.02,1.57c.03,1.85.07,3.76-.02,5.65,0,.2-.18.36-.38.36ZM22.71,19.25s-.08,0-.11-.02c-.2-.06-.31-.27-.24-.47.15-.47.14-.96.13-1.49,0-.28-.01-.57,0-.84.07-1-.04-2.04-.14-3.05,0-.04,0-.08-.01-.11-1.84,2.56-4.85,2.67-8.27,2.8-.59.02-1.19.04-1.81.08-.21,0-.38-.15-.4-.35-.01-.21.15-.38.35-.4.62-.04,1.23-.06,1.83-.08,3.7-.14,6.63-.24,8.19-3.3,0,0,0,0,0,0-.28-.07-.62-.22-.95-.38-.67-.31-1.31-.6-2.02-.71-1-.15-5.25-.26-5.29-.26-2.06-.07-3.71.11-5.21.54-.09.03-.16.07-.24.1-.15.08-.33.17-.61.22-.2.04-.4-.09-.44-.3-.04-.2.09-.4.3-.44.17-.03.28-.09.41-.15.12-.06.23-.12.37-.16,1.58-.46,3.31-.64,5.44-.57.17,0,4.33.11,5.38.27.82.12,1.54.45,2.23.77.32.15.64.29.97.42.39.15.42.52.43.69,0,0,0,0,0,.01.03.41.07.83.11,1.25.1,1.04.21,2.11.14,3.17-.02.26-.01.52,0,.78.01.56.02,1.15-.16,1.73-.05.16-.2.26-.36.26ZM6.49,1.7c-.15,0-.29-.09-.35-.24-.07-.19.02-.41.21-.48.61-.23,1.23-.37,1.84-.49.3-.06.6-.12.9-.2.84-.21,1.68-.18,2.48-.15.64.02,1.24.05,1.84-.04.54-.08,1.08-.06,1.6-.04.46.02.9.03,1.33-.01.91-.1,1.78-.01,2.62.07.39.04.78.1,1.17.16.65.1,1.27.2,1.9.2.21,0,.38.17.38.38s-.17.38-.38.38c-.69,0-1.37-.11-2.02-.21-.38-.06-.75-.12-1.13-.16-.8-.08-1.63-.17-2.46-.07-.48.05-.97.03-1.44.02-.51-.02-1-.04-1.46.03-.67.1-1.34.07-1.98.05-.79-.03-1.54-.06-2.27.13-.31.08-.62.14-.93.21-.6.13-1.17.24-1.72.46-.04.02-.09.03-.14.03Z"/>
</svg>