<?xml version="1.0" encoding="UTF-8"?>
<svg id="Laag_1" data-name="Laag 1" xmlns="http://www.w3.org/2000/svg" version="1.1" viewBox="0 0 13.37 21">
  <defs>
    <style>
      .cls-1 {
        fill: none;
        stroke: #494948;
        stroke-linecap: round;
        stroke-linejoin: round;
        stroke-width: .75px;
      }
    </style>
  </defs>
  <path class="cls-1" d="M3.85,5.72c.2-.02.28-.09.43-.12.91-.17,1.82-.13,2.73,0,0,0,2.18.29,2.7.42.57.15,1.01.51,1.52.77.08.04.08.12.08.2-.02.75.02,1.52-.11,2.26-.07.41-.04.84-.21,1.23M1.83,16.94c.19.62-.19,2.08,1.44,2.85.36.17.7.38,1.08.49,1.63.48,3.57.36,4.06.22,1.99-.58,2.97-1.57,3.18-3.52.04-.47.12-.95.15-1.43l1.19-11.47c.13-.6,0-1.22.05-1.82-.09-.45-.59-.66-.94-.87M11.02,10.87c-.11,1.23-.2,2.47-.38,3.69M4.55,8.09c-.63-.25-1.31-.36-1.92-.7-.14-.08-.29-.18-.48-.16-.14.19-.12.41-.07.63l.16,1.22M5.84,8.32c2.38.12,4.3.55,5.47-1.33M9.94,10.64c-.06.51-.59,6.46-.59,6.46M2.4.86c-.62.18-1.21.4-1.7.82-.25.21-.38.52-.29.9.07.31.03.64.09.95.12.55,1.28,12.5,1.28,12.5M11.62,1.2c-.54-.06-1.04-.24-1.56-.35-.42-.09-.84-.18-1.29-.17-.49,0-.99-.15-1.48-.13-.74.03-1.45-.24-2.19-.14-.47.07-.95.08-1.41.2M2.25,8.97c.22,1.4.22,2.83.39,4.24.09.61.14,1.22.24,1.83.24,1.09-.03,2.71.88,3.46.43.36,1.59.79,1.73.78,0,0,1.48.36,2.26.25,2.02-.26,2.56-1.28,2.63-2.67M12.87,2.62c-.86.51-2.13,1.25-3.16,1.15-.04,0-.08.02-.12.04-.56.33-1.18.26-1.79.3-.69.04-1.36-.09-2.03-.08-1.07-.02-2.13-.1-3.17-.4-.44-.14-.92-.18-1.33-.45-.24-.15-.49-.27-.74-.4"/>
</svg>