<?xml version="1.0" encoding="utf-8"?>
<!-- Generator: Adobe Illustrator 28.0.0, SVG Export Plug-In . SVG Version: 6.00 Build 0)  -->
<svg version="1.1" id="Laag_1" xmlns="http://www.w3.org/2000/svg" xmlns:xlink="http://www.w3.org/1999/xlink" x="0px" y="0px"
	 viewBox="0 0 1000 1000" style="enable-background:new 0 0 1000 1000;" xml:space="preserve">
<style type="text/css">
	.st0{fill:none;stroke:#4A4A49;stroke-width:4;stroke-linecap:round;stroke-linejoin:round;stroke-miterlimit:10;}
</style>
<g>
	<path class="st0" d="M667.1,340.4c-25.5,14.8-63,36.2-93.3,33.5c-1.1-0.1-2.4,0.5-3.4,1.1c-16.6,9.6-34.7,7.7-53,8.7
		c-20.3,1.1-40-2.7-59.9-2.4c-31.7-0.6-62.8-3-93.4-11.7c-13.1-4.2-27-5.3-39.1-13c-6.9-4.4-14.5-7.8-21.8-11.6"/>
	<path class="st0" d="M515.1,835.7"/>
	<path class="st0" d="M602,689.4"/>
	<path class="st0" d="M353.8,524.7c6.4,40.8,6.5,82.2,11.6,123.2c2.6,17.7,4.2,35.4,7.1,53c7.1,31.5-1,78.8,25.9,100.5
		c12.6,10.4,46.8,23,51,22.7c0,0,43.8,10.4,66.8,7.4c59.6-7.6,75.5-37.1,77.7-77.6"/>
	<path class="st0" d="M682.2,164.6c8.2-12.6,22.4-11.5,34-12.1c22.5-1.1,40.2-11.2,56.2-25c7.4-6.3,4.4-21-4.5-27.4
		c-11.4-8.2-24.9-9.4-36.6-3.2c-20.9,11.2-37.4,27.3-46.7,50.1c-2,5-0.9,7.8,0.4,11.7"/>
	<path class="st0" d="M630.3,298.9c-15.8-1.6-30.7-7.1-46.1-10.3c-12.5-2.6-24.9-5.1-38-5.1c-14.6,0.1-29.3-4.4-43.8-3.8
		c-21.8,0.9-42.7-7.1-64.5-4c-13.8,2-27.9,2.2-41.5,5.9"/>
	<path class="st0" d="M648.2,234.9c17.1-7.1,31.3,1.6,46.1,8c11.1,4.8,22.5,8.8,33.3,14c7.7,3.7,12.3,0.4,17.5-4.6
		c6.2-6,6.7-12.8,3.2-19.6c-9.7-19.1-28.5-26.1-50.6-19.6c-11.9,3.5-24.5,6-31.1,18.4"/>
	<path class="st0" d="M307.2,419.9"/>
	<path class="st0" d="M574.5,248.7c2.1-7.2,3.5-15.9,0.6-21.6c-4.8-9.4-3.8-18.5-4-27.9c-0.3-14.4,5.2-27.5,10.7-40.2
		c4.2-9.7,13.9-14.7,23.9-17.2c6.5-1.6,14.2-1.4,18.2,5.6c3.7,6.6,6.2,14.6,2.2,21.7c-3.4,6.1-8.3,11.8-13.7,16.1
		c-13.6,10.9-22.8,25.6-34.4,38.2"/>
	<path class="st0" d="M358.3,289.2c-18.3,5.2-35.8,11.7-50.3,23.8c-7.4,6.1-11.2,15.2-8.6,26.3c2.1,8.9,0.8,18.6,2.8,27.5
		c3.4,16,37.6,363,37.6,363"/>
	<path class="st0" d="M580.8,573.1c-1.8,14.9-17.3,187.5-17.3,187.5"/>
	<path class="st0" d="M459.7,505.8c70.1,3.4,126.8,16,161.3-38.7"/>
	<path class="st0" d="M421.9,499.1c-18.7-7.3-38.8-10.6-56.7-20.3c-4.1-2.2-8.4-5.3-14.1-4.8c-4.1,5.6-3.5,11.8-2,18.4l4.7,35.5"/>
	<path class="st0" d="M612.8,580c-3.3,35.8-5.8,71.6-11.3,107.1"/>
	<path class="st0" d="M341.5,756.1c5.6,18.1-5.5,60.3,42.5,82.8c10.6,4.9,20.7,11,31.9,14.2c48,13.9,105.4,10.5,119.8,6.4
		c58.7-16.9,87.6-45.7,93.9-102.1c1.2-13.8,3.6-27.5,4.3-41.4l35.2-333c3.8-17.4-0.1-35.3,1.4-52.9c-2.7-13.1-17.3-19.3-27.7-25.3"
		/>
	<path class="st0" d="M401,430.2c5.9-0.5,8.3-2.7,12.7-3.5c26.9-4.8,53.8-3.7,80.6,0c0,0,64.3,8.4,79.6,12.3
		c16.8,4.3,29.9,14.8,44.8,22.3c2.4,1.2,2.4,3.6,2.3,5.8c-0.7,21.9,0.6,44.1-3.1,65.5c-2,11.9-1.1,24.5-6.1,35.9"/>
	<path class="st0" d="M305.8,419.1"/>
</g>
</svg>
