<?xml version="1.0" encoding="utf-8"?>
<!-- Generator: Adobe Illustrator 28.0.0, SVG Export Plug-In . SVG Version: 6.00 Build 0)  -->
<svg version="1.1" id="Laag_1" xmlns="http://www.w3.org/2000/svg" xmlns:xlink="http://www.w3.org/1999/xlink" x="0px" y="0px"
	 viewBox="0 0 1000 1000" style="enable-background:new 0 0 1000 1000;" xml:space="preserve">
<style type="text/css">
	.st0{fill:none;stroke:#4A4A49;stroke-width:4;stroke-linecap:round;stroke-linejoin:round;stroke-miterlimit:10;}
</style>
<g>
	<path class="st0" d="M322.1,741c-8.7,20,4.6,39.3,1.6,59.2c-0.2,1.4,1.3,3,1.4,4.5c1.7,25.9,1.9,25.1,27.3,32.1
		c26,7.1,52.6,6.1,79,7c45,1.4,90,0.4,135,0.4c23.2,0,45.8-4.5,68.2-9.4c22.1-4.8,39.4-33.7,31-57c-5.9-16.4-1-30.1,1.4-44.3
		c7.3-41.9,14.1-83.8,19.7-126c3.7-28.3,5.1-56.7,7-85c1.3-19.2-2-38.3-0.2-57.7c3.6-37.8,5.9-75.8,7.8-113.8
		c2.1-41.9,4.4-83.9,3.2-125.9c-0.3-9.6,0-19.2,0-28.8c0-23.1-4.4-22.8-22.2-35.7c-24.4-17.8-50.4-14.1-76.4-14.2
		c-61.7-0.1-123.5-1.1-185.1,2c-40,2-80,0.4-119.9,2.9c-13.3,0.8-26.5,7.2-39.4,11.8c-5,1.8-4.3,7.3-4.7,11.9
		c-2,22,1.9,43.8,5.2,65.2c6.7,42.9,11.5,86.1,17.7,129c10.6,74,12.1,148.5,15.8,223c2.5,49.9,9.2,99.7,26.7,147.2"/>
	<path class="st0" d="M698.4,320.8c-8.9-0.2-46,7.1-56.1,7.6c-38.9,2-75.7-4.5-112.7-18.7c-30.3-11.7-63.8-11-95.3,3.2
		c-82.1,46.1-148.4,10.3-157.7,10.9"/>
	<path class="st0" d="M279.6,161.5c11,20,31.3,22.4,50.1,22.2c58.9-0.6,266.5,4.3,311.1-5.3c12.6-2.7,26-2.1,34.8-13.9"/>
	<path class="st0" d="M658.9,763.8c-26.3,11.3-53.5,19.8-81.9,22.6c-287.9,12-238.9-46.4-253.4-46.9"/>
</g>
</svg>
