<?xml version="1.0" encoding="UTF-8"?>
<svg id="Laag_1" data-name="Laag 1" xmlns="http://www.w3.org/2000/svg" viewBox="0 0 49.81 36.2">
  <defs>
    <style>
      .cls-1 {
        fill: #494948;
        stroke-width: 0px;
      }
    </style>
  </defs>
  <path class="cls-1" d="M28.12,36.2l-.15-.27c-.05-.1-5.32-9.88-7.02-16.81-1.13-4.6.54-7.98,2.48-9.61,1.72-1.45,3.83-1.78,5.79-.92,3.87,1.69,4.81,7.88,5.17,10.21.01.09.03.17.04.26,2.15-1.92,6.55-5.82,10.5-4.94,1.96.44,3.52,2.01,4.65,4.68,2.37,10.1-14.94,15.41-20.63,17.15l-.83.26ZM27.06,8.88c-1.1,0-2.19.41-3.14,1.21-1.76,1.48-3.28,4.59-2.23,8.86,1.52,6.2,5.95,14.74,6.8,16.36l.25-.08c5.52-1.69,22.33-6.84,20.13-16.2-1-2.37-2.39-3.79-4.1-4.18-3.6-.81-7.84,2.99-9.88,4.81l-.62.55-.23-.11c-.22-.11-.24-.25-.39-1.18-.34-2.22-1.24-8.11-4.73-9.63-.61-.27-1.25-.4-1.87-.4Z"/>
  <path class="cls-1" d="M11.26,17.09l-.27-.15c-.24-.14-5.86-3.34-8.95-6.34C-.04,8.57-.27,6.25.21,4.77c.43-1.34,1.44-2.22,2.78-2.41,2.52-.37,4.94,2.36,5.93,3.51.52-1.76,1.54-4.9,3.79-5.68,1.19-.41,2.53-.11,3.99.92,4.54,4.5-2.65,12.78-5.02,15.5l-.42.49ZM3.47,3.07c-.12,0-.25,0-.37.03-1.04.15-1.83.85-2.17,1.9-.52,1.6.13,3.59,1.64,5.06,2.64,2.57,7.36,5.39,8.53,6.08l.02-.02c2.25-2.59,9.1-10.47,5.1-14.44-1.2-.84-2.32-1.12-3.26-.79-2.02.71-2.99,4.06-3.4,5.49l-.17.58-.25.02c-.22.02-.32-.08-.7-.53-.81-.95-2.9-3.38-4.96-3.38Z"/>
</svg>