<?xml version="1.0" encoding="utf-8"?>
<!-- Generator: Adobe Illustrator 28.0.0, SVG Export Plug-In . SVG Version: 6.00 Build 0)  -->
<svg version="1.1" id="Laag_1" xmlns="http://www.w3.org/2000/svg" xmlns:xlink="http://www.w3.org/1999/xlink" x="0px" y="0px"
	 viewBox="0 0 1000 1000" style="enable-background:new 0 0 1000 1000;" xml:space="preserve">
<style type="text/css">
	.st0{fill:none;stroke:#4A4A49;stroke-width:4;stroke-linecap:round;stroke-linejoin:round;stroke-miterlimit:10;}
</style>
<g>
	<path class="st0" d="M487.3,390.4C355.6,144.3,72,190.9,226.3,488.7C294.4,605.2,421.1,668.8,500,775.3
		c100.3-68.5,183-171,243.4-276.4c3.2-6.1,7.2-13.3,15.1-11.7c26.1,5.5,52-1.6,78-0.2"/>
	<path class="st0" d="M756.8,485.3c121.1-274.1-150-367.8-271.2-105.1"/>
	<path class="st0" d="M741.5,495.5c-158.3-16-93-19.2-147.5,76.3"/>
	<path class="st0" d="M383,407.3c-0.6,53.5,58.2,167.7,73.7,213.6"/>
	<path class="st0" d="M380.5,431.1c-35.3,23.8-20.7,98.6-76.3,83.3c-18.1-2.4-36.6-5.9-54.2,3.2"/>
	<path class="st0" d="M527.1,453.1c2.1,2.5,4.3,6.3,2.4,8.3c-34.9,42.5-42.3,99.3-72.7,144.2"/>
	<path class="st0" d="M531.4,463.3c29.8,30.9,32.4,76.4,59.1,108.7c4.9,4.6,3,12.1,2.7,18.4"/>
	<path class="st0" d="M163.5,510.7c22.9-0.5,47.6,8.1,69.5,0"/>
</g>
</svg>
