<?xml version="1.0" encoding="utf-8"?>
<!-- Generator: Adobe Illustrator 28.0.0, SVG Export Plug-In . SVG Version: 6.00 Build 0)  -->
<svg version="1.1" id="Laag_1" xmlns="http://www.w3.org/2000/svg" xmlns:xlink="http://www.w3.org/1999/xlink" x="0px" y="0px"
	 viewBox="0 0 1000 1000" style="enable-background:new 0 0 1000 1000;" xml:space="preserve">
<style type="text/css">
	.st0{fill:none;stroke:#4A4A49;stroke-width:4;stroke-linecap:round;stroke-linejoin:round;stroke-miterlimit:10;}
</style>
<g>
	<path class="st0" d="M142.7,515.3c-4.8,5.8-3.7,12.9-4,19.6c-0.4,12.3-1,24.7,0.9,36.9c2.1,13.5,5.3,26.5,10.5,39.5
		c6.7,16.9,15.3,32.1,29.7,42.8c12.3,9.1,27,14.5,41.4,20c35.6,13.7,72.5,21.5,110,27.5c36.5,5.8,73.1,10.3,110,12.8
		c32,2.1,64,2,95.9,0.9c52-1.7,103.8-7.8,154.8-18.6c23.9-5.1,47.9-9.9,70.7-18.8c17.4-6.8,35-14.9,46-30.1
		c12.8-17.7,26-35.7,32.6-57.1c1.9-6.2,6.9-11.6,4.8-18.8"/>
	<path class="st0" d="M633.9,603.3c-1.8-13.6-3.5-27.3-5.5-40.9c-1.8-12.1-4-24.1-5.8-36.2c-3.4-22-6.1-44.1-10-66
		c-6.7-37.4-14.5-74.5-28.3-110c-10.2-26.3-21.1-52.1-38.9-74.9c-23.9-30.7-74-32.9-98,2.4c-16.4,24.2-26.9,50.6-35.9,78
		c-8.8,26.6-15.4,53.8-21.8,81c-4.4,18.7-8.4,37.6-10.8,56.6c-1.3,10.3-4.3,20.2-5.1,30.6c-0.7,9.7-1.9,19.4-2.7,29.1
		c-1.5,17-2.9,34.1-4.3,51.1"/>
	<path class="st0" d="M718,615.9c6.4-5.4,14.7-4.1,22.1-6c10.2-2.6,20.6-4.4,30.7-7.9c2.7-0.9,5.9-3.2,9.4-1.1
		c0.9,0.5,2.8,0,3.8-0.7c16.3-11.3,36.6-14.8,52.8-26.5c1.2-0.9,3.2-1.9,5.4-1.9c4.8,0,8-3.2,8.5-7.7c0.8-7.3,5-14,2.8-22.1
		c-1.3-4.8,3.8-9.4,4.7-14.8c2.1-12.7-2.6-23.9-15.2-28.5c-14-5.1-28.2-4.9-42.5-3c-35.4,4.9-70.7,10.4-106.1,14.7
		c-19.8,2.4-39.8,2.8-59.7,4.1c-3.9,0.3-7.9,0.5-11.8,0.8"/>
	<path class="st0" d="M373.8,512.9c-17.6-1.3-35.1-2.1-52.7-3.8c-30.7-2.9-61.1-7.6-91.2-14.3c-18.4-4.1-37-7.3-55.8-8.6
		c-10.3-0.7-20.5-0.1-28.4,8.5c-3.3,3.6-2.5,7.8-3.2,11.8c-0.9,4.7,0.9,6.8,3.8,10.5c26.2,32.4,63.5,46.7,100.2,61.6
		c36.2,14.7,74.5,21.8,113.1,26.7c30.2,3.8,60.6,6,91.1,7.6c21.8,1.2,43.5,1.6,65.2,1.1c25.7-0.6,51.4-1.6,77-4.5
		c10.4-1.2,21.1-0.8,31.4-2.6c14.9-2.6,30-2,44.9-5c14.6-2.9,29.3-5.4,44-8.1c36.2-6.7,71.4-17,105.2-31.7
		c10.2-4.4,19.6-10.8,28.4-17.8c1.6-1.3,3.6-2.1,5.5-3.2"/>
	<path class="st0" d="M624.5,553.8c-17.3,4.2-34.8,6.9-52.6,8.9c-45.5,5-91.2,2.6-136.8,2.7c-20.7,0-41.5-2.2-62.1-5.2"/>
	<path class="st0" d="M621.3,531.8c-23,5.7-46.2,9.1-69.9,10.4c-21,1.2-41.9,3.4-62.9,2.9c-27.3-0.7-54.5-1.4-81.7-3.4
		c-10.7-0.8-21.7-0.3-32.2-3.6"/>
	<path class="st0" d="M419.3,503.5c-10-8.6-20.7-12-33.1-4.8c-1.4,0.8-3.6,0.1-5.4,0.1"/>
	<path class="st0" d="M616.6,498.8c-2.4-0.5-3.8,1.5-5.5,2.4c-10.8,6.2-22.3,6.4-32.1-0.3c-15.8-10.9-29.8-6.9-44.2,1.8
		c-3.4,2.1-6.7,4.4-10.2,6.2c-8.8,4.6-17.6,3.1-25-2.5c-12.1-9.1-23.7-8.1-36.4-1.6c-4.9,2.5-10.2,4.8-15.5,6.8"/>
	<path class="st0" d="M609.5,454.8c-23.5,6.2-47.2,10.9-71.5,12.7c-29.1,2.2-58.1,2.9-87.2,1.5c-17.6-0.9-35.2-2.3-52.7-4.6
		c-4.1-0.5-7.6-2.7-11.8-2.6"/>
	<path class="st0" d="M480.6,450.6c-20.7-0.6-41.5-1.5-62.1-4.2c-9.3-1.2-18.8-1.8-28.3-2.6"/>
	<path class="st0" d="M605.6,434.3"/>
	<path class="st0" d="M331.3,625.3c6.5,15.9,14.7,30.9,23.6,45.6c0.6,1,1.1,2.1,2.7,5c-26.6-0.8-50.8-7.1-75.3-12
		c-0.1-0.7-0.1-1.5-0.2-2.2c14.6-12.1,29.1-24.3,43.7-36.4"/>
	<path class="st0" d="M633.1,628.5c-6.4,12.3-16.1,22.3-23.6,33.8c-3.4,5.2-8.1,9.6-10.7,15.1c-1.9,4.1-5.5,5.7-8.2,5.8
		c-5.6,0.3-10.9,2-16.5,2.1c-17.8,0.4-35.5,3.6-53.4,3c-3-0.1-6,0.1-8.6-1.6"/>
	<path class="st0" d="M781.6,601.7c-6.8,17.2-17.8,32.2-26,48.7c-0.9,1.9-2.8,3.4-5.4,4c-19.8,4.9-39.7,9.6-59.7,13.3
		c-15,2.7-29.8,6-44.8,8.5c-12.8,2.2-25.7,3.7-38.5,5.6c-3.3,0.5-6.4-0.5-9.4-1.6"/>
	<path class="st0" d="M716.4,616.7c-17.6-0.8-34.6,3.5-51.9,5.6c-8.4,1-17,0.9-25.2,3.7c-3.2,1.1-6.5,1.5-10.2,1.1
		c-11.8-1.1-23.6,1.3-35.3,2.1c-8.9,0.6-17.8,1.5-26.7,2.4c-4.3,0.4-9.3-1.9-12.7,3c-0.3,0.5-2,0.2-3,0c-24.4-4-48.7,2-73.1,0
		c-2.9-0.2-5.6,0.3-7.9,2.4"/>
	<path class="st0" d="M358,675.6c2.1,2.3,4.7,2.9,7.8,3.3c15.7,1.6,31.4,3.6,47.2,5.4c6.5,0.7,13,2.6,19.6,0.8"/>
	<path class="st0" d="M397.3,634c8.1,7,13,16.5,18.6,25.3c5.4,8.5,13.3,15.2,16.9,24.9c0.7,1.8,3.3,2.2,5.4,2.4
		c20.9,1.8,41.9,3.1,62.9,3.2c3,0,4.6-1.3,6.3-3.2"/>
	<path class="st0" d="M303.9,617.2c-12.8-1.9-25.3-6.7-37.9-8.5c-11.8-1.6-21.3-7.7-32.1-10.9c-11.5-3.5-22.5-8.4-33-14.2
		c-7-3.9-12.9-3.6-19,1.6c-10.1,8.6-20.4,16.8-30.6,25.2"/>
	<path class="st0" d="M395.8,633.2c-6.5-5.6-14.7-2.9-22-4.5c-9.5-2.1-19.3-2.8-29-4.1c-0.8-0.1-1.6-0.8-2.4-0.7"/>
	<path class="st0" d="M189.1,582.1c5.8,18.2,11.7,36.4,18.9,54.2c2,4.9,5.3,7.7,10.8,9.8c18.6,7,38,10.8,56.7,16.8
		c1.8,0.6,4.2-0.4,6.3-0.7"/>
	<path class="st0" d="M468.9,637.1c-1.8-1.6-3.9-2.5-6.3-2.4c-15.5,1.1-30.9-1.9-46.4-1.5c-5.5,0.2-11.2-4.7-16.5,0.7"/>
	<path class="st0" d="M813.1,638.7c-3.1-1.9-6.2-1.1-9.4-0.1c-12.3,4.1-24.5,8.1-37,11.7c-2.8,0.8-6.2,3-9.4,0.2"/>
	<path class="st0" d="M209.5,640.2c-9,3.3-15.7-3.7-23.5-5.8c-6.9-1.9-13.2-6-19.7-9.1c-2.7-1.3-5.3-3.5-8.6-1.6"/>
	<path class="st0" d="M140.4,543.6c2.2,0.9,4.6,1.2,6.3,3.1c10.3,12,23.6,20.3,37,28.1c2.7,1.6,4.4,3.5,6.2,5.7"/>
	<path class="st0" d="M256.7,608.8c1.3,7.4,6.2,13.1,9.4,19.6c5.3,10.7,10.3,21.6,17.3,31.4"/>
	<path class="st0" d="M549.8,635.5c-11.9,17.7-26.7,33.1-39.3,50.3c-0.2,0.2-1,0-1.5,0"/>
	<path class="st0" d="M710.9,618.2c-8.1,13.6-16.2,27.3-24.4,40.9c-1.5,2.5-3.3,4.7-3.1,7.9"/>
	<path class="st0" d="M553.7,635.5c12.6,13.6,25.2,27.2,37.7,40.9c1.3,1.4,3.6,2.2,3.2,4.7"/>
	<path class="st0" d="M637.8,627.7c5.9,10.1,16.6,15.4,24.4,23.6c5.5,5.8,12.7,9.7,17.3,16.5"/>
	<path class="st0" d="M252.7,608c-13.6,10.5-27.2,21-40.9,31.4"/>
	<path class="st0" d="M396.6,635.5c-14.2,10.8-26.3,24-38.5,36.9"/>
	<path class="st0" d="M717.2,618.2c12.3,10.2,24.6,20.4,36.9,30.6"/>
	<path class="st0" d="M785.6,600.2c11,9.4,22,18.9,33,28.3"/>
</g>
</svg>
