<?xml version="1.0" encoding="utf-8"?>
<!-- Generator: Adobe Illustrator 28.0.0, SVG Export Plug-In . SVG Version: 6.00 Build 0)  -->
<svg version="1.1" id="Laag_1" xmlns="http://www.w3.org/2000/svg" xmlns:xlink="http://www.w3.org/1999/xlink" x="0px" y="0px"
	 viewBox="0 0 1000 1000" style="enable-background:new 0 0 1000 1000;" xml:space="preserve">
<style type="text/css">
	.st0{fill:none;stroke:#4A4A49;stroke-width:4;stroke-linecap:round;stroke-linejoin:round;stroke-miterlimit:10;}
</style>
<g>
	<path class="st0" d="M287.4,839.5c4.9-0.9,9.1,0.4,13.8,2.6c8.8,4.1,18.5,4.1,28.1,3c37.1-4.1,70-18.7,99.9-40.6
		c0.8-0.6,1.6-1.1,2.7-1.8c7.4,3.3,14,8.6,22.2,10.7c13.8,3.6,27.6,4.2,41.9,3.5c15.4-0.7,30.3-3,45.1-6.8
		c49-12.7,94.6-33.5,136.9-61.2c16.6-10.8,33.5-21.2,48.4-34.6c19.1-17.2,30.6-39.6,41.8-62.1c19.2-38.4,36.2-77.8,47.4-119.2
		c8.6-31.8,10.2-64.4,6.9-97.4c-4.4-44.1-20.8-83.6-43.8-120.7c-25.1-40.6-59.4-72.5-97.4-100.7c-28.2-20.9-58.3-38.3-91.8-49.1
		c-20.9-6.7-42.4-10.1-64.4-10.6c-16.7-0.4-33.4,0.2-49.9,1.9c-43.4,4.4-86.2,11.4-125.7,32c-65.1,33.9-111.2,85.4-141.7,151.5
		c-12.7,27.5-20.8,56.6-26.2,86.2c-2,11.2-3.1,23-4,34.5c-1.5,18.1-1.7,36.1-0.9,54c1.4,32.9,8.5,64.6,22,95.2
		c18.5,41.8,46.6,76.1,79.4,106.8c20.3,19.1,42.4,36.4,66,51.5c3.2,2,3.1,4,3.1,6.6c-0.1,14.2-7.8,25.1-16.2,35.4
		c-6.7,8.2-15.1,14.6-24,20.3c-3.6,2.3-8,4.2-9.7,8.8"/>
	<path class="st0" d="M557.2,430.8c1.9,10.7-0.4,20.2-9.7,26.5c-12.3,8.2-11.7,20.9-12.8,33.1c-1.7,18.5-3.2,37-4.9,55.6
		c-1.6,17.5-1.3,34.9,0.2,52.3c0.7,8.6,0.4,17.2,0.6,25.8c0.2,11.8,3.7,21.4,16.2,24.9c4.5,1.2,4.3,4.3,3.9,7.3
		c-1,8.2-1.9,16.4-4.7,24.9c-30.1-4.1-60.2-3.7-90.3-4.8c-6.7-0.2-13.4-0.7-20.1-0.7c-4,0-6.1-1.2-5.7-5.7c0.3-3.5,0.4-7,0-10.5
		c-0.7-6.2,1-10.8,6.4-14.6c11.7-8.1,13.4-21,14.4-33.7c0.8-10.7,0.7-21.4,0.4-32.2c-0.5-17.4,0.2-34.9,1.5-52.3
		c1.3-17.5,0.3-34.9-1.2-52.3c-0.2-2.4-0.1-4.9-0.6-7.3c-1.1-4.6-1-9-7.1-11.6c-11-4.7-16.2-17.7-12.9-28.7c0.9-2.9,2.4-5,6.4-5
		c25,0.2,50,1.5,74.9,3.1c12.1,0.8,24.2,1.6,36.2,2.7c3.1,0.3,6.2,0.4,8.9,2.4"/>
	<path class="st0" d="M304.3,184.3c-39.5,16-70,42.5-91.7,79c-4.9,8.3-7.6,17.7-9,27.3"/>
	<path class="st0" d="M782.7,686.9c-1.6,14.2-8.2,26.6-16.3,37.7c-11.8,16.1-24.7,31.5-41.6,42.9c-3.9,2.7-7.9,5.1-12.2,7.1
		c-2.6,1.2-3.7,2.9-3.2,5.7"/>
	<path class="st0" d="M553.9,527.4c1.1,13-2.3,25.7-1.7,38.7c0.2,5,0.7,9.8,2.6,14.5"/>
	<path class="st0" d="M254.4,190.8c-13.8,4.4-24.2,13.2-32.2,25c-1.7,2.6-3.2,5.5-2.5,8.8"/>
	<path class="st0" d="M792.3,736.8c-2.5,9.5-8.9,16.4-15.3,23.4"/>
	<path class="st0" d="M570.1,546.7c0,7.5,0,15,0,22.5"/>
	<path class="st0" d="M497.6,240.7c-12.9,2.7-25.2,6.6-36.4,14.3c-18.7,12.9-30.8,29.9-31.8,52.5c-1.9,40.3,25.8,71.4,65.8,72.6
		c15.7,0.5,31.2-0.8,44.1-10c15.4-10.9,23.9-26.1,27.1-45.6c6.6-39.2-22.3-74.4-53.6-82.1c-4.7-1.2-9.6-1.2-14.5-1.7"/>
</g>
</svg>
