<?xml version="1.0" encoding="UTF-8"?>
<svg id="Laag_1" data-name="Laag 1" xmlns="http://www.w3.org/2000/svg" viewBox="0 0 40.33 42">
  <defs>
    <style>
      .cls-1 {
        fill: #494948;
        stroke-width: 0px;
      }
    </style>
  </defs>
  <path class="cls-1" d="M9.14,42c-.41,0-.85-.06-1.28-.25-.27-.12-.44-.16-.62-.13-.2.04-.4-.1-.43-.3-.04-.2.1-.4.31-.43.15-.03.29-.03.43-.01.15-.21.36-.33.52-.42l.11-.06c.61-.38,1.05-.74,1.38-1.13.45-.54.9-1.13.9-1.87-1.45-.97-2.82-2.02-4.1-3.19-2.33-2.14-3.9-4.21-4.94-6.5C.58,25.87.12,23.91.03,21.88c-.05-1.17-.03-2.24.06-3.27.06-.65.12-1.39.25-2.1.37-1.98.9-3.69,1.63-5.24C3.92,7.15,6.89,4.05,10.79,2.07,13.31.79,16.03.37,18.6.12c1.01-.1,2.05-.14,3.09-.11,1.41.03,2.77.25,4.04.65,1.91.6,3.78,1.58,5.72,2.98,2.75,1.99,4.67,3.94,6.05,6.11,1.58,2.5,2.48,4.91,2.73,7.37.22,2.15.08,4.1-.43,5.95-.61,2.2-1.54,4.48-2.92,7.18-.66,1.28-1.4,2.72-2.64,3.81-.81.71-1.72,1.29-2.6,1.84l-.4.25c-2.68,1.71-5.53,2.95-8.47,3.7-.92.24-1.88.38-2.83.42-1.04.05-1.89-.02-2.67-.22-.36-.09-.66-.26-.95-.42-.09-.05-.19-.1-.28-.15-2.04,1.44-4.06,2.24-6.26,2.48-.19.02-.41.04-.63.04ZM8.37,41.14c.45.14.94.12,1.33.08,2.1-.23,4.03-1,5.92-2.36l.1-.07c.11-.07.32-.13.43-.08.18.08.36.17.53.27.26.14.51.28.77.35.71.18,1.49.25,2.45.2.9-.04,1.8-.17,2.68-.4,2.87-.72,5.64-1.94,8.25-3.6l.4-.26c.86-.54,1.74-1.1,2.5-1.77,1.14-1,1.81-2.32,2.47-3.59,1.36-2.65,2.27-4.89,2.87-7.04.49-1.76.62-3.62.41-5.67-.24-2.34-1.1-4.64-2.62-7.04-1.33-2.09-3.18-3.97-5.85-5.91-1.87-1.36-3.67-2.3-5.5-2.88-1.2-.38-2.49-.58-3.83-.61-1.02-.02-2.03.01-3,.11-2.5.25-5.14.64-7.55,1.87-3.75,1.91-6.61,4.89-8.49,8.86-.7,1.48-1.22,3.14-1.57,5.05-.12.67-.19,1.39-.24,2.02-.09.99-.1,2.03-.05,3.17.08,1.94.53,3.8,1.31,5.54.99,2.2,2.5,4.18,4.76,6.25,1.24,1.14,2.58,2.16,3.98,3.03.37.23.37.53.36.7,0,1-.56,1.74-1.08,2.36-.38.46-.88.87-1.56,1.29l-.13.08s-.05.03-.07.04ZM32.96,38.09c-.18,0-.33-.12-.37-.3-.06-.33.09-.6.41-.75.26-.11.49-.26.69-.39,1.04-.69,1.83-1.64,2.45-2.47.55-.74.84-1.39.92-2.07.02-.2.2-.36.42-.33.21.02.35.21.33.42-.09.81-.43,1.58-1.07,2.43-.66.89-1.5,1.9-2.64,2.65-.22.14-.48.31-.77.44,0,.18-.13.34-.31.37-.02,0-.05,0-.07,0ZM37.09,36.89c-.09,0-.18-.03-.26-.1-.15-.14-.16-.38-.02-.53.37-.39.72-.76.84-1.23.05-.2.26-.32.46-.26.2.05.32.26.26.46-.18.66-.6,1.11-1.02,1.55-.07.08-.18.12-.28.12ZM22.98,32.18s-.03,0-.05,0c-1.37-.18-2.77-.21-4.13-.25-.45-.01-.9-.02-1.35-.04l-.41-.02c-.27-.01-.54-.02-.81-.03-.17,0-.4-.03-.57-.21-.12-.13-.17-.32-.15-.54.02-.2.02-.38,0-.54-.06-.53.12-.93.56-1.23.56-.38.66-1.01.72-1.73.05-.65.04-1.31.02-1.88-.03-.98,0-2.01.09-3.16.08-1.06.01-2.1-.07-3.06v-.16c-.01-.08-.01-.16-.03-.21l-.03-.13c-.04-.21-.05-.25-.19-.31-.83-.34-1.27-1.3-1-2.17.15-.49.54-.55.75-.56,1.57.01,3.14.1,4.6.18.74.05,1.48.1,2.22.16.25.02.5.04.73.22.1.08.15.19.15.31.18,1.06-.31,1.63-.76,1.93-.48.31-.54.75-.59,1.43l-.02.27c-.06.62-.11,1.24-.17,1.86l-.13,1.46c-.09.96-.08,1.96.01,3.06.03.37.03.74.03,1.11v.45c.01.68.21.99.71,1.13.4.11.57.39.52.85-.06.51-.13,1.02-.3,1.56-.05.16-.2.26-.36.26ZM16.26,31.1c.31,0,.56.02.81.03l.41.02c.45.02.9.03,1.34.04,1.27.03,2.58.06,3.89.21.09-.37.14-.73.18-1.1,0-.04.01-.09,0-.11-1.22-.26-1.23-1.4-1.24-1.77v-.47c0-.35,0-.7-.03-1.05-.1-1.14-.1-2.18-.01-3.19l.13-1.45c.05-.62.11-1.24.17-1.86l.02-.25c.05-.65.11-1.47.93-2,.23-.15.52-.43.45-1.06-.05,0-.11-.01-.18-.02-.78-.07-1.52-.12-2.25-.16-1.45-.09-3-.17-4.56-.18-.18.53.08,1.09.55,1.29.51.21.58.6.63.85l.02.1c.03.13.04.25.04.36v.12c.1,1,.17,2.07.08,3.18-.09,1.12-.12,2.13-.09,3.08.02.59.03,1.28-.03,1.96-.07.85-.21,1.72-1.05,2.29-.2.14-.26.27-.23.52.02.19.03.4,0,.63ZM23.51,26.18c-.15,0-.29-.09-.35-.23-.14-.35-.17-.7-.18-.99-.02-.39.02-.76.06-1.13.04-.4.08-.79.05-1.16-.02-.21.13-.39.34-.41.21-.01.39.14.41.34.04.45,0,.88-.05,1.31-.04.35-.07.69-.06,1.02,0,.24.03.5.13.74.08.19-.02.41-.21.49-.05.02-.09.03-.14.03ZM24.45,25.51c-.21,0-.38-.17-.38-.38v-1.35c0-.21.17-.38.38-.38s.38.17.38.38v1.35c0,.21-.17.38-.38.38ZM20.2,14.23c-.11,0-.23,0-.34,0-1.28-.04-2.43-.54-3.23-1.41-.8-.87-1.21-2.05-1.15-3.32.07-1.38.78-2.53,2.11-3.43.81-.54,1.68-.77,2.35-.91.03,0,.06-.01.1,0,.02,0,.04,0,.06,0l.27.02c.22.02.45.03.66.09,2.07.5,4,2.76,3.55,5.33-.22,1.31-.82,2.28-1.81,2.97-.8.56-1.73.67-2.58.67ZM20.05,5.9c-.6.13-1.36.33-2.05.79-1.14.77-1.72,1.7-1.78,2.84-.05,1.07.29,2.05.95,2.77.67.72,1.63,1.14,2.7,1.17.85.03,1.74-.02,2.47-.53.82-.57,1.31-1.38,1.5-2.48.37-2.12-1.28-4.06-2.99-4.47-.18-.04-.36-.05-.54-.07-.09,0-.18-.01-.27-.02ZM2.06,8.88s-.04,0-.05,0c-.21-.03-.35-.22-.32-.43.1-.7.3-1.28.6-1.77,1.37-2.26,3.32-3.89,5.79-4.87.19-.08.41.02.49.21.08.19-.02.41-.21.49-2.31.91-4.13,2.45-5.42,4.56-.25.41-.41.89-.5,1.49-.03.19-.19.32-.37.32ZM3.04,4.94c-.17,0-.33-.12-.37-.29-.08-.36.08-.64.21-.82.57-.82,1.3-1.37,2.16-1.63.2-.06.41.05.47.25.06.2-.05.41-.25.47-.71.22-1.29.66-1.77,1.35-.1.14-.1.2-.09.23.04.2-.08.4-.29.45-.03,0-.05,0-.08,0Z"/>
</svg>