<svg width="202" height="210" viewBox="0 0 202 210" fill="none" xmlns="http://www.w3.org/2000/svg">
<g clip-path="url(#clip0_51_28)">
<path d="M45.7791 210C43.7255 210 41.5217 209.7 39.368 208.75C38.0156 208.15 37.1642 207.95 36.2626 208.1C35.2609 208.3 34.2591 207.6 34.1089 206.6C33.9085 205.6 34.6097 204.6 35.6616 204.45C36.4129 204.3 37.1141 204.3 37.8153 204.4C38.5666 203.35 39.6184 202.75 40.4198 202.3L40.9708 202C44.0261 200.1 46.2299 198.3 47.8827 196.35C50.1366 193.65 52.3905 190.7 52.3905 187C45.128 182.15 38.2661 176.9 31.855 171.05C20.1847 160.35 12.3211 150 7.11209 138.55C2.9048 129.35 0.600811 119.55 0.15003 109.4C-0.100404 103.55 -0.000230178 98.2 0.450551 93.05C0.751072 89.8 1.05159 86.1 1.70272 82.55C3.55593 72.65 6.21053 64.1 9.86687 56.35C19.6338 35.75 34.5096 20.25 54.0434 10.35C66.6653 3.94997 80.2889 1.84997 93.1612 0.599969C98.22 0.0999691 103.429 -0.100031 108.638 0.0499691C115.7 0.199969 122.512 1.29997 128.873 3.29997C138.44 6.29997 147.806 11.2 157.523 18.2C171.297 28.15 180.913 37.9 187.825 48.75C195.739 61.25 200.247 73.3 201.499 85.6C202.601 96.35 201.9 106.1 199.345 115.35C196.29 126.35 191.632 137.75 184.72 151.25C181.414 157.65 177.708 164.85 171.497 170.3C167.44 173.85 162.882 176.75 158.474 179.5L156.471 180.75C143.048 189.3 128.773 195.5 114.047 199.25C109.439 200.45 104.631 201.15 99.8728 201.35C94.6638 201.6 90.4064 201.25 86.4997 200.25C84.6965 199.8 83.1939 198.95 81.7414 198.15C81.2906 197.9 80.7898 197.65 80.339 197.4C70.1213 204.6 60.0037 208.6 48.9846 209.8C48.033 209.9 46.9311 210 45.8292 210H45.7791ZM41.9224 205.7C44.1763 206.4 46.6306 206.3 48.584 206.1C59.1022 204.95 68.7689 201.1 78.2353 194.3L78.7362 193.95C79.2872 193.6 80.339 193.3 80.8899 193.55C81.7915 193.95 82.6931 194.4 83.5445 194.9C84.8468 195.6 86.099 196.3 87.4012 196.65C90.9574 197.55 94.8641 197.9 99.6725 197.65C104.18 197.45 108.688 196.8 113.096 195.65C127.471 192.05 141.345 185.95 154.417 177.65L156.421 176.35C160.728 173.65 165.136 170.85 168.942 167.5C174.652 162.5 178.008 155.9 181.314 149.55C188.126 136.3 192.684 125.1 195.689 114.35C198.143 105.55 198.794 96.25 197.742 86C196.54 74.3 192.233 62.8 184.62 50.8C177.958 40.35 168.692 30.95 155.319 21.25C145.953 14.45 136.937 9.74997 127.771 6.84997C121.761 4.94997 115.3 3.94997 108.588 3.79997C103.479 3.69997 98.4203 3.84997 93.5619 4.34997C81.0402 5.59997 67.8173 7.54997 55.7464 13.7C36.9638 23.25 22.639 38.15 13.2227 58C9.71661 65.4 7.11209 73.7 5.35906 83.25C4.75801 86.6 4.40741 90.2 4.15697 93.35C3.70619 98.3 3.6561 103.5 3.90654 109.2C4.30723 118.9 6.56114 128.2 10.4679 136.9C15.4265 147.9 22.9896 157.8 34.3092 168.15C40.52 173.85 47.2316 178.95 54.2438 183.3C56.097 184.45 56.097 185.95 56.0469 186.8C56.0469 191.8 53.242 195.5 50.6375 198.6C48.7342 200.9 46.2299 202.95 42.824 205.05L42.1728 205.45C42.1728 205.45 41.9224 205.6 41.8222 205.65L41.9224 205.7ZM165.086 190.45C164.184 190.45 163.433 189.85 163.233 188.95C162.932 187.3 163.683 185.95 165.286 185.2C166.588 184.65 167.74 183.9 168.742 183.25C173.951 179.8 177.908 175.05 181.013 170.9C183.768 167.2 185.221 163.95 185.621 160.55C185.722 159.55 186.623 158.75 187.725 158.9C188.777 159 189.478 159.95 189.378 161C188.927 165.05 187.224 168.9 184.019 173.15C180.713 177.6 176.506 182.65 170.796 186.4C169.694 187.1 168.392 187.95 166.939 188.6C166.939 189.5 166.288 190.3 165.386 190.45C165.286 190.45 165.136 190.45 165.036 190.45H165.086ZM185.772 184.45C185.321 184.45 184.87 184.3 184.469 183.95C183.718 183.25 183.668 182.05 184.369 181.3C186.222 179.35 187.975 177.5 188.577 175.15C188.827 174.15 189.879 173.55 190.881 173.85C191.882 174.1 192.483 175.15 192.183 176.15C191.281 179.45 189.178 181.7 187.074 183.9C186.723 184.3 186.172 184.5 185.671 184.5L185.772 184.45ZM115.099 160.9C115.099 160.9 114.949 160.9 114.849 160.9C107.987 160 100.975 159.85 94.1629 159.65C91.909 159.6 89.6551 159.55 87.4012 159.45L85.3477 159.35C83.9953 159.3 82.643 159.25 81.2906 159.2C80.4391 159.2 79.2872 159.05 78.4357 158.15C77.8346 157.5 77.5842 156.55 77.6844 155.45C77.7845 154.45 77.7845 153.55 77.6844 152.75C77.3839 150.1 78.2854 148.1 80.4892 146.6C83.2941 144.7 83.795 141.55 84.0955 137.95C84.3459 134.7 84.2958 131.4 84.1957 128.55C84.0454 123.65 84.1957 118.5 84.6464 112.75C85.0471 107.45 84.6965 102.25 84.2958 97.45V96.65C84.2457 96.25 84.2457 95.85 84.1456 95.6L83.9953 94.95C83.795 93.9 83.7449 93.7 83.0437 93.4C78.8865 91.7 76.6826 86.9 78.035 82.55C78.7863 80.1 80.7397 79.8 81.7915 79.75C89.6551 79.8 97.5187 80.25 104.831 80.65C108.538 80.9 112.244 81.15 115.951 81.45C117.203 81.55 118.455 81.65 119.607 82.55C120.108 82.95 120.358 83.5 120.358 84.1C121.26 89.4 118.806 92.25 116.552 93.75C114.148 95.3 113.847 97.5 113.597 100.9L113.496 102.25C113.196 105.35 112.945 108.45 112.645 111.55L111.994 118.85C111.543 123.65 111.593 128.65 112.044 134.15C112.194 136 112.194 137.85 112.194 139.7V141.95C112.244 145.35 113.246 146.9 115.75 147.6C117.754 148.15 118.605 149.55 118.355 151.85C118.054 154.4 117.704 156.95 116.852 159.65C116.602 160.45 115.851 160.95 115.049 160.95L115.099 160.9ZM81.4409 155.5C82.9936 155.5 84.2457 155.6 85.4979 155.65L87.5515 155.75C89.8054 155.85 92.0593 155.9 94.2631 155.95C100.624 156.1 107.185 156.25 113.747 157C114.198 155.15 114.448 153.35 114.648 151.5C114.648 151.3 114.699 151.05 114.648 150.95C108.538 149.65 108.488 143.95 108.438 142.1V139.75C108.438 138 108.438 136.25 108.287 134.5C107.787 128.8 107.787 123.6 108.237 118.55L108.888 111.3C109.139 108.2 109.439 105.1 109.74 102L109.84 100.75C110.091 97.5 110.391 93.4 114.498 90.75C115.65 90 117.103 88.6 116.752 85.45C116.502 85.45 116.201 85.4 115.85 85.35C111.944 85 108.237 84.75 104.581 84.55C97.3184 84.1 89.5549 83.7 81.7414 83.65C80.8398 86.3 82.1421 89.1 84.4962 90.1C87.0506 91.15 87.4012 93.1 87.6516 94.35L87.7518 94.85C87.9021 95.5 87.9522 96.1 87.9522 96.65V97.25C88.453 102.25 88.8036 107.6 88.3529 113.15C87.9021 118.75 87.7518 123.8 87.9021 128.55C88.0022 131.5 88.0523 134.95 87.7518 138.35C87.4012 142.6 86.7 146.95 82.4927 149.8C81.491 150.5 81.1904 151.15 81.3407 152.4C81.4409 153.35 81.491 154.4 81.3407 155.55L81.4409 155.5ZM117.754 130.9C117.003 130.9 116.301 130.45 116.001 129.75C115.3 128 115.149 126.25 115.099 124.8C114.999 122.85 115.199 121 115.4 119.15C115.6 117.15 115.8 115.2 115.65 113.35C115.55 112.3 116.301 111.4 117.353 111.3C118.405 111.25 119.306 112 119.407 113C119.607 115.25 119.407 117.4 119.156 119.55C118.956 121.3 118.806 123 118.856 124.65C118.856 125.85 119.006 127.15 119.507 128.35C119.908 129.3 119.407 130.4 118.455 130.8C118.205 130.9 118.004 130.95 117.754 130.95V130.9ZM122.462 127.55C121.41 127.55 120.559 126.7 120.559 125.65V118.9C120.559 117.85 121.41 117 122.462 117C123.514 117 124.365 117.85 124.365 118.9V125.65C124.365 126.7 123.514 127.55 122.462 127.55ZM101.175 71.15C100.624 71.15 100.023 71.15 99.4721 71.15C93.061 70.95 87.301 68.45 83.2941 64.1C79.2871 59.75 77.2336 53.85 77.5341 47.5C77.8847 40.6 81.4409 34.85 88.1024 30.35C92.1595 27.65 96.517 26.5 99.8728 25.8C100.023 25.8 100.173 25.75 100.374 25.8C100.474 25.8 100.574 25.8 100.674 25.8L102.027 25.9C103.128 26 104.28 26.05 105.332 26.35C115.7 28.85 125.367 40.15 123.113 53C122.011 59.55 119.006 64.4 114.047 67.85C110.04 70.65 105.382 71.2 101.125 71.2L101.175 71.15ZM100.424 29.5C97.4186 30.15 93.612 31.15 90.156 33.45C84.4461 37.3 81.5411 41.95 81.2405 47.65C80.9901 53 82.6931 57.9 85.9988 61.5C89.3546 65.1 94.1629 67.2 99.5222 67.35C103.78 67.5 108.237 67.25 111.894 64.7C116.001 61.85 118.455 57.8 119.407 52.3C121.26 41.7 112.996 32 104.431 29.95C103.529 29.75 102.628 29.7 101.726 29.6C101.275 29.6 100.824 29.55 100.374 29.5H100.424ZM10.3176 44.4C10.3176 44.4 10.1173 44.4 10.0672 44.4C9.01539 44.25 8.31418 43.3 8.46444 42.25C8.9653 38.75 9.96704 35.85 11.4696 33.4C18.3315 22.1 28.0985 13.95 40.4699 9.04997C41.4215 8.64997 42.5235 9.14997 42.9241 10.1C43.3248 11.05 42.824 12.15 41.8723 12.55C30.3023 17.1 21.1865 24.8 14.7253 35.35C13.4731 37.4 12.6717 39.8 12.2209 42.8C12.0707 43.75 11.2693 44.4 10.3677 44.4H10.3176ZM15.2262 24.7C14.3747 24.7 13.5733 24.1 13.3729 23.25C12.9722 21.45 13.7736 20.05 14.4248 19.15C17.2797 15.05 20.936 12.3 25.2435 11C26.2452 10.7 27.2971 11.25 27.5976 12.25C27.8981 13.25 27.3472 14.3 26.3454 14.6C22.7893 15.7 19.8842 17.9 17.4801 21.35C16.9792 22.05 16.9792 22.35 17.0293 22.5C17.2296 23.5 16.6286 24.5 15.5768 24.75C15.4265 24.75 15.3263 24.75 15.1761 24.75L15.2262 24.7Z" fill="#494948"/>
</g>
<defs>
<clipPath id="clip0_51_28">
<rect width="202" height="210" fill="white"/>
</clipPath>
</defs>
</svg>
