<?xml version="1.0" encoding="utf-8"?>
<!-- Generator: Adobe Illustrator 28.0.0, SVG Export Plug-In . SVG Version: 6.00 Build 0)  -->
<svg version="1.1" id="Laag_1" xmlns="http://www.w3.org/2000/svg" xmlns:xlink="http://www.w3.org/1999/xlink" x="0px" y="0px"
	 viewBox="0 0 1000 1000" style="enable-background:new 0 0 1000 1000;" xml:space="preserve">
<style type="text/css">
	.st0{fill:none;stroke:#4A4A49;stroke-width:4;stroke-linecap:round;stroke-linejoin:round;stroke-miterlimit:10;}
</style>
<g>
	<g>
		<path class="st0" d="M535.5,196.7c3.5,2.4,2.5,6.1,2.4,9.3c-0.1,5.7-0.6,11.3-0.7,17c-0.3,11.1-0.3,22.1-0.9,33.2
			c-0.8,12.4-1.1,24.9-1.7,37.3c-0.6,10.8-1.1,21.6-1.1,32.4c0,2-0.2,4.3,1.3,5.8c4,4.1,2.3,8.5-0.2,12
			c-10.6,14.8-14.7,31.8-18.5,49c-0.2,1-0.7,2.2-0.1,3.3c3.7,6.1,0.7,11.1-2.2,16c0,5.3,5.1,7.4,7.1,11.7c1.3,2.6,5.7,2.5,8.9,2.5
			c8.9,0,17.7-0.4,26.5-0.8c12.7-0.6,25.4-0.6,38.2,0c3.2,0.2,6.4,0.4,9.5-0.1c7.1-1.1,14.1-0.4,21.2-0.2c9.4,0.3,18.8,0.2,28.2,0.1
			c2.9,0,5.8-1,7.1-4.4c0.6-1.7,2.2-2.7,3.7-3.8c5.7-4.5,10.3-10,14.5-15.8c2.1-2.8,3.1-6.1,2.6-9.9c-0.3-2.6-1.1-4.4-3.4-5.8
			c-9.6-6-9.6-13.2-4.6-21.9c8.8-15.5,23.2-25.1,37.3-34.9c9.5-6.6,19.4-13,27.4-21.5c6.1-6.4,11.1-13.7,16.9-20.4
			c4.6-5.4,2.2-11.3-4.9-14c-5.1-2-10.5-1.7-15.8-1.6c-12,0.3-23.9,2-35.2,5.6c-17.1,5.5-34.1,11.5-49.8,20.5
			c-3.1,1.8-6.7,1.5-10,2.4c-0.4,0.1-1.3-0.4-1.6-0.8c-0.9-1.2-1.8-2.4-2.5-3.7c-5-8.5-8.6-10.1-17.8-7c-6.9,2.3-12.9,6.2-18.3,11.1
			c-7.1,6.4-11.3,14.9-17.4,22c-3.4,4-7,7.5-12.4,8.8c-3.1,0.7-5.5,0.1-7.9-2.1c-6.1-5.3-7.1-5.1-13.2-0.1c-3.2,2.7-6.3,5.7-10.4,7"
			/>
		<path class="st0" d="M499.4,398.1c-2.5,0.5-4.3-0.5-6.3-2c-6.9-5.7-12.6-12.6-19.1-18.7c-24.2-22.8-44.2-49.2-64.7-75.2
			c-3.3-4.2-6.4-8.4-7.7-14c-1.1-4.9,0.3-9.1,1.2-13.3c2.6-12-0.4-22-8.8-30.8c-5.2-5.5-13.9-6.6-21.3-3.4
			c-16.3,7-29.7,18-43.1,29.2c-6.4,5.3-13.3,10.2-17.8,17.4c-5,8.1-6.9,17.1-3.6,26.1c3.8,10.2,12.3,14.5,23.1,14.6
			c5.7,0,11.4,0.6,17,1.2c4.9,0.5,8.7,3,12.4,5.9c7.8,6.2,13.6,14.4,20.3,21.6c8.8,9.5,16.4,20,25.2,29.5c3.2,3.4,5.9,7.4,9.2,10.7
			c4.1,4.1,8,8.4,12.1,12.4c2.8,2.7,5.2,5.9,6.8,9.3c1.9,3.7,4.6,4.9,8.1,5.3c6.1,0.7,12.2,1.7,18.2,1.6c16.3-0.3,32.6,1.9,49,1.4
			c3.9-0.1,7.5-0.5,10.8-2.6"/>
		<path class="st0" d="M424.3,657c2.1,0.1,4-0.6,5.8-1.6c3.2-1.7,6.2-3.8,9.5-5.5c14.6-7.5,29.9-13.4,44.8-20.3
			c16.6-7.7,33.6-14.2,50.6-20.7c24.7-9.3,48.4-20.4,69.3-36.9c5.6-4.5,10.1-9.6,10.7-17c0.8-10.2-1.7-19.6-8.2-27.8
			c-4.2-5.3-10.3-8.6-14.8-13.4c-4.1-4.5-8.5-4.8-13.5-4.3c-7.7,0.7-15.3,2.5-22.8,4.5c-12.2,3.2-24.3,6.4-36.2,10.6
			c-9.6,3.4-19.7,5.5-29.4,9c-20.1,7.3-39.7,15.7-59.3,24.1c-4.7,2-28.7,13.6-36.1,17.4c-18,9.4-36.7,17.4-52.8,30.2
			c-10,8-19.8,16.1-27.7,26.2c-8.7,11.1-15.9,23.1-16.6,37.7c-0.2,5.1-0.7,10-2.1,15c-1.2,4.1-0.5,8.5-0.5,12.8
			c-0.1,7.3,1.5,13.9,7,19.1c0.8,0.7,1.1,1.8,1.3,2.9c2.3,11,9.4,17.6,19.9,21c0.9,0.3,1.8,0.5,2.5,1.4c3.3,3.8,7.7,5.5,12.4,6.7
			c6.6,1.7,13.3,3.4,19.9,0.7c4.2-1.7,7.9-3.3,12.6-0.9c1.8,0.9,4.6,0.3,7-0.2c6.9-1.3,13.7-3.2,20.3-5.5
			c22.4-8.2,44.4-17.6,66.4-26.9c2.2-0.9,60.1-25.7,60.1-25.7c14.9-6.5,29.9-13,44.8-19.5c14-6.1,28-12,41.9-18.3
			c13.1-6,24.5-14.5,33.2-26.1c8.4-11.2,14.4-23.7,20.8-36.1c4.9-9.5,9.1-19.5,16.7-27.3c3.6-3.7,51.5-35.5,51.8-35.7
			c3.8-3.1,31.3-20.3,41.5-25.2c13.5-6.5,26.4-13.9,39.3-21.3c13.3-7.6,25.2-17.5,36.4-27.8c9.3-8.5,14.9-19.2,12.6-32.6
			c-0.6-3.5-1.9-6.6-3.8-9.5"/>
		<path class="st0" d="M270,360.8c1-2.9,3.5-4.5,5.4-6.6c6.6-7.3,12.2-15.3,13.2-25.3c1.3-13.1-6.5-25.2-20.6-27.4
			c-10.2-1.6-20.2-0.4-30.3,0.2c-12.9,0.8-25.7,1.7-38.6,2.1c-9,0.3-18,1.4-26.1,5.7c-6.1,3.2-11.1,7.5-13.7,14.1
			c-1.9,5-1.9,10-0.6,15.4c2.2,8.9,6.8,15.9,14.2,21.1c1.8,1.3,3.3,2.9,4.1,5"/>
		<path class="st0" d="M587.4,509.3c2-3,4.9-4.5,8.3-5.4c13.8-3.8,27.8-7.1,41.5-11.6c11.9-3.9,23.8-7.9,34.9-14.1
			c13.2-7.4,26.5-14.5,39.8-21.6c11.9-6.4,23.6-13.2,35.7-19c12.1-5.7,23.2-13.3,35.6-18.4c5.8-2.4,58.4-30.3,75.1-11.1"/>
		<path class="st0" d="M421.8,559.9c-1.3-1.7-3-2.9-5-3.7c-8.2-3.4-15.9-7.7-23.6-12.1c-16.3-9.3-28.4-22.8-35.4-39.9
			c-9.2-22.3-17.4-45.1-23.7-68.4c-2-7.5-5.5-15.3-1-23.2c0.2-0.3,0.1-0.8,0-1.2c-1.3-4.9-2.2-16.3,73.3-25.2"/>
		<path class="st0" d="M288.2,456.2c-2.8,0-5.5,0.1-8.3,0c-12.6-0.3-25.2,1-37.8,1.1c-15.5,0.2-31,0.5-46.5-2.2
			c-5.2-0.9-10.8-0.4-16.1-0.5c-7.2-0.2-14.5,1.2-21.6-1.4"/>
		<path class="st0" d="M189.5,390.7c1,5.6,1.6,11.3,1.6,17c0,3.1,0.7,6.1,1.1,9.1c0.6,4.7,3.4,6.5,9.4,6.6
			c10.9,0.3,21.9-0.3,32.8-1.1c6.9-0.5,13.8,0,20.7-0.9c4.7-0.6,8.1-3.5,8.9-8.7c0.7-4.4-0.1-9.3,2.8-13.3c0.6-0.8,0.5-2.8,2.4-1.9"
			/>
		<path class="st0" d="M535.1,197.3c-4.6,2.2-4.8,6.9-5.7,10.8c-3.3,13.9-6.6,27.8-8.7,41.9c-2.2,14.7-3.7,29.5-4.3,44.4
			c-0.2,4.9-1.4,9.6-1.3,14.5c0,1.7-1.1,3.5-2,4.9c-1.2,1.9-1.8,3.5-1.3,5.9c0.7,3.4,1.4,6.8,0.9,10.3"/>
		<path class="st0" d="M772,404.8c-4.7,4.9-10.5,7.8-17,9.1c-23.6,4.5-47.3,9.3-71.3,10.8c-5.9,0.4-11.9,0.2-17.8,0.5
			c-2.4,0.1-4.2-1.1-6.2-2.1"/>
		<path class="st0" d="M435.9,421.8c-3.6,2.1-7.5,2.1-11.6,1.8c-7-0.6-14.1-0.4-21.1-0.5c-13.9-0.2-27.5-2-41.1-5.2
			c-9.4-2.2-19.1-3.4-28.6-5.6"/>
		<path class="st0" d="M776.5,420.9c-1.2-2.8-1.1-5.5,0-8.3c1.5-4,0.6-5.8-3.3-7.9c-1.2-0.7-1.8-2.4-3-3.2
			c-6.7-4.8-14.2-7.6-22.4-8.8c-9.4-1.3-18.8-3.1-28.2-4.5c-10.6-1.5-21.3-2.8-31.9-4.2c-3-0.4-5.4,0.9-7.5,2.9"/>
		<path class="st0" d="M722.2,287.8c-23.7,16.9-49.2,30.9-73.4,47c-4.9,3.2-11.1,5.1-13.8,11.1c-3.8,0.9-7.1,3-10.4,5
			c-7.8,4.6-15.4,9.7-22.3,15.4c-6.2,5.1-11.1,11.3-13.7,19"/>
		<path class="st0" d="M266.7,386.5c2.2,2,6.9,17.2,7.9,19.9c3.2,8.2,6.5,16.4,9.9,24.5c2.9,6.8,5.5,14,5.1,21.1
			c-0.3,6.1,2.5,11.5,2.1,17.5c-0.4,5.9-0.5,11.9,0.3,17.8c0.8,5.8-0.1,11.7,0.5,17.4c0.9,8.4,1.3,16.9,1.2,25.3
			c0,2.4-0.2,4.8-1.3,7.1c-1.5,3.3-2.1,6.7-1.7,10.4c0.5,5,0.6,10.1,0.2,14.9c-0.8,11.9-0.2,24.1-5.6,35.3c-0.3,0.6-0.4,1.1-0.3,1.7
			c0.6,9.3-5.2,14.5-12,19.1c-2.4,1.6-5,2.4-7.9,2.5c-1.8,0.1-3.7,0.5-5.4,1.3c-1.6,0.8-3.1,1-4.6,0.7c-7.3-1.8-14.6,0.6-22-0.1
			c-3.8-0.4-7.8,2.6-12,1.8c-3.7-0.6-7.7,0.3-11.2-1.7c-0.2-4.3-1.5-8-4.5-11.3c-2.4-2.6-2.1-6.4-2.2-9.9c-0.2-4.4,1.9-7,5.4-9.2
			c5-3.1,7.3-7.5,5.1-13.6c-1.4-3.8,0.5-7.3,2.5-10.3c2.5-3.9,6.2-6.9,9.9-9.5c2.5-1.8,5.3-2.5,7.9,0.3c0.6,0.7,1.6,1.2,2.5,1.7
			c2.5,1.3,4.5,1,6.3-1.6c2.9-4.2,5.7-8.5,10.7-10.9c4.1-2,7.4,0.4,10.8,1.5c2.1,0.7,1.9,3.2,2.2,5.3c0.6,3.8,0.5,8,5.7,9.3
			c1.9,0.5,2.6,8.5,1.3,10.6c-1.6,2.5-3.1,5.3-5.1,7.3c-3.2,3.2-1.9,5.6-0.2,8.4c1.1,1.9,2.4,3.6,2.9,5.7c4.4,1.8,9.1,0.4,13.6,1.4"
			/>
		<path class="st0" d="M216.5,649.9c-0.2,1.4,1.1,1.1,1.7,1.2c13.7,2.7,16.9,14.8,8.7,25.3c-6,7.6-15.6,7.4-20.8,2.2
			c-1.2-1.2-2-2.3-2.4-3.8c-2.4-8.4,4.1-20.6,12.4-23.6"/>
		<path class="st0" d="M476.6,332.6c-1.8,4.5-0.4,8.7,1.2,12.9c5.7,15,12.6,29.3,19.9,43.5c1.3,2.5,2.3,5,2.1,7.9c0,0.4-0.2,1,0,1.2
			c4.2,4.9,6.3,11.9,13.7,13.7"/>
		<path class="st0" d="M179.6,389.8c-0.9,3.8-0.7,7.7-0.9,11.6c-0.3,6.9-3.5,12.9-7,18.6c-5.4,8.7-10.2,17.7-13.1,27.5
			c-2.6,8.9-4.9,18-6.2,27.3c-2.1,14.4-3.7,28.7-3.4,43.2c0.2,11.3,0.5,22.7,1.3,34c0.7,10,1.6,19.9,2.1,29.9
			c0.3,5.7,1.3,11.6,3.6,17c1.1,2.7,2.7,5.1,5.4,6.6"/>
		<path class="st0" d="M382.4,633.8c3.6,0.2,6.6-1.8,9.9-2.6c11.3-2.6,21.7,2.9,24.8,13.8c0.7,2.5,1.7,4.7,3.4,6.6
			c4.6,5.3,4.6,7.7-0.9,12.4c-4.4,3.8-9,7.3-13.7,10.8c-9.7,7.4-17.7,16.3-24.6,26.4c-3.5,5.1-6.2,10.2-7.9,16.2
			c-1.4,4.7-2.7,9.5-4.3,14.2c-0.7,2-1.1,4.1-2.6,5.8c-2,2.3-2.7,4.9-2.1,7.9"/>
		<path class="st0" d="M345.1,645.4c-0.1-1.7-0.2-3.3-0.4-5c-1.5-9.2,3.2-17,12.1-19c2.3-0.5,3.8-2.3,6.2-2.7
			c7-1.2,11.4,1.3,15.9,8.3c3,4.6,2.8,8.1,0.2,13.1c-3.3,6.2-7.9,8.5-14.4,8.6c-1.7,0-3.3,0.4-5,0.8c-4.1,0.9-7.9,1-11.2-2.1
			c-1.9-1.8-3.5-1.7-5.9-0.5c-4.1,2-8.5,3.3-12.4,5.9c-4.2,2.8-6.8,6.8-8.3,11.6c-0.4,1.4-1.1,2.8-1.6,4.2c-1.4,3.2-3.4,5-7.5,5.2
			c-4.7,0.1-9.4,1.7-14.1,2.7"/>
		<path class="st0" d="M165,721.3c8.7,1.4,14.2,8.5,12.9,16.6c-1.3,8-10,14.3-17.8,12.8c-5.6-1-8.8-5.4-7.8-12
			c0.9-5.7,3.3-10.7,7.3-15.1c1.6-1.8,3.4-1.6,5.1-2.4"/>
		<path class="st0" d="M268.8,798.5c8.3-1.1,11.8-4.8,13.3-13.3c0.6-3.4-0.2-6.1-2.6-8.3c-6.8-6.3-16.8-4.9-21.6,0.8
			c-3.4,4-2.7,8.3-0.7,12.4c2.2,4.6,5.6,7.9,11.1,7.9"/>
		<path class="st0" d="M492.8,344.2c0.7-2.9,1.9-5.4,1.4-8.7c-0.9-6.6-3.2-12.7-4.7-19.1c-1.6-6.8-4.7-13.6-4.5-20.3
			c0.2-5.8-1.1-11.3-0.9-17c0.1-3.4-0.1-3.5-2-6.2l5.8-7.5c4.9,2.9,5.6,8.2,6.9,12.9c3,10.5,6.4,20.9,10.4,31.1
			c1.2,3,3.2,5.1,5.9,6.6"/>
		<path class="st0" d="M184.9,485.3c-6.1,3.1-6.4,9.5-8.3,14.9c-2,5.7-2.1,11.8-4.5,17.5c-0.8,1.8-2,2.4-3.4,2.8
			c-6.8,2-9.8,5.7-9.9,12.9c0,4.6-0.3,9.1,0.3,13.7c0.7,5.6-1.2,7.7-7.4,9.1"/>
		<path class="st0" d="M170,520.5c4.1,4.6,4.8,10.7,6.5,16.2c0.9,2.8,1.6,5.7,3.5,7.7c1.8,1.9,1.4,3.7,1.1,5.5
			c-1.7,8.6-5.5,16.5-7.9,24.9c-1.3,4.6-2.5,9.1-1.9,14.1c0.5,3.9-3.2,7.1-4.8,10.7c-0.4,1-1.4,1.6-2,2.5c-1.2,1.7-4.1,2.5-3.3,5.4
			c0.9,3.3,2.5,6.8,5.8,7.7c5.8,1.8,10,6.6,16.5,7.4c7.2,0.9,14.3,2.3,21.6,1.5c0.7-0.1,2.6-1.2,2.5,1.2"/>
		<path class="st0" d="M395.3,758.2c8.5-0.1,14.5,5.7,13.7,13.3c-0.6,5.5-5.9,12.4-11.2,13.6c-4.6,1.1-10.6-2.1-11.2-9.1
			c-0.7-7.6,1.7-13.7,8.3-17.8"/>
		<path class="st0" d="M635.5,346.3c2.3,2,4.9,2.5,7.9,2.6c5.2,0.1,10.3,0.8,15.4,1.9c2.2,0.5,4.7-0.3,7-0.3c1.7,0,3.4-0.4,5,0.4"/>
		<path class="st0" d="M417.7,648.7c-3.5,0.9-7.1,1.7-10.8,1.7c-6.6,0-11.6,3.2-14.5,9.1c-1.4,2.9-2.9,5.5-5,7.8"/>
		<path class="st0" d="M229.3,505.6c1.5-3.3,3.3-4.1,5.8-2.4c2.1,1.4,3.9,3.3,5.8,4.9c3.1,2.7,3,6.2,1.6,9.5c-1.2,2.8-2.9,5.6-5,7.8
			c-2.5,2.7-4.7,5.6-6.6,8.8"/>
		<path class="st0" d="M202.8,597.7c-10.2-0.4-17.1,6-24,12.1c-2.5,2.1-4.5,4.7-6.2,7.4"/>
		<path class="st0" d="M219.4,464.5c0,0.3,0,0.8,0,0.8c-9.1,1.9-14.3,8.3-18.7,15.8c-1.5,2.5-3.3,5-5.4,7c-1.7,1.6-3.9,2.4-6.2,0.1
			c-2.2-2.2-5.5-3.5-4.5-7.5"/>
		<path class="st0" d="M221,492.5c-6,5.3-9.7,12.3-14.1,18.9c-1.3,2-3,3.8-4.1,5.9c-1,1.9-1.5,4-0.5,6.2"/>
		<path class="st0" d="M289.9,542.1c-1.9-1-3.9-1.9-5.8-2.9c-5.7-3.1-10.8-2-14.5,3.3c-1.7,2.4-3.1,5-4.6,7.4"/>
		<path class="st0" d="M354.2,676.9c-4.5,1.4-9.2,0.5-13.7,0.3c-3.3-0.1-6.2,0-9.2,1.4c-5,2.3-8.6,1.2-12.4-3.3
			c-0.4-0.4-0.8-0.8-1.2-1.2"/>
		<path class="st0" d="M353.4,651.2c0.1,2.4-0.6,4.7-1.2,7.1c-1.6,6.2,0.9,12,2.5,17.8c0.2,0.7,1.2,1.3,2,1.7c4.5,2,5.6,6,5.8,10.4
			c0.1,3.2,0,6.4,0,9.5c0,2-1.5,2.5-2.9,3.4c-5.7,3.7-11.4,7.2-16.7,11.4c-1.6,1.3-1.7,2.3-2,3.9c-1.7,9.5,5.5,13.2,11.3,17.8
			c2.9,2.3,6.3,3.9,9.5,5.9"/>
		<path class="st0" d="M215.6,520.1c-2.7,1.7-5.8,3.1-8.7,3.1c-5.3,0.1-8.4,3-11.6,6.4c-2.7,2.7-4.5,6-6.6,9.2
			c-1.9,2.9-3.7,5.9-7.1,7.5"/>
		<path class="st0" d="M249.7,471.1c-2-4.8-4.1-5.9-9.1-3.6c-3,1.4-6,2.9-8.8,4.8c-3.3,2.2-5.7,1.3-7.8-2c-1.1-1.7-2.2-3.5-4.1-4.6"
			/>
		<path class="st0" d="M612.3,314.7c-10.2,25,0,41.8,0,44"/>
		<path class="st0" d="M250.9,470.9c-3,3.4-4.1,7.9-7,11.4c-1.6,2-2.6,4.6-4.2,6.6c-3.6,4.1-4.6,8.9-4.1,14.2"/>
		<path class="st0" d="M223.9,536.3c4.9-1.6,9.4-2.5,12.9,2.9c2.3,3.5,2.8,4.5-0.1,7.5c-3,3-5.7,6-6.2,10.4"/>
		<path class="st0" d="M327.7,680.6c0.3,7.9-1.1,15.8-1.7,23.6"/>
		<path class="st0" d="M340.5,713.8c-4.9-3.3-9.9-6.5-14.8-9.8c-7.3,4.7-15.4,7.5-22.1,12.7"/>
		<path class="st0" d="M189.1,576.1c-0.1,0.9,0,1.7-0.8,2.5c-4.7,4.8-9.3,9.7-16.2,11.2"/>
		<path class="st0" d="M396.1,679.4c-2.6-2.6-5.1-5.1-7.1-8.3c-2.5-4-5.7-4.6-9.9-2.1c-6.1,3.7-11.6,8.2-17.9,11.6"/>
		<path class="st0" d="M374.3,647.9c3.7,6,4.8,13,7.3,19.5"/>
		<path class="st0" d="M238.5,562.4c-2,6.1-4.7,11.9-5.8,18.3"/>
		<path class="st0" d="M608.9,423.9c-0.2-3.2-0.1-6.4-0.3-9.6c-0.4-5.4-3.6-9.3-5.9-13.7l-8.6-10.4c-6.3-6.5-14.8-7.6-22.9-9.4
			c-17.1-3.9-31.6,2.1-44.3,13.2c-2.6,2.3-5.2,4.6-8.3,6.2"/>
		<path class="st0" d="M289.9,557c-6.7,0.4-11.4,5.2-17,7.9"/>
		<path class="st0" d="M238.5,597.7c-0.4-4.2-1.8-8.2-2.2-12.4c-0.3-3.3-2.8-3.9-6.1-3.9c-5.2,0.1-9.7,3.2-14.9,3"/>
		<path class="st0" d="M251.7,578.6c-1.4,0.3-3,0.2-4.1,0.9c-3.5,2.3-7.3,3.6-11.2,4.5"/>
		<path class="st0" d="M340.5,725c-4,4-8,8-12,12"/>
		<path class="st0" d="M267.1,562.4c-3.6,1.5-7.3,2.9-10.8,4.6c-4.7,2.3-5.9,9.7-2.5,13.6c0.7,0.8,1.4,1.6,2.1,2.5
			c0.3,0.4,0.6,0.8,0.8,1.2c-2,5.6-6.4,9.2-10.4,13.3"/>
		<path class="st0" d="M252.6,607.6c-1.7,4.6-2.9,9.2-3.3,14.1"/>
		<path class="st0" d="M275,573.2c4.7,0.9,9.6,0.6,14.1,2.5"/>
		<path class="st0" d="M362.5,699.7c3.6,3.6,8,5.9,12.4,8.3"/>
		<path class="st0" d="M270.4,597.7c-3.7,3.4-6.4,7.7-10.4,10.8"/>
		<path class="st0" d="M247,601.4c-1.4-4.1-5.4-3.1-8.1-3.5c-2-0.2-3.2,2.4-3.9,5.1c-0.9,3.4-2.8,6.7-5.6,9.2"/>
		<path class="st0" d="M232.7,622.2c-0.5-1.9-1.3-3.8-1.8-5.8c-0.6-2.7-2.5-3.8-5.1-5.3c-5-2.8-8.4-0.8-12.2,1.5
			c-1.5,0.9-3.3,1.4-5,2.1"/>
		<path class="st0" d="M247.6,601.4c3.1,3,5.5,7,10.8,6.7c1.8-0.1,2,1.6,2.5,2.9c1.2,3.1,2.2,6.2,2.5,9.5"/>
		<path class="st0" d="M214.4,592.3c1.6,2,4.2,2.4,6.2,3.8c1.5,1.1,2.8,2.6,3.4,4.5"/>
		<path class="st0" d="M235.1,600.2c-1.5-0.1-3-0.4-4.6-0.4c-8.3-0.1-6.8,1.3-9.1,7c-0.3,0.6-0.3,1.4-0.4,2.1"/>
		<path class="st0" d="M212.3,576.5c-3.2,0-6.4,0-9.5,0"/>
		<path class="st0" d="M858.3,408.1"/>
		<path class="st0" d="M199.5,691c-7,1.4-11.5,6.5-12,11.2c-0.7,5.7,2.9,12.5,7.9,15c2.1,1,4.1,1,6.2,0.4
			c9.2-2.9,12.7-15.8,6.2-22.8c-2.1-2.3-4.8-3.3-7.9-3.7"/>
		<path class="st0" d="M239.3,820.9c-5.6,1.3-9.8,4.5-11.5,10c-2.4,7.6,1.3,14,5.3,16.6c3.7,2.5,11.5,2.4,17-1.8
			c8.8-6.7,6.9-18.6-3.7-23.2c-2.1-0.9-4.2-1.9-6.6-1.7"/>
		<path class="st0" d="M192.8,787.3c-10.1,1-13.8,12.6-11.2,20.3c0.8,2.3,2.4,3.4,4.6,4.2c5.6,2,14.6-0.1,18.3-4.6
			c1.8-2.2,2.4-4.7,2.1-7.5c-0.8-6.2-6.8-11.8-13.2-12.4"/>
		<path class="st0" d="M250.9,715.9c-7.5,1.8-11.6,7.2-13.1,14.1c-1.2,5.7,0.7,11.2,5.2,15.3c3.8,3.5,8,3.8,12.9,1.3
			c13.4-7,10-22.1,2.4-29c-1.9-1.8-4.5-1.9-7-1.7"/>
		<path class="st0" d="M336,769.4c-10,1.7-13.7,16.6-8.3,25.7c2.6,4.3,8.1,5.8,13.6,4.6c5.1-1.1,9.4-6.2,9.9-10.8
			c1-7.9-2.8-13.6-8.7-18.2c-1.8-1.4-4-1.4-6.2-1.3"/>
		<path class="st0" d="M269.8,361.2c-13.4,4.7-27.2,5.4-41.3,5.5c-15.2,0.2-30.4,0.1-45.6-0.7c-4.2-0.2-7.9,0-11.6,1.8
			c-3.7,1.8-5.9,4.2-5.9,8.7c0,4.6,2.3,6.9,5.8,9.2c5.6,3.6,18.8,4.2,19.1,4c44.4,0.8,76.2-3.2,76.3-3.3c3.5-4.9,10.5-4.9,13.8-10.3
			c3.7-6,1.4-12.2-5.5-13.3c-1.7-0.3-3.1-0.9-4.6-1.7"/>
	</g>
	<path class="st0" d="M190,390"/>
	<path class="st0" d="M602.3,366.2c0,0-20.9-14.7-19.4-26.5"/>
</g>
</svg>
