<?xml version="1.0" encoding="utf-8"?>
<!-- Generator: Adobe Illustrator 28.0.0, SVG Export Plug-In . SVG Version: 6.00 Build 0)  -->
<svg version="1.1" id="Laag_1" xmlns="http://www.w3.org/2000/svg" xmlns:xlink="http://www.w3.org/1999/xlink" x="0px" y="0px"
	 viewBox="0 0 1000 1000" style="enable-background:new 0 0 1000 1000;" xml:space="preserve">
<style type="text/css">
	.st0{fill:none;stroke:#4A4A49;stroke-width:4;stroke-linecap:round;stroke-linejoin:round;stroke-miterlimit:10;}
</style>
<g>
	<g>
		<path class="st0" d="M562.3,261.2c-11.3,46.5-39.6,93.4-79,121.6c-74.7,45.5-92.7,115.3-21,174.4"/>
		<path class="st0" d="M521.1,556.3c-208.8-22.9-254.4,281.4-47.4,320.6"/>
		<path class="st0" d="M495.8,844.3c176.7-1.3,164.1-268.9-11.5-254.7c-155.1,16.1-144.8,252.7,11.2,254.7"/>
		<path class="st0" d="M527,557.5c209.5,39.9,157.6,348.8-53.3,319.4"/>
		<path class="st0" d="M566.7,121.1c-61.9,12.8-16.6,101.1-6.2,138.2"/>
		<path class="st0" d="M568,259.8c18.6-38.3,59.6-120.2-1.3-138.7"/>
		<path class="st0" d="M513.5,710.9c-6.4-43.9-53.1-1.8-23.3,19.7c12.7,7,23.7-7.5,23.3-19.4"/>
	</g>
	<path class="st0" d="M421.1,409.9c0,0-33.2,28.6-26.4,80.6"/>
	<path class="st0" d="M471.5,818.8c0,0,65.9,15.8,106.7-38.7"/>
</g>
</svg>
