<?xml version="1.0" encoding="utf-8"?>
<!-- Generator: Adobe Illustrator 28.0.0, SVG Export Plug-In . SVG Version: 6.00 Build 0)  -->
<svg version="1.1" id="Laag_1" xmlns="http://www.w3.org/2000/svg" xmlns:xlink="http://www.w3.org/1999/xlink" x="0px" y="0px"
	 viewBox="0 0 1000 1000" style="enable-background:new 0 0 1000 1000;" xml:space="preserve">
<style type="text/css">
	.st0{fill:none;stroke:#4A4A49;stroke-width:0.75;stroke-linecap:round;stroke-linejoin:round;stroke-miterlimit:10;}
</style>
<g>
	<path class="st0" d="M893.5,480.2c-11.6-2.1-21.6-8.4-32.2-12.9c-36.9-15.5-69.5-37.4-95.8-67.9c-9-10.4-16.7-21.9-24.4-33.3
		c-15.8-23.4-30.2-48-52.9-65.9c-14.1-11.1-29.9-18.9-47.4-21.6c-15.2-2.3-30.1,2-42.6,11.3c-23.3,17.4-46.1,35.4-69.3,53
		c-21.8,16.6-42,35.2-64.5,50.9c-5.2,3.6-9.3,8.7-11.6,14.9"/>
	<path class="st0" d="M815,554c0.7,3.1-1.9,4.2-3.5,5.7c-61.3,61.5-123.6,121.9-189,179.1c-19.9,17.4-39.9,34.8-59.9,51.9
		c-16-10.8-34.4-15.8-51.1-24.4c-28-14.4-53.5-31.7-75.2-55.2c-28.6-30.9-51.9-65.7-78.2-98.4c-11.1-13.8-22.8-27.1-35.8-39.2
		c-15.2-14-32.1-20.1-51.9-9.3"/>
	<path class="st0" d="M572.7,304.8c-17.4-27.8-35.2-55.3-60.1-77.2c-13.4-11.8-27.8-21.3-47.3-17.5c-10.3,2-15.6,10.5-23.1,16.2
		c-16,12.1-32.4,23.7-48.3,36c-4,3.1-8.2,6.5-10.5,12.5c0.5,5.5,6.3,8.8,9.2,13.9c2.9,4.9,3.2,9.5,0.2,15.1
		c-8.6,15.5-26.3,20.8-40.5,11.5c-19.5-12.7-19.2-12.4-38.1,3.4c-57.9,48.1-118.2,93.2-180.2,135.9c-5.9,4-10.2,9.9-18,12.5
		c-8.5,2.9-11.5,20.1-8.3,30.5c3.3,10.5,7.6,20.4,15,28.8c32.7,37.2,65.7,74.1,108.6,100.2c8.5,5.2,17.5,12.2,28.7,5.9"/>
	<path class="st0" d="M412.4,442.1c1,5.3,2.5,10.6,7,13.8c14.5,10.4,28,22.5,45,28.9c20.6,7.7,36-6.3,37.9-23
		c1.5-12.6-1.3-24.6-7.8-35.8c-5.8-10.2-14.1-13.4-25.4-15.4c-22.1-4-34.2,11.9-49.7,21.3c-31.3,19.2-59.7,42.7-92.3,60
		c-21.8,11.6-41.2,26.7-55.3,47.3c-4.7,6.9-6.5,14.6-4.3,24.2c2.4,10.4,1,21.7,5.2,32.2c7.2,17.9,18.8,32.8,32.5,46
		c6.6,6.3,9.9,13.1,9.1,22.1"/>
	<path class="st0" d="M126.2,464c46.3,32.5,71.5,82.6,104.8,125.9c10.8,14,24.4,26.2,30.2,43.7c10.1,2.9,16.9,10.7,24.1,17.5
		c8.7,8.2,18.3,12.3,30.1,14.1c6.2,0.9,11.7,6.4,17.4,10c17.9,11.4,37.5,19.6,55.6,30.8c5.8,3.6,13.6,4.9,20.3,7.7
		c5.5-2.6,6.3-8.9,10.6-11.9"/>
	<path class="st0" d="M324.7,414.4c12.3-2.9,17.7-9.8,17.3-21.9c-0.3-10-6.1-16.7-16.2-18.5c-8.5-1.5-23.2,8.6-25.4,17.3
		c-2.2,9,5.5,19.5,16.1,22c2.4,0.6,4.6,1.5,6.9,2.3"/>
	<path class="st0" d="M887.7,481.3c-9.7,18.8-26,31.6-41.6,46c-8.5-7.9-15.3-17.3-26.5-20.6c-6.1-1.8-12.6-2.4-18.4,0.1
		c-10.9,4.7-13.8,14.5-6.8,25.1c6,9.1,13.4,17.5,25.2,19.7"/>
	<path class="st0" d="M647.7,445.6c-10.5,3.8-13.6,8.1-11.5,16.2c1.5,6,11,11,17.3,9.2c7.1-2,13.9-11.1,12.7-17.3
		c-2-10.6-9.6-9.6-17.3-8.1"/>
	<path class="st0" d="M533.5,309.4c-2-7.9-7.6-10.3-15-9.2c-4.7,0.8-9.6,2.2-10.3,8c-0.6,4.8,0.7,9.1,4.4,12.8c4,4,9,2.9,12.7,1.8
		c5.3-1.5,8.7-6.3,9.3-12.3"/>
	<path class="st0" d="M247.4,446.7c-11,3.9-16.7,10.6-15,17.3c2.3,9.1,11.6,15.3,21.9,13.7c5.2-0.8,9.1-2.4,12.2-8.8
		c3.5-7.1-1-10.6-3.3-13.9c-3.1-4.4-8.5-7.8-14.6-8.3"/>
	<path class="st0" d="M494.3,535.6c-12.5,3.8-18,13.4-19.5,25.4c-1.3,10.8,4.2,18.1,13.7,23.1c9.1,4.8,22.1,2.1,31.2-7
		c7.6-7.6,7.6-12,1.2-24.3c-5.4-10.5-12.3-18.3-25.4-17.3"/>
	<path class="st0" d="M623.5,520.6c-3.5,0.6-7,0.8-10.4,1.8c-20.1,5.6-28.1,26.4-17.3,44.4c14.1,23.4,51,25.5,69.1,12.4
		c21.1-15.2,18.8-37.4-3.2-50.6c-11.5-6.9-24.1-8.1-37-8"/>
</g>
</svg>
