<?xml version="1.0" encoding="utf-8"?>
<!-- Generator: Adobe Illustrator 28.0.0, SVG Export Plug-In . SVG Version: 6.00 Build 0)  -->
<svg version="1.1" id="Laag_1" xmlns="http://www.w3.org/2000/svg" xmlns:xlink="http://www.w3.org/1999/xlink" x="0px" y="0px"
	 viewBox="0 0 1000 1000" style="enable-background:new 0 0 1000 1000;" xml:space="preserve">
<style type="text/css">
	.st0{fill:none;stroke:#000000;stroke-width:4;stroke-linecap:round;stroke-miterlimit:10;}
	.st1{fill:#FFFFFF;}
	.st2{fill:none;stroke:#1D1D1B;stroke-width:4;stroke-linecap:round;stroke-miterlimit:10;}
</style>
<path class="st0" d="M299.3,303.4"/>
<path class="st0" d="M290.2,301.8c0,0-6.4-4.5-9-7.1c-2.6-2.6-18.1-25.8-19.8-38.1c-1.7-12.2-4.3-40.4,10.2-54.1
	s22.4-22.6,49.8-25.7c25.5-2.9,58.5,14,66.1,44.1c7.6,30.1,8.5,83,9.3,92.3c0.8,9.3,12.7,101,25.8,108.4c13.1,7.4,38.1,5.9,64,11.4
	c26,5.6,65.6,20.3,90.7,19c25.1-1.2,56.2-14.5,67.8-22.6s45.8-47.5,54.6-62c8.8-14.5,10.4-16.6,10.4-16.6s18.1,40.7,11.3,76.9
	c-6.8,36.2,13,6.7,13,6.7s16.1-12.4,16.7-14.7c0.6-2.3,3.4,48.1-4,64.4s20.1,1.6,20.1,1.6s-16.1,63-29.5,87.2
	c-13.5,24.3-87.1,125.6-144.3,137.4c0,0-94.2,28.6-173.7,3.4c-79.5-25.2-106-66.1-106-66.1s-30.8-38.5-33.4-48.1
	c-2.6-9.6-20.3-58-17.2-100.5c3.1-42.6,10.1-110.9,19.5-132.1c9.4-21.2,16.6-41,17.6-49.2c1.1-8.2-4.2-13-4.2-13L290.2,301.8z"/>
<path class="st0" d="M258.8,235.3c0,0-40.9,27-43.2,28.5c-3.4,2.1,48,10.6,50.4,11c0,0-8.7,19.9-10.8,27.9c-2.1,8-0.4,12.3,3.9,14
	c4.3,1.8,9.8,2.5,14.1,0c4.3-2.5,11.5-14.6,11.7-16.4c0.2-1.8,0,0,0,0"/>
<path class="st0" d="M286.3,187.9"/>
<path class="st0" d="M284.9,190.1l1.4-2.2c0,0-6.9-17.3-6.1-23.5c0.8-6.2,7.2-20.1,14.9-23.6c7.6-3.5,10.7-6.8,16.3-3
	c5.6,3.7,7.3,7.9,7.8,9.9c0.3,1.1,2.3,3.5,9.3-2.5c7-6,9.3-8.9,17.7-7.8c8.5,1,9.7,3.3,11.1,6.2c1.4,2.9-0.8,6,1.9,5.8
	s21.9-4.7,23.7,5.6c1.9,10.3,0.7,23.2-1.9,27.8c-1.8,3.3-10.5,8.8-11.4,9.5"/>
<path class="st0" d="M376.4,504.1c-3.7,0.2-17.1,14.3-2.5,45.2c14.7,30.9,74.7,79.2,92.8,87.4c18.2,8.3,42.5,19,61.1,17.3
	c18.6-1.7,22.7-0.7,20.6-7.4c-3.6-11.7-0.3-9.9-0.3-9.9s-3.8-1.2,11.5,3.3c15.3,4.5,44.6,16.1,45.8,4.1c0.7-7,1-11.3,1.1-13.8
	c0.1-1.4,1.2-2.6,2.6-2.7c8-0.5,32.5-2.7,36.3-9.9c3.5-6.7,1.6-19.3,0.6-24.9c-0.3-1.6,0.5-3.2,2-3.9c3.3-1.6,8.9-4.8,10.6-8.9
	c2.5-6.1,0-16.2,0-16.2"/>
<path class="st0" d="M434.9,863.9c10.7-3.1,38.8-7.4,43.2-7.8c7.7-0.6,13.6-1.7,14.5-1.7"/>
<path class="st0" d="M438.7,718.8c3.7,7.4,30.9,100.2,29.3,116.7c-1.7,16.5-2.8,21-2.8,21"/>
<path class="st0" d="M592.1,844.6c0,0-3.7-5.8-25.2-2.1l-6.6-123.7"/>
<line class="st0" x1="532" y1="851.6" x2="567" y2="842.6"/>
<path class="st0" d="M414.3,564.9c6.3,12.7,40.4,46.5,56.1,54.5c14.4,7.3,30.3,11.3,30.3,11.3"/>
<path class="st0" d="M562.7,624.1c7.8,5.7,29.5,10,29.5,10"/>
<path class="st0" d="M605.9,604.7c4.8,3,23.6,4.1,25.4,2.4"/>
<circle class="st0" cx="289.1" cy="221.9" r="2.7"/>
<g>
	<g>
		<path class="st1" d="M392.5,459c5.2,0,10.2-4.6,10-10c-0.2-5.4-4.4-10-10-10c-5.2,0-10.2,4.6-10,10
			C382.7,454.4,386.9,459,392.5,459L392.5,459z"/>
	</g>
</g>
<g>
	<g>
		<path class="st1" d="M771.4,626.3c-6.6,25-11.4,50.4-14.6,76c-0.9,7-1.5,14.1-2.2,21.1c0.1-0.9,0.2-1.8,0.4-2.7
			c-0.1,0.4-0.1,0.7-0.2,1.1c0.3-0.8,0.7-1.6,1-2.4c-0.1,0.1-0.1,0.2-0.2,0.3c0.5-0.7,1-1.3,1.6-2c-0.1,0.1-0.2,0.2-0.2,0.3
			c0.7-0.5,1.3-1,2-1.6c-0.1,0.1-0.1,0.1-0.2,0.2c0.8-0.3,1.6-0.7,2.4-1c-0.2,0.1-0.3,0.1-0.5,0.1c0.9-0.1,1.8-0.2,2.7-0.4
			c-0.1,0-0.2,0-0.3,0c0.9,0.1,1.8,0.2,2.7,0.4c-0.1,0-0.2-0.1-0.3-0.1c0.8,0.3,1.6,0.7,2.4,1c-0.1,0-0.1-0.1-0.2-0.1
			c0.7,0.5,1.3,1,2,1.6c-0.1-0.1-0.1-0.1-0.2-0.2c0.9,1.5,1.7,2.9,2.6,4.4c0-0.1-0.1-0.2-0.1-0.2c-0.8-2.5-2.3-4.6-4.6-6
			c-2.1-1.3-5.3-1.8-7.7-1c-2.4,0.8-4.8,2.3-6,4.6c-1.2,2.3-1.9,5.1-1,7.7c0.9,2.6,2.4,4.9,4.8,6.4c1.6,1,3.9,1.7,5.8,1.6
			c5.1-0.2,9.2-3.3,10.8-8.2c0.7-2,0.7-4.4,0.8-6.5c0.1-1.6,0.3-3.2,0.5-4.8c0.6-6.4,1.4-12.9,2.2-19.3c-0.1,0.9-0.2,1.8-0.4,2.7
			c2.4-17.7,5.6-35.3,9.7-52.7c1.2-5,2.4-9.9,3.7-14.8c0.7-2.5,0.3-5.4-1-7.7c-1.2-2.1-3.6-4.1-6-4.6
			C778.5,618.1,772.9,620.9,771.4,626.3L771.4,626.3z"/>
	</g>
</g>
<path class="st0" d="M676.7,419.6c9.9-4.4,27.2-34.4,28.9-40.9"/>
<path class="st0" d="M726.1,463.2c9.3-11.5,17.4-24.5,17.4-24.5"/>
<path class="st0" d="M748.5,504.1"/>
<path class="st0" d="M748.5,515c4.1-5,7.4-15.7,7.4-15.7"/>
<line class="st2" x1="298.9" y1="157.4" x2="299.3" y2="182"/>
<line class="st2" x1="338.1" y1="155.7" x2="330.7" y2="175.4"/>
<line class="st2" x1="367.2" y1="168.5" x2="356" y2="183.7"/>
</svg>
