<?xml version="1.0" encoding="utf-8"?>
<!-- Generator: Adobe Illustrator 28.0.0, SVG Export Plug-In . SVG Version: 6.00 Build 0)  -->
<svg version="1.1" id="Laag_1" xmlns="http://www.w3.org/2000/svg" xmlns:xlink="http://www.w3.org/1999/xlink" x="0px" y="0px"
	 viewBox="0 0 1000 1000" style="enable-background:new 0 0 1000 1000;" xml:space="preserve">
<style type="text/css">
	.st0{fill:none;stroke:#4A4A49;stroke-width:4;stroke-linecap:round;stroke-linejoin:round;stroke-miterlimit:10;}
</style>
<g>
	<path class="st0" d="M302.8,317.7c0.4,4.4,2.4,8.4,3.7,12.6c3.9,12.4,6.1,25.1,5.4,38.1c-0.4,7.3-1.7,14.7-4.6,21.5
		c-4.1,9.7-1.9,18.2,4.1,26.1c6.7,8.9,15.8,14.4,26.1,18.1c6.4,2.3,13,3.7,19.6,5c2.5,0.5,4.9,1.2,7.4,1.5c9.6,1.1,13.6-2.2,15-11.3
		c1-6.4,0.7-12.9,1.9-19.3c1.4-7.5,4.2-14.3,10.8-18.7c3.1-2.1,6.7-3.4,10.7-3.2c2.1,0.1,4.3-0.2,6.4,0.1c10.5,1,16.7-4.9,21.1-13.3
		c2.9-5.5,3.7-11.7,3.9-18.1c0.3-8.5,0.4-17.2,5.1-24.9c3.2-5.2,7.4-8.4,13.8-8.3c10.7,0.1,15.9,4.5,18.8,15.1
		c1.9,7,3.2,14.1,5.7,20.9c2.3,6.2,9.4,12.5,17.6,12c3.8-0.2,7.6-0.2,11.3-0.7c6.2-0.8,11.1,1.5,15.7,5.5
		c7.1,6.3,15.2,11.1,24.2,14.1c8.5,2.9,16.8,3.1,24.3-3.3c3.4-2.9,5.4-6.7,7.3-10.5c7-14.2,16.7-26.1,30.2-34.6
		c5.5-3.5,11.4-5.7,18.1-6.3c13-1.2,23.8-6.9,31.6-17.7c0.5-0.7,1-1.6,1.2-2.5c0.6-2.9,2.1-3.6,5-3.1c7.5,1.3,14.9,3,22.4,4.3
		c9,1.6,18.1,2.6,27.3,1c5.4-0.9,10.8-1.9,16.2-2.8c3-0.5,4.7,0.5,5.5,3.4c1.1,3.9,4.2,6.2,7.1,8.6c5.8,4.8,12.8,7.2,19.9,8.8
		c7.4,1.7,10,7,11.6,13.3c0.6,2.2,1.1,4.5,2.2,6.4c3.9,6.6,12.6,6.5,18,2.1c4.2-3.4,7.5-7.6,8.7-13.1c0.5-2.2,1.2-4.4,2.1-6.4
		c3.3-7.6,5.8-8.9,14.1-7c2.6,0.6,5.1,0.8,7.7-0.3c3.5-1.4,4.9-4.1,5.4-7.4c0.2-1.4,0.3-2.7,1-4"/>
	<path class="st0" d="M660,312.8c-2.4-1.7-5.1-2.3-8-2.9c-6-1.1-12.1-1.6-18.1-2.9c-2.8-0.6-5.7-0.4-8.6-0.6
		c-10-0.8-20.1-0.8-30.1,0c-9.5,0.7-18.9,1.9-28.2,4c-7.3,1.6-14.7,3.1-22.1,3.8c-7.6,0.8-15.3,0.7-23,0.8c-9,0.1-17.7-1.2-26.4-3.2
		c-6.6-1.5-13.3-2.6-19.9-3.8c-6.4-1.1-12.9-2.2-19.4-2.7c-5.9-0.5-11.8-1.3-17.8-1.4c-11-0.1-22.1-0.4-33.1,0.1
		c-10.4,0.4-20.7,1.1-31,2.6c-8.1,1.2-16.2,2-24.2,3.5c-5.4,1-10.8,1.9-16.3,2.6c-6.8,0.9-13.7,1.8-20.5,2.4c-3.2,0.3-6.7-0.4-9.5,2
		c-0.6,0.5-1.3,0.2-1.8,0c-2.8-1.5-5.7-1-8.6-0.6c-3.4,0.4-6.7,0.3-10.1,0.3c-1.4,0-2.5-0.7-3.7-1.2"/>
	<path class="st0" d="M850.5,390.7c-0.9,1.1-0.9,2.4-0.9,3.7c0,2.9,0,5.7,0,8.6c0.4,18.2-0.6,36.4-0.8,54.6
		c-0.1,8.7-0.5,17.4-1.2,26.1c-0.9,11.3-1.5,22.5-2.7,33.8c-0.9,8-2.5,15.9-3.1,23.9c-0.4,6-1.1,12.1-1.5,18.1
		c-1.2,17.6-1.6,35.2-0.9,52.8c0.4,10.3,0.1,20.7,2.1,31c2.9,15.6,5.6,31.2,9.3,46.6c3.5,14.2,7.1,28.3,12,42
		c0.6,1.7,0.5,3.7,0.7,5.5"/>
	<path class="st0" d="M856.9,743.9c-1.5,2.7-4.3,3.4-6.8,4.6c-10.9,5.4-22.5,6.1-34.4,5.9c-1.5,0-2.4-1.2-3.7-1.6"/>
	<path class="st0" d="M476.2,421.7c-4.7-0.6-8.1,1.9-11.3,4.6c-4.3,3.7-7.7,8.3-10.8,13.2c-4.3,6.9-9.6,12.6-17.8,15.1
		c-4.7,1.4-9.3,1.8-14.1,1.2c-5.9-0.8-11.8-1.8-17.8-2.1c-5-0.2-9.8,1.4-14.1,4c-4.1,2.4-8.1,4.9-11.4,8.5
		c-4.8,5.1-5.1,10.8-0.3,16.3c2.7,3.1,5.7,6.1,9.2,8.2c2.5,1.5,4.2,3.5,5.4,5.9c1.1,2.1,2.3,4,3.7,5.8c4.5,5.9,9.5,7,16.6,4.6
		c5.9-2,11.3-4.8,16.5-8.1c3.6-2.3,7-2.4,10.8-1.4c7.6,1.9,15.3,2,23,1.2c10.7-1.1,20.9-4,30.1-9.8c4.7-2.9,9.2-5.9,12.9-10.1
		c2.9-3.3,6.5-6.1,8.8-9.9c2.6-4.1,5-8.3,5-13.5c0-3.6-1.3-6.7-3.5-9.1c-4.4-4.8-10-8.1-16.2-10.2c-2.6-0.9-5.1-1.8-7.1-4
		c-3.1-3.3-6.5-6.3-10.4-8.6c-2.1-1.3-4.3-2.1-6.8-1.8"/>
	<path class="st0" d="M873.2,507.9c2-1.1,3.4-2.9,4.3-4.9c4.4-9.7,7.7-19.8,7-30.7c-0.4-5.7-1.4-11.3-2.6-16.9
		c-1.2-5.3-1.8-10.8-2.5-16.2c-0.7-5.9-1.4-11.9-2.5-17.8c-2-10.6-3.2-21.3-4.4-31.9c-0.7-6-0.9-12.2-0.9-18.4
		c0-8.5-0.7-17-3.8-25.2c-4.7-12.6-13.8-20.4-25.8-25.5c-2.3-1-4.6-1.7-7.1-1.5c-0.4,0-0.8-0.8-1.2,0c-5.8-4.1-12.8-3.3-19.3-4.3
		c-1.9-0.3-3.9-0.2-5.8-0.3c-19.6-0.9-39.3-1.7-58.9-1.2c-4.9,0.1-9.9,0.1-14.4,2.4"/>
	<path class="st0" d="M238.1,299.3c-6.6-7.5-14.5-12.1-24.8-9.5c-5.7,1.4-10.6,4.8-14.3,9.2c-3.4,4-7.5,6.9-11.5,10
		c-8.8,6.9-14.8,15.8-18,26.4c-2,6.8-5.5,13-8.1,19.6c-2.4,6-4.1,12.2-5,18.5c-0.6,4.1-2.2,7.7-3.9,11.3
		c-5,10.5-11.5,20.2-17.2,30.4c-0.6,1.1-2,1.3-3.1,1.5c-9,1.8-11.7,4.3-13.1,13.2c-0.6,3.9-1.6,7.6-1.7,11.6
		c-0.4,13.9,9,22.3,21,24.3c12,1.9,22.6-2,32.8-7.7c4.9-2.7,8.9-6.6,12.9-10.4c1.2-1.2,2.4-1.6,4-1.5c3.7,0.1,7.4,0,11,0
		c18.1,0.1,35.2-3.9,51.6-11.6c2.8-1.3,5.7-2.6,8.9-2.8c0.5,0,1.2,0,1.5-0.6c2.8-4.8,8.3-6.4,12.3-9.7c1.5-1.2,2.9-2.9,5.2-3"/>
	<path class="st0" d="M261.4,431.5c2.1,2.7,5.4,3,8.3,4c9.8,3.1,18.3,8.5,26.5,14.6c5.9,4.4,8,10,8.6,17c0.5,5.8,2.3,11.5,3.5,17.2
		c1.6,7.6,3.6,15.2,5.8,22.7c3.3,11.2,7.2,22.3,12.3,32.8c3.5,7.2,7.5,14.1,12.3,20.6c7.9,10.7,17.6,19.1,30.4,23.6
		c2.1,0.7,4.4,1.6,6.8,0.5c0.8-2.2,0.8-4.3-0.6-6.6c-8.2-13.5-15.3-27.7-21.2-42.3c-4.8-11.8-8.5-23.9-11.7-36.2
		c-1.1-4.5-2.3-8.9-2.9-13.5"/>
	<path class="st0" d="M459.9,559.8c-0.7,2.1-0.6,4.3-0.6,6.4c0,6.2-0.1,12.5,0,18.7c0.2,10.9-1.4,21.6-4,32.2
		c-0.8,3.1,0.4,5.8,1.3,8.6c3.1,10.1,3.2,20.6,2.6,31c-0.2,4.6-1.4,9.3-2.9,13.8c-1.9,5.5-2,11.2-2.3,16.9
		c-0.7,10.8,0.3,21.5,2,32.2c1,6.1,2.5,12.1,4.3,18.1c0.5,1.7,1.1,3.4,0.3,5.2"/>
	<path class="st0" d="M449.8,745.4c-2.9-2.3-6.5-1.8-9.8-2.4c-4.6-0.8-8.9-2.4-13.2-4.1c-2.1-0.9-4.3-1.5-6.5-2.1"/>
	<path class="st0" d="M444,554.6c-1.8,2.4-1.5,5.3-1.8,8c-0.8,9.6-2.3,19.2-4.5,28.5c-2.5,10.5-5.2,21-9.4,31
		c-1.2,2.8-0.6,5.5-0.3,8.3c0.9,8.2,1.4,16.3,0.8,24.6c-0.6,7.9-1.7,15.6-3.2,23.3c-0.3,1.4-0.6,2.9-1.1,4.3
		c-3.1,10.1-3.6,20.7-5,31c-0.9,6.5-1.1,13.3-0.8,19.9c0,0.8-0.1,1.5,0.6,2.2c0.9,0.9,0.7,1.7,0.1,2.8c-1.4,2.3-1.4,4.9-0.6,7.3
		c1,3.2-0.2,6.9,2.2,10c0.3,0.4-0.8,3-1.3,4.5c-0.6,2.2-2.5,1.7-3.8,2.4"/>
	<path class="st0" d="M405.3,764.8c-1.9,1.2-4.1,1.6-6.1,1.7c-6.6,0.5-13.3,1.4-19.9,0.1c-1.5-0.3-3.2-0.5-4.3-1.8"/>
	<path class="st0" d="M376.2,585c2.7,3.2,2.5,7.3,3.3,11.1c1.5,6.8,2.9,13.7,5.5,20.2c1.6,4.2,1.1,8,0.4,12
		c-1.7,10.3-2.7,20.5-1.6,31c1.1,9.8,3.5,19.1,7.8,27.9c2.4,4.8,0.8,9.3-0.1,13.8c-1.6,7.3-3.5,14.6-5.5,21.8
		c-1.5,5.4-2.4,11-4.6,16.3c-0.4,1.1-0.3,2.2-0.3,3.4c0.1,3.6-2.2,6.5-3.2,9.8c-1.1,3.5-2.6,6.8-3,10.5c-0.2,1.8-0.7,3.4-3.1,2.6"/>
	<path class="st0" d="M693.1,592.9c4.5,0.4,8.7,2.5,13.2,3.1c1.2,0.2,2.4,0.5,3.7,0.6c3.1,0.2,4,1.1,4,4.3c0,6.2,0,12.5,0,18.7
		c0,5.2,3.7,9.1,8.6,9.2c4.6,0.1,8.6-3.9,8.5-8.9c-0.1-5.9,0.8-11.6,0.7-17.5c0-1.8,0.8-3.5,0.9-5.2c0.1-1.8,1.6-1.8,2.5-1.8
		c1.9,0.2,3.7-0.9,5.5-0.1c0.7,0.3,1.5,0,2.2-0.5c0.9-0.7,2-1.3,3-1.9c3.7-1.9,5.8-1,6.7,3.1c1.4,6.2,3.4,12.2,4.9,18.4
		c0.6,2.3,1.6,4.2,3.7,5.5c4.5,2.8,10.7-1,11.1-6.8c0.2-3.5-1.3-6.5-1.9-9.8c-0.9-4.7-2.3-9.2-3.6-13.8c-0.7-2.4,0-4.2,2.2-5.5
		c4.9-3.1,7.7-8.2,11.7-12.3c0.6-0.6,0.5-2-0.3-3c-7.7-10.2-16.8-18.6-28.5-24c-7.4-3.4-15.1-5.6-23-6.2c-8.3-0.7-16.8-0.5-25.2,1
		c-10.2,1.9-20.1,4.6-29.7,8.3c-5.6,2.2-11.5,3.7-16.2,7.7c-1.1,0.9-2.1,0.6-3.1,0.8c-4.3,0.9-8.4,2.8-12.6,4.1
		c-10,3.1-20,5.7-30.4,7.5c-6.6,1.2-13.3,1.8-20,2.9c-3.1,0.5-6.3,0.2-9.5,0.6c-9.7,1.1-19.5,1.3-29.1,0.5
		c-10.8-0.8-21.7-1.2-32.6-2.8c-12.6-1.8-25.2-3.6-37.7-6.1c-6.1-1.3-12.2-3.4-18.4-3.7c-6.9-0.3-12.5-4.7-19.3-4.9
		c-1.9-0.1-1.9-2.4-2.1-3.9c-0.2-1.7-0.1-3.5,0-5.2c0.6-8.8-1.5-17.2-2.9-25.8c-0.4-2.5-1.8-4.8-2.2-7.4"/>
	<path class="st0" d="M811.2,753.1c0.5,0.1,0.9-0.4,0.9-0.6c-0.3-6,2.2-11.5,3.4-17.1c0.7-3.3,1.3-6.5,1.8-9.8
		c0.9-6.1,1.5-12.3,2.3-18.4c1.1-8.4,0.2-16.8,0.5-25.2c0-1.3,0.1-2.5-0.9-3.7c-6.4-7.8-9.9-16.9-12-26.7
		c-1.4-6.8-2.1-13.6-1.8-20.6c0.2-5.1-1.5-9.7-2.8-14.4c-1.9-6.9-4.4-13.6-7.1-20.2c-0.9-2.3-2.2-4.3-4.4-5.6
		c-2.7,1.6-3.7,4.2-4.4,6.9c-2.4,8.2-4.1,16.6-5.2,25.2c-1.8,13.1-4.4,25.9-11.3,37.5c-1.9,3.2-3.8,6.3-6.2,9.2
		c-4,4.8-5.2,10.9-7,16.6c-2.8,8.9-5.1,18-6.8,27.3c-0.9,4.7-2.2,9.3-2.5,14.1c-0.1,2.2-1.2,4.2-2.1,6.1"/>
	<path class="st0" d="M738.2,734.1c-2.4-2-5.5-2.3-8.3-3.3c-6.2-2.3-10.9-6.5-15.3-11.2c-3.5-3.7-3.5-4.7-1.2-9.5
		c5.2-11.1,10.2-22.3,13.8-34c2.6-8.2,5.1-16.4,7.2-24.8c2.5-9.8,4.4-19.6,5.9-29.5c1.1-7.8,2.3-15.7,2-23.6c0-0.8,0.1-1.7-0.3-2.5"
		/>
	<path class="st0" d="M751.1,366.5c-1.1,7.5-1.9,15-3.4,22.4c-2.4,11.7-4.9,23.5-8.3,35c-2.9,9.9-6.2,19.8-9.7,29.5
		c-3.2,8.8-6.8,17.4-11.1,25.8"/>
	<path class="st0" d="M852.6,388c3.6,2.5,4.6,6.4,5.6,10.4c1.5,5.9,3.1,11.8,4.2,17.8c1.4,7.1,3,14.2,3.7,21.5
		c0.4,3.8,1.4,7.5,1.2,11.4c-0.1,1.5-0.2,2.9-0.9,4.3c-4.3,8.6-4,17.5-2.5,26.7c1.3,7.6,4.1,14.8,5.5,22.4c0.3,1.4,1.3,2.4,1.9,3.7"
		/>
	<path class="st0" d="M657.2,556.4c2.5,8.1,6.1,15.5,11.9,21.8c1.8,2,4.3,3.3,5.9,5.4c0.6,0.9,1.1,1.4,1,2.8
		c-0.3,7.1-2.6,13.9-3.6,20.8c-0.6,4.7,0.1,8,3.5,9.8c3.7,2.1,10,1.5,11.4-4.9c1-4.8,2.2-9.6,3.4-14.4c0.1-0.5,0-1.2,0.3-1.5
		c1.9-2.2,1.6-4.8,1.2-7.4"/>
	<path class="st0" d="M290.6,279.4c-1,1.9-2.4,2.8-4.6,2.8c-1.6,0-3.3,0.4-4.9,0.9c-7,2.2-14.2,3.5-21.2,5.5
		c-6.3,1.8-12.1,4.5-17.6,8.2c-4.1,2.7-6.2,6.6-8.6,10.5c-0.9,1.5-0.8,2.9-0.9,4.3"/>
	<path class="st0" d="M288.1,282.4c1.9,3.8-0.7,7-1.3,10.4c-0.1,0.7-0.5,1.5-0.9,2.2c-1.2,2.1-2.3,4-5.5,3.8c-3-0.2-5.9,1.5-8.9,2.4
		c-4.2,1.2-8.4,0.8-12.6,1.1c-7.2,0.6-13.2,3.7-18.4,8.4c-2,1.8-4.1,3.2-6.8,3.3"/>
	<path class="st0" d="M818,730.7c5.6,1.4,10.6,4.7,16.2,6.2c5.7,1.5,11.4,2.4,17.2,2.6c2.4,0.1,4.6,0.5,6.7,1.6"/>
	<path class="st0" d="M283.2,299c1.7,4.1-0.9,7.3-2.2,10.7c-0.2,0.5-0.8,0.8-0.9,1.2c-0.7,6.5-6.3,9.5-10,13.7
		c-3.8,4.3-9,7-14.3,8.9c-4.1,1.5-8.4,2.8-12.9,2.5"/>
	<path class="st0" d="M451.9,747c-2.7,5.2-8.2,5.5-12.9,7c-4.2,1.4-8.6,0.9-12.9,1c-1.6,0-3.1-0.1-4.6,0.6"/>
	<path class="st0" d="M407.8,762.6c-1.7-2.6-4.2-4-7.1-4.9c-6-2-11.5-5.1-16.3-9.2c-1.1-0.9-2.2-1.8-3.7-1.8"/>
	<path class="st0" d="M135.3,415.9c0.9,0.9,2,1.5,3.1,2.1c4.7,2.9,6.7,7.2,6.7,12.6c0,1.5,0,3.1,0,4.6"/>
	<path class="st0" d="M711.5,717.2c-2.5,1.5-3.7,4-4.9,6.5c-2,4.2-4.9,7.9-5.9,12.6"/>
	<path class="st0" d="M781.2,571.8c5.6,5,9.3,11,9.8,18.7"/>
	<path class="st0" d="M739.7,736.2c-2.5,4.2-7,4.5-11,5.5c-2.2,0.5-4.5,0.7-6.7,0.6c-0.6,0-1.7-0.6-1.5,0.9"/>
	<path class="st0" d="M699.2,736.2c2.7-0.1,4,2.4,6.4,3.2c4.8,1.4,9.5,2.6,14.4,3"/>
	<path class="st0" d="M131.9,428.8c-0.5,1.5,1.3,2.8,0.3,4.3"/>
	<path class="st0" d="M663.3,362.2c-4.6,1.4-7.1,5-8.5,9.2c-1.6,4.8-4.9,8.3-7.7,12.3c-3.9,5.4-6.5,11.4-7.4,18.1
		c-0.4,2.8,0.5,5.5,0.7,8.3c0.1,1.8-0.2,3-1.3,4.3c-1.9,2.2-3.8,4.5-5.2,7.1c-5,9.2-3.5,17.4,3.3,24.5c3.4,3.5,6.5,7.4,10.7,10.2
		c5.3,3.4,10.3,1.6,13.5-2.8c2.2-3.1,3.7-6.6,4.9-10.1c0.7-2,1.9-3,3.7-4c5.4-3,11-5.5,16-9.1c3.5-2.5,6.8-5.3,9.2-8.9
		c3.5-5.5,2.5-11.1-0.3-16.5c-2.9-5.7-7.1-10.3-12.6-13.8c-2.7-1.8-5.2-4-7.4-6.4c-2.2-2.4-3.2-5.2-3.3-8.3
		c-0.2-3.2-0.6-6.3-1.9-9.2c-1.1-2.4-2.9-4.6-6.1-4.6"/>
</g>
</svg>
