<?xml version="1.0" encoding="utf-8"?>
<!-- Generator: Adobe Illustrator 28.0.0, SVG Export Plug-In . SVG Version: 6.00 Build 0)  -->
<svg version="1.1" id="Laag_1" xmlns="http://www.w3.org/2000/svg" xmlns:xlink="http://www.w3.org/1999/xlink" x="0px" y="0px"
	 viewBox="0 0 1000 1000" style="enable-background:new 0 0 1000 1000;" xml:space="preserve">
<style type="text/css">
	.st0{fill:none;stroke:#4A4A49;stroke-width:4;stroke-linecap:round;stroke-linejoin:round;stroke-miterlimit:10;}
</style>
<path class="st0" d="M619.7,404c-10.2-16.5-13.8-36-23-52.8c-12.5-23.1-32.2-28.3-58.8-27.5c-23,0.7-45.3,5.3-68.1,6.1
	c-22.2,0.8-44.4,1.4-66.6,1.5c-14.1,0-23.5,5-30.6,18.1c-14.8,27.3-24,56.3-29.8,86.5c-9.2,48-12.2,96.7-17.2,145.2
	c-3.9,37.3-7.4,74.6-6.6,112c0.4,18.2,1.3,36.8,8.4,54.6c8.6,21.7,21.5,33.5,44.1,32.9c43.6-1,85.9,7.8,128.7,13.1
	c39.3,4.9,78.4-3.7,116.5-15c13.1-3.9,26.1-9.2,36-17.9c19.6-17.1,36.2-36.8,24.5-66.2c8-28.3-6.9-53.5-10.7-80.2
	c-4.5-31.4-9.7-62.6-15.1-93.8c-6.2-35.9-16.9-70.5-29.9-104.6c-1.2-3.3-9.7-10.8,2.7-12"/>
<path class="st0" d="M603.1,378.2c-25.9,12.4-53.7,17.3-81.7,21.1c-34.8,4.7-69.7,5.6-104.4-0.2c-18.9-3.2-37.4-8.8-56-13.4"/>
<path class="st0" d="M675.7,694.5c-34.9,7.9-68.6,21.9-104.5,24.6c-27.6,2.1-55.5,1.9-83.2,0.8c-26.3-1-52.4-1-78.7,0
	c-28.2,1.1-56.6,1.3-84.7-2.8"/>
<path class="st0" d="M583.4,310.1c-0.7-14.4-8.8-18.2-22.6-20.2c-37.5-5.5-74.7-1.8-112.1,0.2c-22.3,1.2-44.7,0-66.6,6.2
	c-6.8,1.9-10-2.4-12.3-8.9c-3.3-9.4-5.6-19-5.7-28.8c-0.3-31.5,14.7-41.6,37.8-46c52.6-10.1,105.2-11.6,157.4,3.4
	c7.6,2.2,14.8,5.3,21,9.5c15.6,10.9,18.4,23,10.6,43.6c-3.2,8.4-7.9,16.2-12,24.3"/>
<path class="st0" d="M503.2,519c-1.8,0-5-0.4-5.1,0.1c-5.6,20.1-21.5,34.3-29.7,52.9"/>
<path class="st0" d="M521.3,552.3c-12,1-17.9,10.7-16.6,27.2"/>
</svg>
