<?xml version="1.0" encoding="utf-8"?>
<!-- Generator: Adobe Illustrator 28.0.0, SVG Export Plug-In . SVG Version: 6.00 Build 0)  -->
<svg version="1.1" id="Laag_1" xmlns="http://www.w3.org/2000/svg" xmlns:xlink="http://www.w3.org/1999/xlink" x="0px" y="0px"
	 viewBox="0 0 1000 1000" style="enable-background:new 0 0 1000 1000;" xml:space="preserve">
<style type="text/css">
	.st0{fill:none;stroke:#4A4A49;stroke-width:4;stroke-linecap:round;stroke-linejoin:round;stroke-miterlimit:10;}
</style>
<g>
	<path class="st0" d="M230.7,283.4c11.8-2,21.4,6,32.9,6.5c31,1.4,61.5,7.6,92.5,9.9c27.5,2.1,54.4,10.6,81.6,16.5
		c22.2,4.8,45.6,5,67.2,10.4c38.1,9.4,72.8,5.6,106.8-12c34.1-17.6,68.5-34.6,101.7-53.7c13.6-7.8,30-13.5,37-26.1
		c-2.3-14.6-11.1-15.1-21-16.1c-23-2.5-46.2-2.3-69.1-7l-28.1-3.8c-39.9-3.9-79.4-10.4-119.1-16.4c-13.1-1.7-26.6-1.8-39.4-2.6
		c-22.1-1.4-70.7,3.9-72,3.4c0,0-83.5,42.1-98.9,46.7c-18.1,5.4-56.6,37.1-57.9,44.3"/>
	<path class="st0" d="M230.7,444.8c13.1,14.8,37.4,13.5,51.5,4.3c11.2-7.3,24.1-10.5,34.7-18.4c4.2-3.1,8.3-1.2,12.6-0.1
		c42.7,10.1,52.2,58.3,101.9,34.6c19.8-8.5,40.4-7.7,61.1-4.7c11.8,1.7,18.9,11.5,28.1,17.5c16.9,11,32.7,23.4,52.9,6.3
		c2-1.7,7.6,0.7,11.5,1.3"/>
	<path class="st0" d="M799.8,267.7c-11.2,3.6-19.4,11.5-28.7,18.1c-26.9,19.1-55.1,36.5-83.9,53c-25.2,14.4-52.6,22.3-78.9,33.4
		c-8.6,3.6-19.7,1.3-29.6,2.2c-3.7,0.3-7.5-3.4-10.9-0.1c-14.8,15.6-100.2-6.4-123.9-7.6c-30.7-5.5-61.7-7.7-92.5-13.6"/>
	<path class="st0" d="M161.7,303.7c5.2,23.9,25.8,20.8,42.4,23.3c28.1,4.1,56.6,5.4,84.6,10c20.2,3.3,39.8,10,59.6,15.4"/>
	<path class="st0" d="M585,750.6c0.6,10.3-8.6,7.2-12.6,7.4c-19.4,1-36.7-3.9-50.3-19.8c-15.5-18.1-35.8-27.5-59.2-18.4
		c-11.7,4.6-21.7,14-34.7,16.7c0,0-1.2-2.3-3-1.3c-17.5,9.5-26.1-6-37.8-12.8c-21.6-15.2-41.4-25.8-66-9.8
		c-18.1,10.5-38.4,12.9-59.4,8.5c-6.1-1.3-6.3-3.8-6.2-8.2"/>
	<path class="st0" d="M607,377.4c8.4,13.7,2.5,28.2,2.2,42.3c-0.1,3.1-3.5,0.9-5.3,1.6"/>
	<path class="st0" d="M609.3,422.9c-2.7,39.5-5,239.4-8.5,268.1c-0.2,2-0.1,15.7-0.1,15.7c-0.6,29.8-1.1,59.6-1.6,89.4"/>
	<path class="st0" d="M690,274c-2.4-5.2-42.3-11.6-53.3-12.6l-10.8-0.3c-25.6-11.3-55-3.3-80-15.8c-21.5-7.4-44.2-6.8-66.1-11.6
		c-8.1-1.8-13.9-7.6-21.8-8.4c-45.5-2.7-76.3,34.8-117.5,47.4c-9.3,2.9-19.1,8.7-18.9,21.5"/>
	<path class="st0" d="M443.3,189.4c0,0,2,25.4,0,31.2"/>
	<path class="st0" d="M516,565.6"/>
	<path class="st0" d="M232.4,637.1"/>
	<path class="st0" d="M197.8,328.8c-2.9,15.4,3.1,30.2,3.4,45.5c0.4,16.7,4,33.4,4.1,50.2c0,14.3,0.9,28.6,3.9,42.2
		c6.9,31.6,8.9,63.9,13,95.8c3.1,24.1,7.6,47.9,10.1,72c0.3,2.5,0.1,51.7,0.1,51.7c13.5,56.2-3.5,103,59.6,134.8
		c15.8,8.1,31.5,16.5,50.2,15.9l59.6,10c18.4,2.8,36.8,4.1,55.1,9.6c18.5,5.5,125.2,8.5,125.2,8.5c39.9-5.4,68.8-28.8,97-55.1
		c54-45.7,113.2-84.8,106-164.4c0,0,22.9-346.9,16.6-377.9c-0.4-1.9,0.1-5.1,1.6-6.1c51.7-37.8,31.3-47.1,31.3-47.1
		c-19.9-42.7-117.1-37.6-158.3-47.2c-12.2-2.4-23.9-8.1-36.1-8.8c-17.9-1.1-35.9-2.8-53.1-6c-28.2-5.2-56.9-4.1-85-10.9
		c-19.5-4.8-40.6-8.6-60.9-5.1c-28.9,5-59.3,4.6-86.3,18.5c-55.3,26.9-107.6,60.2-157,96.9c-15.7,11.2-24.8,26.9-34.3,42.6"/>
</g>
</svg>
