<?xml version="1.0" encoding="utf-8"?>
<!-- Generator: Adobe Illustrator 28.0.0, SVG Export Plug-In . SVG Version: 6.00 Build 0)  -->
<svg version="1.1" id="Laag_1" xmlns="http://www.w3.org/2000/svg" xmlns:xlink="http://www.w3.org/1999/xlink" x="0px" y="0px"
	 viewBox="0 0 1000 1000" style="enable-background:new 0 0 1000 1000;" xml:space="preserve">
<style type="text/css">
	.st0{fill:none;stroke:#4A4A49;stroke-width:4;stroke-linecap:round;stroke-linejoin:round;stroke-miterlimit:10;}
</style>
<g>
	<path class="st0" d="M500.6,715.5C502.7,661.4,515,610,541,562.1c9.3-17.1,19.6-33.6,26.6-51.9c5.4-14.3,7.6-28.7,4.1-44.1
		c-4.7-21.2-26.5-33.9-46.4-22"/>
	<path class="st0" d="M477.7,439.7c-16.3-14.8-35.9-4.5-44,15.9c-4.8,12.1-3.9,25.1-1.4,36.9c9.3,44.5,20.3,88.7,30.3,133.1
		c1.1,4.8,1,10,0.9,14.9c-0.5,22.3-1.1,44.6-1.7,66.9"/>
	<path class="st0" d="M405.4,806.2c7.1-0.3,14,2.1,21.1,0.9c33.5-5.6,66.9-11.5,100.4-16.5c10.2-1.5,27.1-3.8,27.3,9.5
		c0.3,21.6-10,21.1-14.2,26.3c-1,1.2-3.8,2.2-5.1,1.7c-5.2-2.2-11.1,1.1-42.4,9.9"/>
	<path class="st0" d="M425.7,287.4c-67,33.3-56.4,102.8-57.3,105.7"/>
	<path class="st0" d="M490,846.3c1.3,9.9-3.9,14.7-10.6,20.6c-9.4,8.2-26.6,1.7-31.8-11.3c-1.3-3.3-0.2-8.2-4.3-9.6
		c-5.1-1.8-29.3-3.7-37.8-10c-5-3.7-3.5-25.7-1-29.5c-3-11.3-11.2-22.1-1.6-33.8"/>
	<path class="st0" d="M464,729.1c-14.2,5.3-59.4,13.1-62.5,12.3"/>
	<path class="st0" d="M520.8,439.7c-13.1-11.6-29-6.5-39.6,0.9c-0.8,0.6-1.6,1.7-1.7,2.6c-2.1,13.4-9.7,25.1-11.8,38.7
		c-1.3,8.1,1.6,11.7,8.6,14c3-1.1,12-27.5,5.8-37.8"/>
	<path class="st0" d="M527.9,446.8c5.8,6,8.1,13.9,11.2,21.2c3.4,8.1-3.8,20.9-12.1,23.7c-7.5,2.5-17-8-14.8-17.6
		c2.3-10,5.9-19.8,12.2-28.2"/>
	<path class="st0" d="M414.2,709.3c8.7,2.2,17.7-0.3,26.5,2.4c3.6,1.1,61.9,5.2,73.9,7.3c11.7,2.1,23.5,0.4,35.2,0"/>
	<path class="st0" d="M826.5,341.1c-11.4,1.4-22.1,5.6-33.4,7.4c-5,0.8-9.5,0.3-14.2-0.4"/>
	<path class="st0" d="M537.6,829.1c0,13.4-23.6,16-27.3,16.8c-10.3,2.3-52.8-4.5-64.3,0.8"/>
	<path class="st0" d="M236.3,347.3c-9.1-2.8-37.3-9.8-42.3-9.7"/>
	<path class="st0" d="M669.7,136.7c-10,6.6-27.5,31.7-26.4,36.1"/>
	<path class="st0" d="M243.4,223.1c10.4,0.1,36.2,18.4,42.3,19.4"/>
	<path class="st0" d="M725.1,242.4c5.2-9,33.8-22.5,37.6-27.3"/>
	<path class="st0" d="M366.7,121.8c0.6,9.5,8.3,15.6,11.3,23.8c2,5.6,8.8,9.4,6.3,16.7"/>
	<path class="st0" d="M517.3,95.3c-1.9,14.1-3.4,28.2,0,42.3"/>
	<path class="st0" d="M546.4,790.3c11.2-10.4,10.7-21.9,3.7-34.4c-2-3.6,1.3-7.2,3.5-9.5c7.7-8,6.7-15.1,0-23.1
		c-6.1-7.4-0.9-15.6,2-21.7c15.8-33.5,36.2-64.3,57.8-94.4c20.5-28.6,41.8-56.5,61.4-85.6c15.6-23.2,27.6-48.7,32.5-76.5
		c2.4-13.5,2.5-27.6,0.2-41.3c-6.8-41.4-21.9-79.5-47.7-112.6c-18.9-24.4-44.4-40.7-72-53.9c-27.1-12.9-55.7-17.9-85.5-19.4
		c-68-3.4-120.6,24.6-158.1,79.7c-20.5,30.1-33.1,64.6-39.1,101c-5.4,32.6,1.1,63.9,12.4,94.2c10.8,29.1,25,56.9,40.7,83.6
		c21.1,35.9,35.6,74.1,47.7,113.7c3.9,12.8,7.2,24,2.7,37.3c-1.8,5.3-15.9,26.8-8.3,39.4c1,1.7,0.5,4.2,2.6,5.7
		c21.4-3.1,42.8-6.2,64.3-9.2c25.8-3.6,51.6-6.9,77.5-8.8c1.1-0.1,2.3,0.5,3.5,0.8"/>
</g>
</svg>
