<?xml version="1.0" encoding="utf-8"?>
<!-- Generator: Adobe Illustrator 28.0.0, SVG Export Plug-In . SVG Version: 6.00 Build 0)  -->
<svg version="1.1" id="Laag_1" xmlns="http://www.w3.org/2000/svg" xmlns:xlink="http://www.w3.org/1999/xlink" x="0px" y="0px"
	 viewBox="0 0 1000 1000" style="enable-background:new 0 0 1000 1000;" xml:space="preserve">
<style type="text/css">
	.st0{fill:none;stroke:#4A4A49;stroke-width:4;stroke-linecap:round;stroke-linejoin:round;stroke-miterlimit:10;}
	.st1{fill:#363331;}
</style>
<g>
	<g>
		<path class="st0" d="M416.2,428.8c19.3,6.7,36.9,16.9,55.1,25.8C501,469.2,736.9,587.2,769.5,607c14.6,8.9,30.2,16.6,45.9,23.5
			c6,2.7,10.6,4.9,10.5,11.8c-0.1,8.3-1.2,16-9.9,20.9c-36.5,20.5-72.6,41.5-109,62.2c-31.2,17.8-62.5,35.4-93.8,53
			c-21.6,12.2-43.9,23-65.9,34.5c-29,15.2-57.7,31-85.4,48.5c-11.2,7.1-22.4,14.2-34.2,20.3c-9.4,4.8-17.9,2.6-25.8-2.4
			c-24.4-15.4-45.5-35-67.5-53.5c-27.4-23.1-54.3-46.8-79.3-72.6c-29.2-30.1-60.7-57.8-90.3-87.3c-12.7-12.7-25.9-25-35.2-40.8
			c-4.4-7.4-8.5-14.8-7.7-23.7c0.2-2-0.8-3-1.6-4.3c-4.9-8.7-3.8-12.5,5.8-17.2c8.9-4.3,18.1-8.3,27.2-12.2
			c21.2-8.9,42.6-17.6,63.7-26.6c23.7-10.1,47.1-20.9,71-30.7c28.5-11.6,55.7-25.7,82.4-40.8c8.7-4.9,18.1-8.6,27.2-13
			c8.1-3.9,12.8-9.4,14.8-19.2c3-14,0.4-27.3-0.5-40.9c-0.1-1.9,0-3.8,0-5.7c0-20.5,14.7-226.6,15.7-240.7c1-14,4.7-27.5,8.9-40.8
			c1.7-5.6,7.7-7.1,13.4-7.2c14.2-0.4,27.6,3.5,40.8,7.9c27.2,9.1,54.6,17.3,82.4,24.3c35.8,9.1,71.7,17.8,107.4,27.3
			c25.5,6.8,50.7,14.7,76,22.1c21.3,6.2,42.6,12.1,63.7,18.7c16.4,5.2,32.7,11,47.5,20.5c9.6,6.2,13.1,12.8,11.6,24.6
			c-5.1,42.2-8.6,84.5-13.4,126.7c-2,17.9-4.4,35.9-6.7,53.8c-2.1,15.7-4.1,31.5-6.2,47.2c-2.3,17.3-6.2,34.4-8.7,51.6
			c-4.5,31.4-15.8,61.5-19.1,93.1c-0.3,2.4-1.3,4.8-2.1,7.2c-0.5,1.5-1.4,2.9-2.1,4.3"/>
		<path class="st0" d="M792.3,568.5c-0.4-2.5-2-1.3-3.6-1.6c-11.9-2.1-22.2-8.5-32.9-13.5c-30-14.1-59.8-28.5-89.6-42.9
			c-28.9-14-57.8-28.2-86.7-42.2c-31.7-15.4-63.6-30.5-95.2-45.9c-8.6-4.2-17-8.6-24.5-14.8c-8.2-6.8-11.3-15.6-12.7-25.3
			c-4.2-29.1,15.2-225,15.8-231.2c0.7-7,382.1,105.8,378.6,127.4c-3.3,19.8-10.2,89-13.5,108.8c-2.6,15.6-5.6,31.1-8.1,46.6
			c-2.9,18.4-7.4,36.6-9.9,55.1c-1.9,14-6.8,27.6-8.8,41.6c-1.4,9.4-3.7,18.6-5.3,27.9c-0.5,3.1-1.8,5.8-4.3,7.9"/>
		<path class="st0" d="M287.9,534.2c4.7,1.6,8.2,0.3,12.3-2.7c10.2-7.5,22-12.5,33.7-17c14.8-5.8,28.1-14.1,42.1-21.2
			c14.7-7.5,30.1-13.7,44.5-22c8.1-4.7,17-3.4,24.2,2.1c23.3,17.8,49.6,30.8,74.7,45.5c34.9,20.4,67.9,43.5,100,67.8
			c27.1,20.4,55.2,39.1,84.7,55.7c3.9,2.2,8.5,4,11.3,7.3c5.8,6.7,12.4,5.5,19.5,4.1"/>
		<path class="st0" d="M123.2,600.8c4.8-0.2,8.7,2,12.2,5c22.4,20.1,45.1,39.8,66.1,61.5c24.5,25.2,51.3,48.1,77.2,71.8
			c25.3,23.2,48.5,48.4,72.5,72.9c11.3,11.6,22.1,23.7,35,33.8c9.1,7.1,20.1,10.5,30.1,15.8c2.2,1.1,3.3-0.2,5.1-0.7
			c14.6-3.9,26.7-12.4,39.4-20.1c25.5-15.4,52-29.1,78.6-42.6c58.9-29.7,116.8-61.3,171.5-98.5c25.7-17.5,52.9-32.9,80.8-46.7
			c9.5-4.7,17.3-11.6,24.3-19.4"/>
		<path class="st0" d="M319.1,602.2c-0.1,0.5-0.4,1.4-0.3,1.4c17.3,7.1,29.9,20.6,44.4,31.6c14.4,10.9,28.7,21.9,42.9,33
			c3.2,2.5,6.1,5.4,8.6,8.6c4,5.3,2.8,11.1-2.8,15c-7.7,5.3-16.6,8.1-25.2,11.2c-16.9,6.2-33.5,13.1-50.7,18.5
			c-9.5,3-16.1,1.8-23.1-4.6c-22.5-20.5-45.3-40.7-68-60.9c-2.3-2-4.8-3.7-7.1-5.8c-3.8-3.3-2.8-6.2,0.6-9.3
			c6.3-5.8,14.2-8.6,21.6-12c19.4-8.6,39.1-16.4,58.7-24.5"/>
		<path class="st0" d="M296.5,535.6c1.1,3.1,3.2,5.1,5.6,7.3c35.3,31.9,75.1,57.8,113.4,85.8c41,30,82.5,59.3,123.9,88.9
			c6.7,4.8,13.9,9.1,20.6,13.9c9.2,6.6,17.7,5.5,26.7,1.1c26.4-13,52-27.5,76.6-43.8c14.6-9.6,30.6-15.6,46.7-21.6
			c6-2.2,10.2-5.6,12.8-11.3"/>
		<path class="st0" d="M416.2,532.7c-3.6-9.6-13.2-11.4-20.8-15.7c-0.8-0.4-2.3-0.4-3.6,0.6c-2.7,2.1-5.8,3.7-8.5,5.8
			c-5.7,4.4-10.5,9.4-18.6,10.2c-12.4,1.2-13.7,13-4.8,22.5c8.7,9.3,15,20.5,25.5,28.3c10.6,7.9,20.2,17.4,31.7,24
			c13.9,8.1,24.9,20.5,40.1,26.6c12.7,5.1,23.1,14,34.8,20.6c16.5,9.3,33.5,18.3,47.7,31.6c7.8,7.3,16.6,13.9,27.8,15.9"/>
		<path class="st0" d="M399,553.5c3.8,7.7,9.8,13,17.9,15.7c2.4,0.8,4.5,1.7,5.8,4.3c3.6,7.3,10.1,11,17.9,12.1
			c4.6,0.6,8.4,2.4,9.8,6.6c0.9,2.8,2.6,3.3,4.5,3.8c9.1,2.4,15.7,8.6,22.9,14c4.1,3.1,3.1,6.4,0,9.3c-5.6,5.2-9.1,11.9-13.6,17.9"
			/>
		<path class="st0" d="M373.9,532.7c3.5,5.5,9,9.2,12.3,15c1.8,3.1,6,3.1,9.1,4.5c4.8,2.1,5.7-1.7,8-4.3c4.6-4.9,9.2-9.7,13.3-15.4
			c10.6,1.6,19.4,5.8,24.6,16c0.5,1.1,1.3,2.7,2.1,2.8c8,0.7,10.5,8.4,15.4,12.7c2.6,2.3,5,4,8.1,5.5c10,5.1,19.9,10.5,29.4,16.5
			c4.3,2.7,8.1,6,12.9,7.8c1,0.4,2.3,0.7,3.2,2.6c4.4,9.5,13.5,13.6,22.7,17.2c1.9,0.8,3.6,0.9,5.1,2.9c2.6,3.5,6.7,5.7,10.7,7.1
			c15.3,5.8,27.1,16.4,39.4,26.6"/>
		<path class="st0" d="M593.1,653.1c8.7,5,16.7,11.3,25.5,16.3c6.1,3.5,11.1,10.2,17.4,14.7c3.2,2.3,5,1.6,8.1,0.7
			c6.9-2.2,13-5.9,17.7-11.1c2.6-2.9,5.4-4.2,8.8-4.8c6.9-1.3,10.6-7.9,17.2-9.7"/>
		<path class="st0" d="M534.4,575.7c3.6,3.8,7.1,7.7,10.8,11.5c3.9,4.1,8,7,14.3,6.7c6.8-0.3,11.6,5,14.8,10
			c4.4,6.9,9,12.4,17.5,13.4c1.8,0.2,3.3,1.4,3.5,2.9c1.1,7.8,9.1,9.9,12.9,15.7c2.1,3.3,10.3,2.9,15.9,3.3c1.3,0.1,2.8,1.2,4.3,0.3
			"/>
		<path class="st0" d="M513.6,638c9,1.1,15,7.9,22.1,12.3c10.6,6.5,21.3,13.2,31.2,20.5c5.2,3.8,11.9,7.4,15.7,13.8
			c-4.1,7.2-9.5,13.1-15.1,18.4c1.8,6.1,6.8,9.2,10,13.7c1.6,2.2,4.9,1.4,7,0c8.2-5.7,18.1-8.6,25.8-15"/>
		<path class="st0" d="M540.1,562.1c11.5,4.8,22.9,9.4,31.1,19.8c3,3.8,9.5,4.2,14.1,7.2c7.5,5,14.3,10,19.6,17.8
			c3.3,4.8,10.4,7.4,16.1,10.2c5.2,2.6,10.2,5.1,14.4,9.3c1.3,1.3,3.7,2.1,5.6,2.2c9.1,0.5,14.9,6.2,20.9,12.1
			c1.5,1.5,1.6,3,1.1,3.7c-2.5,3.7-5.2,7.4-9.2,9.3c-4.9,2.2-15.2-1.2-18.6-5.6c-8-10.4-8-10.4,0-20.1"/>
		<path class="st0" d="M481.4,615.1c12.4,2.8,21.8,10.2,30.1,19.3c2.5,2.7,1.4,5.4-0.1,7.9c-3.5,5.7-9.5,9.5-12.1,15.8"/>
		<path class="st0" d="M508.6,542c9.2-0.6,15.1,6.2,22.1,10.3c3.4,2,7.3,4.6,8.9,9c-2.1,3.3-4,6.3-5.9,9.4c-2.5,4-7.1,5.2-10.7,2.1
			c-11.2-9.8-24.7-16.3-36.6-25c-5.1-3.8-9.5-8.2-12.9-13.6c-1.6-2.6-1.7-4.8,0.4-6.4c3.8-3,7.9-5.8,11.8-8.6"/>
		<path class="st0" d="M471.3,531.3c-10.8-2.3-20.9-5.9-28.8-14.2c-1.4-1.4-4.9-0.6-7-1.7c-6.9-3.6-12.5-8.8-17.2-15
			c-1-1.3-1.1-3.1-0.1-5c4.8-9.3,17.8-11.6,25.1-4.3c0.5,0.5,1.1,0.9,1.4,1.4c3.4,6.7,8.2,10,15.8,6.4c3.3-1.6,5.8,1,7.8,2.3
			c6.1,4.2,12.6,8.2,16.6,14.8c0.7,1.1,1.8,2.6,2.8,2.8c9.7,1.3,13.6,9.3,18.5,16c2.4,3.4,3,7.5-1.3,10.7c-2.8,2.1-5.3,4.7-7.9,7.1"
			/>
		<path class="st0" d="M583.1,685.3c9.8,3.3,19.2,7.5,27.3,14.3c5,4.2,10.8,2.2,15.6-0.1c5.3-2.5,9.7-6.4,12.3-12"/>
		<path class="st0" d="M606.7,637.3c-9.1,8.6-18.3,17-26.5,26.5c-2.9,3.3-6.5,5.8-10.7,7.2"/>
		<path class="st0" d="M394.7,516.2c4.4-9.8,11-17,22.2-18.6"/>
		<path class="st0" d="M551.6,594.3c-4.1,6.8-6.9,14.5-12.9,20.1"/>
		<path class="st0" d="M451.3,595.8c-7.7,5.5-14,12.3-19.3,20.1"/>
		<path class="st0" d="M666.9,645.9c5.5,5.7,14.7,5.8,19.3,12.9"/>
		<path class="st0" d="M441.2,551.3c-6,5.7-11.9,11.5-17.9,17.2"/>
		<path class="st0" d="M636.8,652.4c-3.9,6.5-10.1,10.9-15,16.5"/>
		<path class="st0" d="M525.1,575c-3.2,7.4-8.9,13.1-13.3,19.7"/>
		<path class="st0" d="M417.6,863c0,6.7-1.2,13.1-3.6,19.3"/>
		<path class="st0" d="M566.6,635.9c-6.2,6-12.4,11.9-18.6,17.9"/>
		<path class="st0" d="M447.7,587.2c4.2-6.1,7.9-12.5,12.9-17.9"/>
		<path class="st0" d="M548.7,661.7c-2.6,7.4-8.4,12.4-13.6,17.9"/>
		<path class="st0" d="M655.4,654.5c1.3,3.5,2.6,6.9,5.7,9.3c2.1,1.6,2.3,4.4,3.6,6.5"/>
		<path class="st0" d="M386.1,549.9c-5.5,4.3-11,8.6-16.5,12.9"/>
		<path class="st0" d="M490,557.1c-5.3,4.5-12,7.4-15,14.3"/>
		<path class="st0" d="M581.7,615.1c-3.6,4.8-7.2,9.6-10.7,14.3"/>
		<path class="st0" d="M451.3,501.9c-0.6,5.8-5.8,8.9-8.2,13.6"/>
	</g>
	<path class="st0" d="M467.2,175"/>
	<g>
		<path class="st1" d="M619.7,361.1l6.1,2.2l5.6-74.3l-6.1-2.2L619.7,361.1z M590.1,348.2l5.4-72.1l-6.2-2.3l-5.6,74.1l29.6,10.8
			l0.5-7.3c-2.1-0.2-4-0.6-5.8-0.4C602.2,351.6,596.4,352,590.1,348.2 M723.1,324.8c-4.1-2.7-7.9-5.3-11.8-7.8
			c-11.7-7.8-24-3.7-29.8,10.1c-3.5,8.2-4.3,17.8-3.6,27.9c1.5,23.6,14.7,37.3,28.2,38.9c4,0.5,7.9,0,11.8-0.2c0.3,0,0.8-0.5,0.8-1
			c0.2-2,0.3-4,0.5-6.6c-1.5,0.3-2.8,0.4-3.9,0.9c-1.7,0.8-3.2,1.8-4.8,3c-3.5,2.5-7.2,1.8-11.1-0.7c-7.2-4.7-11.7-12.6-13.9-23
			c-2.9-13.9-2.2-27,1.7-38.8c4.5-13.8,14.7-15.9,24.5-5.7c2.3,2.4,4.4,5,6.7,7.3c1.2,1.2,2.5,2,3.9,3L723.1,324.8z M580,272.3
			c-3-2.1-5.8-4-8.6-5.9c-5.8-3.9-11.6-5.3-17.2-3c-6,2.4-8.1,12.1-4.8,20.7c2,5.2,5.2,9,8.2,12.8c4,5,8.1,9.7,11.9,15
			c3.3,4.7,5.5,10.3,4.7,16.8c-0.7,5.5-2.7,9.3-6.5,10.4c-3.8,1.1-7.5,0.4-10.7-4.8c-1.9-3-3.9-5.8-6-8.5c-1.6-2-3.4-3.4-5.4-3.6
			c-0.5,2.7-1,5.2-1.4,7.3c2.8,2.2,5.4,3.9,7.9,6.2c5,4.7,10.2,6.5,15.6,5.8c8.2-1,13.2-9.9,11.7-20.9c-0.8-6.2-3.5-11.2-6.8-15.5
			c-3.9-5.1-8-9.8-11.9-14.9c-2.1-2.7-4.1-5.6-5.7-8.8c-2.7-5.1-2.1-12.4,1-15.7c3.1-3.4,8-2.4,11.2,2.1c2.1,3,4.1,6.2,6.3,9.2
			c1.7,2.3,3.7,3.8,6.1,4.3L580,272.3z M638,291.4l-5.6,74.3l6.5,2.4c-0.3-5.2-0.5-10.1-1.1-15c-1.2-10.6-1.6-21-0.6-31.2
			c0.8-7.7,1.2-15.5,1.8-23.2l0.2-2.4c0.7,1.5,1.2,3,1.6,4.5c7.1,24.6,14.2,49.3,21.3,73.9c0.2,0.8,0.7,2.1,1.1,2.3
			c2,0.9,4,1.5,6,2.3l5.6-74.3l-6.6-2.4c0.3,6.1,0.5,11.9,1,17.7c0.7,8,1.7,16,1.1,23.8c-0.7,9-1.4,18.1-2.1,27.2
			c0,0.6-0.1,1.3-0.3,2.5c-1-3.6-1.9-6.5-2.7-9.4c-6.5-22.7-13.1-45.5-19.7-68.2c-0.3-1-1-2.3-1.6-2.6
			C642.1,292.7,640.1,292.2,638,291.4"/>
		<path class="st1" d="M638,291.4c2.1,0.8,4.1,1.3,6.1,2.3c0.6,0.3,1.3,1.6,1.6,2.6c6.6,22.7,13.1,45.4,19.7,68.2
			c0.8,2.9,1.7,5.8,2.7,9.4c0.1-1.3,0.2-1.9,0.3-2.5c0.7-9.1,1.3-18.2,2.1-27.2c0.6-7.8-0.4-15.8-1.1-23.8c-0.5-5.8-0.7-11.6-1-17.7
			l6.6,2.4l-5.6,74.3c-2-0.7-4-1.3-6-2.3c-0.5-0.2-0.9-1.4-1.1-2.3c-7.1-24.6-14.2-49.3-21.3-73.9c-0.4-1.5-0.9-3-1.6-4.5l-0.2,2.4
			c-0.6,7.8-1,15.6-1.8,23.2c-1,10.2-0.6,20.6,0.6,31.2c0.6,4.9,0.7,9.8,1.1,15l-6.5-2.4L638,291.4z"/>
		<path class="st1" d="M580,272.3l-0.7,9.1c-2.3-0.4-4.4-1.9-6.1-4.3c-2.2-2.9-4.2-6.1-6.3-9.2c-3.2-4.6-8.1-5.5-11.2-2.1
			c-3,3.3-3.6,10.6-1,15.7c1.7,3.2,3.7,6.1,5.7,8.8c3.9,5.1,8,9.8,11.9,14.9c3.3,4.3,5.9,9.3,6.8,15.5c1.5,11-3.5,19.9-11.7,20.9
			c-5.4,0.7-10.6-1.1-15.6-5.8c-2.5-2.3-5.1-4-7.9-6.2c0.4-2.1,0.9-4.7,1.4-7.3c2.1,0.2,3.9,1.6,5.4,3.6c2.1,2.7,4.2,5.5,6,8.5
			c3.2,5.2,6.9,5.8,10.7,4.8c3.9-1.1,5.8-4.9,6.5-10.4c0.9-6.6-1.3-12.1-4.7-16.8c-3.7-5.3-7.9-10-11.9-15
			c-3.1-3.8-6.2-7.6-8.2-12.8c-3.3-8.6-1.2-18.3,4.8-20.7c5.6-2.3,11.4-1,17.2,3C574.2,268.3,577,270.2,580,272.3"/>
		<path class="st1" d="M723.1,324.8l-0.6,7.3c-1.4-1.1-2.7-1.9-3.9-3c-2.3-2.3-4.4-4.9-6.7-7.3c-9.9-10.2-20-8.1-24.5,5.7
			c-3.9,11.8-4.6,24.9-1.7,38.8c2.2,10.3,6.7,18.3,13.9,23c3.9,2.5,7.6,3.3,11.1,0.7c1.5-1.1,3.1-2.2,4.8-3c1.1-0.5,2.4-0.6,3.9-0.9
			c-0.2,2.6-0.3,4.6-0.5,6.6c0,0.4-0.5,1-0.8,1c-3.9,0.1-7.9,0.6-11.8,0.2c-13.5-1.6-26.8-15.2-28.2-38.9
			c-0.6-10.1,0.2-19.7,3.6-27.9c5.8-13.7,18.1-17.8,29.8-10.1C715.2,319.5,719,322.1,723.1,324.8"/>
		<path class="st1" d="M590.1,348.2c6.3,3.8,12.1,3.4,18,2.9c1.8-0.1,3.7,0.3,5.8,0.4l-0.5,7.3L583.7,348l5.6-74.1l6.2,2.3
			L590.1,348.2z"/>
	</g>
	<polygon class="st1" points="625.3,286.8 631.3,289 625.8,363.3 619.7,361.1 	"/>
	<g>
		<path class="st1" d="M677.5,409.2l-3.3-1.2l-0.1,0.8l3.3,1.2L677.5,409.2z M675.3,416.1l0.6-8.4c0-0.5,0.1-0.8,0.3-1
			c0.2-0.2,0.4-0.2,0.6-0.1c0.1,0,0.2,0.1,0.3,0.2c0.1,0.1,0.3,0.2,0.5,0.4l0.3-0.7c-0.2-0.2-0.4-0.4-0.5-0.5
			c-0.2-0.1-0.3-0.2-0.4-0.2c-0.5-0.2-0.9-0.1-1.2,0.1c-0.3,0.3-0.5,0.8-0.5,1.6l-0.6,8.4L675.3,416.1z M669.2,412.8
			c-0.3-0.4-0.5-0.8-0.6-1.4c-0.1-0.5-0.2-1.1-0.1-1.7c0-0.6,0.2-1.1,0.4-1.5c0.2-0.4,0.5-0.7,0.8-0.8c0.3-0.2,0.7-0.2,1.1,0
			c0.4,0.1,0.7,0.4,1,0.8c0.3,0.4,0.5,0.8,0.6,1.4c0.1,0.5,0.2,1.1,0.1,1.7c0,0.6-0.2,1.1-0.4,1.5c-0.2,0.4-0.5,0.7-0.8,0.8
			c-0.3,0.2-0.7,0.2-1.1,0C669.9,413.4,669.5,413.2,669.2,412.8 M671.6,414.4c0.4-0.2,0.8-0.5,1-1.1c0.3-0.5,0.4-1.2,0.5-1.9
			c0.1-0.8,0-1.5-0.2-2.2s-0.5-1.3-0.8-1.7c-0.4-0.5-0.8-0.8-1.3-1c-0.5-0.2-1-0.2-1.4,0c-0.4,0.2-0.8,0.5-1,1.1
			c-0.3,0.5-0.4,1.2-0.5,1.9c-0.1,0.8,0,1.5,0.2,2.2c0.2,0.7,0.5,1.3,0.8,1.7c0.4,0.5,0.8,0.8,1.3,1
			C670.7,414.6,671.2,414.6,671.6,414.4 M666.7,408.5c0.1-1.1,0-2.1-0.4-2.8c-0.4-0.7-0.9-1.2-1.5-1.4c-0.5-0.2-0.9-0.2-1.2,0
			c-0.3,0.2-0.6,0.5-0.8,1.1c-0.2,0.5-0.3,1.2-0.4,2l0.4,0.1c0.1-0.9,0.3-1.6,0.6-2.1c0.3-0.4,0.8-0.5,1.3-0.4
			c0.3,0.1,0.6,0.3,0.8,0.5c0.2,0.2,0.4,0.6,0.5,1.1c0.1,0.5,0.1,1.1,0.1,2L666.7,408.5z M666.4,412.8l0.3-4.3l-0.7,0.2l-0.3,3.9
			L666.4,412.8z M663.3,400.6l-0.7-0.2l-0.8,10.8l0.7,0.2L663.3,400.6z M659.6,410.3c0.3-0.1,0.5-0.2,0.7-0.5
			c0.2-0.3,0.3-0.6,0.3-1.1c0-0.4,0-0.7-0.1-1c-0.1-0.3-0.3-0.7-0.5-1c-0.2-0.3-0.5-0.6-0.9-0.9l-0.5-0.3c-0.3-0.3-0.6-0.5-0.8-0.8
			c-0.2-0.3-0.2-0.5-0.2-0.8c0-0.4,0.2-0.7,0.4-0.8c0.2-0.1,0.5-0.1,0.9,0c0.4,0.1,0.6,0.3,0.9,0.6c0.2,0.2,0.4,0.6,0.4,1l0.6-0.1
			c-0.1-0.4-0.2-0.7-0.3-1c-0.2-0.3-0.4-0.6-0.6-0.8c-0.2-0.2-0.5-0.4-0.8-0.5c-0.7-0.2-1.2-0.2-1.5,0c-0.4,0.3-0.6,0.7-0.6,1.4
			c0,0.4,0.1,0.9,0.3,1.3c0.2,0.4,0.6,0.8,1.1,1.2l0.5,0.4c0.4,0.3,0.6,0.6,0.8,0.9c0.2,0.3,0.3,0.6,0.2,1c0,0.4-0.2,0.7-0.5,0.8
			c-0.3,0.1-0.6,0.1-1,0c-0.3-0.1-0.6-0.3-0.8-0.7c-0.3-0.3-0.4-0.7-0.5-1.1l-0.6,0.1c0.1,0.3,0.2,0.6,0.3,1
			c0.2,0.3,0.4,0.6,0.7,0.9c0.3,0.3,0.6,0.5,1,0.6C659,410.3,659.3,410.4,659.6,410.3 M656,398.2l-0.7-0.2l-0.8,10.6l0.7,0.2
			L656,398.2z M648.6,403c-0.1,1.1,0,2.1,0.4,2.8c0.4,0.7,0.9,1.2,1.5,1.4c0.5,0.2,0.9,0.2,1.2,0s0.6-0.5,0.8-1.1
			c0.2-0.5,0.3-1.2,0.4-2l-0.4-0.1c-0.1,0.9-0.3,1.6-0.6,2c-0.3,0.4-0.7,0.5-1.3,0.4c-0.3-0.1-0.6-0.3-0.8-0.5
			c-0.2-0.2-0.4-0.6-0.5-1.1c-0.1-0.5-0.1-1.1-0.1-2L648.6,403z M649.3,402.8l0.3-3.9l-0.6-0.2l-0.3,4.3L649.3,402.8z M652.9,407.9
			l0.6-7.5l-0.6-0.2l-0.5,6.2l-0.1,1.4L652.9,407.9z M646.4,399.5l-4.6-1.7l-0.1,0.9l4.6,1.7L646.4,399.5z M642.1,393.2l-0.7-0.3
			l-0.8,10.6l0.7,0.3L642.1,393.2z M647.4,395.1l-0.7-0.3l-0.8,10.6l0.7,0.3L647.4,395.1z M636.8,391.2l-0.7-0.2l-0.8,10.6l0.7,0.2
			L636.8,391.2z M634.1,396.4l-4.1-1.5l-0.1,0.8l4.1,1.5L634.1,396.4z M632.8,400.5c0.3-0.1,0.6-0.2,0.8-0.4s0.4-0.5,0.6-0.8
			l-0.5-0.7c-0.2,0.4-0.5,0.7-0.8,0.9c-0.3,0.2-0.7,0.2-1.1,0c-0.4-0.1-0.7-0.4-1-0.8c-0.3-0.4-0.5-0.8-0.6-1.4
			c-0.1-0.5-0.2-1.1-0.1-1.7s0.2-1.1,0.4-1.5c0.2-0.4,0.5-0.7,0.8-0.8c0.3-0.2,0.7-0.2,1,0c0.4,0.1,0.7,0.4,0.9,0.8
			c0.2,0.4,0.4,0.8,0.5,1.4c0.1,0.5,0.1,1.1,0.1,1.7l0.6,0.2c0.1-0.8,0-1.5-0.1-2.2c-0.1-0.7-0.4-1.3-0.7-1.7
			c-0.3-0.5-0.8-0.8-1.3-1c-0.5-0.2-1-0.2-1.4,0c-0.4,0.2-0.8,0.5-1,1.1c-0.3,0.5-0.4,1.2-0.5,1.9c-0.1,0.8,0,1.5,0.2,2.2
			c0.2,0.7,0.5,1.3,0.8,1.7c0.4,0.5,0.8,0.8,1.3,1C632.2,400.6,632.5,400.6,632.8,400.5 M628.3,394.5c0.1-1.1,0-2.1-0.4-2.8
			c-0.4-0.7-0.9-1.2-1.5-1.4c-0.5-0.2-0.9-0.2-1.2,0c-0.3,0.2-0.6,0.5-0.8,1.1c-0.2,0.5-0.3,1.2-0.4,2l0.4,0.1
			c0.1-0.9,0.3-1.6,0.6-2c0.3-0.4,0.7-0.5,1.3-0.4c0.3,0.1,0.6,0.3,0.8,0.5c0.2,0.2,0.4,0.6,0.5,1.1c0.1,0.5,0.1,1.1,0.1,2
			L628.3,394.5z M628,398.9l0.3-4.3l-0.7,0.2l-0.3,3.9L628,398.9z M624.9,386.6l-0.7-0.2l-0.8,10.8l0.7,0.2L624.9,386.6z
			 M621.4,396.1c0.4-0.2,0.8-0.6,1-1.1l-0.5-0.6c-0.2,0.4-0.5,0.7-0.8,0.9c-0.3,0.2-0.7,0.2-1.1,0c-0.4-0.1-0.7-0.4-1-0.8
			c-0.3-0.4-0.5-0.8-0.6-1.4c-0.1-0.5-0.2-1.1-0.1-1.7c0-0.6,0.2-1.1,0.4-1.5c0.2-0.4,0.5-0.7,0.8-0.8c0.3-0.2,0.7-0.2,1.1,0
			c0.4,0.1,0.7,0.4,1,0.7c0.3,0.4,0.5,0.8,0.6,1.3l0.6-0.2c-0.2-0.6-0.4-1.2-0.8-1.7c-0.4-0.5-0.8-0.8-1.3-1c-0.5-0.2-1-0.2-1.4,0
			c-0.4,0.2-0.8,0.5-1,1.1s-0.4,1.2-0.5,1.9c-0.1,0.8,0,1.5,0.2,2.2c0.2,0.7,0.5,1.3,0.8,1.7c0.4,0.5,0.8,0.8,1.3,1
			C620.5,396.3,621,396.3,621.4,396.1 M615.6,393.5c0.4-0.5,0.7-1.2,0.8-2.3l-0.6-0.2c0,0.5-0.1,0.9-0.3,1.3
			c-0.2,0.3-0.4,0.6-0.6,0.7c-0.3,0.1-0.6,0.1-0.9,0c-0.4-0.2-0.7-0.4-1-0.8c-0.2-0.3-0.3-0.8-0.3-1.2c0-0.5,0.2-0.8,0.4-1
			c0.2-0.2,0.6-0.2,1.2,0l1.5,0.6l0.1-0.8l-1.6-0.6c-0.6-0.2-1.1-0.2-1.5,0.1c-0.4,0.3-0.6,0.8-0.7,1.5c-0.1,0.7,0.1,1.4,0.4,1.9
			c0.3,0.5,0.8,0.9,1.4,1.2C614.6,394.1,615.2,394,615.6,393.5 M616.2,394.5l0.3-4c0.1-0.8,0-1.5-0.1-2.1c-0.1-0.6-0.3-1.1-0.6-1.5
			c-0.3-0.4-0.7-0.7-1.2-0.8c-0.3-0.1-0.6-0.2-0.9-0.1c-0.3,0-0.5,0.1-0.7,0.3c-0.2,0.2-0.4,0.4-0.6,0.7l0.6,0.6
			c0.2-0.3,0.4-0.5,0.7-0.6c0.3-0.1,0.6-0.1,0.9,0c0.4,0.1,0.6,0.3,0.8,0.6c0.2,0.3,0.3,0.7,0.4,1.1c0.1,0.5,0.1,1,0,1.6l-0.2,2.9
			l0,1.2L616.2,394.5z M610.9,392.6l-1.7-5.6l-0.6,0.3l1.5,5L610.9,392.6z M607.3,380.4l-0.7-0.3l-0.8,10.6l0.7,0.3L607.3,380.4z
			 M608.3,387.2c0.5,0.2,0.9,0.2,1.3,0.1c0.4-0.1,0.7-0.4,1-0.8c0.3-0.4,0.4-0.9,0.5-1.5c0-0.6,0-1.2-0.2-1.7
			c-0.2-0.5-0.4-1-0.8-1.4c-0.3-0.4-0.8-0.7-1.2-0.9l-1.6-0.6l-0.1,0.9l1.6,0.6c0.5,0.2,0.9,0.5,1.2,1.1c0.3,0.5,0.4,1.1,0.4,1.8
			c0,0.4-0.1,0.8-0.3,1.1c-0.2,0.3-0.4,0.5-0.6,0.6s-0.5,0.1-0.8,0l-1.8-0.7l-0.1,0.9L608.3,387.2z M599.6,388.5l-0.1-0.7l-1.6-7.7
			l-0.7-0.2l1.7,8.4L599.6,388.5z M598.1,391c0.2-0.1,0.4-0.2,0.6-0.5s0.3-0.6,0.5-0.9l3.3-7.8l-0.7-0.2l-2.6,6.2l-0.8,1.8
			c-0.1,0.3-0.2,0.4-0.4,0.5c-0.1,0.1-0.3,0.1-0.5,0.1c-0.1,0-0.2-0.1-0.3-0.2c-0.1-0.1-0.3-0.2-0.5-0.4l-0.3,0.7
			c0.2,0.2,0.4,0.4,0.5,0.5c0.2,0.1,0.3,0.2,0.4,0.2C597.6,391.1,597.9,391.1,598.1,391 M592.7,384.9c-0.2-0.4-0.4-0.8-0.5-1.3
			c-0.1-0.5-0.2-1.1-0.1-1.7s0.2-1.1,0.4-1.5c0.2-0.4,0.4-0.7,0.7-0.9c0.3-0.2,0.6-0.2,1-0.1c0.4,0.1,0.7,0.4,1,0.8
			c0.3,0.4,0.5,0.8,0.6,1.4c0.1,0.5,0.2,1.1,0.1,1.7s-0.2,1.1-0.4,1.5c-0.2,0.4-0.5,0.7-0.8,0.9c-0.3,0.2-0.7,0.2-1,0
			C593.2,385.5,592.9,385.3,592.7,384.9 M595,386.5c0.4-0.2,0.7-0.6,1-1.1c0.3-0.5,0.4-1.2,0.5-1.9c0.1-0.8,0-1.5-0.2-2.2
			c-0.2-0.7-0.4-1.2-0.8-1.7c-0.3-0.5-0.8-0.8-1.2-1c-0.5-0.2-0.9-0.1-1.3,0.1c-0.4,0.2-0.7,0.6-0.9,1.1c-0.2,0.5-0.4,1.2-0.5,1.9
			c-0.1,0.8,0,1.5,0.1,2.1c0.2,0.7,0.4,1.2,0.7,1.7c0.3,0.5,0.7,0.8,1.2,0.9C594.1,386.7,594.6,386.7,595,386.5 M591.7,385.6
			l0.1-1.4l0.7-9.2l-0.6-0.2l-0.8,10.6L591.7,385.6z"/>
		<path class="st1" d="M582.8,376.6l0.2-2l1.2,0.4c0.1,0,0.2,0.1,0.4,0.2c0.1,0.1,0.2,0.2,0.3,0.3c0.1,0.1,0.2,0.2,0.2,0.4
			c0.1,0.2,0.1,0.3,0.1,0.6c0,0.3-0.1,0.5-0.2,0.6c-0.1,0.1-0.2,0.2-0.4,0.2c-0.2,0-0.3,0-0.5-0.1l-0.5-0.2L582.8,376.6z
			 M584.2,377.7c0.2,0.1,0.4,0.1,0.5,0.1c0.2,0,0.3,0,0.4-0.1c0.1-0.1,0.2-0.2,0.3-0.4c0.1-0.2,0.1-0.4,0.2-0.7c0-0.5,0-0.9-0.2-1.2
			c-0.2-0.3-0.6-0.6-1.1-0.8l-1.8-0.7l-0.4,5.7l0.5,0.2l0.2-2.6l0.9,0.3l1,3.1l0.6,0.2L584.2,377.7z M582.1,380.9
			c-0.4-0.4-0.7-0.8-0.9-1.3c-0.2-0.5-0.4-1-0.5-1.6s-0.1-1.2-0.1-1.8c0-0.6,0.2-1.2,0.4-1.7c0.2-0.5,0.4-0.9,0.8-1.2
			c0.3-0.3,0.7-0.5,1.1-0.6c0.4-0.1,0.8-0.1,1.3,0.1c0.4,0.2,0.9,0.4,1.2,0.8c0.4,0.4,0.7,0.8,0.9,1.3s0.4,1,0.5,1.6
			c0.1,0.6,0.1,1.2,0.1,1.8c0,0.6-0.2,1.2-0.4,1.7s-0.4,0.9-0.7,1.2c-0.3,0.3-0.7,0.5-1,0.6c-0.4,0.1-0.8,0.1-1.3-0.1
			C582.9,381.5,582.4,381.3,582.1,380.9 M584.7,382.5c0.5-0.1,0.9-0.3,1.3-0.7c0.4-0.3,0.7-0.8,0.9-1.3c0.2-0.6,0.4-1.2,0.4-1.9
			c0.1-0.7,0-1.4-0.1-2.1c-0.1-0.7-0.4-1.3-0.7-1.9c-0.3-0.6-0.7-1.1-1.1-1.5c-0.4-0.4-0.9-0.7-1.4-0.9c-0.5-0.2-1-0.2-1.5-0.1
			c-0.5,0.1-0.9,0.3-1.3,0.7c-0.4,0.3-0.7,0.8-0.9,1.3c-0.2,0.6-0.4,1.2-0.4,1.9c-0.1,0.7,0,1.4,0.1,2.1s0.4,1.3,0.7,1.9
			s0.7,1.1,1.1,1.5s0.9,0.7,1.4,0.9C583.8,382.5,584.2,382.6,584.7,382.5"/>
	</g>
</g>
</svg>
