<?xml version="1.0" encoding="utf-8"?>
<!-- Generator: Adobe Illustrator 28.0.0, SVG Export Plug-In . SVG Version: 6.00 Build 0)  -->
<svg version="1.1" id="Laag_1" xmlns="http://www.w3.org/2000/svg" xmlns:xlink="http://www.w3.org/1999/xlink" x="0px" y="0px"
	 viewBox="0 0 1000 1000" style="enable-background:new 0 0 1000 1000;" xml:space="preserve">
<style type="text/css">
	.st0{fill:none;stroke:#4A4A49;stroke-width:4;stroke-linecap:round;stroke-linejoin:round;stroke-miterlimit:10;}
</style>
<g>
	<g>
		<path class="st0" d="M247.4,628.6c14.3-5.3,28.9-10,41.5-19.2c12.7-9.2,23.8-19.9,30.6-34.3c7.5-15.8,22.1-23.2,36.5-30.6
			c26.5-13.8,55.2-21.9,83.5-30.6c34.1-10.5,68.5-19.9,102.7-30.2c34.1-10.2,67.9-21.3,102.1-31.2c27.2-7.8,54.5-15.2,82.1-21.3
			c17.2-3.8,34.8-6.5,52-10.4c30.3-6.8,60.3-15.1,88.5-28.5c4.4-2.1,8.4-4.7,12.2-7.8c10.8-8.7,13.4-26.1-2.1-35.8
			c-12.4-7.7-25.6-10.4-40-10c-27.5,0.7-52.2,10.6-76.4,22.3c-35.4,17-70.5,34.6-106.4,50.7c-26.4,11.9-53.4,22.3-80.7,32.1
			c-39,13.9-77.9,28.1-117.1,41.3c-36,12.1-71.4,25.5-107.7,36.8c-14.9,4.7-27.7,4.9-41-4.9c-9.8-7.3-22.8-8-34.8-8.7
			c-28.4-1.6-56.5,0.4-83.5,10.5c-22.4,8.3-42.4,20-57.1,39.3c-12.1,15.9-9.9,37.2,1.5,54.2c7.2,10.6,17.6,17.5,29.8,21.5
			C166.5,634.5,211,642.2,247.4,628.6z"/>
	</g>
	<path class="st0" d="M163.9,619.5c0,0,32.9,22,94.2-8c61.4-30,71.2-63.6,28.6-83.6"/>
	<path class="st0" d="M800.7,353.8c0,0,41.2-14.3,64.2,0"/>
	<path class="st0" d="M249.6,518c0,0-42.8-0.6-85.7,28.6"/>
	<path class="st0" d="M520.8,479.4c0,0,122.8-35.7,169.9-48.5"/>
</g>
</svg>
