<?xml version="1.0" encoding="utf-8"?>
<!-- Generator: Adobe Illustrator 28.0.0, SVG Export Plug-In . SVG Version: 6.00 Build 0)  -->
<svg version="1.1" id="Laag_1" xmlns="http://www.w3.org/2000/svg" xmlns:xlink="http://www.w3.org/1999/xlink" x="0px" y="0px"
	 viewBox="0 0 1000 1000" style="enable-background:new 0 0 1000 1000;" xml:space="preserve">
<style type="text/css">
	.st0{fill:none;stroke:#4A4A49;stroke-width:4;stroke-linecap:round;stroke-linejoin:round;stroke-miterlimit:10;}
</style>
<path class="st0" d="M367.5,157.5c-5.7-2.7-10.9-0.8-15.7,2.1c-40.5,25.2-75.6,56.3-100.4,97.5c-17.3,28.8-28.5,60.5-36.9,93.1
	c-6.6,25.5-12.3,51.4-14.1,77.6c-1.9,26.4-4.1,52.8-1,79.6c4,34.8,10.2,68.8,22.5,101.5c12.4,32.9,30.9,62.3,53.5,89
	c26.9,31.9,59.3,57,97.4,74.4c25.1,11.5,50.8,20.9,78.5,24.4c23.9,3,47.4,2.3,71.3,0c37.5-3.6,73.9-11.6,108.9-25.4
	c49.7-19.7,98.3-41.7,140.2-75.6c23.3-18.9,41-42.7,47.2-73.1c2.4-11.7,7.1-23.7,0.2-35.6"/>
<path class="st0" d="M369.2,156.7c2.1,6.9-2.3,11.2-7,15.4c-16.6,15.1-29.1,33.5-38.5,53.6c-12.3,26.4-21.7,53.8-23.9,83.6
	c-1.4,18.6-2.4,37.2-1.1,55.5c1.9,26.6,9,52.5,18.5,77.5c15.6,41.2,34.4,80.4,64.8,113.2c23.5,25.3,51.3,44,82.3,58.6
	c36.3,17.2,74.5,29.1,113.7,36.8c28.2,5.6,56.9,6.7,85.9,3.3c37-4.4,72.2-13.7,105.8-29.5c5-2.3,9-5.8,14.1-8.6
	c-3.1-5.8-5.5-7.6-12.3-3.5c-8.9,5.3-19.3,8-29.1,11.9"/>
<path class="st0" d="M195.7,555.5c4.2,30.9,16.6,59,29.4,86.9c1.4,3,3.4,5.6,5.2,8.4"/>
<path class="st0" d="M813.7,570.2c-5.9,12.2-15.8,21.1-25.2,30.3c-3.3,3.2-8.3,4.8-8.3,10.6"/>
<path class="st0" d="M809.3,594.1c-7.4,8-14.3,16.9-24.9,21.1"/>
<path id="path28_00000111870863658173658880000016813800123214820491_" class="st0" d="M507.3,313.6c9.9-3.7,15.9,27.3,19.4,34.3
	c3.5,9.8,27.2,3.3,36.5,5.4c19.5,6.2-25.9,28.8-24.4,37.4c17.9,44.8,2.7,41.2-24.6,12.1c-9.4-3.3-19.5,14.6-28.6,17.3
	c-15.9,9.2-12.1-3.7-11.7-4.9c3.1-11.4,20.1-26.1,5.5-35.7c-8-7.4-14.1-12-24.2-20.2c-5.6-2.3-2.1-7.7,2.2-6.9
	C507.8,352.4,485,354,507.3,313.6z"/>
<path id="path28_00000106842438117959037350000008454602132441175950_" class="st0" d="M583.5,245c6.2-4.1,15,16.2,18.5,20.3
	c3.9,6.1,19.1-2,25.7-1.9c14.2,1.2-13.2,23.6-10.8,29.3c19.1,27.8,8.2,27.6-14.9,12c-7-0.8-11,13-16.8,16.2
	c-9.4,8.7-8.8-0.6-8.7-1.5c0.4-8.3,9.7-20.9-1.8-25.2c-6.6-3.8-11.5-6-19.6-10c-4.2-0.7-2.6-4.9,0.4-5
	C589.8,271.4,574.5,276,583.5,245z"/>
<path id="path28_00000081633457465198388060000009598324105899513023_" class="st0" d="M661.8,427.1c9.7-0.7,6.9,28.4,8.1,35.4
	c0.5,9.6,23.2,10.1,30.9,14.5c15.6,10.6-30.5,18.6-31.5,26.7c4,44.4-8.5,37.1-25,4.2c-7.5-5.4-21.1,7.8-29.9,7.7
	c-16.5,3.9-9.8-6.5-9-7.4c5.8-9.3,24.7-17.8,14.3-30.1c-5.1-8.6-9.3-14.4-16.1-24.2c-4.4-3.5,0.2-7.4,3.8-5.5
	C651.9,461.6,631.4,456.9,661.8,427.1z"/>
</svg>
