<?xml version="1.0" encoding="utf-8"?>
<!-- Generator: Adobe Illustrator 28.0.0, SVG Export Plug-In . SVG Version: 6.00 Build 0)  -->
<svg version="1.1" id="Laag_1" xmlns="http://www.w3.org/2000/svg" xmlns:xlink="http://www.w3.org/1999/xlink" x="0px" y="0px"
	 viewBox="0 0 1000 1000" style="enable-background:new 0 0 1000 1000;" xml:space="preserve">
<style type="text/css">
	.st0{fill:none;stroke:#4A4A49;stroke-width:4;stroke-linecap:round;stroke-linejoin:round;stroke-miterlimit:10;}
</style>
<path class="st0" d="M88.6,236.1c4.2,14.2,5.3,28.9,5.6,43.5c1.7,71.6-1.6,143-7,214.4c-3.9,50.8-0.8,101.5,2.8,152.1
	c1.9,27.5,0.5,55.2,4.4,82.6c5,36.2,24.2,50.1,58,54.8c123.7,16.9,248.1,9.6,372.3,10c56,0.2,112-4.1,168.1-6.9
	c60.5-3,120.9-6.8,181.1-13.2c29.6-3.1,39.5-22,40.4-51.9c1.2-39.2-2.7-78.3-5.2-117.4c-3.6-55.9-7.7-111.8-6.5-168
	c1.4-65.4-0.6-130.8-11.2-195.6c-2.7-16.4-9.9-23.9-27.6-27.6c-21.6-4.5-42.6,1.2-63.7,3.1c-20.3,1.8-40.5,1.6-60.9,0
	c-35.7-2.9-71.5-4.5-107.2-7.5c-31.9-2.7-63.8-3.8-95.6-2.5c-39.2,1.6-78.2,5.1-117.4,7.7c-44.9,3.1-89.6,5-134.8,1.3
	c-48.6-4.1-97.4-10.2-146.3-2.1c-18.5,3.1-35.9,7.6-49.2,21.9"/>
<path class="st0" d="M397.2,259.3c-47.3,2.9-94.6,6.3-142,8.5c-19.9,0.9-39.6-3.7-59.4-6.1c-12.9-1.5-25.8-2.9-37.9,6
	c-6.3,4.6-8.1,10.1-8.3,16.3c-1.9,62.3-2.2,124.6,2.1,186.9c2.3,32.6,5.3,65.4,2.8,98.5c-2.2,29.4,1.5,59.1,7.2,88.3
	c1.7,8.6,2.5,17.4,3.7,26.1c2.3,17.4,7.2,23.7,24.7,25.9c29.4,3.7,59,5.4,88.3,9c111.2,13.5,223,11.1,334.7,11.8
	c27.2,0.2,53.8-0.5,79.7-9.1c15.7-5.2,21.1-12.5,21.7-28.9c2.5-66.8,2.5-133.4-5.5-200c-2.6-21.5-3.1-43.4-2.9-65.2
	c0.2-27.7-2.6-55.1-4.7-82.6c-1.1-14.5,3.1-28.8,0.4-43.5c-2.8-15.3-12.6-23.5-26.4-22.8c-42.2,2.3-83.1-8-124.6-11.8
	c-28.9-2.6-57.9-4.4-86.9-5.8c-21.7-1.1-43.5-1.1-65.2-1.6"/>
<path class="st0" d="M829,650.4c-0.5,9.6-9.5,7.1-14.6,10c-5.8,3.2-14.2,3-13,13.2c1.2,10.2,3.7,19.2,14.6,23.2
	c8.6,3.1,15.7,1.2,21.8-5.7c3.4-3.9,4.6-8.6,5.5-13.1c0.8-4,2.6-4.8,6-4.3"/>
<path class="st0" d="M455.2,420.1c-14.5,13.8-21.8,33-35,47.6c-11.4,12.7-19.5,28.5-34.6,37.9"/>
<path class="st0" d="M815.9,567.9c-3.3,1.2-6.2,2.9-10.1,3.1c-14,0.8-20.2,11.6-14.5,24.4c5.7,13,20.6,21.1,30.4,16.7
	c11.3-5.1,16.3-24.2,10.3-37c-2.8-6-7.5-7.1-13.2-7.2"/>
<path class="st0" d="M811.6,463.5c-8.7,1.4-17.5,2.3-26,4.5c-19.8,5-26.8,21.5-19.1,40.5c6.3,15.6,31.1,24,43.7,20.2
	c17.3-5.2,33.1-27.6,30.4-43.5c-2.3-13.5-10.4-20-27.5-21.7"/>
</svg>
