<?xml version="1.0" encoding="utf-8"?>
<!-- Generator: Adobe Illustrator 28.0.0, SVG Export Plug-In . SVG Version: 6.00 Build 0)  -->
<svg version="1.1" id="Laag_1" xmlns="http://www.w3.org/2000/svg" xmlns:xlink="http://www.w3.org/1999/xlink" x="0px" y="0px"
	 viewBox="0 0 1000 1000" style="enable-background:new 0 0 1000 1000;" xml:space="preserve">
<style type="text/css">
	.st0{fill:none;stroke:#4A4A49;stroke-width:4;stroke-linecap:round;stroke-linejoin:round;stroke-miterlimit:10;}
</style>
<g>
	<path class="st0" d="M480.7,644.9c0,0,4,155.8-8.1,227.6"/>
	<path class="st0" d="M661.3,183.7c11,9.4,31.1,25.8,42.3,36.4c28.9,27.2,50.5,59.1,57.2,99c8.1,48.8,3,96.7-16.3,142.3
		C705.8,553,638.2,612.2,541.4,637.1c-48.7,12.5-95.5,5-140.6-15.6c-36.8-16.8-69.6-40-99.8-66.5c-35-30.7-53.6-71-60.7-116.4
		c-5.4-34.4-6.9-69.1-0.6-103.5c11.9-65,45.8-115.9,100-153.5c14.3-9.9,28.4-20.7,43.9-28.3c20.8-10.2,42.3-19.6,66.1-21.1
		c15.4-1,30.7-3.7,46.2-4.5c42.3-2.3,81.6,8.3,118.1,29.5c11.7,6.8,23.4,13.4,35.8,20.5"/>
	<path class="st0" d="M364.4,750.2c3.7-1.2,181.2,19.6,233.8,0"/>
</g>
</svg>
