<?xml version="1.0" encoding="UTF-8"?>
<svg id="Laag_1" data-name="Laag 1" xmlns="http://www.w3.org/2000/svg" viewBox="0 0 39.97 41.98">
  <defs>
    <style>
      .cls-1 {
        fill: #494948;
        stroke-width: 0px;
      }
    </style>
  </defs>
  <path class="cls-1" d="M16.89,41.98l-.09-.32c-.06-.22-.15-.44-.25-.67-.15-.36-.33-.78-.41-1.25-.39-2.27-.87-4.71-1.45-7.45-.25-1.15-.41-1.91-.7-2.08-.3-.18-1.05.03-2.29.37-1.79.5-3.51.93-5.23,1.37l-2.55.65-.1-.36c-.04-.16-.12-.3-.2-.45-.07-.14-.15-.27-.2-.42-.39-1.09-.74-2.21-1.08-3.29-.52-1.67-1.06-3.41-1.77-5.04-.04-.1-.1-.21-.15-.32-.26-.51-.61-1.21-.29-2.03.6-1.58,1.77-2.65,2.9-3.69.3-.28.6-.55.89-.84.22-.22.58-.23.83-.24,1.35-.03,2.57-.43,3.87-.85.63-.2,1.28-.41,1.93-.58-.22-.88-.41-1.76-.59-2.63-.26-1.21-.53-2.47-.87-3.67-.24-.82-.36-1.79.55-2.71,1.93-1.97,3.92-4,6.97-4.47.71-.11,1.42-.26,2.1-.41l.33-.07c.96-.21,1.95-.31,2.9-.42l.8-.09c.25-.03,1.01-.12,1.17.79,0,.05.02.1.04.14.03.12.08.29.04.48.04.03.07.06.09.1.56.87.71,1.82.85,2.74.08.49.15.95.28,1.4.3,1.04.56,2.11.81,3.15.14.59.28,1.17.43,1.75.13.5.3.84.54,1.09.18-.07.38-.13.62-.17,1.7-.29,3.44-.41,5.12-.53.72-.05,1.43-.1,2.14-.16.16-.01.35-.07.55-.13.55-.17,1.31-.4,1.97.36.07,0,.14.03.2.08.97.79,1.13,1.91,1.27,2.9.02.17.05.35.08.52.19,1.13.35,2.27.51,3.4.16,1.11.32,2.22.5,3.32.08.47,0,.85-.23,1.14l-.43.56c-.84,1.1-1.71,2.23-2.81,3.16-.52.44-1.2.55-1.79.6-2.01.17-3.78.49-5.39.98.43,1.28.84,2.66.83,4.15,0,.21-.17.37-.38.37h0c-.21,0-.38-.17-.37-.38,0-.29-.02-.58-.05-.87-.78.38-1.17,1.14-1.59,1.94l-.11.2c-.1.18-.32.25-.51.16-.18-.1-.25-.32-.16-.51l.11-.2c.13-.25.27-.51.42-.77-.05.03-.11.05-.16.05,0,.01-.01.03-.02.04-.13.28-.31.44-.53.47.05.25.1.5.16.74.12.53.22,1.06.31,1.59.03.19.07.37.1.56l1.86-2.18c.13-.16.37-.18.53-.04,0,0,.02.01.02.02.04-.09.11-.17.21-.21.2-.08.41.01.49.21.39.96.25,1.87-.41,2.71-.42.54-.73,1.03-.92,1.5-.5,1.2-1.31,1.97-2.55,2.42-2.74,1-5.72,1.71-9.36,2.26l-.33.05ZM13.69,29.39c.27,0,.49.05.69.17.57.34.74,1.13,1.04,2.57.59,2.76,1.06,5.21,1.46,7.48.07.39.22.74.36,1.09.06.15.13.3.18.45,3.45-.53,6.29-1.23,8.91-2.18.42-.15.78-.35,1.09-.59-.45-1.16-.67-2.38-.89-3.56-.1-.52-.19-1.04-.31-1.56-.26-1.18-.49-2.39-.71-3.56-.09-.51-.19-1.02-.29-1.53-.04-.2.09-.4.3-.44.12-.02.23,0,.31.08.28-.2.58-.34.88-.47l.3-.14c.44-.21.88-.18,1.27-.15.23.02.45.04.62-.02,1.71-.54,3.59-.89,5.73-1.07.48-.04,1.01-.12,1.37-.42l.12-.11s-.04-.06-.05-.1c-.25-.86-.32-1.75-.39-2.61-.08-1.01-.16-1.96-.5-2.88-.25-.65-.28-1.25-.12-1.78-.05-.03-.09-.08-.12-.14-.36-.7-.51-1.45-.65-2.18-.02-.13-.05-.26-.07-.38-.21.08-.44.15-.69.21-1.83.43-3.69.76-5.5,1.09-1.11.2-2.22.4-3.33.62-.88.17-1.07-.17-1.29-.76l-.04-.1c-.67-1.79-1.37-3.64-1.82-5.57-.17-.73-.35-1.46-.54-2.18-.15-.58-.29-1.15-.43-1.73-.03-.13-.06-.26-.08-.39-.03-.16-.06-.32-.1-.47-.08-.28-.19-.7-.13-1.14-.81-.01-1.61.17-2.45.37-.56.13-1.14.27-1.73.34-.84.1-1.68.24-2.52.38-.71.12-1.42.23-2.13.33-.45.06-.98.13-1.45-.17-.43.55-.39,1.08-.19,1.78.35,1.23.63,2.5.89,3.72.35,1.64.71,3.34,1.28,4.95.21.59.21,1.04.02,1.41-.28.53-.9.76-1.48.92-1.23.34-2.49.53-3.72.72-1.49.23-3.03.46-4.48.96-.34.12-.7.04-1.02-.02-.11-.02-.22-.04-.32-.06-.05.12-.11.24-.15.36-.2.51.03.96.26,1.43.06.12.12.24.17.35.73,1.67,1.27,3.42,1.8,5.12.33,1.08.68,2.19,1.07,3.26.04.11.1.21.15.31.04.08.09.17.14.26l1.86-.47c1.71-.43,3.43-.87,5.13-1.34,1.07-.29,1.76-.49,2.28-.49ZM27.54,36.11c.12.56.27,1.12.45,1.67.18-.24.32-.51.45-.81.22-.54.56-1.08,1.03-1.68.46-.59.58-1.15.37-1.79-.01.02-.02.04-.04.06l-2.08,2.45c-.05.06-.11.09-.17.11ZM26.5,30.91c.04.22.09.45.13.67,0,0,0-.01,0-.02.07-.15.26-.55.74-.46.19.04.32.21.3.41.37-.54.84-1.03,1.54-1.31-.16-.83-.41-1.62-.67-2.39-.11,0-.22-.01-.33-.02-.32-.02-.62-.05-.88.08l-.32.15c-.35.16-.67.31-.94.54,0,0-.01.01-.02.02.06.33.12.65.18.98.04.19.07.38.11.56.14-.11.25-.29.38-.52.2-.35.44-.75.93-.94.2-.07.41.03.48.22.07.19-.02.41-.22.48-.24.09-.38.33-.54.61-.19.33-.42.73-.88.92ZM36.53,23.85c.04.34.1.68.18,1.01.72-.73,1.35-1.56,1.97-2.36l.44-.57c.07-.09.13-.23.08-.56-.18-1.11-.34-2.22-.5-3.34-.16-1.13-.32-2.26-.51-3.39-.03-.18-.05-.35-.08-.53-.12-.82-.23-1.6-.75-2.19,0,.07-.03.14-.08.2-.19.24-.4.45-.62.66-.39.39-.77.76-.97,1.3-.14.38-.4.69-.78.95.04.2.08.39.12.59.12.6.23,1.17.45,1.71.15-.18.33-.34.55-.49.04-.03.1-.16.15-.25.04-.08.08-.17.12-.24.11-.18.34-.23.51-.13.18.11.23.34.13.52-.03.05-.06.12-.09.18-.09.19-.19.4-.39.54-.59.42-.83.94-.73,1.6l.84-1.03c.13-.16.37-.18.53-.05.16.13.18.37.05.53l-1.1,1.35s-.04.04-.06.06c.03.1.06.2.09.3l.99-1.21c.13-.16.37-.18.53-.05.16.13.18.37.05.53l-1.1,1.35c-.08.09-.21.14-.3.14.02.12.04.23.05.35.26.02.33-.11.55-.45.2-.3.44-.68.93-.77.21-.04.4.1.44.3.04.2-.09.4-.3.44-.17.03-.28.19-.45.44-.21.32-.5.76-1.09.79.02.21.04.41.05.61,0,.12.02.23.03.35.21-.17.39-.4.58-.64.29-.38.62-.8,1.14-1.04.19-.09.41,0,.5.19.09.19,0,.41-.18.5-.35.16-.6.48-.86.82-.29.38-.6.77-1.08,1.01ZM1.36,19.89s.06.01.09.02c.24.05.48.1.63.05,1.51-.51,3.08-.76,4.6-.99,1.2-.18,2.45-.37,3.63-.7.58-.16.9-.33,1.01-.54.09-.17.07-.44-.06-.81-.2-.56-.37-1.12-.53-1.69-.64.16-1.27.36-1.89.57-1.29.42-2.62.85-4.06.89-.12,0-.31,0-.37.04-.28.28-.58.56-.89.84-.81.75-1.59,1.46-2.16,2.34ZM24.04,16.11s.02.05.03.07l.04.1c.05.13.11.29.14.32,0,0,.06,0,.3-.04,1.11-.22,2.23-.42,3.34-.63,1.8-.33,3.65-.66,5.46-1.08.92-.21,1.46-.55,1.64-1.03.26-.69.71-1.13,1.14-1.57.19-.19.39-.38.56-.6.04-.05.09-.09.15-.11,0,0-.01-.01-.02-.02-.32-.38-.63-.31-1.18-.14-.23.07-.46.14-.7.16-.72.06-1.44.11-2.16.16-1.66.11-3.38.23-5.04.52-.56.1-.83.27-1.1.71-.61.98-1.28,1.9-1.98,2.84-.15.21-.4.27-.59.33,0,0-.02,0-.02,0ZM23.14,13.63c.2.6.42,1.19.64,1.77.03,0,.06-.02.09-.03.07-.02.17-.05.2-.07.67-.91,1.33-1.81,1.92-2.77.11-.18.23-.33.36-.46-.37-.42-.53-.92-.63-1.32-.15-.59-.29-1.18-.44-1.76-.25-1.03-.51-2.09-.8-3.12-.14-.49-.22-1-.3-1.49-.13-.85-.26-1.66-.69-2.37-.42.33-.74.78-1.07,1.25-.33.46-.66.93-1.12,1.32-.41.34-.33.76-.18,1.32.05.17.08.35.12.52.02.12.05.24.08.36.14.58.28,1.15.43,1.72.16.64.32,1.27.47,1.91l.65-.73c.14-.15.37-.17.53-.03.15.14.17.38.03.53l-.98,1.1s-.01.01-.02.02c.13.51.28,1.01.44,1.51l1.22-1.41c.14-.16.37-.17.53-.04.16.14.17.37.04.53l-1.51,1.75ZM10.53,5.64c.19.06.43.04.74,0,.77-.1,1.47-.22,2.17-.33.85-.14,1.7-.28,2.55-.38.55-.06,1.11-.2,1.65-.32.94-.22,1.91-.45,2.94-.37.06-.08.14-.15.22-.22.38-.32.68-.74.99-1.18.39-.54.79-1.1,1.38-1.51.06-.05.04-.12.03-.16-.02-.07-.04-.14-.05-.21-.03-.19-.04-.21-.34-.17l-.81.09c-.94.1-1.9.21-2.83.41l-.33.07c-.7.15-1.42.31-2.15.42-2.61.41-4.45,2.13-6.18,3.89Z"/>
</svg>