<?xml version="1.0" encoding="utf-8"?>
<!-- Generator: Adobe Illustrator 28.0.0, SVG Export Plug-In . SVG Version: 6.00 Build 0)  -->
<svg version="1.1" id="Laag_1" xmlns="http://www.w3.org/2000/svg" xmlns:xlink="http://www.w3.org/1999/xlink" x="0px" y="0px"
	 viewBox="0 0 1000 1000" style="enable-background:new 0 0 1000 1000;" xml:space="preserve">
<style type="text/css">
	.st0{fill:none;stroke:#4A4A49;stroke-width:4;stroke-linecap:round;stroke-linejoin:round;stroke-miterlimit:10;}
</style>
<g>
	<path class="st0" d="M499.5,195.4c20.3,1.5,40.7,0.8,60.8-1.5c13.1-1.5,26,1.2,38.9-1c5.1-0.8,8.3,2.4,11,6.5
		c5.5,8.4,12.2,16.1,16.5,25.1c4.9,10.2,11.9,19.2,15.7,29.9c1.5,4.3,5.9,6.4,8.1,10.3c3,5.5,7.8,10.5,5.1,17.6"/>
	<path class="st0" d="M497.3,195.7c-7.7-1.2-15,2.6-22.8,0.9c-12.9-2.8-25.9-0.3-38.8-0.3c-10.3,0-20.6,0.8-30.8,0
		c-4.1-0.3-6.8,0.4-9.6,3.1c-6.7,6.7-11.9,14.5-17.6,22c-7.6,9.9-16.3,19-24,28.8c-7.3,9.2-15.8,17.5-20.7,28.5
		c-0.8,1.7-1.8,2.5-3.7,3c-3.8,1.1-5.1,4.5-4.3,7.9c2.2,10.4,1.8,21.1,3.6,31.5c0.1,0.7,0.2,1.5,0,2.2c-4.7,12.2-0.3,25.2-3.2,37.3
		c-2,8.7,2.8,376.4-0.6,384.8"/>
	<path class="st0" d="M576.4,234.6c11.8,11.3,26.6,18.7,39.3,29c8.7,7.4,28.7,11.3,33.3,20.1"/>
	<path class="st0" d="M671.8,742.7c5.2,0.3,3.1,4.5,2.8,6.6c-3.3,19-0.5,38.2-1.1,57.2c0.3,8.2,5.4,22-7.5,22.9
		c-33.8,5.4-66.4,16.9-99.8,23.9c-7.2,1.8-15,6.4-22,1.6"/>
	<path class="st0" d="M603.6,194.3c-2.8,8.4-11.1,12.5-15.5,19.7c-3.1,4.9-7.3,9-9.5,14.7c-1.7,4.3-7.2,6.1-9.1,9.7
		c-6,11.1-16.7,18.6-22.3,29.9c-2.6,5.4-9,8.9-8.1,16.1"/>
	<path class="st0" d="M673.2,742c1.6-16.5-0.9-33.2-0.4-49.9c0,0-2-393-1.8-401c-4.2-2.8-8.3-5.8-13.2-7.3l-19.1,3.3
		c-8.4,0.5-17.4,1.5-25.6,2.5c-6.6-5.5-13.7-1.5-20.6-1.4c-1,0-2,0.2-2.9,0c-16.9-5-34.2-0.3-51.3-2.9"/>
	<path class="st0" d="M351.4,532.4c7.8-1.1,15,2.4,22.7,2.5c12.7,0.2,25.6,0.6,38.1,2.3c11.5,1.5,23.3,1.6,34.4,4.3
		c16.5,4.1,33.7,2.1,50,6.9c1.5,0.4,3.4-0.4,5.1-0.6"/>
	<path class="st0" d="M437.1,148.1c-10,0.5-20,1-30.1,1.4c-4,0.2-5.2,2.2-5.2,5.9c0.1,13.2,0,26.4,0,39.6"/>
	<path class="st0" d="M423.2,449.1c9.5,1.1,19.2-0.9,28.6,1.2c16.2,3.5,32.9,0.9,49.2,3.5c3,0.5,6.3-0.8,9.5-1.3"/>
	<path class="st0" d="M349.9,445.8c11.5,0,22.9,2.9,34.5,2.2c11.8-0.2,24.6-2.3,36,1.4c1.9,0.8,2.4-1.1,2.1-2.8"/>
	<path class="st0" d="M537.6,285.9c-7.6,0-15.2,0-22.7,0h-17.6c-12.6,2.3-63.4,1.3-70.4-0.7c0,0-56.2-1-74-3
		c-2.2-0.2-4.1-0.2-3.7,2.9"/>
	<path class="st0" d="M602.8,192.8c0.5-12.7,0.7-25.4,1.6-38.1c0.7-9.6-0.8-12.1-10.4-11.7c-19.8,0.9-39.6,0.5-59.4,2.6
		c0,0-57.2,3.1-79.2,1.2c-5.8-0.5-11.7,0.8-17.6,1.3"/>
	<path class="st0" d="M325.7,764c-1,6.6-1,13.1-0.8,19.8c0.4,12.7-0.1,25.5,1.6,38.1c0,0-5.2,9.8,8.8,10.6
		c2.5,0.1,85.4,11.4,97.5,11.4c15,3.6,30.1,5.8,45.5,6.7c11.3,0.6,22.5,2.2,33.8,3.1c7.8,0.6,15.4,5,23.7,1.8
		c1.6-9.6-0.9-19.1-1.2-28.6c-0.1-2.5,6.8-500.1,9.7-501.6"/>
</g>
</svg>
