<?xml version="1.0" encoding="utf-8"?>
<!-- Generator: Adobe Illustrator 28.0.0, SVG Export Plug-In . SVG Version: 6.00 Build 0)  -->
<svg version="1.1" id="Laag_1" xmlns="http://www.w3.org/2000/svg" xmlns:xlink="http://www.w3.org/1999/xlink" x="0px" y="0px"
	 viewBox="0 0 1000 1000" style="enable-background:new 0 0 1000 1000;" xml:space="preserve">
<style type="text/css">
	.st0{fill:none;stroke:#4A4A49;stroke-width:4;stroke-linecap:round;stroke-linejoin:round;stroke-miterlimit:10;}
</style>
<g>
	<path class="st0" d="M433.9,673.1c0,12.5-0.1,49.3,0.7,61.7c1.1,15.5,9.1,30.5,26,35.7c6,1.8,12.1,2.9,18.3,3.2
		c16.1,0.8,32.2,1.2,48.3,1c13.4-0.2,26.9-0.5,40.2-1.4c5.7-0.4,11.5-1.1,17.1-3.1c8.3-2.9,14.1-8.5,18.4-16.1
		c3.2-5.7,5.1-11.9,6.2-18.1c1.2-6.6,2.6-13.2,2.8-19.9c0.3-12.5,1.1-24.9,1-37.4c0-1.8,0.6-3.7,0.9-5.5c1.2-6.1-0.8-11.6-3.2-17.1"
		/>
	<path class="st0" d="M433.3,533.6c2.7,1.9,2.3,4.7,1.5,7.1c-0.7,2-0.8,3.9-0.8,5.8c0,27,0,42.8,0,69.8"/>
	<path class="st0" d="M560.1,221.1c1.2,16,0.9,32,2.2,48c0.3,3.5,1.2,7.2-0.5,10.6c-0.2,0.3-0.4,0.8-0.3,0.9
		c2.5,3.5,1.4,7.8,2.6,11.6c1.1,3.6,3.2,6.6,6.1,9c5.5,4.6,11.1,9.1,16.4,13.9c6.4,5.7,12.3,11.9,16.7,19.3
		c4.3,7.3,6.6,15.3,7.5,23.8c0.4,3.4,0.6,6.9,0.6,10.3c0.2,20.6,0.5,41.2,0.7,61.8c0.5,49.3-0.3,30.1,0.3,79.4
		c0.5,41.4,0.5,82.9,0.6,124.3c0,1,0.1,2,0.3,2.9c0.7,2.8,1.7,5.3,0.2,8.5c-1.1,2.3,1.1,5.1,1.7,7.6"/>
	<path class="st0" d="M482.5,271.6c-0.5,2.6-1,5.2,0.4,7.7c1,1.8-0.7,2.9-0.7,4.5c0,2.3-0.6,4.5-0.9,6.8c-0.7,5-4,8.4-7.4,11.6
		c-9.1,8.3-18.7,16-26.7,25.4c-4.8,5.6-7.8,12.1-10,19c-2.5,8.3-2.5,16.9-2.8,25.4c-0.5,11.3-0.3,22.5-0.4,33.8
		c-0.7,60-0.1,51.6-0.3,111.6"/>
	<path class="st0" d="M587.5,480c-0.2,10.3-0.7-47.8,0-37.5c0.1,0.9,0,1.7,0,2.6c0,27.7,0.2,55.4-0.1,83.1
		c-0.1,13.4,0.2,26.9-0.3,40.3c-0.4,10.4,0.3,20.8,0.2,31.2c0,2.8-0.1,5.6-0.1,8.4"/>
	<path class="st0" d="M322.6,736.8c-0.1-0.1-0.2-0.3-0.3-0.3c-1.7-0.7-10.8-5.5-14.8-5.9c-8.1-0.8-15.4,1.9-22.9,3.8
		c-3.9,1-6.1,3.9-8.9,6c-8.1,6.1-14.7,13.5-18.8,23.1c-3.9,9.1-5.1,18.2-2.2,27.7c3,9.5,8.6,17,17.7,21.6c6.4,3.3,13.3,3.9,20.3,2.6
		c9.8-1.9,18.3-6.8,25.7-13.2c6.6-5.7,11.4-12.8,14.5-20.9c4-10.2,4.3-20.5,1.3-30.9c-0.5-1.9-2-3.2-2.9-4.8"/>
	<path class="st0" d="M445.3,629.2c0,0.8,0,1.5,0.6,2.3c2.7,3.2,3.2,9.7-0.7,13.5c-4.4,4.3-8.4,8.8-12.2,13.6
		c-8.2,10.2-14.9,21.1-17.3,34.1c-1.3,7.1-0.7,14.1,0.8,21.3c1.8,8.6,3.9,17.2,4.5,26c0.5,7.1,1.3,14.2,1.7,21.3
		c0.4,6.9,1.9,13.7,3.7,20.3c2.4,8.6,6,16.8,12.1,23.5c1.4,1.6,3.3,2.8,3.5,5.2"/>
	<path class="st0" d="M240.5,619.9c3.5,0.6,4.2,4,5.6,6.2c4.5,7.2,9.7,13.9,14.7,20.8c7.4,10.2,15.5,19.8,24.8,28.4
		c7.4,6.9,15.9,12.2,25.2,16c10.8,4.5,22,7.5,33.7,9.3c10.2,1.6,20.3,2.7,30.6,2.4c1.6,0,2.9,0.7,4.2,1.3"/>
	<path class="st0" d="M348.7,715.9c-2.2-2.5-5.2-1.1-7.7-1.5c-4.8-0.8-9.3-1.8-13.9-3.6c-8.8-3.3-17.6-6.6-26.9-8.6
		c-8.8-1.9-17.6-2.1-26.4-1c-8.8,1.1-17.5,3.2-25.8,6.5c-9.6,3.9-18.5,8.7-26.7,14.9c-3.9,2.9-7.6,6.1-11,9.6
		c-0.6,0.7-1.9,1.2-1,2.6"/>
	<path class="st0" d="M349,732.6c0,2-0.5,3.7-1.6,5.5c-3.1,5.2-4.4,11.1-4.8,17c-1,15,3.3,28.6,11.9,40.9c3.4,4.9,8,8.6,13.2,11.4
		c8.1,4.3,19.7,2.7,26.7-3.3c4.6-4,8-8.9,11-14.1c1.6-2.7,2.1-5.7,3.3-8.3c2.3-5,1.4-10.3,3-15.2c0-0.1,0-0.3,0-0.3
		c0.5-0.4,0.9-0.4,1,0"/>
	<path class="st0" d="M308.4,717.3c-4.3-0.7-8.8,0.1-13.2-0.4c-12-1.5-24.1-1.3-36.1,0c-5,0.6-9.9,1.7-14.8,2.5"/>
	<path class="st0" d="M382.5,700.7c-3.1,5.9-8.8,8.5-14.5,10.9c-3.4,1.5-6.8,3.2-10.3,4.6"/>
	<path class="st0" d="M357.4,693c-0.4-3.9-4.1-5.2-6.6-6.9c-4.9-3.4-9.3-7.3-14.1-10.8c-3.3-2.4-4.4-6.3-7.3-9.1
		c-5.2-5.1-9.9-10.7-14.9-16c-7.9-8.4-17-15.1-27.1-20.6c-7.6-4.2-15.9-6.9-24.5-8.3c-6.6-1.1-13.3-1.2-20-0.7"/>
	<path class="st0" d="M593.3,755.2c-3.7,4.5-8.6,6-14.2,6.5c-5.8,0.5-11.6,0.9-17.4,0.9c-2.9,0-5.8-0.3-8.7-0.3
		c-14-0.2-27.9,0.8-41.9,0.8c-4.4,0-9.1,0-13.5,0.8"/>
	<path class="st0" d="M268.2,636.3c6.4,3.6,11.9,8.4,17.4,13.2c8,7.1,15.7,14.5,23.9,21.5"/>
	<path class="st0" d="M562.4,139.6c0.8-2.4-0.9-3.1-2.6-3.9c-3.3-1.5-6.9-1.3-10.3-1.9c-13.3-2.3-26.8-1.7-40.3-1.5
		c-8.2,0.1-16.4,1.2-24.5,3.1c-1.7,0.4-3,1.1-4.2,2.3c-0.2,3.9,0.6,7.9-0.5,11.6c-0.6,2.1-0.9,4.4-1.7,6.5c-1.1,2.7,1.4,5.6,4.4,6.1
		c3.8,0.6,7.5,1.6,11.3,2.2c3.3,0.6,6.6,1.1,10,1.3c11.2,0.6,22.3,1.2,33.5,0c7.6-0.8,15.2-1.8,22.6-4.1c3.7-1.2,5.4-2.5,5.1-5.6
		c-0.1-1.2-0.9-2.2-1.2-3.5c-0.8-4.1-0.7-8.3-1.7-12.3"/>
	<path class="st0" d="M563.7,153.8c-2.6-0.3-5.2,0.5-7.7,1c-15.7,3.1-31.5,2.5-47.3,2.4c-9.4-0.1-18.5-2.3-27.7-3.4
		c-0.4,0-0.9-0.4-1.3-0.6"/>
	<path class="st0" d="M562.1,139.6c-3.7-0.2-7.1,1.1-10.6,1.8c-5.1,1.1-10.1,0.9-15.2,1.3c-13.7,1.2-27.5-0.1-41.2-0.6
		c-3.1-0.1-6.3-0.8-9.3-1.6c-1.4-0.4-2.8-0.5-4.2-0.6"/>
	<path class="st0" d="M561.1,280.7c-10.8,4.8-22.3,5.4-33.8,6.1c-7.7,0.5-15.5,0.8-23.2-0.4c-5.6-0.9-11.2-2-16.7-3.2
		c-1.4-0.3-2.6-1.4-3.9-2.2"/>
	<path class="st0" d="M280.4,735.8c-1.9-2.6-5-2-7.4-2.4c-12.1-2.1-24.3-3.9-36.7-3.6c-7.7,0.2-15.5,1-22.5,4.5
		c-2.2,1.1-5.2,0-6.8,2.5c-0.1,0.1-0.2,0.1-0.3,0.2c0.1,0.1,0.1,0.1,0.2,0.2"/>
	<path class="st0" d="M479.6,171.2c-2,1.8-2.1,4-0.9,6.1c0.8,1.4,0.8,2.5,0.6,3.9c-0.2,2.4,0.4,4.1,3.1,5.2
		c7.7,3.1,15.7,4.5,23.9,5.5c5.9,0.7,11.8,1.4,17.7,1.3c4.7-0.1,9.3-0.5,13.9-1.6c3.5-0.8,7.1-0.2,10.6-1.3
		c3.7-1.2,7.6-1.8,10.9-3.9"/>
	<path class="st0" d="M445,630.5c-2.3-0.2-3.5,1.5-4.4,2.9c-5.2,8.2-10.1,16.6-14.9,25c-3,5.2-5.9,10.4-9,15.5
		c-2.4,4-4.3,8.3-6.5,12.4c-1.5,2.8-4.2,3.8-6.1,5.9c-2,2.3-4.8,3.8-7.3,5.5c-1.2,0.8-2.7,1.4-4.2,1c-2.1-0.6-3.9,0-5.8,0.7
		c-2.2,0.7-4.5,1.9-6.5-0.6c-0.4-0.4-1.2-0.6-1.9-0.6c-6.8-0.1-13.1-2.3-19.3-4.5c-0.9-0.3-1.9-0.6-3.3-0.2"/>
	<path class="st0" d="M480.3,186c-1.8,3.2-1.5,8.9,1,11.5c2.4,2.5,3,5.2,2.9,8.4c-0.3,9.5,0,19.2-0.9,28.6c-0.5,5,0,9.9-0.4,14.8
		c-0.1,1.7-1.3,2.9-1.3,4.5"/>
	<path class="st0" d="M498.3,308.3c-6.3,0.3-12.1,2.2-17.7,4.8c-11.4,5.4-20.4,13.5-26.7,24.5"/>
	<path class="st0" d="M351,718.4c-0.2,1.9-1,3.4-2.9,4.2c-2,0.9-3.8,2.4-5.8,3.1c-3.5,1.1-4.9,4.6-8,6.3c-3.5,2-6.7,4.1-10.7,5.2
		c-1.6,0.5-3,2.5-3.2,4.4c-0.2,1.8,3.2,4.5,5.4,4.4c2.2-0.1,4.1-0.4,5.9-2.4c3.4-3.6,7.2-7.2,11.6-9.3c6.9-3.2,12-8.6,18.3-12.4
		c3.6-2.2,7.3-4.1,11.6-4.9c1-0.2,1.7-0.5,3-0.1c2,0.7,4.2,0.7,6.4,0.7c0.6,0,1.3-0.3,1.9,0.1c6,3.5,12,7.1,16.4,12.6
		c1.3,1.6,1.7,4.2,3,5.3c5,4.5,4.3,10.8,5.9,16.3c1.3,4.5,1.6,9.2,2.4,13.8"/>
	<path class="st0" d="M398.5,726.8"/>
	<path class="st0" d="M408,787.4c2.9,1.9,4.6,4.9,6.7,7.4c6.6,7.8,15.1,12.5,24.5,15.7c1.7,0.6,3.9-0.2,5.5,1.4"/>
	<path class="st0" d="M455.5,754.5c4.4,5.6,10.6,7.7,17.4,8.4c4.2,0.4,8.4,0.6,12.6,0.4c0.9-0.1,2.2-0.5,1.9,1.3"/>
	<path class="st0" d="M407.6,700.3c-1.4,3.3-4.4,15.1,0,37.8"/>
	<path class="st0" d="M587.2,454.9c0.7,2.4,0.4,4.9,0.3,7.4c-0.2,4.4-0.5,8.8,0,13.2"/>
	<path class="st0" d="M413.4,766.7c2.2,3.5,2.9,7.6,4.4,11.3c0.5,1.4,2.1,2.6,1.4,4.5"/>
	<path class="st0" d="M564.7,188.2c-0.4,3-0.9,6-1.3,9"/>
	<path class="st0" d="M562.4,161.8c0.9,1.2,0.6,2.5,0.7,3.9c0.2,2.6,0,5.1,1.8,7.5c1.8,2.4-0.3,4.6-1.5,6.7"/>
	<path class="st0" d="M599.1,635"/>
</g>
<g>
	<path class="st0" d="M752.6,820.8c-1-1.7-1-3.6-1.4-5.4c-1.5-6.4-4.2-12.2-8.4-17.3c-3.9-4.7-8.7-8.3-13.9-11.5
		c-3.9-2.4-8-4.5-12.1-6.7c-6.6-3.5-12.6-7.6-17.5-13.3c-4.8-5.5-7.8-11.9-9.1-19.1c-0.3-1.9-0.5-3.9-0.6-5.8
		c-0.2-3.1-0.3-6.3-0.3-9.4c0-1.2,0.1-2.3,0.1-3.5c0-0.2,0.1-0.5,0-0.7c-0.8-1.3-0.2-2.5,0-3.7c0.5-2.3,0-4.4-1.4-6.3
		c-2.8-3.9-6.7-6.1-11.2-7.3c-3.9-1-7.8-1.3-11.8-1.2c-1.3,0-2.7,0.2-4,0.3c-0.8,0.1-1.5,0.3-2.1,0.7c-0.9,0.8-0.5,1.8-0.3,2.8
		c0,0.3,0.3,0.5,0.4,0.7c0.2,0.5,0.3,0.9,0.1,1.4c-0.6,1.4-0.4,2.9-0.1,4.2c0.2,1.5,0.4,2.9,0.5,4.4c0.3,4.9,0.4,9.7-0.1,14.6
		c-0.7,5.9-2.1,11.5-4.4,17c-1.7,4.2-4,8.2-6.8,11.8c-3.1,3.9-6.8,7.2-10.9,10.1c-4.1,2.9-8.4,5.6-12.6,8.5
		c-6.6,4.6-12.3,10-16.7,16.7c-3.2,4.9-5.6,10.2-7.4,15.7c-1,3-1.8,6.1-2.2,9.2c-0.5,3.9-0.9,7.9-0.5,11.9c0.3,3,0.7,5.9,1.6,8.7
		c1.1,3.6,2.8,7,4.9,10.2c2.4,3.6,5.3,6.7,8.8,9.2c2.7,2,5.7,3.3,8.9,4.2c0.6,0.2,1.3,0.1,1.6-0.1c0.6-0.4,1.1-0.1,1.6,0.1
		c1.5,0.6,2.7,1.6,4.1,2.4c3.5,1.9,7.3,2.6,11.2,3c3.8,0.4,7.5-0.2,11.2-1.1c0.3-0.1,0.6-0.3,0.9-0.5c1-0.7,1.4-0.7,2.4,0
		c1.4,1.1,2.8,2.1,4.3,3c2.7,1.6,5.6,2.6,8.6,3.4c2.9,0.7,5.8,1.1,8.8,1c4.1-0.1,8-0.7,11.9-2c3.4-1.2,6.6-2.8,9.4-5
		c0.1-0.1,0.3-0.2,0.4-0.3c1-1,1.1-1.5,0.1-2.5c-1.4-1.4-2.7-2.9-3.9-4.6c-2.3-3.1-3.9-6.5-5.2-10c-1.2-3.3-2.1-6.6-3.5-9.9
		c-1.1-2.7-2.5-5.3-4.4-7.6c-0.4-0.5-0.9-1-1.2-1.6c-0.8-1.5-0.1-3.1,1.7-3.2c0.9,0,1.9,0.1,2.8,0.2c0.6,0.1,1.1,0.1,1.6-0.3
		c0.7-0.6,1.6-0.7,2.6-0.8c5.1-0.1,10.2-0.2,15.3-0.9c1.6-0.2,3.3-0.1,4.8-1c0.5-0.3,1.1,0.2,1.7,0.1c2.5-0.2,5-0.8,7.5-1.3
		c4.6-0.9,9.3-2,13.8-3.6c1.3-0.4,2.6-0.7,3.8-1.1c1.3-0.4,2.6-0.9,3.8-1.3c3.6-1.3,7.3-2.6,10.6-4.4c1.4-0.8,2.8-1.4,4.3-2
		c4.3-1.9,8.4-4.3,12.4-6.8c0.7-0.4,1.6-0.4,2.1-0.8c0.6-0.4,1-1.3,1.7-1.8c0.6-0.5,1.1-0.5,1.8-0.1c1.6,1.1,3.4,2.1,4.6,3.6
		c0.1,0.1,0.1,0.2,0.2,0.2c2.9,1,4.7,3.3,6.6,5.5c3.9,4.6,6.1,10,7.6,15.8c0.8,3.1,1.2,6.2,1.2,9.3c0,6.3-1.8,12.2-5,17.6
		c-2.1,3.6-4.8,6.9-7.9,9.7c-5.1,4.7-10.9,8.2-17.2,10.9c-4.5,1.9-9.2,3.2-14,4c-3.1,0.5-6.2,0.9-9.3,0.8c-2.6-0.1-5.2,0.1-7.8-0.2
		c-2.7-0.4-5.4-0.7-8.1-1.4c-2.2-0.5-4.4-1.2-6.5-1.9c-4-1.4-7.8-3.2-11.4-5.4c-1.7-1.1-3.4-2.3-4.9-3.6c-0.5-0.4-1.1-0.6-1.7-0.8"
		/>
	<path class="st0" d="M666.8,773.5c-1.1,1-1.7,2.4-2.5,3.6c-3.6,5.9-6.7,12.1-9.5,18.4c-2.7,6.1-5,12.3-6.9,18.7
		c-1.6,5.2-2.9,10.5-3.8,15.9c-0.4,2.5-0.7,5-0.9,7.5c-0.2,2.1-0.4,4.3-0.3,6.4c0,5.5,0.6,10.9,2.3,16.2c1.5,4.8,3.8,9.1,7.2,12.9
		c0.6,0.6,1.1,1.2,1.2,2.1"/>
	<path class="st0" d="M769.7,812.7c0.3,0.6,0.6,1.1,0.8,1.7c0.4,1.1,1.1,1.9,2.3,2.4c0.6,0.2,1.2,0.4,1.6,0.9c0,1-0.5,1.7-1.2,2.3
		c-5.3,5.5-11,10.5-17.7,14.4c-6.1,3.6-12.6,6-19.6,7.1c-6.1,0.9-12.1,0.9-18.2,0.8c-3.1,0-6.2-0.3-9.2-0.6c-2.5-0.3-5-0.5-7.5-0.8
		c-3.9-0.5-7.7-1.1-11.5-1.8c-1.1-0.2-2.2-0.5-2.9-1.5"/>
	<path class="st0" d="M635.1,799.3c0,0.3,0.1,0.5-0.1,0.8c-2.3,3-4.1,6.2-5.7,9.6c-2.6,5.3-4.7,10.8-6.2,16.5
		c-1,3.8-1.8,7.6-2.4,11.4c-0.6,4-0.9,7.9-1.2,11.9c-0.2,3.5-0.1,6.9,0.4,10.4c0.5,3.4,1.7,6.6,3.8,9.4c0.5,0.7,0.9,1.4,0.9,2.3"/>
	<path class="st0" d="M659.5,715.2c1,0.2,1.8,0.7,2.5,1.5c3,3.4,6.4,6.5,10.4,8.8c2.9,1.7,5.9,2.9,9.3,3.1c1.9,0.1,3.7-0.2,5.3-1.3
		c0.6-0.4,1.2-0.5,1.9-0.6"/>
	<path class="st0" d="M698,805.4c0.1,0.8,0.6,1.5,1.1,2.2c3.1,4.8,5.6,9.8,7.5,15.2c1.3,3.6,2.4,7.2,3,11"/>
	<path class="st0" d="M721.8,804.5c0,0.7,0.2,1.3,0.6,1.9c2.3,3.2,4.8,6.2,6.7,9.6c1.9,3.4,3.4,6.8,4.4,10.6
		c0.1,0.6,0.3,1.1,0.5,1.7"/>
</g>
</svg>
