<?xml version="1.0" encoding="utf-8"?>
<!-- Generator: Adobe Illustrator 28.0.0, SVG Export Plug-In . SVG Version: 6.00 Build 0)  -->
<svg version="1.1" id="Laag_1" xmlns="http://www.w3.org/2000/svg" xmlns:xlink="http://www.w3.org/1999/xlink" x="0px" y="0px"
	 viewBox="0 0 1000 1000" style="enable-background:new 0 0 1000 1000;" xml:space="preserve">
<style type="text/css">
	.st0{fill:none;stroke:#4A4A49;stroke-width:4;stroke-linecap:round;stroke-linejoin:round;stroke-miterlimit:10;}
</style>
<path class="st0" d="M522.2,444.7c119.3-37.2,241.8-65.6,361.5-98.3c28.9-17.5,5.8-65.3-23.1-65.6c-110.2,28.9-220,70.6-330.5,102.6
	C390.6,413.8,256,464.9,117.6,499.9c-41.6,7.2,51.8,128,60.3,155.5c45.9,145.1,225.9-2.2,321.2-9.9c55.5-32.5,10.6-187.2,13.4-249.7
	"/>
<path class="st0" d="M207.1,562.9c-22,5-44.6,6-66.1,13.8"/>
<path class="st0" d="M238.2,637.4c-19.1,3.8-37.4,9.9-54.5,20.2"/>
</svg>
