<?xml version="1.0" encoding="utf-8"?>
<!-- Generator: Adobe Illustrator 28.0.0, SVG Export Plug-In . SVG Version: 6.00 Build 0)  -->
<svg version="1.1" id="Laag_1" xmlns="http://www.w3.org/2000/svg" xmlns:xlink="http://www.w3.org/1999/xlink" x="0px" y="0px"
	 viewBox="0 0 1000 1000" style="enable-background:new 0 0 1000 1000;" xml:space="preserve">
<style type="text/css">
	.st0{fill:none;stroke:#4A4A49;stroke-width:4;stroke-linecap:round;stroke-linejoin:round;stroke-miterlimit:10;}
</style>
<g>
	<g>
		<path class="st0" d="M535.3,791.6c23.9,4.4,47.6,6.3,72.1,3.3c13.1-1.6,26.3-3.3,39.4-5.3c11-1.7,21.9-4.4,32.5-7.9
			c15-4.9,30.3-9.3,44.9-15.5l55.3-26.5c28.5-15.6,53.7-36.4,81.7-52.8c3.4-2,7.2-3.3,10.5-5.4c11.4-7.2,10.6-16.6-1.7-22.8
			c-6-3-12.5-4.2-19.3-4.5c-36.7-1.6-72.9,3.1-108.9,8.9c-34.4,5.6-68.7,11.3-103.7,10.5c-26.6-0.6-52.6-5.7-78.2-12.4
			c-21.9-5.7-43.5-12.6-64.1-22.1c-16.9-7.8-31.8-19-47.5-28.8c-31.6-19.8-53.2-48.6-72.1-79.9c-12.4-20.7-24.3-42.1-44.8-56.2
			c-18.7-12.8-38.8-18.6-62.4-15.6c-26.9,3.4-49.4,15-70,30.7c-11.8,9-21.3,20.6-21.6,37.5c-0.1,7.6-3.8,15-4.2,22.8
			c-1,22.4,7.9,41.6,19.5,59.7c17.4,27.3,38.3,51.5,64.9,70.4c29.2,20.7,58.2,41.7,89.7,58.8c22.2,12.1,45.8,20.7,70.1,27.7
			c16.1,4.6,32.2,9.2,48.5,12.6c15.7,3.3,31.4,7.1,47.4,9.1c7.1,0.9,13.8,4.1,21.1,3.4"/>
		<path class="st0" d="M857.7,673c-5.6-3.8-11.9-4.6-18.5-4.4c-19.8,0.6-39.3,3-58.9,5.8c-27.7,4-54.9,10.5-82.6,14.3
			c-6.4,0.9-12.9,0.7-19.3,1"/>
		<path class="st0" d="M379.7,566.7c-13-15.3-21.9-33.2-32.5-50.1c-14.4-23-35.6-36.3-61.6-40.9c-13-2.3-26.6-0.6-39.5,4.1"/>
		<path class="st0" d="M200.5,296.1c0,4.6,4.6,6.8,5.5,11.4c1.5,7.7,0.2,15.2-4.8,20c-19.5,18.9-21,41.5-13.6,65.2
			c8.3,26.7,26.8,44.5,53.3,53.7c6.7,2.3,13.4,5.1,16.7,12.2"/>
		<path class="st0" d="M199.6,299.6c-17.4,19.3-28.6,41.1-29,67.7c0,0-1.7,29,12.3,60.6c4.4,10.6,2.7,21.6,1.7,32.5
			c-1.1,12-2.4,24-3.4,36c-0.1,1.1,1.6,2.3,2.5,3.5"/>
		<path class="st0" d="M657.4,690.6c-12.3,1.5-24.6,1-36.9,0"/>
		<path class="st0" d="M207.5,441.9c8.6,5.1,16.3,11.5,26.3,14.4c3,0.8,7.3,3,8,7.6"/>
		<path class="st0" d="M297.1,668.6c-0.5,9.1,2.1,17.7,4.5,26.3c0.9,3.4,2,6.5-0.1,9.7"/>
		<path class="st0" d="M258.5,640.5c-1.2,9.2,1.4,18.2,2.1,27.2c0.2,2.9-1.2,4.7-1.3,7.1"/>
		<path class="st0" d="M205.8,586c0.5,8.9-0.5,17.7-2.6,26.4"/>
		<path class="st0" d="M226.8,614.1c-0.5,8.8,1.1,17.6-0.9,26.4"/>
		<path class="st0" d="M213.7,628.2"/>
		<path class="st0" d="M185.5,579"/>
	</g>
	<g>
		<path class="st0" d="M584.2,648.5c18.4,1,36.9,2.3,55.2,0.1c37.1-4.4,73.9-12.3,108.6-26.5c16.7-6.9,32.9-15.1,49.6-22
			c8.8-3.6,37.9-9.3,23.2-23.7c-11.8-11.5-35-12-50.4-13.8c-18.9-2.1-37.8-2.8-56.8-3c-37-0.5-74.4-0.9-110.1-12
			c-33.3-10.3-68.5-26.1-96-47.8c-25.7-20.2-49-44.1-63.9-73.4c-14.2-27.9-20-62.2-44.1-83.9c-24.1-21.7-57.2-23.3-87-13.2
			c-13.4,4.6-29.2,10.8-38,22.5c-4.4,5.9-5.3,12.4-7.8,19.1c-3.2,8.5-6.4,15.4-6.8,24.6c-0.4,8.4,1,16.8,3.3,24.9"/>
		<path class="st0" d="M806.3,584.3c-4-4-9.2-5.5-14.5-6.3c-16.3-2.4-32.7-3.2-49.3-3.7c-23.3-0.7-46.6,0.7-69.9-0.2
			c-5.4-0.2-10.7-1.3-16-2"/>
		<path class="st0" d="M428.8,428.1c-8.5-14.4-13.2-30.5-19.5-45.9c-8.5-21-24-34.9-44.7-42.5c-10.4-3.8-21.8-4.3-33-2.4"/>
		<path class="st0" d="M320.5,179.8c-0.7,3.8,2.8,6.3,2.9,10.1c0.2,6.6-2,12.5-6.9,15.8c-18.8,12.7-23.2,31.1-20.6,51.6
			c3,23.1,15.6,40.4,36.1,51.8c5.2,2.9,10.3,6.1,12,12.5"/>
		<path class="st0" d="M319.3,182.6c-17,13.3-29.4,29.7-33.6,51.4c0,0-9.4,26.2,1.4,51.6c2.1,9.4-0.9,18.1-3.3,27
			c-2.6,9.7-5.4,19.4-8,29.1c-0.2,0.9,1,2.2,1.6,3.2"/>
		<path class="st0" d="M639.1,569.9c-10.3-0.5-20.4-2.7-30.3-5.3"/>
		<path class="st0" d="M305.2,300.7c6.3,5.4,11.7,11.8,19.5,15.6c2.3,1.1,5.6,3.5,5.5,7.4"/>
		<path class="st0" d="M644.6,640.8"/>
		<path class="st0" d="M623.8,644.6"/>
		<path class="st0" d="M582.4,643.3"/>
		<path class="st0" d="M658.3,638.7c-5.7-1.7-11.3-3.5-17-5.2"/>
		<path class="st0" d="M558.6,642.8"/>
		<path class="st0" d="M747.2,615.6c-4.9-0.6-9.7-1.2-14.6-1.8"/>
		<path class="st0" d="M771.2,606.4c-4.5-2.4-9.6-2-14.3-3.3"/>
		<path class="st0" d="M312.4,200.7c-0.3,2.2-1.6,4.3-0.4,6.6"/>
	</g>
</g>
</svg>
