<?xml version="1.0" encoding="UTF-8"?>
<svg id="Laag_1" data-name="Laag 1" xmlns="http://www.w3.org/2000/svg" viewBox="0 0 33.25 33.25">
  <defs>
    <style>
      .cls-1 {
        fill: #494948;
        stroke-width: 0px;
      }
    </style>
  </defs>
  <path class="cls-1" d="M16.62,33.25C7.46,33.25,0,25.79,0,16.62S7.46,0,16.62,0s16.62,7.46,16.62,16.62-7.46,16.63-16.62,16.63ZM16.62.75C7.87.75.75,7.87.75,16.62s7.12,15.88,15.88,15.88,15.88-7.12,15.88-15.88S25.38.75,16.62.75Z"/>
  <path class="cls-1" d="M15.48,22.69c-.1,0-.2-.04-.27-.12-.14-.15-.13-.39.02-.53l5.77-5.42-5.77-5.42c-.15-.14-.16-.38-.02-.53.14-.15.38-.16.53-.02l6.35,5.97-6.35,5.97c-.07.07-.16.1-.26.1Z"/>
</svg>