<?xml version="1.0" encoding="UTF-8"?>
<svg id="Laag_1" data-name="Laag 1" xmlns="http://www.w3.org/2000/svg" viewBox="0 0 53.45 41.93">
  <defs>
    <style>
      .cls-1 {
        fill: #494948;
        stroke-width: 0px;
      }
    </style>
  </defs>
  <path class="cls-1" d="M50.17,30.34c-1.14-.66-2.3-1.08-2.85-1.26-.31-1.97-1.37-6.44-4.8-10.32-3.35-3.79-7.96-5.92-13.68-6.33-.68-.83-1.38-1.22-2.09-1.18-.66.03-1.27.44-1.79,1.17-9.18.6-13.62,5.93-15.73,10.31-.74,1.54-1.33,3.23-1.75,5.03-1.49.52-6.71,2.54-7.4,5.34-.24.99.08,1.95.96,2.84,4.08,4.14,15.83,5.99,25.67,5.99s26.7-.93,26.74-7.14c0-1.66-1.12-3.19-3.28-4.44ZM24.64,13.46c.05.29.22.55.47.72.56.37,1.15.56,1.77.56.74,0,1.36-.27,1.75-.5.28-.16.47-.43.53-.74,0,0,0-.01,0-.02,5.26.46,9.49,2.46,12.57,5.95,4.25,4.82,4.9,10.8,4.7,12.06-.32,2.06-7.69,5.81-20.09,5.31-16.03-.64-18.32-3.74-18.55-4.15.02-.68.23-5.1,2.34-9.49,1.96-4.06,6.05-9.01,14.48-9.7ZM28.15,13.21l-.02.15c-.85.49-1.68.48-2.45-.03-.04-.03-.05-.08-.02-.13.17-.27.61-.9,1.14-.93.5-.03,1.02.5,1.36.94ZM6.78,32.74v.12c.1.43,1.42,4.24,19.54,4.97,13.1.5,20.71-3.4,21.14-6.18.05-.32.05-.84,0-1.44,1.53.57,4.98,2.12,4.96,4.57-.03,4.52-13.3,6.13-25.71,6.13-9.62,0-21.07-1.76-24.94-5.68-.63-.63-.86-1.25-.7-1.88.41-1.68,3.44-3.36,6.15-4.4-.39,2.04-.43,3.5-.44,3.8Z"/>
  <path class="cls-1" d="M26.63,8.11l-.28.16.37.93.38-.22c.11-.06,2.59-1.52,1.83-3.67-.34-.97-.8-1.43-1.11-1.73-.29-.29-.34-.34-.28-.62.17-.9,1.13-1.91,1.13-1.91l.23-.22-.58-.82-.32.32s-1.17,1.21-1.4,2.44c-.16.82.22,1.2.56,1.53.28.28.61.6.87,1.36.46,1.32-1.33,2.42-1.4,2.46Z"/>
  <path class="cls-1" d="M30.63,9.23l-.29.16.37.93.38-.22c.11-.06,2.59-1.51,1.83-3.67-.34-.97-.8-1.43-1.11-1.74-.29-.29-.34-.34-.28-.62.13-.71.78-1.54,1.15-1.93l.2-.22-.57-.81-.32.33c-.12.12-1.18,1.26-1.4,2.44-.16.82.22,1.2.56,1.54.29.28.61.61.87,1.36.46,1.32-1.32,2.41-1.4,2.45Z"/>
  <path class="cls-1" d="M21.84,9.13l-.28.16.37.94.38-.22c.96-.56,2.43-1.96,1.83-3.67-.34-.97-.8-1.43-1.11-1.74-.29-.29-.34-.33-.28-.62.14-.76.87-1.65,1.14-1.92l.22-.22-.57-.81-.32.33c-.12.12-1.18,1.26-1.4,2.44-.16.82.22,1.2.56,1.54.29.28.61.61.87,1.36.46,1.32-1.33,2.42-1.4,2.46Z"/>
</svg>