<?xml version="1.0" encoding="utf-8"?>
<!-- Generator: Adobe Illustrator 28.0.0, SVG Export Plug-In . SVG Version: 6.00 Build 0)  -->
<svg version="1.1" id="Laag_1" xmlns="http://www.w3.org/2000/svg" xmlns:xlink="http://www.w3.org/1999/xlink" x="0px" y="0px"
	 viewBox="0 0 1000 1000" style="enable-background:new 0 0 1000 1000;" xml:space="preserve">
<style type="text/css">
	.st0{fill:none;stroke:#4A4A49;stroke-width:4;stroke-miterlimit:10;}
	.st1{fill:none;stroke:#4A4A49;stroke-width:4;stroke-linecap:round;stroke-linejoin:round;stroke-miterlimit:10;}
	.st2{fill:#4A4A49;}
	.st3{fill:#1D1D1B;stroke:#4A4A49;stroke-width:4;stroke-miterlimit:10;}
	.st4{fill:none;stroke:#FFFFFF;stroke-width:4;stroke-linecap:round;stroke-linejoin:round;stroke-miterlimit:10;}
</style>
<path class="st0" d="M165.5,292.6c9.5-1.3,18.9-1.3,28.5-2c13.3-0.9,57.8,1,66.8,0.4c8-0.6,16-0.6,23.9-0.9
	c9.4-0.4,18.8,0.4,28.2,0.7c3.6,0.1,29.9,0.5,33.5,0.9c4.9,0.5,52.6,7.9,53.4-15.5c1.6-9.8,1.6-19.6,0.9-29.7
	c-0.5-7.1,0.3-20.7-4.9-25.2c-4.9-4.2-14-3.7-19.9-4.4c-14.6-1.5-44.8-1.4-57.4-2.5c-11-0.9-22-0.7-33-0.9c-8.1-0.1-16.3,0-24.4,0.2
	c-10.4,0.2-20.8,0.1-31.3,0.2c-9.4,0.1-18.8-0.6-28.2-0.1c-9.7,0.6-19.5,1.2-29.2,1.8c-13,0.8-26,1.5-39.1,1.8
	c-6.2,0.2-12,2.2-15.6,8.6c-1.5,2.6-0.5,5.6-1.5,8.6c-0.1,11-1.8,22.2-0.7,33.7c1.3,13.1,2.7,21.2,13,24.5
	C131.5,293.8,158.7,293.6,165.5,292.6z"/>
<path class="st1" d="M378.2,291.4c2.5,2,4.8,4.3,7.4,6.3c5.1,4.1,9.9,8.5,13.8,13.7c7.1,9.4,13.2,19.5,17.5,30.5
	c5.2,13.6,7.1,27.8,7.3,42.2c0.2,9.8,0.2,19.6-0.7,29.3c-0.4,5,0,10.1-0.3,15.2c-0.4,9.2-0.7,18.4-0.8,27.5
	c-0.1,13.4-0.5,26.8-1,40.2c-0.3,8.5-0.5,17-0.8,25.5c-0.3,9.6-0.7,19.2-1,28.8c-0.4,11.3-0.7,22.6-1.2,33.9
	c-0.4,8.5-0.7,17-0.8,25.5c-0.1,11.1-0.5,22.2-0.5,33.4c-0.1,14.7,0.1,29.5,0.2,44.2c0,8.6-0.2,17.2-0.5,25.8
	c-0.3,8.5-0.9,16.9-2.3,25.3c-2.5,14.5-6.9,28.3-14.7,40.9c-9.3,15.2-22.2,25.9-38.9,32.1c-9.4,3.5-19.1,5.3-29.1,6
	c0,0-68-1.4-81.3-0.7c-16.5,0.8-33,0.6-49.5,0.8c-5.6,0-11.3,0.4-16.9,0c-10-0.8-19.7-2.5-29.1-6c-16.7-6.2-29.6-16.9-38.9-32.1
	c-7.8-12.6-12.2-26.4-14.7-40.9c-1.4-8.4-2-16.8-2.3-25.3c-0.3-8.6-0.5-17.2-0.5-25.8c0.1-14.7,0.3-29.5,0.2-44.2
	c-0.1-11.1-0.4-22.2-0.5-33.4c-0.1-8.5-0.4-17-0.8-25.5c-0.5-11.3-0.8-22.6-1.2-33.9c-0.3-9.6-0.7-19.2-1-28.8
	c-0.3-8.5-0.5-17-0.8-25.5c-0.5-13.4-0.9-26.8-1-40.2c-0.1-9.2-0.4-18.4-0.8-27.5c-0.2-5.1,0.2-10.1-0.3-15.2
	c-0.9-9.8-0.8-19.5-0.7-29.3c0.2-14.4,2.1-28.6,7.3-42.2c4.3-11.1,10.3-21.1,17.5-30.5c3.9-5.2,8.7-9.6,13.8-13.7
	c2.5-2,4.9-4.2,7.4-6.3c1-0.8,1.4-1.8,1.3-3.1L378.2,291.4z"/>
<path class="st0" d="M610.3,292.6c9.5-1.3,18.9-1.3,28.5-2c13.3-0.9,57.8,1,66.8,0.4c8-0.6,16-0.6,23.9-0.9
	c9.4-0.4,18.8,0.4,28.2,0.7c3.6,0.1,29.9,0.5,33.5,0.9c4.9,0.5,52.6,7.9,53.4-15.5c1.6-9.8,1.6-19.6,0.9-29.7
	c-0.5-7.1,0.3-20.7-4.9-25.2c-4.9-4.2-14-3.7-19.9-4.4c-14.6-1.5-44.8-1.4-57.4-2.5c-11-0.9-22-0.7-33-0.9c-8.1-0.1-16.3,0-24.4,0.2
	c-10.4,0.2-20.8,0.1-31.3,0.2c-9.4,0.1-18.8-0.6-28.2-0.1c-9.7,0.6-19.5,1.2-29.2,1.8c-13,0.8-26,1.5-39.1,1.8
	c-6.2,0.2-12,2.2-15.6,8.6c-1.5,2.6-0.5,5.6-1.5,8.6c-0.1,11-1.8,22.2-0.7,33.7c1.3,13.1,2.7,21.2,13,24.5
	C576.3,293.8,603.5,293.6,610.3,292.6z"/>
<path class="st1" d="M823,291.4c2.5,2,4.8,4.3,7.4,6.3c5.1,4.1,9.9,8.5,13.8,13.7c7.1,9.4,13.2,19.5,17.5,30.5
	c5.2,13.6,7.1,27.8,7.3,42.2c0.2,9.8,0.2,19.6-0.7,29.3c-0.4,5,0,10.1-0.3,15.2c-0.4,9.2-0.7,18.4-0.8,27.5
	c-0.1,13.4-0.5,26.8-1,40.2c-0.3,8.5-0.5,17-0.8,25.5c-0.3,9.6-0.7,19.2-1,28.8c-0.4,11.3-0.7,22.6-1.2,33.9
	c-0.4,8.5-0.7,17-0.8,25.5c-0.1,11.1-0.5,22.2-0.5,33.4c-0.1,14.7,0.1,29.5,0.2,44.2c0,8.6-0.2,17.2-0.5,25.8
	c-0.3,8.5-0.9,16.9-2.3,25.3c-2.5,14.5-6.9,28.3-14.7,40.9c-9.3,15.2-22.2,25.9-38.9,32.1c-9.4,3.5-19.1,5.3-29.1,6
	c0,0-68-1.4-81.3-0.7c-16.5,0.8-33,0.6-49.5,0.8c-5.6,0-11.3,0.4-16.9,0c-10-0.8-19.7-2.5-29.1-6c-16.7-6.2-29.6-16.9-38.9-32.1
	c-7.8-12.6-12.2-26.4-14.7-40.9c-1.4-8.4-2-16.8-2.3-25.3c-0.3-8.6-0.5-17.2-0.5-25.8c0.1-14.7,0.3-29.5,0.2-44.2
	c-0.1-11.1-0.4-22.2-0.5-33.4c-0.1-8.5-0.4-17-0.8-25.5c-0.5-11.3-0.8-22.6-1.2-33.9c-0.3-9.6-0.7-19.2-1-28.8
	c-0.3-8.5-0.5-17-0.8-25.5c-0.5-13.4-0.9-26.8-1-40.2c-0.1-9.2-0.4-18.4-0.8-27.5c-0.2-5.1,0.2-10.1-0.3-15.2
	c-0.9-9.8-0.8-19.5-0.7-29.3c0.2-14.4,2.1-28.6,7.3-42.2c4.3-11.1,10.3-21.1,17.5-30.5c3.9-5.2,8.7-9.6,13.8-13.7
	c2.5-2,4.9-4.2,7.4-6.3c1-0.8,1.4-1.8,1.3-3.1L823,291.4z"/>
<g>
	<path class="st2" d="M660.6,562.2c0-10.5-0.5-27.2-1.4-50.2c-0.9-23-1.8-35.1-2.6-36.4c0-2.5,1-4.5,3-5.8c0.7-0.4,1.7-0.8,3-1.1
		c1.3-0.3,2.5-0.5,3.6-0.5c0.5-0.1,1.7-0.1,3.4-0.1c2.1,0,3.6,0.3,4.5,1c0.9,0.7,1.4,1.9,1.4,3.6c0,1-0.4,1.7-1.1,2.2
		c-0.7,0.5-1.6,0.7-2.7,0.7l-1.4-0.1h-1.9c-2.5,0-3.8,0.5-3.8,1.5c0,4.7,0.3,10.8,0.9,18.4c0.5,6.3,0.9,12.3,1.1,18
		c0.6-0.2,1.8-0.5,3.6-0.9c1.8-0.4,3.1-0.6,4-0.6c1,0,1.8,0.4,2.6,1.3c0.7,0.9,1.1,1.8,1.1,2.9c0,1.3-0.6,2.2-1.8,2.7
		c-0.2,0.1-0.6,0.3-1.3,0.6s-1.6,0.5-2.6,0.6c-0.8,0.1-2.2,0.2-4.1,0.4h-1.5c0,5.4,0.4,12.8,1.4,22.1c0.8,9.7,1.2,17.1,1.2,22.1
		L669,565l-0.1,0.3c0.1,0.4,0.1,0.9,0.1,1.8c0,1.2-0.4,2.1-1.2,2.8c-0.8,0.7-1.9,1-3.2,1C661.9,570.8,660.6,568,660.6,562.2z"/>
	<path class="st2" d="M699,560.3c0-7.7-0.5-18.1-1.4-31.4c-0.8-13.8-1.2-24.2-1.2-31.2c0-2.5,0-4.8,0.1-6.9l0.1-6.9
		c0-3-1.7-14.4,0.4-14.7c1.7-0.3,4.2-1.2,4.8,0.8c0.5,1.7,0.6,7.7,0.6,8.3c0,9.6,0.6,22.7,1.8,39.5c1.1,17.6,1.6,30.8,1.6,39.6v5.1
		c0.4,6.1,0.5,8.1-1,8.1c0,0-2.5,0-3.2,0C697.7,570.6,699,561.5,699,560.3z"/>
	<path class="st2" d="M734.9,569.7c-0.8-1.3-1.2-2.9-1.2-4.8c0-3,0.2-6.6,0.5-11l0.3-3.5l0.3-7.2c0-3.2-0.3-10.2-0.9-21.1
		c-0.6-10.9-0.9-17.9-0.9-21.1c0-0.3,0-0.8,0.1-1.6c0-0.8,0.1-2,0.1-3.6c0.1-1.8,0.1-4,0.1-6.6c0-6.6-0.5-10.8-1.4-12.6
		c-0.5,0-1.7,0.1-3.5,0.4l-3.8,0.3c-1.2,0-2.2-0.3-3.1-1c-0.9-0.7-1.4-1.6-1.4-2.6c0-1.1,1.1-2,3.2-2.8c3.2-1.1,8.5-1.8,16.1-2.3
		c3.1-0.2,4.9-0.3,5.5-0.3c1.1,0,2.1,0.4,3,1.1c0.9,0.7,1.4,1.6,1.4,2.7c0,1.1-0.4,2-1.2,2.6c-0.8,0.7-1.7,1-2.9,1l-2.4-0.1
		c-0.7-0.1-1.5-0.1-2.4-0.1H739c0.6,6.1,0.9,11.7,0.9,16.6l-0.1,8.7c-0.1,2.6-0.1,5.5-0.1,8.8c0,4.3,0.2,9.5,0.5,15.6
		c0.4,7.5,0.7,12.7,0.7,15.6c0,3.4,0.2,7.5,0.5,12.2c0.4,4.8,0.5,8.8,0.5,12.2c0,4.4-1.3,6.6-3.9,6.6
		C736.7,571.7,735.7,571,734.9,569.7z"/>
</g>
<g>
	<path class="st2" d="M139.1,569c-1.2-1-1.9-2.2-2.1-3.8l1.6-2.5c0.6,0,1.5,0.2,2.8,0.6c1.5,0.3,2.6,0.4,3.3,0.4
		c1.7,0,3.3-0.8,4.7-2.3c1.4-1.5,2.4-3.6,3.1-6.1c1.3-4.7,1.9-8.8,1.9-12.5c0-6.4-2-13.1-6.1-20.2l-1.6-2.8
		c-1.8-3.2-3.4-6.1-4.7-8.6c-1.3-2.5-2.3-5.2-3.2-8.1c-1.2-3.8-1.7-7.6-1.7-11.3c0-4.3,1-8.7,2.9-13.4c1-2.2,2.3-4,4.1-5.5
		c1.8-1.4,3.8-2.1,6-2.1c1.7,0,3.4,0.6,4.9,1.7c1.5,1.1,2.3,2.5,2.3,4c0,0.9-0.3,1.6-1,2c-0.7,0.5-1.5,0.7-2.5,0.7
		c-1.1,0-2.1-0.3-3.1-0.9c-2.1,0.1-3.8,2-5.1,5.7c-1.1,3.4-1.6,6.2-1.6,8.4c0,2.8,0.4,5.6,1.3,8.5c0.9,2.9,2,5.5,3.3,7.8l3.2,5.8
		l5.1,9.6c1.4,2.7,2.4,5.9,3.3,9.5c0.8,3.6,1.2,7.2,1.2,10.9c0,5.9-1.4,11.5-4.1,16.9c-1.4,2.7-3.3,4.9-5.7,6.5
		c-2.5,1.6-5.2,2.5-8.2,2.5v0.4C141.8,570.6,140.3,570,139.1,569z"/>
	<path class="st2" d="M197.5,544.9l0.1-8.3l0.1-6.7v-0.4V528c0.1-0.8,0.1-1.7,0.1-2.8c0-0.2-0.1-0.4-0.4-0.7
		c-0.3-0.3-0.4-0.5-0.4-0.7v-0.1c-0.5,0.2-1.4,0.3-2.6,0.3c-1.3,0-2.8-0.2-4.7-0.6c-0.6-0.1-2.1-0.3-4.7-0.7v16.7
		c0,2.5,0.1,6.5,0.4,11.9c0.3,5.3,0.4,9.3,0.4,11.9c0,1.5-0.4,2.7-1.2,3.8c-0.8,1.1-1.8,1.6-3.1,1.6c-1.8,0-3.2-1.8-3.9-5.4
		c-0.8-3.7-1.2-8.5-1.2-14.4L177,537c0.1-3.3,0.1-6.8,0.1-10.5v-2.5v-2c0-1.5-0.1-2.6-0.1-3.1v-0.7l0.4-8.4c0-3.7-0.1-9.2-0.4-16.4
		c-0.3-7.3-0.4-12.7-0.4-16.4c0-1.2,0.4-2.2,1.2-3.1c0.8-0.9,1.7-1.3,2.9-1.3c3.1,0,4.7,2.9,4.7,8.7l-0.3,18
		c-0.2,5.4-0.3,11.5-0.3,18.2c1.5,0.5,4.1,0.7,7.9,0.7h5.4c0.2-0.6,0.3-1.2,0.3-1.7c0-4.7-0.3-11.5-0.9-20.7c-0.7-8.5-1-15.5-1-20.8
		c0-1.1,0.4-2,1.2-2.7c0.8-0.7,1.8-1.1,3-1.1c0.7,0,1.6,0.2,2.9,0.7l1.3,0.6c0,13.8,0.5,32.1,1.5,55.1l1.3,36.8
		c0,1.4-0.5,2.4-1.5,3.2c-1,0.8-2.2,1.2-3.6,1.2C199.1,568.9,197.5,560.9,197.5,544.9z"/>
	<path class="st2" d="M248.7,569.2c-1.1-0.7-1.6-1.9-1.6-3.8c0-2.9-0.5-7.9-1.5-14.8l-0.6-3.1l-14.4-2.2c-0.6,2.2-1.4,6.7-2.5,13.5
		c-0.6,4.8-1.5,7.9-2.8,9.5c-0.7,0.9-1.6,1.3-2.9,1.3c-1.2,0-2.2-0.4-3.2-1.1c-1-0.7-1.5-1.6-1.5-2.7l0.3-0.7l0.1-0.6
		c6.4-24.9,11.2-49.5,14.5-73.7c0-0.4,0-1,0.1-2c0.1-0.9,0.2-2.3,0.3-4c0.3-3.6,0.6-6.4,0.9-8.6c0.3-2.1,0.9-3.7,1.7-4.8h4.9
		c1.4,0,2.5,0.3,3.5,0.9c1,0.6,1.5,1.5,1.5,2.7c0,7.4,1,18.3,3.1,32.9c1.9,14.9,2.9,25.4,2.9,31.4c0,0.6,0.2,2.1,0.7,4.5
		c0.5,2.2,0.7,3.7,0.7,4.4c0,0.7,0.5,3.6,1.5,8.7c0.9,4.7,1.3,7.7,1.3,9v0.1c0,2.1-0.8,3.5-2.3,4.1
		C251.4,570.2,249.8,569.9,248.7,569.2z M243.6,536.9c0-8.7-0.8-19.9-2.3-33.4l-1.5-15.1c-4.2,22.8-7,40-8.6,51.6
		c1.5,1,5.7,1.7,12.8,2.3C243.7,540.8,243.6,539,243.6,536.9z"/>
	<path class="st2" d="M271.7,569.9c-1.3-5.1-1.9-12.3-1.9-21.4l0.3-12.9c0.2-3.9,0.3-8.2,0.3-12.9c-0.6-1.4-0.9-2.6-0.9-3.6v-0.4
		c1-1.8,1.5-6,1.5-12.5l0.1-6.7c0.1-2.1,0.1-4.5,0.1-7.1c0-5.7-0.4-10.2-1.2-13.5c0.3-1.4,0.8-2.5,1.5-3.6c0.7-1,1.5-1.5,2.5-1.5
		h6.4c2.7,0,5.1,0.6,7.1,1.8c2,1.2,3.6,2.9,4.7,5.2c1.9,4,2.9,8.7,2.9,14.1c0,3.9-0.1,6.9-0.1,9.2c-0.2,2.8-0.7,5.4-1.5,7.7
		c-0.3,1.3-0.7,2.3-1.2,3.1c-0.5,0.8-1.3,1.8-2.3,3c-1.4,1.6-3.6,3.2-6.7,4.7c-1.3,0.7-2.9,1.3-4.9,1.9v15.6l0.3,9.3l0.3,4.5
		c0.4,5.4,0.6,10,0.6,13.8c0,1.2-0.5,2.2-1.5,3c-1,0.8-2.1,1.2-3.3,1.2L271.7,569.9z M287.1,493.7c0-2.8-0.1-5-0.4-6.5
		c-0.3-1.2-0.7-2.1-1.2-2.8c-0.5-0.7-1.2-1.3-2.2-1.8c-1.1-0.6-2.2-0.9-3.5-0.9c0-0.1-0.5-0.1-1.6-0.1v8.3c0,5.7,0,10.8,0.1,15.3
		c0,5,0,8.3,0.1,9.9v3.1v0.3C284.2,517.4,287.1,509.2,287.1,493.7z"/>
	<path class="st2" d="M312.6,569.5c-1-0.9-1.6-1.9-1.7-3.2v-3.8v-2.9c-0.1-0.9-0.1-1.9-0.1-3.1c0-2-0.1-5.1-0.4-9.3l-0.3-9.3
		c0-4.7,0.1-11.8,0.4-21.2c0.4-8.4,0.6-15.5,0.6-21.2c0-1.4-0.1-3.4-0.4-6.1c-0.3-2.8-0.4-4.8-0.4-6.1c0-6.9,2-10.3,6.1-10.3
		c3.2,0,6.9,0.6,11.1,1.9c4.2,1.3,6.3,2.8,6.3,4.5c0,1-0.4,1.9-1.2,2.7c-0.8,0.8-1.8,1.5-3,2c-4.1-1.5-7.8-2.4-11.1-2.9
		c0.1,1.5,0.1,3.5,0.1,6.3c0,3.9,0,7.4-0.1,10.5c-0.3,4.7-0.4,8.1-0.4,10.5l0.4,2.3l2.3-0.1c0.8-0.1,1.7-0.1,2.9-0.1
		c4.7,0,7,1.4,7,4.1c0,1.1-0.4,2-1.3,2.7c-0.9,0.7-2,1.1-3.3,1.1c-1.7,0-3.1-0.1-4.1-0.3h-3.6c0.2,2.5,0.3,6.2,0.3,11.1
		s0,9.2-0.1,13.1c-0.3,5.9-0.4,10.3-0.4,13.2c0,5.4,0.1,8.1,0.3,8.1l4.8-0.1c1.6-0.1,3.6-0.1,6-0.1c3.7,0,5.5,1.2,5.5,3.5
		c0,1.4-0.6,2.4-1.8,3.1c-1.2,0.7-2.7,1.1-4.4,1.1H316C314.8,570.8,313.6,570.4,312.6,569.5z"/>
	<path class="st2" d="M370.3,564.4c-2-5-3.5-10.2-4.5-15.6l-1-4.9c-2.8-13.9-4.6-21.8-5.4-23.7h-1.7c0,2.8-0.1,5.4-0.1,7.7v8
		c0,13,0.9,23.1,2.8,30.4l-1.6,3.9h-4.1l-1.9-2.2l0.1-9.7c0-8.7-0.4-22-1.3-39.7c-0.8-18.9-1.2-32.1-1.2-39.7c0-4.7,1.6-7,4.8-7
		c5.2,0,9.5,1.4,12.9,4.1c3.3,2.7,5,6.5,5,11.3v10.2c0,1.5-0.2,3.1-0.7,5c-0.5,1.9-1,3.4-1.6,4.6l-2.8,5.2l-2.3,4.4l0.7,3.5l2,10.3
		c1.4,7.5,2.7,13.5,3.9,18.2c1.3,4.7,2.8,8.9,4.7,12.7l0.9,1.7c1,1.9,1.5,3.5,1.5,4.7c0,1-0.3,1.8-0.9,2.5c-0.6,0.7-1.4,1.1-2.3,1.1
		C374,571.4,372,569,370.3,564.4z M363.7,504.2c1.5-4.8,2.3-9.2,2.3-13.3c0-3.1-0.4-6-1.2-8.7c-0.5-1.5-1.3-2.7-2.4-3.6
		c-1.1-0.8-2.5-1.2-4.1-1.2l-0.3,0.7l-0.3,1.3l0.3,17.2c0.2,5,0.3,10.5,0.3,16.4C360.3,512,362.2,509,363.7,504.2z"/>
</g>
<path class="st3" d="M258.1,457.2"/>
<path class="st3" d="M258.1,606.9"/>
<path class="st3" d="M258.1,606.5"/>
<g>
	<path class="st4" d="M361.8,238.9c-4.2-2-8.6-0.8-12.9-1.2c-6.3-0.6-12.6-0.3-18.9-0.8c-8.4-0.6-39.4-0.5-47.8-1
		c-10.5-0.6-21-0.2-31.5-0.7c-20.8-1-41.7-0.5-62.5-0.3c-12.8,0.1-25.6,0.4-38.3,1.1c-6.6,0.4-13.1,1-19.7,1.1"/>
	<path class="st4" d="M287.6,268.7c-5-0.8-83.3-0.3-91,0c-11,0.4-64.6,1.6-66.4,1.2"/>
	<path class="st4" d="M208.9,253.2c-2.5-0.8-41.6-0.3-45.5,0c-5.5,0.4-32.3,1.6-33.2,1.2"/>
</g>
<g>
	<path class="st4" d="M816.7,238.9c-4.2-2-8.6-0.8-12.9-1.2c-6.3-0.6-12.6-0.3-18.9-0.8c-8.4-0.6-39.4-0.5-47.8-1
		c-10.5-0.6-21-0.2-31.5-0.7c-20.8-1-41.7-0.5-62.5-0.3c-12.8,0.1-25.5,0.4-38.3,1.1c-6.6,0.4-13.1,1-19.7,1.1"/>
	<path class="st4" d="M742.5,268.7c-5-0.8-83.3-0.3-91,0c-11,0.4-64.6,1.6-66.4,1.2"/>
	<path class="st4" d="M663.8,253.2c-2.5-0.8-41.6-0.3-45.5,0c-5.5,0.4-32.3,1.6-33.2,1.2"/>
</g>
</svg>
