<?xml version="1.0" encoding="UTF-8"?>
<svg id="Laag_1" data-name="Laag 1" xmlns="http://www.w3.org/2000/svg" version="1.1" viewBox="0 0 29.6 44.8">
  <defs>
    <style>
      .cls-1 {
        fill: none;
        stroke: #494948;
        stroke-linecap: round;
        stroke-linejoin: round;
        stroke-width: .8px;
      }
    </style>
  </defs>
  <path class="cls-1" d="M9.3,31.5l-1.4,3.7c-.6-.8-1-1.7-1-1.7M8.6,24.8l-1.4,3.7c-.6-.8-1-1.7-1-1.7M8.5,17.3l-1.4,3.7c-.6-.8-1-1.7-1-1.7M8.5,11.9l-1.4,3.7c-.6-.8-1-1.7-1-1.7M21.5,36.1c-.5.2-1,.2-1.6.2-1,0-2,.2-3.1.3-.5,0-1.1,0-1.6,0-1,0-2,0-3,0h-1.6M23.9,34.5c-.6.3-1.3.3-1.9.3-1.3,0-2.5.3-3.8.4-.6,0-1.3,0-2,0-1.2,0-2.5,0-3.7,0s-1.3,0-1.9,0M23.9,15.3c-.3.1-.7,0-1.1,0-.7,0-1.5,0-2.2.1-1.1,0-2.3.1-3.4.1s-1.6,0-2.4.1c-.9,0-1.8,0-2.7.1-.3,0-.7,0-1-.1M10.3,28.1c1.5,0,2.9,0,4.4,0h1.9c1.4,0,2.7,0,4.1-.2.4,0,.9,0,1.3,0h1.1M23.3,20.4h-4c-1.1,0-2.3,0-3.4,0-1.6,0-3.2.2-4.8.3h-.6M10,5.2c-.1.2-.2.4-.2.6-.1.4-.4.6-.7.8-.4.2-.7.4-1.1.6-.6.3-.7,1-.4,1.3.2.3.5.5.8.6.6.3,1.2.3,1.7.4.6.1,10.4-.2,11.6-.6.4-.1.8-.2,1.1-.5.7-.5.6-1.4,0-1.8-.3-.2-.7-.4-1-.5s-.5-.3-.7-.4c0-.1-.2-.2-.2-.4,0-.3-.2-.4-.5-.4-.3.1-9.4.3-9.8.4-.2,0-.3,0-.5-.1M20.8,5.1c.3-.1.6-.1,1-.1.6,0,1.2.1,1.7-.1.2-.1.4-.1.5-.4s0-.6,0-1c0-.6-.2-1.2-.7-1.4-.6-.3-1.3-.1-2-.2-.7,0-12.6.5-13.4.5-1.9,0-1.5.7-1.7,1.6-.1.5-.1,1.1-.1,1.6M9.8,5.4c-.4-.1-3.3.2-3.7.3M6.1,5.7h-.1c-.6.3-1.3.4-2,.6-.8.1-1.2.5-1.3,1.3-.1.7,0,1.4.1,2,.1.8.2,1.7.3,2.5.1.9.2,1.8.3,2.7.1.8.1,1.5.2,2.3s.1,1.6.1,2.3c.1,1.4.1,2.9.2,4.3,0,.3,0,.7.1,1,.1.9.1,1.8.2,2.7.1.8.1,1.6.1,2.5.1,1.1.1,2.2.2,3.2,0,.8,0,1.5.1,2.3.1,1.3.1,2.6.2,3.9,0,.6.1,1.1.2,1.7.1.6.3.8.8.9.3,0,.6,0,.9,0,1.6,0,3.2,0,4.9-.2.3,0,.5,0,.8,0,.6,0,1.2,0,1.8-.2.8,0,1.6,0,2.4-.2,1,0,2.1,0,3.1-.2,1.4,0,2.8,0,4.2,0s2.3,0,3.4-.2c.6,0,.9-.3,1-1s0-1.4,0-2.1c0-.9,0-1.8-.2-2.7,0-.9,0-1.8,0-2.7s0-1.4,0-2.1c0-.9,0-1.8,0-2.7,0-1.3,0-2.6,0-3.9,0-1.1,0-2.2,0-3.3,0-1.7,0-3.4,0-5s0-1.2,0-1.8c0-1.3-.2-2.7-.2-4,0-1.2,0-2.3-.2-3.5,0-.9-.2-1.2-1-1.3h-2.1M29.2,18.8s-.2-18.1-1.7-18.1S0-.9.4,3.2c.1.8.5,11.4.6,12.6,0,.8,2.2,27.3,2.3,27.9.5,1.8,25.4,0,25.8-1.1.3-.6.1-23.8.1-23.8"/>
</svg>