<?xml version="1.0" encoding="UTF-8"?>
<svg id="Laag_1" data-name="Laag 1" xmlns="http://www.w3.org/2000/svg" version="1.1" viewBox="0 0 62.6 42.1">
  <defs>
    <style>
      .cls-1 {
        fill: none;
        stroke: #494948;
        stroke-linecap: round;
        stroke-miterlimit: 10;
        stroke-width: .8px;
      }
    </style>
  </defs>
  <path class="cls-1" d="M62.1,35.4c-.5.2-1.5.2-2.1.2-1.4,0-2.8.2-4.2.5M49,13.2v.3c0,.8,0,1.5.2,2.3,0,1,.2,2,.3,3,0,.5,0,1,0,1.6v2.4c0,.3,0,.6.2.9M6,37.5c.2.6.4,1.3.6,2,.2.6.7,1.1,1.2,1.4,1.1.6,2.3.9,3.5.8.8,0,1.4-.5,1.9-1.2.5-.8.6-1.7.8-2.5,0-.2-.1-.4-.1-.7-.1-.5-.1-1-.4-1.5-.6-1.2-1.6-1.8-3-1.9-1,0-1.8.3-2.7.6-.6.2-.9.7-1.1,1.3-.3.4-.4,1-.7,1.7M61.6,23c-1.1.4-2.2.4-3.3.5-1.2,0-2.5,0-3.7,0-1.2,0-2.4.2-3.7.3h-1M1.1,28.6c-.3.3-.4.7-.4,1.1,0,1.9,0,3.8-.2,5.8,0,.4,0,.8,0,1.1,0,.6.4,1,1,1.2.9.2,1.7,0,2.6,0s1.2-.2,1.8-.3M62.2,35.2c0-.3,0-.6,0-1v-6.7c0-1.1,0-2.2,0-3.3,0-.3,0-.5-.2-.8,0-.2-.3-.5-.3-.8s-.3-.6-.5-.8c-.7-.9-1.5-1.7-2.3-2.5-.9-1-1.8-2.1-2.6-3.1-.4-.5-.9-1-1.4-1.5-.6-.5-1-1.1-1.6-1.6-.2-.2-.5-.3-.8-.3-1,.1-1.9,0-2.9.1-.5.1-.9-.1-1.4-.1-1,0-2-.1-2.9,0-.5,0-1,.1-1.5.1M47.2,36.7c.2-.4.2-.9.2-1.4,0-.8.4-1.5,1-2,.3-.2.5-.4.8-.6.9-.6,1.8-.7,2.9-.4,1.1.3,2.1.9,2.8,1.9.3.4.4,1,.6,1.4.4.7,0,1.3,0,1.9-.4,1.6-1.6,2.4-3.1,2.7-.9.2-1.8,0-2.6-.6-.7-.6-1.3-1.2-1.8-2-.2-.3-.5-.7-.7-.9-.9,0-1.7.3-2.5.3-2.1,0-4.2.2-6.3.2s-2.8,0-4.2.2c-1.7,0-3.4,0-5.1.2-1.2,0-2.4,0-3.5,0s-2.5,0-3.8,0-3.1,0-4.6,0-2,0-3,.2M43.7,12.9c-.3-.5-.4-1-.4-1.5,0-1.9,0-3.7-.2-5.6,0-.9,0-1.7,0-2.6,0-1.5-.6-2-1.9-2.6-.7-.3-1.5-.2-2.2-.2s-.8.1-1.3.1h-2c-1.9.1-3.8.1-5.7.1h-4.5c-1.1,0-2.2-.1-3.3-.1h-8.4c-.8,0-1.5.1-2.3.1-1.5,0-3-.1-4.5-.1s-2.3.1-3.4.2c-.5.1-1,.1-1.5.3-.6.2-.9.6-1.2,1.1-.4.7-.4,1.5-.4,2.3v2.4c0,2.2,0,4.4,0,6.5v6.4c0,.7,0,1.5,0,2.2v1.1c0,1.3,0,2.6.2,3.9,0,.4,0,.7.3,1.1,0,.2.2.3.4.3,1.5,0,2.9.3,4.4.3s2.1,0,3.1,0c1.7,0,3.3,0,5,0s3.8-.2,5.7,0h8.7c1.6,0,3.3,0,4.9,0,1.2,0,2.5,0,3.7,0,1,0,2.1,0,3.1,0s1.3-.2,1.9-.4c.4,0,.6-.3.7-.8.2-.8.3-1.6.4-2.4,0-2.1,0-4.2.2-6.3,0-1.2,0-2.4,0-3.5s0-1.2,0-1.8c0,.2.2,0,.4-.5"/>
</svg>