<?xml version="1.0" encoding="UTF-8"?>
<svg id="Laag_1" data-name="Laag 1" xmlns="http://www.w3.org/2000/svg" version="1.1" viewBox="0 0 40 42.1">
  <defs>
    <style>
      .cls-1 {
        fill: none;
        stroke: #494948;
        stroke-linecap: round;
        stroke-miterlimit: 10;
        stroke-width: .8px;
      }
    </style>
  </defs>
  <path class="cls-1" d="M27.3,31.4c-.4,0-.3.7-.7.5M23.2,9.9c-.3.4-.7.7-1,1.1M36.9,18.2c-.4.4-.7.9-1.1,1.3M37.4,19.2c-.4.4-.7.9-1.1,1.3M37.9,20.4c-.7,0-.7,1.3-1.6,1.2M27.8,29c-.8.3-.7,1.4-1.6,1.6M24.4,11.6c-.5.6-1.1,1.2-1.6,1.8M38.4,21.6c-.9.4-1.1,1.4-2,1.8M29.5,33.3c-.7.8-1.4,1.6-2.1,2.4M34.6,15c.2.9.3,1.8.7,2.7M29.5,30.4c-1.2.4-1.7,1.4-2.2,2.4M28.9,27.6c.5,1.4.9,2.7.9,4.2M36.6,16.5c0,.2-.2.5-.4.6-1,.7-1.1,1.6-.7,2.6.7,1.8.4,3.7.9,5.5M25.6,28.1c.3,1.7.6,3.4,1,5.1.4,1.7.6,3.5,1.2,5.1M37.4,11.3c1,.8,1,2.1,1.2,3.2.4,2.2.6,4.5,1,6.7,0,.4,0,.6-.2.9-1,1.3-1.9,2.6-3.2,3.7-.4.4-1,.5-1.6.5-1.9.2-3.8.5-5.6,1.1-.5.2-1.2-.2-1.8,0-.5.2-.9.4-1.3.8M37.1,11.2c-.7-.8-1.5-.2-2.2-.1-2.4.2-4.8.3-7.2.7-.7.1-1,.3-1.4.9-.6,1-1.3,1.9-2,2.8,0,.2-.4.2-.6.3M23.8,1.7c.8,1.2.7,2.7,1.1,4,.5,1.6.8,3.3,1.2,4.9,0,.5.3,1,.7,1.3M20.7,4.6c-1.6-.1-3.1.5-4.6.7-1.6.2-3.1.5-4.7.7-.4.1-.9.1-1.3-.2M10.8,14.8c-2,.5-3.9,1.4-6,1.5-.2,0-.5,0-.6.1-1.4,1.3-3,2.5-3.7,4.4-.3.8.2,1.5.4,2.1,1.2,2.7,1.9,5.6,2.9,8.4.1.3.3.5.4.9,2.4-.6,4.9-1.2,7.3-1.9q2.9-.8,3.5,2l1.5,7.5c.1.7.5,1.3.7,1.9,3.2-.5,6.3-1.2,9.3-2.2,1.1-.4,1.9-1.1,2.3-2.2.2-.6.6-1.1,1-1.6.6-.7.7-1.5.4-2.3M37,11.8c-.5.7-1.3,1.1-1.6,2.1-.3.7-1.1,1.1-1.9,1.3-2.9.7-5.9,1.1-8.8,1.7-.7.1-.7-.1-1-.6-.7-1.8-1.4-3.6-1.8-5.5-.3-1.3-.7-2.6-1-3.9,0-.3,0-.6-.2-.9,0-.5-.3-1.2.3-1.7.9-.8,1.3-2,2.3-2.7.4-.2.2-.4,0-.7,0-.5-.4-.5-.8-.5-1.2.1-2.5.2-3.7.5s-1.6.4-2.5.5c-2.9.4-4.8,2.4-6.8,4.4-.7.8-.7,1.5-.5,2.3.8,2.9,1.2,5.9,2.2,8.7.4,1.1,0,1.5-1.2,1.8-2.7.7-5.5.8-8.2,1.7-.4,0-.8,0-1.2,0"/>
</svg>