<?xml version="1.0" encoding="UTF-8"?>
<svg id="Laag_1" data-name="Laag 1" xmlns="http://www.w3.org/2000/svg" version="1.1" viewBox="0 0 33.2 33.2">
  <defs>
    <style>
      .cls-1 {
        stroke-linecap: round;
        stroke-linejoin: round;
      }

      .cls-1, .cls-2 {
        fill: none;
        stroke: #494948;
        stroke-width: .8px;
      }
    </style>
  </defs>
  <circle class="cls-2" cx="16.6" cy="16.6" r="16.2"/>
  <path class="cls-1" d="M12.4,14c-.4,0-.8,0-1.2.4-.5.4-.1.8-.1,1.2M12.9,6.2c.7.7,1,1.7,1.6,2.5.2.3.4.6.8.7M17.8,6.1c-1,.4-1.5,1.1-1.8,2,0,.4-.2.8-.5,1.1-.3.2,0,.5,0,.7,0,.7-.2,1.4,0,2M12.9,6c-.4.5-.9.9-1,1.6-.2.9.1,1.8.9,2.2.6.3,1.3.6,1.9.8M14.7,27c.3,0,.4-.2.5-.3.6-.6,1.3-.6,2-.3s1.4.6,2.2.7c1.2.2,2.2,0,3-.9,1.2-1.2,2.4-2.4,2.9-4.1.7-2.3,1.3-4.6,1-7-.2-1.6-.9-3.1-2.4-4.1-.3-.2-.6-.3-1-.3-1.2,0-2.4-.2-3.6-.1-.9.1-1.7.4-2.4,1-.9.8-1.9.9-3,.4-1.2-.6-2.5-.8-3.9-.7-1.2.1-2.3.8-2.8,2.3-1.1,3.2-.6,6.3,1,9.3.7,1.3,1.6,2.5,2.9,3.4,1.1.6,2.2,1.2,3.6.7"/>
</svg>