<?xml version="1.0" encoding="UTF-8"?>
<svg id="Laag_1" data-name="Laag 1" xmlns="http://www.w3.org/2000/svg" version="1.1" viewBox="0 0 23.5 43">
  <defs>
    <style>
      .cls-1 {
        stroke-linecap: round;
      }

      .cls-1, .cls-2 {
        fill: none;
        stroke: #494948;
        stroke-miterlimit: 10;
        stroke-width: .8px;
      }
    </style>
  </defs>
  <path class="cls-1" d="M8.3,33.8c1.3,3.2,1.9,4.4,2.1,4.8,0,0,.2,0,.3,0,1.3-2.1,12.5-21.4,12.5-27.2,0-6.2-5.3-11.1-11.5-11C5.4.5-.3,5.6.5,11.7c.4,3.2,5.3,15.6,7.1,20.4"/>
  <path class="cls-2" d="M11.3,15.2s1.1-.6,1.7-.9,2.5-1.6,2.5-1.6M15.6,11.8c0,1.9-1.5,3.4-3.5,3.4s-3.6-1.5-3.6-3.3,1.5-3.4,3.5-3.4,3.6,1.5,3.6,3.3ZM9.1,13.7c.4,0,.8-.1,1.2-.3.5-.3.8-.7,1.2-1.2.3-.3.6-.6,1-.8l1.2-.6c.5-.2,1-.5,1.5-.7M8.6,12.7c.7-.5,1.4-1,2.2-1.6.3-.2.6-.4.9-.6.3-.1.5-.3.8-.4.6-.3,1.2-.7,1.7-1.1M8.6,11.3c1.6-.5,2.7-1.9,4.2-2.7M10.2,14.8c1.3-.6,2.6-1.2,3.6-2.2.6-.5,1-1.1,1.7-1.5"/>
  <path class="cls-1" d="M12.6,38.9c.9,0,1.7.4,2.3.9s.8,1.2.4,1.7c-.4.6-1.4.9-2.3,1-1.4.2-2.9.2-4.4,0-1,0-2.1-.2-2.7-.8-.5-.4-.5-1-.2-1.5.4-.5,2.1-1.3,2.9-1.3"/>
</svg>