<?xml version="1.0" encoding="UTF-8"?>
<svg id="Laag_1" data-name="Laag 1" xmlns="http://www.w3.org/2000/svg" version="1.1" viewBox="0 0 31.9 42">
  <defs>
    <style>
      .cls-1 {
        fill: none;
        stroke: #494948;
        stroke-linecap: round;
        stroke-miterlimit: 10;
        stroke-width: .8px;
      }
    </style>
  </defs>
  <path class="cls-1" d="M22.2,13.4c-3.5,2.1-6.3,2.6-7.5,2.5-2.7-.2-6.4-3.2-6.7-6C7.1,3,11.6-.3,17.9.5c2.8.4,5.8,4.4,5.9,7.6,0,1.6,0,3.5-1.6,5.3M31.1,36.7c.7-3.6,0-7.2-1.2-10.6-1.7-4.6-5.6-6.3-9.9-6.7-3.4-.3-6.8-.2-10.2.4-4.8.8-8.6,4.6-9.2,10.4-.4,3.7-.1,7.4-.1,11.4h16.4c3.8,0,7.6,0,11.4,0,2.4,0,3.9-.4,3-3.3-.2-.1-.3-1.2-.2-1.6h0Z"/>
</svg>