<?xml version="1.0" encoding="UTF-8"?>
<svg id="Laag_1" data-name="Laag 1" xmlns="http://www.w3.org/2000/svg" version="1.1" viewBox="0 0 33.2 33.2">
  <defs>
    <style>
      .cls-1 {
        stroke-miterlimit: 10;
      }

      .cls-1, .cls-2 {
        fill: none;
        stroke: #494948;
        stroke-width: .8px;
      }
    </style>
  </defs>
  <circle class="cls-2" cx="16.6" cy="16.6" r="16.2"/>
  <path class="cls-1" d="M21.6,26.4c1.7-1.3,2.4-3,2.6-5.1.4-4.2-3.1-7.3-7.2-6.4-.4,0-.5.3-.4.6,0,.4.3.8.4,1.3.2.6,0,.7-.5.5-1.6-.4-3.2-.9-4.8-1.3-1.6-.5-3.3-.9-4.9-1.4-.4,0-.6-.3-.2-.7,2.4-2.4,4.7-4.8,7-7.2.5-.5.6-.5.8.2h0c.5,1.8.5,1.7,2.2,1.6,6-.4,10.1,3.6,10.4,8.9.2,3.3-.9,6-3.6,8-.6.6-1.1.9-1.8,1Z"/>
</svg>