<?xml version="1.0" encoding="UTF-8"?>
<svg id="Laag_1" data-name="Laag 1" xmlns="http://www.w3.org/2000/svg" version="1.1" viewBox="0 0 20.6 21">
  <defs>
    <style>
      .cls-1 {
        fill: #494948;
        stroke-miterlimit: 10;
      }

      .cls-1, .cls-2 {
        stroke: #494948;
        stroke-width: .8px;
      }

      .cls-2 {
        fill: none;
        stroke-linecap: round;
        stroke-linejoin: round;
      }
    </style>
  </defs>
  <path class="cls-2" d="M10,.4c-.5.1-.9.2-1.4.3-.8.2-1.6.5-2.3,1-1.6,1-2.8,2.4-3.9,4-.8,1.1-1.4,2.4-1.7,3.7-.3,1.5-.5,3-.1,4.5.4,1.7,1.2,3,2.4,4.2,1.1,1.1,2.5,1.8,4,2.3.6.2,1.3.3,2,.3h1.3M10.3,2v1.5M10.4,17.7v1.5M18.6,10.9c-1.1,0-.6,0-1.6,0M3.2,11.1c-.5,0-1,0-1.4.2h-.4M10.7,11c-.7,0,4-2.6,3.7-2.6M7.1,5.4c.7,1.5,3.6,4.7,3.2,5.5"/>
  <path class="cls-1" d="M10.4,11q0,0,0,0h0q0-.2,0-.3h0q0,0,0,0h.2v.3h0q0,.2,0,.2t-.2,0,0,0"/>
  <path class="cls-2" d="M10.4,11q0,0,0,0h0q0-.2,0-.3h0q0,0,0,0h.2v.3h0q0,.2,0,.2t-.2,0,0,0Z"/>
  <path class="cls-2" d="M2.7,6.2c.4.2.9.5,1.3.7M16.4,13.7c.4.2.9.5,1.3.7M14.5,3.2c-.5.9-.3.5-.7,1.5M7.1,16.8c-.2.5-.3.9-.5,1.4,0,0-.1.2-.1.3M5.9,3.1c.3.4.5.9.8,1.3M14.1,16.5c.3.4.5.9.8,1.3M17.6,6.4c-.9.6-.5.3-1.3,1M4.5,14.6c-.4.3-.8.6-1.1,1-.1,0-.2,0-.3.2M10.5,20.6c.5,0,1.1,0,1.6-.2,2.7-.5,5-1.7,6.6-4.2M18.7,16.3c.9-1.4,1.4-3.1,1.5-4.8,0-2.2-.2-4.2-1.2-6.1-1.2-2.2-3-3.8-5.3-4.5-1.1-.3-2.3-.5-3.4-.5"/>
</svg>