<?xml version="1.0" encoding="UTF-8"?>
<svg id="Laag_1" data-name="Laag 1" xmlns="http://www.w3.org/2000/svg" version="1.1" viewBox="0 0 21.3 17">
  <defs>
    <style>
      .cls-1 {
        fill: #494948;
        stroke-width: 0px;
      }
    </style>
  </defs>
  <path class="cls-1" d="M17.8,7c-1.3.8-2.7,1.5-4.1,2.3-1.1.6-2.1,1.1-2.9,2.1h0q0,0,0,0c-.8-1-1.8-1.5-2.9-2.1-1.4-.7-2.8-1.4-4.1-2.3-1.2-.7-2-1.8-1.9-3.2.1-1.2.6-2.2,1.8-2.7,1.2-.5,2.4-.7,3.5.2.7.5,1.4.9,2.1,1.3.5.3,1,.4,1.5.4s1-.1,1.5-.4c.7-.4,1.4-.8,2.1-1.3,1.1-.9,2.3-.7,3.5-.2s1.7,1.5,1.8,2.7c0,1.5-.8,2.5-1.9,3.2M17.8.5c-1.7-.6-3.4-.6-5.1,0-.7.2-1.3.4-2.1.6-.7-.2-1.4-.3-2.1-.6C6.8-.2,5.1-.2,3.4.5.8,1.3-.5,3.6.2,5.9c.4,1.3,1.4,2.1,2.5,2.8,1.3.8,2.8,1.5,4.1,2.3.7.4,1.4.9,2,1.4,1,.9.9,2.5,0,3.4-.9,1-2.5,1.1-3.6.4-.7-.5-1.5-1-2.2-1.5-.6-.4-1.3-.5-2-.4v2c1,.2,1.9.4,2.9.6,1.9.4,3.8.2,5.5-.7.4-.2.8-.5,1.1-.9.3.3.6.7,1.1.9,1.7.9,3.6,1.1,5.5.7.9-.2,1.9-.4,2.9-.6v-2c-.7,0-1.4,0-2,.4-.8.5-1.5,1-2.2,1.5-1.1.7-2.7.5-3.6-.4-.9-.9-.9-2.5,0-3.4.6-.5,1.3-1,2-1.4,1.3-.8,2.8-1.5,4.1-2.3,1.1-.7,2.1-1.5,2.5-2.8.8-2.2-.6-4.5-3.2-5.4"/>
  <path class="cls-1" d="M20.3,10.1v-.3h.4v.2h-.4ZM20.6,10.2h.3v-.2q0,0,0-.2s0,0-.2,0h-.4v.8h0v-.4h.2l.2.4h0l-.2-.3ZM20.2,10.7c0,0,0,0-.2,0q0,0,0-.2v-.4c0,0,0,0,0-.2q0,0,.2,0h.6c0,0,0,0,.2,0q0,0,0,.2v.4s0,0,0,.2c0,0-.2,0-.3,0h-.3c0,0-.1,0-.2,0M20.8,10.7c0,0,.2,0,.2-.2l.2-.2c0,0,0-.2,0-.3s0-.2,0-.3c0,0,0-.2-.2-.2l-.2-.2c0,0-.2,0-.3,0s-.2,0-.3,0c0,0-.2,0-.2.2l-.2.2c0,0,0,.2,0,.3s0,.2,0,.3c0,0,0,.2.2.2l.2.2c.1.1.2,0,.3,0,.1,0,.2,0,.3,0"/>
</svg>