<?xml version="1.0" encoding="UTF-8"?>
<svg id="Laag_1" data-name="Laag 1" xmlns="http://www.w3.org/2000/svg" version="1.1" viewBox="0 0 53.5 42">
  <defs>
    <style>
      .cls-1 {
        fill: #494948;
      }

      .cls-1, .cls-2 {
        stroke: #494948;
        stroke-miterlimit: 10;
        stroke-width: .8px;
      }

      .cls-2 {
        fill: none;
      }
    </style>
  </defs>
  <path class="cls-1" d="M26.7,41.3c-9.7,0-21.3-1.8-25.2-5.8-.7-.7-1-1.5-.8-2.2.6-2.5,5.9-4.5,7-4.9-.5,2.5-.6,4.4-.6,4.4h0c0,.2,1.1,3.9,19.2,4.7h2.3c11.7,0,18.1-3.7,18.4-5.9,0-.3,0-1,0-1.9,1,.3,5.8,2,5.8,5.1.1,6.1-19.9,6.5-26,6.5M9.8,23c2.1-4.3,6.4-9.4,15.2-9.9,0,.3,0,.6.3.8.6.4,1.1.5,1.6.5s1.2-.2,1.6-.4.3-.3.4-.5v-.4c5.6.4,10,2.4,13.2,6.1,4.3,4.9,5,11.1,4.8,12.4-.3,2.2-7.7,6.1-20.5,5.6-17.3-.7-18.8-4.2-18.9-4.4,0-.4.1-5.1,2.3-9.8M26.8,11.9c.5,0,1.1.3,1.7,1.1,0,.1,0,.3,0,.4s0,.2-.2.3c-.7.4-1.7.7-2.8,0-.2-.1-.3-.4,0-.6.1-.4.6-1.1,1.3-1.2M50,30.7c-1.3-.8-2.7-1.2-3-1.3-.4-2.6-1.6-6.8-4.7-10.4-3.3-3.8-7.9-5.8-13.6-6.2-.6-.8-1.2-1.2-1.9-1.2s-1.3.6-1.6,1.2c-9.1.5-13.5,5.7-15.6,10.1-.9,1.8-1.4,3.6-1.8,5.2-.7.2-6.7,2.3-7.4,5.1-.2.9.1,1.7.9,2.5,4,4.1,15.6,5.9,25.4,5.9s26.3-.7,26.4-6.8c0-1.5-1.1-2.9-3.1-4.1"/>
  <path class="cls-2" d="M26.7,41.3c-9.7,0-21.3-1.8-25.2-5.8-.7-.7-1-1.5-.8-2.2.6-2.5,5.9-4.5,7-4.9-.5,2.5-.6,4.4-.6,4.4h0c0,.2,1.1,3.9,19.2,4.7h2.3c11.7,0,18.1-3.7,18.4-5.9,0-.3,0-1,0-1.9,1,.3,5.8,2,5.8,5.1.1,6.1-19.9,6.5-26,6.5ZM9.8,23c2.1-4.3,6.4-9.4,15.2-9.9,0,.3,0,.6.3.8.6.4,1.1.5,1.6.5s1.2-.2,1.6-.4.3-.3.4-.5v-.4c5.6.4,10,2.4,13.2,6.1,4.3,4.9,5,11.1,4.8,12.4-.3,2.2-7.7,6.1-20.5,5.6-17.3-.7-18.8-4.2-18.9-4.4,0-.4.1-5.1,2.3-9.8ZM26.8,11.9c.5,0,1.1.3,1.7,1.1,0,.1,0,.3,0,.4s0,.2-.2.3c-.7.4-1.7.7-2.8,0-.2-.1-.3-.4,0-.6.1-.4.6-1.1,1.3-1.2ZM50,30.7c-1.3-.8-2.7-1.2-3-1.3-.4-2.6-1.6-6.8-4.7-10.4-3.3-3.8-7.9-5.8-13.6-6.2-.6-.8-1.2-1.2-1.9-1.2s-1.3.6-1.6,1.2c-9.1.5-13.5,5.7-15.6,10.1-.9,1.8-1.4,3.6-1.8,5.2-.7.2-6.7,2.3-7.4,5.1-.2.9.1,1.7.9,2.5,4,4.1,15.6,5.9,25.4,5.9s26.3-.7,26.4-6.8c0-1.5-1.1-2.9-3.1-4.1Z"/>
  <path class="cls-1" d="M26.8,8.5v.2c.2-.1,2.4-1.4,1.8-3.2-.3-.9-.7-1.3-1-1.6-.3-.3-.5-.5-.4-1,.2-1,1.2-2.1,1.2-2.1v-.2c0,0-1.2,1.1-1.4,2.2,0,.6,0,.9.5,1.2.3.3.7.7,1,1.5.4,1.7-1.7,3-1.7,3"/>
  <path class="cls-2" d="M26.8,8.5v.2c.2-.1,2.4-1.4,1.8-3.2-.3-.9-.7-1.3-1-1.6-.3-.3-.5-.5-.4-1,.2-1,1.2-2.1,1.2-2.1v-.2c0,0-1.2,1.1-1.4,2.2,0,.6,0,.9.5,1.2.3.3.7.7,1,1.5.4,1.7-1.7,3-1.7,3Z"/>
  <path class="cls-1" d="M30.8,9.6v.2c.2-.1,2.4-1.4,1.8-3.2-.3-.9-.7-1.3-1-1.6-.3-.3-.5-.5-.4-1,.2-1,1.2-2.1,1.2-2.1v-.2c0,0-1.2,1.1-1.4,2.2,0,.6,0,.9.5,1.2.3.3.7.7,1,1.5.5,1.7-1.7,3-1.7,3"/>
  <path class="cls-2" d="M30.8,9.6v.2c.2-.1,2.4-1.4,1.8-3.2-.3-.9-.7-1.3-1-1.6-.3-.3-.5-.5-.4-1,.2-1,1.2-2.1,1.2-2.1v-.2c0,0-1.2,1.1-1.4,2.2,0,.6,0,.9.5,1.2.3.3.7.7,1,1.5.5,1.7-1.7,3-1.7,3Z"/>
  <path class="cls-1" d="M22,9.5v.2c.2-.1,2.4-1.4,1.8-3.2-.3-.9-.7-1.3-1-1.6-.3-.3-.5-.5-.4-1,.2-1,1.2-2.1,1.2-2.1v-.2c-.1,0-1.2,1.1-1.4,2.2-.1.6.1.9.5,1.2.3.3.7.7,1,1.5.5,1.7-1.7,3-1.7,3"/>
  <path class="cls-2" d="M22,9.5v.2c.2-.1,2.4-1.4,1.8-3.2-.3-.9-.7-1.3-1-1.6-.3-.3-.5-.5-.4-1,.2-1,1.2-2.1,1.2-2.1v-.2c-.1,0-1.2,1.1-1.4,2.2-.1.6.1.9.5,1.2.3.3.7.7,1,1.5.5,1.7-1.7,3-1.7,3Z"/>
</svg>