<?xml version="1.0" encoding="UTF-8"?>
<svg id="Laag_1" data-name="Laag 1" xmlns="http://www.w3.org/2000/svg" version="1.1" viewBox="0 0 17.2 18.1">
  <defs>
    <style>
      .cls-1 {
        fill: #494948;
        stroke-width: 0px;
      }
    </style>
  </defs>
  <path class="cls-1" d="M.1,10.4v-4.7C.1,3.8,1.1,2.7,2.9,2.7h4.5c.7,0,1.1.3,1.1.9s-.4.9-1.1,1H2.9c-.9,0-1.1.3-1.1,1.2v9.3c0,.9.3,1.2,1.1,1.2h8.7c.9,0,1.1-.3,1.1-1.2v-4.8c0-.8.3-1.2.8-1.2s.9.4.9,1.3v4.8c0,1.8-1,2.9-2.7,2.9H2.7c-1.7,0-2.7-1.1-2.7-2.9.1-1.6.1-3.2.1-4.8"/>
  <path class="cls-1" d="M14.2,1.8h-2.8c-.7,0-1.1-.4-1-.9,0-.7.5-.9,1-.9h4.8c.6,0,1,.4,1,1.1v5c0,.8-.3,1.2-.9,1.2s-.8-.4-.8-1.2v-2.9c-.3.3-.4.4-.6.6-2.3,2.5-4.6,4.9-7,7.4,0,.2-.3.3-.4.4-.4.3-.8.3-1.1,0-.2-.3,0-.7,0-1.1s.3-.3.4-.5c2.3-2.5,4.6-4.9,7-7.4,0-.2.2-.4.5-.7"/>
</svg>