<?xml version="1.0" encoding="UTF-8"?>
<svg id="Laag_1" data-name="Laag 1" xmlns="http://www.w3.org/2000/svg" version="1.1" viewBox="0 0 174.54 50.83">
  <defs>
    <style>
      .cls-1 {
        fill: none;
        stroke: #494948;
        stroke-miterlimit: 10;
        stroke-width: .75px;
      }

      .cls-2 {
        fill: #494948;
        stroke-width: 0px;
      }
    </style>
  </defs>
  <path class="cls-2" d="M112.2,50.04c-.11-.11-.17-.26-.17-.47,0-.97.59-2.76,1.76-5.38v-.02c.14.01.29,0,.44-.01.15-.02.32-.05.5-.07.48.27.71.79.71,1.57,0,.39-.07.85-.2,1.38-.13.53-.3.98-.49,1.35-.27.53-.59.97-.96,1.3-.37.34-.76.5-1.17.5-.18,0-.33-.05-.44-.16M115.23,48.9c.6-1.11.9-2.17.9-3.19,0-.74-.2-1.35-.59-1.83.43-.15.89-.35,1.36-.58.47-.23.96-.49,1.46-.77.59-.34,1.08-.65,1.47-.94.39-.29.69-.55.9-.78.04-.06.08-.11.12-.17.03-.06.05-.11.05-.17,0-.21-.12-.31-.36-.31-.07,0-.15.03-.25.11-1.71,1.48-3.52,2.52-5.44,3.11-.08-.04-.17-.08-.26-.12-.09-.03-.19-.06-.31-.07.28-.57.53-1.07.75-1.49.22-.42.4-.76.54-1.03.35-.66.65-1.23.91-1.71.26-.48.48-.86.66-1.15l.67-1.07,1.93-2c.15-.15.36-.37.61-.64.25-.27.53-.58.83-.91.3-.34.59-.66.87-.98.28-.31.53-.59.74-.83.18-.22.31-.39.39-.49.08-.1.11-.21.11-.3,0-.18-.11-.27-.34-.27-.17,0-.34.04-.5.13-.17.08-.34.2-.53.34-1.39,1.02-2.95,2.86-4.68,5.52-.52.81-1.1,1.8-1.73,2.95-.64,1.16-1.33,2.48-2.07,3.98-.25.14-.38.28-.38.42,0,.08.03.15.08.21-1.08,2.39-1.62,4.16-1.62,5.31,0,.5.1.91.28,1.21.19.3.51.45.96.45.94,0,1.76-.64,2.46-1.93M107.81,41.99c0-.45.13-.95.38-1.52.25-.57.58-1.11.98-1.63.4-.52.83-.95,1.28-1.28s.89-.5,1.29-.5c.28,0,.51.09.69.27s.27.43.27.76c0,.55-.09,1.1-.27,1.66s-.44,1.08-.79,1.56-.75.89-1.21,1.21c-.46.32-.97.52-1.51.59-.01.01-.06.02-.15.02-.64,0-.97-.38-.97-1.13M110.52,43.29c.55-.34,1.04-.78,1.47-1.32.43-.55.78-1.14,1.03-1.8s.38-1.29.38-1.92c0-.48-.12-.91-.36-1.3-.24-.39-.62-.59-1.13-.59-.59,0-1.17.17-1.73.52s-1.08.8-1.54,1.35c-.46.55-.83,1.15-1.11,1.8-.28.64-.42,1.26-.42,1.85,0,1.27.57,1.91,1.7,1.91.6,0,1.18-.17,1.72-.5M98.01,43.88l.25-.74c.21-.62.49-1.19.85-1.72.36-.53.76-1.04,1.21-1.51.78-.83,1.52-1.44,2.22-1.86s1.3-.62,1.82-.62c.29,0,.44.12.44.36,0,.17-.06.41-.17.74-.11.32-.29.72-.53,1.2l-.97,1.91c-.15.31-.27.55-.34.73s-.11.37-.11.57c0,.52.28.78.84.78.74,0,1.45-.23,2.12-.69.67-.46,1.48-1.16,2.42-2.1.2-.2.29-.37.29-.52,0-.17-.1-.25-.31-.25-.11,0-.2.03-.25.08-.46.45-.94.9-1.43,1.34-.49.45-.97.82-1.43,1.1s-.89.43-1.28.43c-.17,0-.25-.08-.25-.23,0-.29.36-1.08,1.07-2.35.71-1.29,1.07-2.2,1.07-2.75,0-.28-.1-.52-.29-.71-.2-.2-.46-.29-.78-.29-.59,0-1.31.23-2.17.68-.86.46-1.69,1.12-2.49,2.01-.34.35-.61.66-.82.94l.8-1.97c.11-.28.26-.61.44-.98.18-.37.37-.73.56-1.08.19-.35.36-.62.51-.8.18-.2.42-.49.73-.87.3-.38.62-.81.97-1.27s.67-.92.97-1.38c.3-.45.55-.85.74-1.2.19-.34.28-.58.28-.7,0-.2-.1-.29-.29-.29-.5,0-1.79,1.75-3.86,5.25-.21.35-.43.76-.67,1.23s-.47.95-.69,1.44c-.39.88-.76,1.74-1.1,2.57-.34.83-.62,1.57-.83,2.2-.21.64-.32,1.1-.32,1.4,0,.22.11.34.34.34.21,0,.36-.13.46-.4M95.32,42.93c.77-.67,1.16-1.32,1.16-1.95,0-.27-.08-.51-.23-.73-.15-.22-.43-.39-.84-.51l-1.34-.42c-.56-.17-.84-.39-.84-.67s.11-.54.34-.78c.22-.24.51-.43.85-.58.34-.15.69-.22,1.04-.22.64,0,.97.21.97.63,0,.1-.04.2-.11.3-.08.11-.12.19-.12.26,0,.2.12.29.36.29.15,0,.29-.09.41-.27.12-.18.18-.38.18-.59,0-.36-.17-.65-.5-.87s-.73-.33-1.18-.33-.91.1-1.39.29c-.48.2-.87.46-1.19.8-.31.34-.47.71-.47,1.13,0,.22.08.43.23.61s.41.33.76.44l1.39.42c.29.08.51.21.64.38.13.17.2.36.2.57,0,.31-.13.63-.38.97-.25.34-.57.65-.95.94-.39.29-.79.53-1.22.71s-.82.27-1.19.27c-.43,0-.65-.13-.65-.38,0-.27.18-.61.54-1.04.36-.43.86-.79,1.5-1.1.15-.08.23-.16.23-.23,0-.08-.06-.13-.17-.13-.1,0-.22.02-.37.06-.15.04-.26.08-.35.13-.28.14-.58.34-.9.61-.32.27-.6.56-.83.88-.23.32-.35.64-.35.97,0,.52.39.78,1.18.78,1.16,0,2.37-.55,3.61-1.66M89.8,44.05c.15-.11.23-.27.23-.48,0-.24-.08-.36-.25-.36-.03,0-.2.08-.52.25-.32.18-.64.27-.95.27-.87,0-1.3-.53-1.3-1.6,0-.41.06-.84.19-1.3.45-1.61,1.07-3.22,1.88-4.83s1.84-3.19,3.12-4.73l1.47-1.78c.78-.95,1.18-1.55,1.18-1.78,0-.17-.15-.25-.46-.25-.48,0-1.32.85-2.52,2.56-.76,1.06-1.45,2.15-2.08,3.24-.63,1.1-1.22,2.22-1.76,3.35-.7,1.5-1.2,2.81-1.49,3.95-.17.67-.25,1.25-.25,1.72,0,.66.17,1.19.51,1.58.34.4.84.6,1.48.6.55,0,1.06-.14,1.53-.42M82.82,44.33c.36-.19.78-.45,1.26-.79.25-.18.52-.39.82-.63.29-.24.63-.53,1.01-.88.88-.8,1.32-1.29,1.32-1.47,0-.21-.11-.31-.34-.31-.1,0-.2.06-.32.17l-2.2,2.02c-.56.52-1.05.9-1.46,1.16-.41.25-.72.38-.91.38-.14,0-.24-.06-.29-.18-.06-.12-.08-.32-.08-.62,0-1.09.71-3.09,2.14-5.98.1-.06.15-.15.15-.29,0-.22-.15-.34-.44-.34-.1,0-.17.04-.22.12-.05.08-.11.19-.18.35-.17.41-.35.8-.56,1.17-.2.37-.43.75-.68,1.14-.56.84-1.19,1.63-1.89,2.37-.25.25-.55.52-.89.81-.34.29-.67.53-1,.72-.32.2-.58.29-.78.29-.31,0-.46-.3-.46-.9,0-.64.17-1.41.5-2.29.27-.77.71-1.67,1.34-2.71.1-.15.15-.27.15-.36,0-.1-.03-.17-.11-.22-.07-.05-.14-.07-.21-.07-.13,0-.23.05-.31.15-.24.29-.48.68-.71,1.15s-.46.99-.66,1.53c-.2.55-.36,1.07-.48,1.58-.12.51-.18.95-.18,1.31,0,.97.4,1.45,1.2,1.45.97,0,2.3-.99,3.99-2.96-.25.76-.38,1.4-.38,1.93,0,.99.34,1.49,1.03,1.49.2,0,.48-.1.84-.28M59.74,45.69c.03-.25.06-.52.1-.82s.13-.71.27-1.26c.14-.48.41-1.19.8-2.15.39-.96.93-2.05,1.62-3.26l.9-1.57c1.13-.13,2.39-.19,3.76-.19.49,0,1.28.02,2.38.06,1.1.04,2.5.11,4.21.21-1.37,3.11-2.06,5.28-2.06,6.51,0,.49.11.74.34.74.24,0,.36-.08.36-.25v-.46c0-1.16.71-3.32,2.12-6.47l.63.04c.14.01.25-.01.32-.08.07-.07.11-.15.11-.25,0-.24-.25-.36-.74-.36.48-1.02,1.05-2.1,1.72-3.23.45-.77.85-1.39,1.22-1.87.36-.48.67-.81.92-.99.13-.08.19-.18.19-.29,0-.22-.11-.34-.32-.34-.11,0-.26.07-.44.21-.18.14-.46.45-.84.93-.38.48-.82,1.15-1.32,2.01-.35.57-.68,1.15-1,1.73-.32.58-.61,1.17-.89,1.77-3.29-.21-5.55-.31-6.78-.31-.62,0-1.22.01-1.81.04s-1.15.07-1.68.13l1.66-2.67c.7-1.13,1.21-1.98,1.54-2.53.33-.55.49-.88.49-.98,0-.28-.13-.42-.4-.42-.13,0-.22.07-.27.21-.17.38-.39.8-.65,1.25s-.59.98-.97,1.59c-.52.81-.96,1.52-1.33,2.12-.37.6-.68,1.11-.91,1.51-1.74.27-2.6.58-2.6.94,0,.24.13.36.38.36.1,0,.3-.07.62-.22.31-.15.71-.25,1.19-.3-.29.49-.51.86-.65,1.11-1.93,3.5-2.9,6.08-2.9,7.73,0,.24.13.36.4.36.2,0,.3-.09.31-.27M52.06,44.05c.15-.11.23-.27.23-.48,0-.24-.08-.36-.25-.36-.03,0-.2.08-.53.25-.32.18-.64.27-.94.27-.87,0-1.3-.53-1.3-1.6,0-.41.06-.84.19-1.3.45-1.61,1.07-3.22,1.88-4.83.8-1.61,1.84-3.19,3.12-4.73l1.47-1.78c.78-.95,1.18-1.55,1.18-1.78,0-.17-.15-.25-.46-.25-.48,0-1.32.85-2.52,2.56-.76,1.06-1.45,2.15-2.08,3.24-.63,1.1-1.22,2.22-1.76,3.35-.7,1.5-1.2,2.81-1.49,3.95-.17.67-.25,1.25-.25,1.72,0,.66.17,1.19.51,1.58.34.4.84.6,1.48.6.55,0,1.06-.14,1.53-.42M42.65,39.47c.2-.32.41-.62.64-.89.23-.27.53-.58.89-.91.74-.69,1.39-1.03,1.95-1.03.29,0,.44.12.44.36,0,.53-.41,1.1-1.22,1.7-.36.27-.75.47-1.15.61-.41.14-.83.21-1.28.21-.1,0-.19-.01-.27-.04M45,43.88c.73-.27,1.4-.64,2.02-1.11.57-.43.99-.77,1.26-1.02.27-.24.52-.48.76-.7.28-.28.42-.5.42-.65,0-.08-.03-.15-.11-.19-.07-.04-.14-.06-.21-.06s-.15.03-.23.08c-.29.27-.57.52-.82.76s-.63.55-1.13.94c-.81.64-1.51,1.08-2.1,1.31-.59.23-1.21.35-1.87.35-.81,0-1.22-.46-1.22-1.39,0-.31.06-.67.17-1.09.11-.42.24-.76.38-1.03.1.03.21.05.33.07.12.02.26.03.41.03.88,0,1.78-.31,2.69-.92.98-.69,1.47-1.45,1.47-2.29,0-.67-.36-1.01-1.07-1.01-.43,0-.88.13-1.34.4-.46.27-.9.6-1.32,1.01-.28.27-.54.54-.78.83-.24.29-.45.58-.63.87-.67,1.06-1.01,2.1-1.01,3.11,0,.59.17,1.09.5,1.49.34.41.8.61,1.39.61.64,0,1.33-.13,2.06-.4M31.75,43.88l.25-.74c.21-.62.49-1.19.85-1.72.36-.53.76-1.04,1.21-1.51.78-.83,1.52-1.44,2.22-1.86s1.3-.62,1.82-.62c.29,0,.44.12.44.36,0,.17-.06.41-.17.74-.11.32-.29.72-.53,1.2l-.97,1.91c-.15.31-.27.55-.34.73s-.1.37-.1.57c0,.52.28.78.84.78.74,0,1.45-.23,2.12-.69s1.48-1.16,2.42-2.1c.2-.2.29-.37.29-.52,0-.17-.1-.25-.31-.25-.11,0-.2.03-.25.08-.46.45-.94.9-1.43,1.34-.49.45-.97.82-1.43,1.1-.46.29-.89.43-1.28.43-.17,0-.25-.08-.25-.23,0-.29.36-1.08,1.07-2.35.71-1.29,1.07-2.2,1.07-2.75,0-.28-.1-.52-.29-.71-.2-.2-.46-.29-.78-.29-.59,0-1.31.23-2.17.68-.86.46-1.69,1.12-2.49,2.01-.34.35-.61.66-.82.94l.8-1.97c.11-.28.26-.61.44-.98.18-.37.37-.73.56-1.08.19-.35.36-.62.51-.8.18-.2.42-.49.72-.87.3-.38.62-.81.97-1.27.34-.46.66-.92.97-1.38.3-.45.55-.85.74-1.2.19-.34.28-.58.28-.7,0-.2-.1-.29-.29-.29-.5,0-1.79,1.75-3.86,5.25-.21.35-.43.76-.67,1.23s-.47.95-.69,1.44c-.39.88-.76,1.74-1.1,2.57-.34.83-.62,1.57-.83,2.2-.21.64-.32,1.1-.32,1.4,0,.22.11.34.34.34.21,0,.36-.13.46-.4M28.34,43.84c.69-.24,1.35-.6,1.96-1.07.57-.43.99-.77,1.26-1.02.26-.24.52-.48.76-.7.28-.28.42-.5.42-.65,0-.08-.04-.15-.11-.19-.07-.04-.14-.06-.21-.06s-.15.03-.23.08c-.29.27-.57.52-.82.76-.25.24-.63.55-1.13.94-.81.64-1.52,1.07-2.12,1.27-.6.2-1.23.3-1.89.3-1.05,0-1.57-.58-1.57-1.74,0-1.01.47-2.15,1.41-3.42.31-.43.66-.82,1.07-1.16.41-.34.82-.62,1.23-.83.41-.21.77-.32,1.06-.32.55,0,.82.28.82.84,0,.2-.02.4-.07.6-.05.2-.07.37-.07.49,0,.29.13.44.4.44.17,0,.28-.11.34-.34.08-.32.13-.64.13-.95,0-.5-.13-.92-.4-1.26-.27-.34-.64-.5-1.13-.5-.56,0-1.16.2-1.8.6-.64.4-1.26.98-1.88,1.73-1.19,1.48-1.78,2.86-1.78,4.12,0,.73.21,1.31.63,1.74s1,.65,1.74.65c.64,0,1.31-.12,2-.36M18.67,42.28c-.07.18-.1.41-.1.69,0,.73.34,1.09,1.03,1.09.5,0,.95-.08,1.34-.25.39-.17.72-.33.99-.48.41-.25.83-.58,1.28-.98.45-.4.95-.88,1.51-1.44.2-.2.29-.37.29-.52,0-.17-.11-.25-.32-.25-.11,0-.2.03-.25.08-.45.45-.92.89-1.41,1.33-.49.44-.96.81-1.41,1.1-.22.15-.51.31-.86.46s-.67.23-.97.23c-.35,0-.53-.18-.53-.55,0-.5.27-1.15.8-1.93l.8-1.2c0-.22-.11-.34-.34-.34-.1,0-.18.04-.25.11-.2.22-.37.43-.52.61-.15.18-.28.33-.38.44-.64.8-1.27,1.43-1.89,1.89-.31.24-.67.47-1.08.69-.41.22-.8.34-1.16.34-.42,0-.63-.19-.63-.57s.09-.81.28-1.25c.19-.44.43-.88.72-1.31.29-.43.6-.81.9-1.13,1.29-1.3,2.36-1.95,3.21-1.95.53,0,.8.2.8.59,0,.13-.02.24-.07.35-.05.1-.07.21-.07.3,0,.24.13.36.38.36.28,0,.42-.29.42-.86,0-.88-.45-1.32-1.34-1.32-.5,0-1.03.14-1.58.41-.55.27-1.08.64-1.6,1.09-.52.46-.99.96-1.41,1.51-.42.55-.75,1.12-1,1.7-.24.58-.37,1.12-.37,1.63,0,.77.41,1.15,1.22,1.15,1.09,0,2.28-.61,3.55-1.83M4.28,37.23c.11-.19.29-.5.55-.94.53-.91,1.15-1.86,1.86-2.87.71-1,1.42-1.93,2.15-2.78.15-.03.32-.05.5-.07.18-.02.39-.03.61-.03.42,0,.88.03,1.36.1.49.07.95.18,1.38.33.43.15.78.34,1.05.58.27.24.41.52.41.86,0,1.02-.84,1.99-2.52,2.9-.45.24-.96.48-1.53.71s-1.21.47-1.91.69c-.6.18-1.07.32-1.4.43-.33.1-.53.16-.6.18-.39.04-.74.09-1.06.14-.32.05-.71.14-1.19.28.11-.15.22-.32.34-.51M.71,44.32c.2-.43.36-.82.5-1.14.14-.33.26-.61.36-.83.28-.63.58-1.26.91-1.89.33-.63.67-1.27,1.02-1.91,1.16-.42,2.24-.63,3.23-.63.57,0,1.12.08,1.64.24.52.16.94.42,1.27.77.33.35.49.8.49,1.36,0,.35-.07.73-.22,1.13-.15.41-.31.78-.49,1.13-.18.35-.34.62-.46.8-.1.14-.19.26-.27.35-.08.09-.13.16-.13.22,0,.15.12.23.36.23.18,0,.33-.07.44-.21.28-.32.55-.7.8-1.12.25-.43.46-.87.62-1.32.16-.46.24-.87.24-1.25,0-.56-.15-1.03-.45-1.42-.3-.38-.7-.69-1.2-.92-.5-.23-1.05-.39-1.67-.47,1.78-.42,3.28-.97,4.52-1.64,1.88-1.01,2.81-2.14,2.81-3.38,0-.76-.44-1.37-1.32-1.84-.88-.47-2.09-.7-3.63-.7-.88,0-1.43.03-1.64.08-.28.21-.66.63-1.13,1.26-.48.63-1.06,1.47-1.74,2.52-.35.53-.75,1.16-1.2,1.88-.45.72-.94,1.54-1.47,2.45-.13.06-.26.12-.4.19-.14.07-.21.17-.21.29,0,.17.07.28.21.34-.31.56-.77,1.46-1.39,2.71C.37,43.1,0,43.96,0,44.15c0,.24.14.36.42.36.14,0,.24-.06.29-.19"/>
  <path class="cls-2" d="M79.12,22.73c.08-.04.14-.07.2-.12.29-.2.62-.45.97-.78.35-.32.68-.68.99-1.06.31-.39.56-.77.76-1.16.2-.39.29-.74.29-1.06-.01-.22-.07-.41-.18-.55-.1-.14-.28-.21-.51-.21-.39,0-.59.22-.59.67,0,.11.04.21.13.3.08.09.17.14.25.16-.13.6-.42,1.16-.87,1.66-.45.5-1,.99-1.65,1.45-.14.1-.24.17-.29.22-.06.05-.08.11-.08.18,0,.22.13.34.38.34.07,0,.14-.02.22-.05M76.73,20.01v-.04l-.02-.17c-.01-1.22,1.4-4.33,4.24-9.32l.32-.02c.24-.01.52,0,.86.02.34.03.65.06.94.09.29.04.49.05.59.05.25,0,.38-.11.38-.34,0-.2-.1-.3-.31-.31-.57-.07-1.07-.12-1.49-.16-.42-.03-.74-.05-.94-.05.06-.1.47-.71,1.24-1.85.62-.91.92-1.47.92-1.68,0-.07-.03-.14-.08-.2-.06-.06-.14-.1-.25-.1-.18,0-.34.1-.48.29-.14.22-.27.43-.38.62-.11.19-.22.36-.32.51l-1.45,2.39c-1.04,0-1.84.12-2.42.36s-.86.54-.86.9c0,.22.11.34.34.34.1,0,.17-.02.22-.07.05-.05.08-.1.09-.16.03-.2.28-.36.75-.49.47-.13.97-.2,1.5-.2-1.37,2.49-2.4,4.51-3.1,6.05-.69,1.54-1.04,2.62-1.04,3.23,0,.42.13.63.4.63.24,0,.36-.11.36-.34M70.77,14.47c.2-.32.41-.62.64-.89.23-.27.53-.58.89-.91.74-.69,1.39-1.03,1.95-1.03.29,0,.44.12.44.36,0,.53-.41,1.1-1.22,1.7-.36.27-.75.47-1.15.61-.41.14-.83.21-1.28.21-.1,0-.19-.01-.27-.04M73.12,18.88c.73-.27,1.4-.64,2.02-1.11.57-.43.99-.77,1.26-1.02s.52-.48.76-.7c.28-.28.42-.5.42-.65,0-.08-.04-.15-.11-.19s-.14-.06-.21-.06-.15.03-.23.08c-.29.27-.57.52-.82.76-.25.24-.63.55-1.13.94-.81.64-1.51,1.08-2.1,1.31-.59.23-1.21.35-1.87.35-.81,0-1.22-.46-1.22-1.39,0-.31.06-.67.17-1.09.11-.42.24-.76.38-1.03.1.03.21.05.33.07.12.02.25.03.41.03.88,0,1.78-.31,2.69-.92.98-.69,1.47-1.45,1.47-2.29,0-.67-.36-1.01-1.07-1.01-.43,0-.88.13-1.34.4-.46.27-.9.6-1.32,1.01-.28.27-.54.54-.78.83-.24.29-.45.58-.63.87-.67,1.06-1.01,2.1-1.01,3.11,0,.59.17,1.08.5,1.49.34.41.8.61,1.39.61.64,0,1.33-.13,2.06-.4M62.68,16.99c0-.45.13-.96.38-1.52.25-.57.58-1.11.98-1.63.4-.52.83-.94,1.28-1.28.46-.34.89-.5,1.29-.5.28,0,.51.09.69.27.18.18.27.43.27.76,0,.55-.09,1.1-.27,1.66-.18.56-.44,1.08-.79,1.56-.34.48-.75.89-1.21,1.21-.46.32-.97.52-1.51.59-.01.01-.06.02-.15.02-.64,0-.97-.38-.97-1.13M65.39,18.29c.55-.34,1.04-.78,1.47-1.32.43-.55.78-1.15,1.03-1.8.25-.65.38-1.29.38-1.92,0-.48-.12-.91-.36-1.3-.24-.39-.62-.59-1.13-.59-.59,0-1.17.18-1.73.53-.57.35-1.08.8-1.54,1.35-.46.55-.83,1.15-1.11,1.8-.28.64-.42,1.26-.42,1.85,0,1.27.57,1.91,1.7,1.91.6,0,1.18-.17,1.72-.5M54.72,19.35s.1-.11.16-.18l1.05-1.47c.85-1.19,1.66-2.17,2.43-2.94s1.52-1.43,2.28-1.99c.69-.52,1.15-.78,1.39-.78.15,0,.25.08.29.25.07.24.17.36.31.36.29,0,.44-.22.44-.67s-.25-.69-.74-.69c-.71,0-1.74.58-3.07,1.74-.45.39-.89.81-1.32,1.24-.43.43-.86.9-1.28,1.39.22-.39.5-.95.84-1.68.2-.41.36-.76.48-1.07.13-.31.19-.53.19-.67,0-.27-.13-.4-.4-.4-.2,0-.29.1-.29.29,0,.18-.41,1.1-1.22,2.75l-1.91,3.86c-.03.06-.07.13-.12.21s-.07.17-.07.25c0,.18.11.27.34.27.1,0,.17-.02.22-.07M47.69,17.43c0-.83.34-1.81,1.01-2.96.22-.41.53-.82.9-1.25.38-.43.78-.79,1.2-1.08.42-.29.79-.44,1.11-.44.28,0,.5.1.67.29.17.2.31.6.44,1.2.04.22.11.37.21.44l-.61,1.55c-1.72,2.37-3.02,3.55-3.91,3.55-.69,0-1.03-.43-1.03-1.3M47.46,25.81c.92,0,1.84-.81,2.75-2.44.21-.39.44-.89.7-1.5s.54-1.33.85-2.17c.26-.69.5-1.28.71-1.8.21-.51.38-.93.52-1.27l.71-1.74c.19-.36.37-.68.53-.94.16-.27.3-.49.41-.67.52-.94.78-1.69.78-2.25,0-.28-.08-.42-.25-.42-.45,0-.94.64-1.47,1.93-.28-1.04-.86-1.55-1.74-1.55-1.12,0-2.26.78-3.42,2.33-1.06,1.46-1.6,2.79-1.6,3.99,0,.6.15,1.11.46,1.53.31.42.74.63,1.3.63.91,0,1.93-.68,3.07-2.04l-.69,2c-.66,1.9-1.28,3.3-1.87,4.18-.25.38-.54.73-.85,1.05-.31.32-.59.48-.83.48-.81,0-1.22-.55-1.22-1.66,0-.25,0-.5.02-.74.01-.25.03-.48.06-.7,0-.07.02-.17.06-.32.04-.17.06-.29.06-.38,0-.29-.14-.44-.42-.44-.15,0-.25.11-.29.34-.07.39-.12.79-.16,1.19s-.05.81-.05,1.23c0,.56.15,1.06.44,1.5.29.44.74.66,1.32.66h.08ZM35.43,14.47c.2-.32.41-.62.64-.89.23-.27.53-.58.89-.91.74-.69,1.39-1.03,1.95-1.03.29,0,.44.12.44.36,0,.53-.41,1.1-1.22,1.7-.36.27-.75.47-1.15.61-.41.14-.83.21-1.28.21-.1,0-.19-.01-.27-.04M37.78,18.88c.73-.27,1.4-.64,2.02-1.11.57-.43.99-.77,1.26-1.02.27-.24.52-.48.76-.7.28-.28.42-.5.42-.65,0-.08-.03-.15-.1-.19s-.14-.06-.21-.06-.15.03-.23.08c-.29.27-.57.52-.82.76-.25.24-.63.55-1.13.94-.81.64-1.51,1.08-2.1,1.31-.59.23-1.21.35-1.87.35-.81,0-1.22-.46-1.22-1.39,0-.31.06-.67.17-1.09.11-.42.24-.76.38-1.03.1.03.21.05.32.07.12.02.26.03.41.03.88,0,1.78-.31,2.69-.92.98-.69,1.47-1.45,1.47-2.29,0-.67-.36-1.01-1.07-1.01-.43,0-.88.13-1.34.4-.46.27-.9.6-1.32,1.01-.28.27-.54.54-.78.83-.24.29-.45.58-.63.87-.67,1.06-1.01,2.1-1.01,3.11,0,.59.17,1.08.5,1.49.34.41.8.61,1.39.61.64,0,1.33-.13,2.06-.4M31.52,16.4c1.39-1.79,2.08-3.18,2.08-4.18,0-.32-.06-.59-.17-.8-.11-.21-.24-.32-.38-.32-.21,0-.31.1-.31.32,0,.11.02.19.06.23s.08.1.12.17.05.2.05.38c0,.27-.09.61-.26,1.03-.18.42-.41.87-.71,1.34-.3.48-.63.94-1,1.41-.45.56-.91,1.07-1.39,1.52-.48.46-.91.76-1.3.91-.04-.21-.08-.46-.12-.76-.03-.29-.05-.63-.05-1.01,0-.83.05-1.63.16-2.41.1-.78.25-1.53.43-2.23.03-.13.06-.23.08-.33s.04-.19.04-.28c0-.18-.11-.27-.34-.27-.13,0-.23.08-.31.25-.1.2-.19.51-.27.96-.08.44-.16.93-.23,1.46-.07.53-.13,1.04-.17,1.53-.04.49-.06.88-.06,1.18,0,1.22.11,2.02.34,2.42,0,.13.08.19.25.19.88,0,2.04-.9,3.47-2.71M21.25,14.47c.2-.32.41-.62.64-.89.23-.27.53-.58.89-.91.74-.69,1.39-1.03,1.95-1.03.29,0,.44.12.44.36,0,.53-.41,1.1-1.22,1.7-.36.27-.75.47-1.16.61s-.83.21-1.28.21c-.1,0-.19-.01-.27-.04M23.6,18.88c.73-.27,1.4-.64,2.02-1.11.57-.43.99-.77,1.26-1.02.27-.24.52-.48.76-.7.28-.28.42-.5.42-.65,0-.08-.03-.15-.1-.19s-.14-.06-.21-.06-.15.03-.23.08c-.29.27-.57.52-.82.76-.25.24-.63.55-1.13.94-.81.64-1.51,1.08-2.1,1.31-.59.23-1.21.35-1.87.35-.81,0-1.22-.46-1.22-1.39,0-.31.06-.67.17-1.09.11-.42.24-.76.38-1.03.1.03.21.05.33.07.12.02.25.03.41.03.88,0,1.78-.31,2.69-.92.98-.69,1.47-1.45,1.47-2.29,0-.67-.36-1.01-1.07-1.01-.43,0-.88.13-1.34.4-.46.27-.9.6-1.32,1.01-.28.27-.54.54-.78.83-.24.29-.45.58-.63.87-.67,1.06-1.01,2.1-1.01,3.11,0,.59.17,1.08.5,1.49.34.41.8.61,1.39.61.64,0,1.33-.13,2.06-.4M16.84,18.71c.56-.28,1.07-.59,1.53-.92.29-.22.6-.48.92-.78.32-.29.67-.63,1.05-1.01.2-.2.29-.37.29-.53,0-.17-.1-.25-.31-.25-.11,0-.2.03-.25.08-.28.27-.62.58-1.02.94s-.82.72-1.27,1.06c-.45.34-.89.63-1.32.85s-.83.34-1.18.34c-.18,0-.3-.03-.35-.08-.05-.06-.07-.14-.07-.25,0-.25.08-.62.25-1.09.15-.48.3-.82.44-1.03.06-.08.18-.24.36-.47.18-.23.37-.48.57-.75.2-.27.35-.48.46-.63.28-.42.54-.83.78-1.22.24-.39.36-.66.36-.8,0-.22-.13-.34-.38-.34-.18,0-.42.17-.72.51-.3.34-.61.78-.93,1.31-.32.53-.63,1.09-.91,1.68-.29.59-.52,1.14-.7,1.65-.18.51-.27.91-.27,1.21s.09.54.26.69c.18.15.46.23.85.23.49,0,1.02-.14,1.58-.42M19.06,10.55s.08-.1.09-.16l.46-.65c.06-.08.2-.2.42-.34.15-.11.29-.23.41-.37.12-.13.18-.25.18-.35,0-.27-.15-.4-.44-.4-.11,0-.23.03-.37.1-.13.07-.32.24-.56.5-.07.07-.17.2-.29.4-.13.2-.24.39-.34.58-.1.19-.15.32-.15.39,0,.24.12.36.36.36.1,0,.17-.02.22-.07M.75,19.74c.12-.04.31-.09.58-.15.45-.11.93-.24,1.46-.39.53-.15,1.08-.28,1.67-.41.6-.14,1.25-.28,1.94-.41.69-.13,1.38-.24,2.05-.34.67-.09,1.27-.14,1.81-.14.43,0,.82.02,1.16.06.34.04.57.1.71.17v.06c0,.21.1.32.29.32.24,0,.36-.12.36-.36,0-.21-.22-.42-.66-.64s-.99-.33-1.65-.33c-2.18,0-5.31.55-9.37,1.64.7-1.25,1.36-2.4,1.99-3.47.62-1.06,1.2-2.04,1.73-2.92,1.41-2.34,2.47-4.1,3.17-5.28.7-1.18,1.05-1.8,1.05-1.86,0-.1-.05-.19-.15-.28-.1-.09-.2-.14-.29-.14s-.19.06-.27.19c-.32.52-.6.97-.82,1.34-.22.38-.41.71-.57.99l-2.75,4.6c-.99,1.65-1.8,3-2.42,4.03s-1.06,1.81-1.34,2.33c-.28.52-.42.84-.42.97,0,.11.06.22.19.32.13.1.24.15.34.15.03,0,.1-.02.22-.06"/>
  <path class="cls-1" d="M153.03,35.75c4.7-1.45,23.29-6.76,20.93-16.81-4.07-9.65-12.53-1.38-15.02.82-.26-.13-.59-8.84-5.13-10.83-4.54-1.99-9.46,3.13-7.76,10.1,1.71,6.97,6.98,16.72,6.98,16.72Z"/>
  <path class="cls-1" d="M135.9,16.62c1.93-2.23,9.7-10.84,5.3-15.21-5.14-3.62-6.81,3.28-7.38,5.19-.17.02-3.11-4.31-6.05-3.88-2.94.44-3.82,4.6-.74,7.61,3.08,3,8.87,6.29,8.87,6.29Z"/>
</svg>