<?xml version="1.0" encoding="UTF-8"?>
<svg id="Laag_1" data-name="Laag 1" xmlns="http://www.w3.org/2000/svg" version="1.1" viewBox="0 0 48.8 50.3">
  <defs>
    <style>
      .cls-1 {
        fill: none;
        stroke: #494948;
        stroke-linecap: round;
        stroke-linejoin: round;
        stroke-width: .8px;
      }

      .cls-2 {
        fill: #494948;
        stroke-width: 0px;
      }
    </style>
  </defs>
  <g>
    <path class="cls-1" d="M21.3,25.9c0,.4-.4.6-.5.9M29.6,33c-.2.3-.5.6-.7.9M23.8,29.4c-.3.3-.8.5-1,.9M17.2,28.9c-.3.3-.7.5-1,.8M34.2,35.5c0,.2.2.4.4.6,0,0,0,.3.2.4M27.5,36c-.2.5-.5.8-.9,1.1M21.1,31.3c.3-.4.5-.8.8-1.1M28.6,34.3c-.4.4-.8.8-1.2,1.1M19.2,48.7c0,.4-.1.8-.2,1.2M26,30.5c-.2.5-.6.8-.8,1.2M33.1,35.4c-.2.4-.6.7-1,1M20.7,29c-.4.4-.8.7-1.1,1.1M35,35c.3.4.9.4,1.2.8M21.3,31.8c-.5.3-.9.8-1.2,1.3M27.7,31.7c-.3.4-.4.9-.8,1.3M17.8,26.8c.3-.6.7-1.1,1.4-1.2M31.2,34.4c-.6.5-1.2,1.1-1.7,1.7-.2.2-.4.4-.7.5M29.7,37.5c.6.2,1.2.5,1.7.9.3.3.7,0,1,0,.3-.2.6-.4.8-.8M22.6,27.7c-.7,0-1.3-.4-1.8-.9-.1,0-.3,0-.4,0-.4-.2-.8-.6-1.1-.9-.1,0-.1-.2,0-.3.3-.6,1.1-.7,1.6-.3h.1c.2.5.5.7,1,.5.2,0,.4,0,.5,0,.4.3.8.5,1.1.9,0,0,0,.2.2.2.6,0,.9.6,1.2,1,.2.2.2.5,0,.7-.2,0-.3.3-.5.5M25,28.4c.6,0,1,.4,1.4.6s.5.3.6.6c0,.2-.3.4-.4.6-.2.3-.5.3-.7,0-.7-.6-1.6-1-2.3-1.6-.3-.2-.6-.5-.8-.9,0-.2,0-.3,0-.4.2-.2.5-.4.7-.5M23.2,33c.8.2,1.4.6,1.9,1.2.2.2,0,.3,0,.5-.2.4-.6.6-.8,1M27,29.7c.7.3,1.4.6,2,1.3.2.2.6.3.9.5.5.3.9.6,1.2,1.1.2.3.7.5,1,.6.3.2.6.3.9.6,0,0,.2,0,.4,0,.6,0,.9.4,1.3.8s0,.2,0,.2c-.2.2-.3.5-.6.6s-1,0-1.2-.4q-.5-.7,0-1.3M25.3,34.5c.6,0,.9.5,1.4.8.7.4,1.3.8,2,1.3.3.2.8.5,1,.9-.3.5-.6.8-1,1.2,0,.4.4.6.6.9,0,0,.3,0,.4,0,.5-.4,1.1-.5,1.6-.9M26.6,30.5l.7.7c.2.3.5.4.9.4s.7.3.9.6c.3.4.6.8,1.1.9,0,0,.2,0,.2.2,0,.5.6.6.8,1,0,.2.7.2,1,.2s.2,0,.3,0M30.3,35.4c.6.3,1.1.7,1.6,1,.4.2.7.6,1.1.9.2,0,.3,0,.5,0,.4,0,.8-.4,1.1-.7s.3-.3.6-.3c.4,0,.7-.5,1.1-.6M16.4,27.8c.2.3.6.6.8.9.1.2.4.2.6.3.3,0,.4,0,.5-.3.3-.3.6-.6.8-1,.7,0,1.2.4,1.6,1,0,0,.1.2.1.2.5,0,.7.5,1,.8.2,0,.3.3.5.4.6.3,1.3.7,1.9,1,.3.2.5.4.8.5q0,0,.2.2c.3.6.9.9,1.4,1.1,0,0,.2,0,.3.2.2.2.4.4.7.5,1,.4,1.7,1,2.5,1.7M18,29.1c.2.5.6.8,1.1,1,.2,0,.3,0,.4.3.2.5.6.7,1.1.8.3,0,.5.2.6.4,0,.2.2.2.3.2.6,0,1,.5,1.4.9.3.2.2.4,0,.6-.4.3-.6.8-.9,1.1M19.1,27.8c-.2-.6-.8-.7-1.3-1h-.2c-.2,0-.4.2-.5.4-.4.3-.7.6-1.2.6-.8,0-.9.8-.3,1.4.5.6.9,1.3,1.6,1.8s1.3,1.1,2,1.5c.9.5,1.6,1.3,2.5,1.7.8.3,1.5.9,2.2,1.3,1,.6,2.1,1.2,3,2,.5.5,1.1.9,1.8,1M11.5,28c.1.2.2.3.4.5,2.2,2,4.8,3.7,7.2,5.4,2.6,1.9,5.2,3.8,7.8,5.6.4.3.9.6,1.3.9.6.4,1.1.4,1.7,0,1.7-.8,3.3-1.7,4.8-2.8.9-.6,1.9-1,3-1.4.4,0,.6-.4.8-.7M13,32.2s-.1.1,0,0c1.1.5,1.9,1.4,2.8,2.1.9.7,1.8,1.4,2.7,2.1.2.2.4.3.5.5.3.3.2.7-.2.9-.5.3-1.1.5-1.6.7-1.1.4-2.1.8-3.2,1.2-.6.2-1,0-1.5-.3-1.4-1.3-2.9-2.6-4.3-3.9-.1,0-.3-.2-.5-.4s-.2-.4,0-.6c.4-.4.9-.5,1.4-.8,1.2-.5,2.5-1,3.7-1.6M.6,32.1c.3,0,.6,0,.8.3,1.4,1.3,2.9,2.5,4.2,3.9,1.5,1.6,3.2,3,4.9,4.5,1.6,1.5,3.1,3.1,4.6,4.6s1.4,1.5,2.2,2.1c.6.5,1.3.7,1.9,1,.1,0,.2,0,.3,0,.9-.2,1.7-.8,2.5-1.3,1.6-1,3.3-1.8,5-2.7,3.7-1.9,7.4-3.9,10.8-6.2,1.6-1.1,3.3-2.1,5.1-3,.6-.3,1.1-.7,1.5-1.2M11,27.9c.3,0,.5,0,.8-.2.6-.5,1.4-.8,2.1-1.1.9-.4,1.8-.9,2.7-1.3.9-.5,1.9-.9,2.8-1.4.5-.3,1.1-.2,1.5,0,1.5,1.1,3.1,2,4.7,2.9,2.2,1.3,4.3,2.8,6.3,4.3,1.7,1.3,3.5,2.5,5.4,3.5.2,0,.5.3.7.5.4.4.8.3,1.2.3M42.9,30.1c0-.2,0,0-.2,0-.8,0-1.4-.5-2.1-.9-1.9-.9-3.8-1.8-5.7-2.7-1.8-.9-3.7-1.8-5.5-2.7-2-1-4-1.9-6-2.9-.5-.3-1.1-.5-1.6-.9s-.7-1-.8-1.6c-.3-1.8,1-14.2,1-14.6s24.2,6.7,23.9,8.1c-.2,1.3-.6,5.6-.9,6.9-.2,1-.4,2-.5,3-.2,1.2-.5,2.3-.6,3.5,0,.9-.4,1.7-.6,2.6,0,.6-.2,1.2-.3,1.8,0,.2,0,.4-.3.5M19.1,21.2c1.2.4,2.3,1.1,3.5,1.6,1.9.9,16.8,8.4,18.9,9.6.9.6,1.9,1,2.9,1.5s.7.3.7.7,0,1-.6,1.3c-2.3,1.3-4.6,2.6-6.9,3.9-2,1.1-4,2.2-5.9,3.4-1.4.8-2.8,1.5-4.2,2.2-1.8,1-3.6,2-5.4,3.1-.7.4-1.4.9-2.2,1.3-.6.3-1.1.2-1.6,0-1.5-1-2.9-2.2-4.3-3.4-1.7-1.5-3.4-3-5-4.6-1.8-1.9-3.8-3.7-5.7-5.5-.8-.8-1.6-1.6-2.2-2.6-.3-.5-.5-.9-.5-1.5s-.1-.2-.1-.3c-.3-.6-.2-.8.4-1.1.6-.3,1.1-.5,1.7-.8,1.3-.6,2.7-1.1,4-1.7,1.5-.6,3-1.3,4.5-1.9,1.8-.7,3.5-1.6,5.2-2.6.6-.3,1.1-.5,1.7-.8.5-.2.8-.6.9-1.2.2-.9,0-1.7,0-2.6v-.4c0-1.3.9-14.3,1-15.2s.3-1.7.6-2.6c.1-.4.5-.4.8-.5.9,0,1.7.2,2.6.5,1.7.6,3.5,1.1,5.2,1.5,2.3.6,4.5,1.1,6.8,1.7,1.6.4,3.2.9,4.8,1.4,1.3.4,2.7.8,4,1.2,1,.3,2.1.7,3,1.3.6.4.8.8.7,1.6-.3,2.7-.5,5.3-.8,8,0,1.1-.3,2.3-.4,3.4,0,1-.3,2-.4,3-.2,1.3-.5,2.4-.6,3.4-.3,2-1,3.9-1.2,5.9,0,.2,0,.3,0,.5s0,.2,0,.3"/>
    <path class="cls-2" d="M33.2,12.4l-.4,4.8.4.2c0-.3,0-.6,0-1,0-.7,0-1.3,0-2,0-.5,0-1,0-1.5v-.2c0,.1,0,.2,0,.3.5,1.6.9,3.2,1.4,4.7q0,.1,0,.1c0,.1.3.1.4.1l.4-4.8-.4-.2c0,.4,0,.8,0,1.1,0,.5,0,1,0,1.5s0,1.2,0,1.7v.2c0-.2,0-.4-.2-.6-.4-1.5-.8-2.9-1.3-4.4,0-.1,0-.1,0-.2-.2.3-.3.3-.5.2M29.5,11.2c-.2-.1-.4-.3-.6-.4-.4-.3-.7-.3-1.1-.2-.4.2-.5.8-.3,1.3,0,.3.3.6.5.8.3.3.5.6.8,1,.2.3.4.7.3,1.1,0,.4-.2.6-.4.7s-.5,0-.7-.3c0-.2-.3-.4-.4-.5,0-.2-.2-.3-.3-.3,0,.2,0,.3,0,.5.2.1.3.3.5.4.3.3.7.4,1,.4.5-.1.8-.6.7-1.3,0-.4-.2-.7-.4-1s-.5-.6-.8-1c0-.2-.3-.4-.4-.6-.2-.3,0-.8,0-1,.2-.2.5-.2.7.1,0,.2.3.4.4.6,0,.1.2.2.4.3v-.6ZM38.7,14.5c-.3-.2-.5-.3-.8-.5-.7-.5-1.5-.2-1.9.6-.2.5-.3,1.1-.2,1.8,0,1.5.9,2.4,1.8,2.5h.9v-.5c0,0-.2,0-.2.1,0,.1-.2.1-.3.2-.2.2-.5.1-.7,0-.5-.3-.7-.8-.9-1.5-.2-.9,0-1.7,0-2.5.3-.9.9-1,1.6-.4,0,.2.3.3.4.5,0,.1.2.1.2.2v-.5ZM30.2,16l.3-4.6h-.4c0-.1-.4,4.6-.4,4.6l1.9.7v-.5h-.4c-.2.1-.6.1-1-.2M32.1,16.9h.4c0,.1.4-4.6.4-4.6h-.4c0-.1-.4,4.6-.4,4.6Z"/>
    <path class="cls-2" d="M33.2,12.4c0,0,.3.1.4.1,0,0,0,.1,0,.2.4,1.5.8,2.9,1.3,4.4,0,.2,0,.4.2.6v-.2c0-.6,0-1.2,0-1.7s0-1,0-1.5c0-.4,0-.7,0-1.1l.4.2-.4,4.7c0,0-.3-.1-.4-.1h0c-.5-1.7-.9-3.3-1.4-4.8,0-.1,0-.2,0-.3v.2c0,.5,0,1,0,1.5,0,.7,0,1.3,0,2s0,.6,0,1l-.4-.2.5-5Z"/>
    <path class="cls-2" d="M29.5,11.2v.6c0,0-.3-.1-.4-.3,0-.2-.3-.4-.4-.6-.2-.3-.5-.4-.7-.1-.2.2-.2.7,0,1,0,.2.2.4.4.6.2.3.5.6.8,1,.2.3.4.6.4,1,0,.7-.2,1.3-.7,1.3s-.7-.1-1-.4c-.2-.1-.3-.3-.5-.4,0-.1,0-.3,0-.5,0,0,.2.1.3.2,0,.2.3.4.4.5.2.3.4.4.7.3.2-.1.4-.3.4-.7,0-.4,0-.8-.3-1.1-.2-.3-.5-.6-.8-1-.2-.2-.4-.5-.5-.8-.2-.6,0-1.2.3-1.3.4-.1.7-.1,1.1.2.2.2.3.4.5.5"/>
    <path class="cls-2" d="M38.7,14.5v.5c0-.1-.2-.1-.2-.2,0-.1-.3-.3-.4-.5-.6-.7-1.3-.5-1.6.4-.2.8-.3,1.6,0,2.5,0,.7.4,1.2.9,1.5.2.2.5.2.7,0,0-.1.2-.1.3-.2,0,0,.2,0,.2-.1v.4s0,.1,0,.1h-.8c-.9-.1-1.7-1-1.8-2.5,0-.6,0-1.3.2-1.8.4-.9,1.2-1.1,1.9-.6.3.2.5.4.8.5"/>
    <path class="cls-2" d="M30.2,16c.4.2.8.2,1.2.2h.4v.5l-1.9-.7.4-4.7h.4c0,.1-.5,4.7-.5,4.7Z"/>
  </g>
  <polygon class="cls-2" points="32.1 16.9 32.5 17 32.8 12.3 32.4 12.1 32.1 16.9"/>
  <g>
    <path class="cls-2" d="M30.3,18.4h0v-.7h0v.7h0ZM30.5,18.5s0-.1,0,0q0-.1,0-.2h0v-.2s0-.1,0-.1h-.2v.2h0v.2c0,.1,0,.1.2.1-.1,0,0,0,0,0M30.3,18.4s0-.1,0,0v-.2h0v-.2h.2v.2h0v.2h-.2q0,0,0,0M30.7,18.8h0q0-.1,0,0l.3-.6h0l-.2.4v.2q0-.1,0,0t0,0,0,0,0,0h0q0-.1,0,0t0,0h0M30.8,18.6h0v-.5h0v.5h0ZM31.3,18.5q0,0,0,0h.2v-.2h0q0-.1,0-.2h0c0,.1,0,.1,0,.1,0,0,0,0,0,.1h0v.2h-.2q0,0,0,0h0ZM31.3,18.1h0v.7h0v-.7ZM31.5,18.9v-.4h0v.4h0ZM31.8,19v-.3h0v-.2h0q0-.1,0-.1h.2v.6h0ZM31.8,18.9h0q0-.1,0,0h-.2v-.2h.2c0-.1,0-.1,0-.1h0v.2h0c0,.2,0,.2,0,.1M32.2,19.1h0q0-.1,0,0-.1,0,0,0,0-.1-.2-.1h0v-.2h0v-.2h.2c0,.1,0,0,0,0,0,0,0,0,0-.1h-.2v.2h0c0,.1,0,.2,0,.2,0,.2.2.2.3.2q-.1,0,0,0M32.4,18.5h0v.7h0v-.7ZM32.6,19.3v-.3h0v.3h0ZM32.6,19v-.2h0c0-.1,0-.1,0-.1h0v.2h0q0-.1,0-.1h0c0,.2,0,.2,0,.2h0ZM32.9,19.4h0q.1-.1,0,0h0c0-.1,0-.1,0,0q0-.1,0,0h0v-.2h0v-.2h0c0-.2,0-.1,0-.1h0v.2h0v-.2s0-.1,0-.1h-.2v.2h0c0,.1,0,.2,0,.2,0,.1,0,.2,0,.2h0M33,19.1h-.3c0-.1,0,0,0,0h.3ZM33.2,18.8h0v.6h-.1v-.6ZM33.8,19h0v.7h0v-.7ZM33.5,18.9h0v.7h0v-.7ZM33.8,19.3h-.3c0-.1,0,0,0,0h.3ZM34.2,19.9v-.5h0v.4h0ZM34,19.5v-.2h0v.2h0ZM33.9,19.5v.2h0c0,.1,0,.1,0,.1h0v-.2h0q0,.1,0,.1h0c0-.2,0-.1,0-.2h0ZM34.4,19.2h0v.7h0v-.7ZM34.6,20s.1,0,0,0c0,0,0-.1,0-.1h0v-.2h0v-.2h0q0-.1,0-.1h0q0,.1,0,0h-.2v.2s0,.1,0,.1h0v.2q-.2,0-.2.1h0v-.2h0v.2h0M34.9,19.4h0v.7h0v-.7ZM35.1,20.2v-.3h0v.3h0ZM35.1,19.9v-.2h0c0-.1,0-.1,0-.1h0v.2h0q0-.1,0-.1h0c0,.1,0,.2,0,.2h0ZM35.4,20.3s0-.1,0,0q0-.1,0-.2h0c0-.1,0-.2,0-.2h0c0-.1,0-.1,0-.1h0v.2h0c0,.1,0,.2,0,.2,0,0,0,.1.2.1,0,0,0,0,0,0M35.2,20.2q0,0,0,0c0-.1,0-.2,0-.2h0q0-.1,0-.2h.2v.2h0v.2h-.3q0,0,0,0M35.6,20.4v-.5h0c0-.1,0-.1,0-.1h0c0,.1,0,.6,0,.6h0ZM35.8,19.9h-.2c0-.1,0,0,0,0h.2Z"/>
    <path class="cls-2" d="M29.8,18.2q0,0,0,0h0v-.2h0v-.2s0-.1,0-.1c0,0,0,0,0-.1h-.2s0,.1,0,.1h0v.2h0c0,.1,0,.2,0,.2q.2.1.3.1h0M29.7,18.1q-.1,0,0,0c0-.1,0-.2,0-.2h0v-.2h0q0-.1,0-.1h0s0,0,0,.1c0,0,0,.1,0,.1h0v.2h0v.2h0q0,0-.2-.1t0,0M29.8,17.9h0s0,0,0,0q0,0,0,0t0,0h0q0-.1,0-.2h0v.4h0v-.2h0v.2h0v-.2ZM29.7,17.9h0c0-.1,0-.1,0-.1h0q0,.1,0,.1h0Z"/>
  </g>
</svg>