<?xml version="1.0" encoding="UTF-8"?>
<svg id="Laag_1" data-name="Laag 1" xmlns="http://www.w3.org/2000/svg" version="1.1" viewBox="0 0 33.2 33.2">
  <defs>
    <style>
      .cls-1 {
        stroke-linecap: round;
        stroke-linejoin: round;
      }

      .cls-1, .cls-2 {
        fill: none;
        stroke: #494948;
        stroke-width: .8px;
      }
    </style>
  </defs>
  <circle class="cls-2" cx="16.6" cy="16.6" r="16.2"/>
  <path class="cls-1" d="M16.2,17.9c-.9-1.1-1.6-2.3-2.5-3.3M17.4,18.4c0,.4-.3.7-.7.7s-.7-.3-.7-.7.3-.7.7-.7.7.3.7.7ZM11.3,9.6c.2.3.5.5.6.8M21.7,9.4c-.2.2-.4.4-.7.6q0,.1-.2.2M24.2,11.5c-.2.3-.4.6-.6.9M10.7,18.4h-1M9.1,11.3c.1.3.3.6.6.9M23.5,18.4h-1M16.5,24.2c0,.4,0,.8,0,1.2M17,10.9c0,.4,0,.9,0,1.3M12.6,8.3c-.4.4-1,.9-1.4,1.3s-.9.7-1.3,1c-.3.2-.5.4-.8.6-.5.3-1,.7-1.5,1.1h-.1M16.4,19.1q0,0,0,0c-1,1.1-2,2.1-3.2,2.9-.1,0-.3,0-.4,0M10,21.8c.1.4.4.8.7,1.1.9,1.2,2.1,2.1,3.6,2.5M10,24.3c-.4.4-.7,1-1,1.5-.2.2-.3.5-.4.8,0,0-.1.2,0,.3s.2,0,.3,0c.3,0,.5-.2.7-.4.5-.4.9-.7,1.3-1.1M22.8,24.1c.4.7.8,1.4,1.2,2.1,0,0,0,.3.2.4,0,.2,0,.3-.3.3s-.4,0-.5-.2c-.6-.5-1.2-1-1.7-1.5,0,0,0,0,0,0M19.3,11.2c.8.2,1.4.8,2,1.2.9.6,1.5,1.4,1.8,2.3.2.5.4,1.1.4,1.7M14.6,11.3c-1.5.2-2.8.8-3.8,2-.6.7-1,1.4-1.4,2.2,0,0-.1.2-.1.3M23.4,19.9c0,1-.4,1.9-1.1,2.8-1,1.3-2.3,2.1-3.8,2.6-.2,0-.4.2-.7.2M12.6,8.3c-.4-.9-1.1-1.6-2.1-1.8-.7-.1-1.4,0-2.1.3-.8.3-1.5.8-1.9,1.7-.5,1.1-.4,2.1.3,3,.2.3.5.6.8.8M25.9,12.5c.3-.2.5-.6.7-.9.4-.6.5-1.3.5-2s0-1-.4-1.4c-.6-.9-1.4-1.6-2.5-1.7-1.5-.3-2.7.3-3.6,1.6-.2.2,0,.4,0,.5.3.2.6.4.9.7.4.4.9.6,1.3,1,.4.4.9.8,1.3,1.2.4.3.9.5,1.3.9,0-.1.2,0,.4,0M9.7,12.3c-.2.4-.4.7-.6,1.1-.5.9-.9,1.9-1.1,2.9-.2.8-.2,1.6-.1,2.4.2,1.6.6,3.2,1.4,4.6.4.8,1,1.5,1.7,2.1.9.7,1.9,1.1,3,1.3.8,0,1.6.2,2.4,0,.9,0,1.8-.2,2.7-.5.8-.2,1.6-.6,2.3-1,.4-.2.8-.6,1.1-.9,1-.9,1.4-1.6,1.9-2.6s.5-1.3.6-2.1c.2-.8.2-1.7,0-2.5,0-.8-.2-1.5-.4-2.3s-.6-1.5-1-2.2c-.6-.8-1.4-1.4-2.2-2-.2-.1-.5-.3-.7-.4s-.5-.1-.7-.2c-.6-.2-1.3-.4-2-.5s-1.5-.1-2.2-.1-1,.1-1.4.2c-.7.1-1.4.3-2.1.6-1,.4-1.8,1.2-2.5,1.9,0,0-.2,0-.2.1"/>
</svg>