<?xml version="1.0" encoding="UTF-8"?>
<svg id="Laag_1" data-name="Laag 1" xmlns="http://www.w3.org/2000/svg" version="1.1" viewBox="0 0 33.2 33.2">
  <defs>
    <style>
      .cls-1 {
        stroke-miterlimit: 10;
      }

      .cls-1, .cls-2 {
        fill: none;
        stroke: #494948;
        stroke-width: .8px;
      }
    </style>
  </defs>
  <circle class="cls-2" cx="16.6" cy="16.6" r="16.2"/>
  <path class="cls-1" d="M24.1,20.6c0,4.1-3.8,7.5-7.5,7.5s-7.5-3.3-7.5-7.5c0-6.4,6.4-10.2,7.4-15.3,0-.1.2-.1.2,0,1,5,7.4,8.9,7.4,15.3Z"/>
  <path class="cls-1" d="M18.8,25c1.2-.5,2.3-1.3,3-2.4.7-1.1,1.1-2.5,1-3.9.6,2.6-.4,5.2-2.5,6.8,0,0-.3.2-.3.3,0,0-.2,0-.2.2,0,0-.3.2-.4.2-.3.2-.7,0-.9-.2-.3-.4,0-.8.3-1Z"/>
</svg>