<?xml version="1.0" encoding="UTF-8"?>
<svg id="Laag_1" data-name="Laag 1" xmlns="http://www.w3.org/2000/svg" viewBox="0 0 33.25 33.25">
  <defs>
    <style>
      .cls-1 {
        fill: #494948;
        stroke-width: 0px;
      }
    </style>
  </defs>
  <path class="cls-1" d="M16.62,33.25C7.46,33.25,0,25.79,0,16.62S7.46,0,16.62,0s16.62,7.46,16.62,16.62-7.46,16.63-16.62,16.63ZM16.62.75C7.87.75.75,7.87.75,16.62s7.12,15.88,15.88,15.88,15.88-7.12,15.88-15.88S25.38.75,16.62.75Z"/>
  <path class="cls-1" d="M13.7,27.59c-1,0-1.87-.49-2.67-1.05-1.15-.8-2.07-1.89-3-3.53-1.77-3.15-2.13-6.38-1.06-9.58.53-1.58,1.64-2.5,3.12-2.58,1.54-.08,2.87.17,4.06.77.34.17.67.26.99.27-.14-.52-.1-1.04-.07-1.54,0-.13.02-.25.03-.38,0-.02-.03-.09-.04-.13-.02-.04-.04-.09-.05-.16-.33-.12-.53-.37-.7-.58-.04-.05-.09-.11-.13-.16-.35-.4-.6-.85-.85-1.29-.19-.33-.36-.65-.58-.94-.26.31-.47.62-.54,1.01-.07.4-.14,1.38.68,1.85.39.22.81.39,1.25.57.2.08.4.16.6.25.19.08.28.3.2.49-.08.19-.31.28-.49.2-.19-.08-.38-.16-.58-.24-.45-.18-.92-.37-1.35-.61-.86-.49-1.25-1.48-1.05-2.63.12-.7.52-1.16.9-1.6l.18-.21c.13-.16.37-.18.53-.05.11.09.15.22.13.35.31.38.54.79.77,1.2.23.42.46.82.76,1.16.06.06.11.13.16.19.12.16.21.26.31.32.18-.15.25-.38.33-.65.03-.1.06-.2.1-.3.41-1.12,1.09-1.86,2.05-2.26.19-.08.41.01.49.2.08.19-.01.41-.2.49-.77.32-1.29.9-1.64,1.83-.03.08-.06.17-.08.25-.09.31-.21.69-.54.99.02,0,.03.04.04.07.04.12.1.26.09.44,0,.13-.02.26-.03.4-.04.48-.07.94.06,1.36.27-.1.54-.26.81-.48.78-.64,1.65-1,2.59-1.07.67-.05,1.34,0,1.98.04.53.04,1.08.07,1.62.06.46,0,.96.23,1.28.44,1.43.96,2.3,2.42,2.59,4.36.38,2.54-.3,5.01-.97,7.13-.56,1.78-1.81,3.08-3.04,4.26-.88.84-1.94,1.15-3.34.97-.73-.09-1.46-.32-2.28-.7-.66-.3-1.17-.24-1.64.19-.14.16-.36.41-.69.41-.02.01-.04.02-.06.03-.36.12-.7.17-1.03.17ZM10.67,11.58c-.17,0-.35,0-.53.02-1.17.06-2.02.78-2.45,2.07-1,3-.66,6.01,1,8.98.87,1.54,1.72,2.55,2.77,3.29,1.05.73,1.92,1.12,2.96.8.1-.1.24-.14.39-.09l-.03.08s0,0,0,0l.03-.09s.04-.06.07-.09c.04-.04.07-.08.11-.11.7-.64,1.52-.75,2.46-.32.77.35,1.4.55,2.07.63,1.17.15,2.01-.08,2.72-.77,1.16-1.11,2.33-2.33,2.84-3.94.65-2.04,1.3-4.41.94-6.79-.26-1.72-1.02-3.02-2.26-3.85-.32-.21-.62-.34-.83-.32-.58.02-1.14-.02-1.69-.06-.65-.04-1.26-.09-1.88-.04-.78.05-1.51.35-2.16.89-1.04.86-2.2,1.01-3.36.42-.94-.47-1.98-.71-3.16-.71ZM11.11,15.9s-.04,0-.05,0c-.21-.03-.35-.22-.32-.42,0-.05-.02-.15-.05-.24-.09-.28-.24-.79.34-1.19.46-.31.91-.45,1.43-.43.21,0,.37.18.36.39,0,.21-.2.38-.39.36-.35-.01-.65.08-.98.3-.12.08-.13.09-.05.35.05.16.11.35.08.56-.03.19-.19.32-.37.32Z"/>
</svg>