<?xml version="1.0" encoding="UTF-8"?>
<svg id="Laag_1" data-name="Laag 1" xmlns="http://www.w3.org/2000/svg" version="1.1" viewBox="0 0 16.3 22">
  <defs>
    <style>
      .cls-1 {
        opacity: .5;
      }

      .cls-2 {
        stroke-width: 0px;
      }

      .cls-2, .cls-3 {
        fill: #494948;
      }

      .cls-3 {
        stroke: #fff;
        stroke-miterlimit: 4;
        stroke-width: .2px;
      }
    </style>
  </defs>
  <g class="cls-1">
    <g>
      <path class="cls-2" d="M15.3,16.3c-.8-.5-1.4-1.3-1.4-2.2v-6.3c0-2.8-2.3-5.3-5.2-5.6v-.6c0-.3-.3-.6-.6-.6s-.6.3-.6.6v.6c-2.9.3-5.2,2.6-5.2,5.5v6.4c0,.9-.5,1.7-1.4,2.2-.6.3-.9.9-.9,1.5s.2.5.5.5h15.3c.3,0,.5-.2.5-.5,0-.6-.4-1.2-1-1.5"/>
      <path class="cls-2" d="M8.1,21c1.1,0,2.1-.8,2.2-1.9h-4.4c.1,1.1,1.1,1.9,2.2,1.9"/>
      <rect class="cls-2" x="7.7" y="-1.7" width=".8" height="25.4" transform="translate(-4.7 6.2) rotate(-33)"/>
      <rect class="cls-3" x="7.7" y="-1.7" width=".8" height="25.4" transform="translate(-4.7 6.2) rotate(-33)"/>
    </g>
  </g>
</svg>