<?xml version="1.0" encoding="UTF-8"?>
<svg id="Laag_1" data-name="Laag 1" xmlns="http://www.w3.org/2000/svg" version="1.1" viewBox="0 0 25.7 39.7">
  <defs>
    <style>
      .cls-1 {
        fill: none;
        stroke: #494948;
        stroke-linecap: round;
        stroke-linejoin: round;
        stroke-width: .8px;
      }
    </style>
  </defs>
  <path class="cls-1" d="M7.9,11.2c.4-.1.5-.2.8-.3,1.7-.5,3.5-.6,5.3-.6,0,0,4.3.1,5.3.3,1.1.2,2.1.8,3.1,1.2.2.1.2.2.2.4,0,1.5.3,2.9.3,4.4,0,.8,0,1.6-.2,2.4M6.3,33.2c.5,1.2.1,4,3.4,5.2.7.3,1.4.6,2.2.7,3.3.6,7,0,8-.4,3.8-1.5,5.5-3.6,5.5-7.4V6.2c0-1.2-.3-2.3-.3-3.5-.3-.9-1.3-1.2-2-1.5M23,19.7c0,2.4,0,4.8,0,7.2M9.8,15.6c-1.3-.4-2.6-.4-3.9-1-.3-.1-.6-.3-1-.2-.2.4-.2.8,0,1.2l.6,2.3M12.3,15.8c4.7-.3,8.5.2,10.4-3.7M20.8,19.4c0,1,.2,12.6.2,12.6M4.1,2.1c-1.2.5-2.3,1-3.2,1.9-.4.5-.6,1.1-.4,1.8.2.6.2,1.2.4,1.8.3,1,5,23.8,5,23.8M22.2.9c-1.1,0-2.1-.3-3.1-.4-.8-.1-1.7-.2-2.5-.1-1,.1-2-.1-2.9,0-1.4.2-2.9-.2-4.3.2-.9.2-1.8.3-2.7.7M5.5,17.8c.7,2.7,1,5.4,1.6,8.1.3,1.2.5,2.3.8,3.5.7,2,.5,5.2,2.4,6.5.9.6,3.3,1.2,3.5,1.2,0,0,3,.4,4.5,0,3.9-.9,4.7-3,4.6-5.7M24.9,3.4c-1.6,1.2-3.9,2.8-5.9,2.9,0,0-.2.1-.2.1-1,.8-2.2.8-3.4.9-1.3.2-2.7.1-4,.3-2.1.2-4.2.2-6.3-.1-.9-.2-1.8-.2-2.7-.6-.5-.2-1-.4-1.5-.6"/>
</svg>