<?xml version="1.0" encoding="UTF-8"?>
<svg id="Laag_1" data-name="Laag 1" xmlns="http://www.w3.org/2000/svg" version="1.1" viewBox="0 0 49.8 36.3">
  <defs>
    <style>
      .cls-1 {
        fill: none;
        stroke: #494948;
        stroke-miterlimit: 10;
        stroke-width: .8px;
      }
    </style>
  </defs>
  <path class="cls-1" d="M28.3,35.8c4.7-1.5,23.3-6.8,20.9-16.8-4.1-9.7-12.5-1.4-15,.8-.3,0-.6-8.8-5.1-10.8s-9.5,3.1-7.8,10.1c1.7,6.9,7,16.7,7,16.7Z"/>
  <path class="cls-1" d="M11.2,16.6c1.9-2.2,9.7-10.8,5.3-15.2-5.1-3.6-6.8,3.3-7.4,5.2-.2,0-3.1-4.3-6.1-3.9C.1,3.1-.8,7.3,2.3,10.3s8.9,6.3,8.9,6.3Z"/>
</svg>