<?xml version="1.0" encoding="UTF-8"?>
<svg id="Laag_1" data-name="Laag 1" xmlns="http://www.w3.org/2000/svg" viewBox="0 0 19.77 16.98">
  <defs>
    <style>
      .cls-1 {
        fill: #494948;
        stroke-width: 0px;
      }
    </style>
  </defs>
  <path class="cls-1" d="M16.51,6.92c-1.23.84-2.56,1.52-3.85,2.27-1,.58-2.02,1.14-2.73,2.09-.02.02-.03.05-.05.07-.02-.02-.03-.05-.05-.07-.71-.95-1.73-1.51-2.73-2.09-1.29-.75-2.62-1.44-3.85-2.27-1.1-.75-1.87-1.76-1.76-3.23.09-1.23.58-2.2,1.71-2.73,1.11-.53,2.21-.67,3.28.18.62.5,1.29.93,1.98,1.34.43.26.9.41,1.41.38.51.03.98-.12,1.41-.38.68-.41,1.36-.85,1.98-1.34,1.07-.86,2.18-.71,3.28-.18,1.13.54,1.62,1.5,1.71,2.73.11,1.47-.66,2.48-1.76,3.23M16.57.43c-1.58-.56-3.16-.58-4.76.02-.62.23-1.26.39-1.93.56-.67-.17-1.32-.33-1.93-.56-1.59-.6-3.17-.59-4.76-.02C.77,1.29-.5,3.56.18,5.79c.38,1.25,1.28,2.11,2.35,2.78,1.27.79,2.6,1.48,3.87,2.26.67.42,1.34.88,1.9,1.43.9.87.89,2.47.06,3.42-.84.95-2.32,1.14-3.37.42-.7-.48-1.37-1-2.08-1.46-.56-.36-1.19-.53-1.9-.44v2c.94.21,1.82.41,2.69.59,1.81.39,3.56.22,5.18-.71.41-.23.74-.54,1-.89.26.35.59.66,1,.89,1.62.93,3.37,1.09,5.18.71.88-.19,1.75-.39,2.69-.59v-2c-.7-.09-1.34.08-1.9.44-.71.46-1.38.98-2.08,1.46-1.04.72-2.53.54-3.37-.42-.83-.95-.84-2.55.06-3.42.57-.55,1.23-1.02,1.9-1.43,1.27-.78,2.6-1.47,3.87-2.26,1.07-.67,1.97-1.53,2.35-2.78.68-2.24-.59-4.5-3.01-5.37"/>
  <path class="cls-1" d="M18.9,9.99v-.28h.23s.05,0,.07,0c.02,0,.04,0,.06.02.02,0,.03.02.05.04.01.02.02.04.02.07,0,.04,0,.07-.03.09-.02.02-.04.03-.07.04-.03,0-.06.01-.09.01h-.24ZM19.18,10.06s.07,0,.1-.01c.03,0,.06-.02.08-.04.02-.02.04-.04.05-.07.01-.03.02-.06.02-.1,0-.06-.02-.12-.06-.15-.04-.04-.11-.06-.22-.06h-.34v.79h.1v-.36h.18l.23.36h.12l-.24-.36ZM18.82,10.6c-.07-.03-.14-.08-.19-.13-.05-.06-.09-.12-.12-.19-.03-.07-.04-.16-.04-.24s.01-.17.04-.24c.03-.07.07-.14.12-.19.05-.05.12-.1.19-.13.07-.03.15-.05.24-.05s.16.02.24.05c.07.03.14.07.19.13.05.05.09.12.12.19.03.07.04.15.04.24s-.01.17-.04.24c-.03.07-.07.14-.12.19-.05.06-.11.1-.19.13-.07.03-.15.05-.24.05s-.17-.02-.24-.05M19.34,10.69c.09-.04.16-.09.22-.15.06-.06.11-.14.15-.22.04-.09.06-.18.06-.28s-.02-.19-.06-.27c-.04-.09-.09-.16-.15-.22-.06-.06-.14-.11-.22-.15-.09-.04-.18-.06-.27-.06s-.19.02-.28.06c-.09.04-.16.09-.22.15-.06.06-.11.14-.15.22-.04.09-.06.18-.06.27s.02.19.06.28c.04.09.09.16.15.22.06.06.14.11.22.15.09.04.18.06.28.06s.19-.02.27-.06"/>
</svg>