<?xml version="1.0" encoding="UTF-8"?>
<svg id="Laag_1" data-name="Laag 1" xmlns="http://www.w3.org/2000/svg" version="1.1" viewBox="0 0 37.2 21.1">
  <defs>
    <style>
      .cls-1 {
        fill: none;
        stroke: #494948;
        stroke-linecap: round;
        stroke-linejoin: round;
        stroke-width: .8px;
      }

      .cls-2 {
        fill: #494948;
        stroke-width: 0px;
      }
    </style>
  </defs>
  <path class="cls-1" d="M18.8,20.5c.7-.3,1.2-.9.9-1.8-.2-.8-.8-1-1.5-1s-1.2.4-1.3,1.1c0,.9.3,1.4,1.1,1.7,0,0,.2,0,.4,0M10.2,19c-.2-.8-.6-1.3-1.5-1.2-.7,0-1.1.4-1.3,1-.2.6,0,1.3.6,1.7.9.6,1.8,0,2.3-1.3M.4.4c.9.1,1.8.3,2.6.3.9-.1,1.3.4,1.6,1.1,1.4,3.5,2.9,7,4.3,10.5M20.3,15.7h-11.3c-.6,0-1.3,0-1.5-.6-.2-.5.1-1,.4-1.4.6-1,1.4-1.4,2.7-1.5,2.8,0,5.5-.5,8.3-.8.7,0,.9-.4,1-1,.2-1.7.4-3.4.6-5,0-1.1,0-1.3-1.2-1.3-4.1-.2-8.2-.3-12.4-.5-.3,0-.7-.1-1,.2"/>
  <path class="cls-2" d="M27.5,15.3v-2.5c0-1,.6-1.6,1.6-1.6h2.6c.4,0,.6.2.6.5s-.2.5-.6.5h-2.6c-.5,0-.6,0-.6.7v5c0,.5.2.6.7.6h5c.5,0,.6-.2.6-.7v-2.6c0-.4.2-.7.5-.7s.5.2.5.7v2.6c0,1-.6,1.6-1.5,1.6h-5.2c-1,0-1.5-.6-1.6-1.6-.1-.7,0-1.6,0-2.5"/>
  <path class="cls-2" d="M35.5,10.7h-1.6c-.4,0-.6-.2-.6-.5s.3-.5.6-.5h2.8c.3,0,.5.2.5.6v2.7c0,.4-.2.6-.5.6s-.5-.2-.5-.6v-1.6l-.3.3-4,4c0,0-.2.2-.3.2-.2.2-.5.2-.6,0,0-.2,0-.4,0-.6,0,0,0-.2.2-.3l4-4c0,0,0,0,.3-.2"/>
</svg>