<?xml version="1.0" encoding="utf-8"?>
<!-- Generator: Adobe Illustrator 28.0.0, SVG Export Plug-In . SVG Version: 6.00 Build 0)  -->
<svg version="1.1" id="Laag_1" xmlns="http://www.w3.org/2000/svg" xmlns:xlink="http://www.w3.org/1999/xlink" x="0px" y="0px"
	 viewBox="0 0 1000 1000" style="enable-background:new 0 0 1000 1000;" xml:space="preserve">
<style type="text/css">
	.st0{fill:none;stroke:#4A4A49;stroke-width:4;stroke-linecap:round;stroke-linejoin:round;stroke-miterlimit:10;}
</style>
<path class="st0" d="M573.1,266.9c-0.6-6.4-1.4-12.8-1.9-19.3c-1.4-17.1-12.1-26.7-27.5-29.6c-25.2-4.7-50.5-8.4-76.1-11.2
	c-47.5-5.1-95.1-4.2-142.7-5.7c-18.3-0.6-36.6-1.3-54.9,0.2c-34.6,2.8-56,19.5-58,55.9c-0.8,14.6,1.6,28.9,1.3,43.4
	c-1.1,51.1-4.8,102.1-4,153.3c0.6,35.7,3.7,71.2,11.7,106c3.3,14.5,9.1,28.7,18.4,40.3c12.5,15.5,31.1,18.2,49.8,19.6
	c19,1.4,37.9-3.5,56.9,0.8c11,2.5,14,6.3,15.5,17.4c3.4,25.4-6.1,48.2-13.7,71.3c-3.8,11.7-7.9,23.3-8.6,35.7
	c-0.9,15.8,5.4,27.7,20.3,33.6c27.5,10.8,55.9,11.8,82.7-0.3c29.5-13.3,34.8-39.4,24.2-71.9c-5.7-17.3-15.1-33-21.2-50.1
	c-10-27.6-7.1-34.6,20.4-42.4c13.5-3.8,27.5-4.6,41.4-5.9c15-1.4,29.9-3.6,42.3-12.6c17.2-12.5,23.1-31.3,23.9-51
	c1.4-33.7,1.5-67.5,1.1-101.2c-0.5-46.3-3.4-92.5-2.7-138.8c0.2-10.6,0.6-21.2,0.9-31.8c0.1-2.7-0.3-5.5,3.9-4.8"/>
<path class="st0" d="M731.7,210c3.1,3.7,2.9,8.1,2.9,12.5c-0.1,19.3-1,38.6,0.1,57.8c4.6,80.3,2.3,160.7,2.5,241
	c0,14.1-0.1,28.3-2,42.4c-0.9,6.9,0.5,14.1,0.2,21.2c-0.3,7.3,0.7,15.1-6.6,20.3c-2.3,1.7-1,4.5-0.9,6.7c1.1,39.3-2.8,78.4-4,117.6
	c-0.2,7.7-1.3,15.6-5.8,22.1c-9,13-31.9,14.7-42.9-1.1c-9.3-13.4-14.7-28.8-8.3-46.1c2-5.5,5.4-9.8,9.1-13.2
	c11.3-10.5,13-24,13.2-37.8c0.3-17.3-0.5-34.7-0.8-52"/>
<path class="st0" d="M733.6,201.3c0,6.6-6.3,8.5-9.7,12.4c-12.6,14.5-25.1,28.9-36.8,44.2c-18.4,24.3-33.3,50.3-38.2,80.3
	c-2.6,16.1-8.4,31.6-8.8,48.1c-0.1,4.8,0.7,9.3,3,13.5"/>
<path class="st0" d="M390.4,703.5c-10.9,12.1-10.5,29-0.1,38.7c5.9,5.6,12.2,4.3,17.3,1.5c5.9-3.3,11.3-9.2,9.6-17
	c-2.5-11.1-9.7-24.2-24.9-23.2"/>
<path class="st0" d="M676.7,366.2c-7.7,12.7-16.9,24.3-29.2,32.4c-6.2,4.1-8.4,9-8.2,14.8c0.4,10-2.3,20,2.3,30.1
	c2,4.3-3.2,9.8-2.5,15.3c1.5,12.8,0,25.6,1.8,38.7c1.3,9.2-3,20.6-1.4,30.6c2.8,18.4-2,36.6,1.2,55.1c1.9,11.2,7.5,14.1,16.8,15.2
	c6.3,0.8,12.8,0.3,19.3,0.1c17.2-0.5,34,1.2,50.1,7.7"/>
<path class="st0" d="M417.4,360.4c-4.5,18.6-9,37.3-13.4,55.9c-0.7,2.9-0.5,6.2-4.9,5.8"/>
<path class="st0" d="M389.5,325.7c-1.3,12.5-7.3,23.2-13.5,33.7c-5.3,9-12.1,17.1-15.9,27"/>
<path class="st0" d="M341.7,303.5c0.5,16.2-9.2,28.1-16.9,40.9c-0.3,0.5-1.8,0.4-2.8,0.5"/>
<path class="st0" d="M665.1,510.8c-3.2,13.8-9.7,25.3-22.2,32.8"/>
<path class="st0" d="M669,470.3c-3.5-0.3-4.2,2.1-6.1,4.6c-6.1,8.2-8.9,19.4-19.9,23.4"/>
<path class="st0" d="M670,418.7c-7.2,0.9-8.7,7.8-12.3,12.2c-4.3,5.2-7.2,11.6-14.7,13.3"/>
<path class="st0" d="M671.4,334.4c-7.5,5.4-11.9,14.8-21.7,17.4"/>
</svg>
