<?xml version="1.0" encoding="utf-8"?>
<!-- Generator: Adobe Illustrator 28.0.0, SVG Export Plug-In . SVG Version: 6.00 Build 0)  -->
<svg version="1.1" id="Laag_1" xmlns="http://www.w3.org/2000/svg" xmlns:xlink="http://www.w3.org/1999/xlink" x="0px" y="0px"
	 viewBox="0 0 1000 1000" style="enable-background:new 0 0 1000 1000;" xml:space="preserve">
<style type="text/css">
	.st0{fill:none;stroke:#4A4A49;stroke-width:4;stroke-linecap:round;stroke-linejoin:round;stroke-miterlimit:10;}
	.st1{fill:none;stroke:#4A4A49;stroke-width:0.75;stroke-linecap:round;stroke-linejoin:round;stroke-miterlimit:10;}
</style>
<path id="path28" class="st0" d="M482.3,161.4C542.8,138.6,579.5,328.6,601,371c21.3,59.7,166.6,20.1,223.6,33.3
	c119.1,38-158.5,176-149.2,229c109.3,274.3,16.4,252-150.7,73.9c-57.8-20.4-119.1,89.4-175.3,105.8c-97.6,56.2-74.2-22.6-71.4-29.8
	c19.2-70,123-159.9,33.5-218.4c-48.7-45.2-86.6-73.7-148-123.4c-34.4-13.9-12.6-47.2,13.5-42C485.1,398.8,345.5,408.1,482.3,161.4z"
	/>
<path class="st1" d="M455.8,265.6"/>
</svg>
