<?xml version="1.0" encoding="utf-8"?>
<!-- Generator: Adobe Illustrator 28.0.0, SVG Export Plug-In . SVG Version: 6.00 Build 0)  -->
<svg version="1.1" id="Laag_1" xmlns="http://www.w3.org/2000/svg" xmlns:xlink="http://www.w3.org/1999/xlink" x="0px" y="0px"
	 viewBox="0 0 1000 1000" style="enable-background:new 0 0 1000 1000;" xml:space="preserve">
<style type="text/css">
	.st0{fill:none;stroke:#4A4A49;stroke-width:4;stroke-linecap:round;stroke-linejoin:round;stroke-miterlimit:10;}
</style>
<g>
	<g>
		<path class="st0" d="M345.6,744.9c2.7-4.7,8.1-6.3,11.7-10.1c3.8-4.2,8-8.1,11.6-12.6c4.1-5.2,8.1-10.4,11.8-15.9
			c7.9-12,13.6-24.8,16.4-38.8c1.5-7.6,3.7-20,2-27.5c-0.6-2.9-4.6-3.3-6-5.5c-2-3.2-4.3-2.6-7.2-2.4c-9.6,0.7-22.2,7.7-30.8,11.9
			c-9.7,4.7-17.8,11.5-25,19.8c-9.3,10.7-15.1,22.7-18.8,36.2c-2.3,8.3-1.5,16.7-1.5,25c0,3.2,3,5.1,4.9,6.5
			c8.6,6.4,17.5,12.2,28.6,13.6c3.9,0.5,7.4,2.5,11.6,2.7c19.3,0.7,35.5-6.1,48.5-20c16.9-18.2,23.7-39.4,16.3-63.7
			c-2.7-9-7.6-16.8-15-23.3c-3.3-2.8-6.4-6-9.9-8.6c-18.1-13.6-37.7-18-59.4-9.9c-10.8,4-19.7,10.7-27.5,19.3
			c-13,14.5-19.5,30.9-17.3,50.5c1.3,11.9,6.8,21.6,14.4,30.5c1.3,1.5,2.9,1.5,4.4,2.2"/>
	</g>
	<g>
		<path class="st0" d="M178.8,379.1c0,2.2-0.1,4.5,0,6.7c0.5,7,9,13.4,15.9,12.1c13.2-2.5,15.2-9.8,14.9-18.8"/>
		<path class="st0" d="M180.9,345.1c2,3.9,1.5,6.6-1.4,8.7c-2.9,2.1-7.4,1-10.6-2.4c-0.3-0.3-0.6-0.6-1-1"/>
		<path class="st0" d="M204.7,345.1c-2,3.9-1.5,6.6,1.4,8.7c2.9,2.1,7.4,1,10.6-2.4c0.3-0.3,0.6-0.6,1-1"/>
		<path class="st0" d="M116.6,369.1c-6.7,0-13.5,0-20.2,0"/>
		<path class="st0" d="M196.1,282.9c-0.6,5.8-1.3,11.6-1.9,17.4"/>
		<path class="st0" d="M262.2,348.9c4.7,0,9.3,0,14,0"/>
		<path class="st0" d="M174.4,434.2c0.5,4.7,1,9.3,0,14"/>
		<path class="st0" d="M118,324.8c3.2,2,7.3,2,10.2,4.7c0.9,0.9,0.8,1.6,0.9,2.5"/>
		<path class="st0" d="M279.1,402.9c-4-2.7-8-5.5-12.1-8.2"/>
		<path class="st0" d="M150.3,291.5c1.8,4,3.5,8,5.3,12.1"/>
		<path class="st0" d="M245.3,303.1c-2.4,3.2-4.8,6.4-7.2,9.6"/>
		<path class="st0" d="M127.2,416.2c-2.4,3.2-4.8,6.4-7.2,9.6"/>
		<path class="st0" d="M236.1,430.8c1.4,3.2,2.1,6.8,4.3,9.6"/>
		<path class="st0" d="M185,317.1c-7.4,1.8-14.8,3.1-21.7,6.6c-15.4,7.8-24.2,20.1-28,36.7c-2.1,9.2-3,18.4-0.3,27.5
			c4.4,14.8,15.3,23.3,29.3,28.5c8.6,3.2,17.5,5,26.5,4.6c15.6-0.6,30.8-3.1,43.9-12.8c10.2-7.6,15.5-17.9,17.4-30.4
			c1.6-10.5,1-20.5-2.9-30.4c-3.5-8.7-9.1-15.3-17.4-19.8c-6-3.2-12.7-4.5-18.7-7.1c-9.2-4-18.4-3.1-27.6-3.5"/>
	</g>
	<g>
		<path class="st0" d="M685.2,278.9c-64.7-14.8-124.7-0.3-181.6,30.6c-23.4,12.7-46.3,26.5-66.4,47.9c27,24.3,53.5,48.1,80,72"/>
		<path class="st0" d="M853.1,504.5c32.4,9.7,32,9.4,48.1-18.7c2.5-4.3,3.2-5.7,1.3-10.3c-25-59-52.3-116.3-108.4-153
			c-27-17.7-52.9-38.1-89.2-39.9c1.7-10.6,3.2-20.5,4.8-30.5"/>
		<path class="st0" d="M641,495.6c-4.2,5.9,4.5,8.6,2.4,16.7c-16.8,65.6-31.2,131.9-46.2,198c-1.5,6.5-3.3,12.6-9.7,18.1
			c-46.4-23-94.5-20.1-142.8-5.5"/>
		<path class="st0" d="M629.9,475.6c5.4-25.6,9.7-51.4,16.3-76.7c11.1-42.7,31.4-81.2,56.5-120.2c14.9,66.8,32.2,130.2,36.9,195.8
			c0.7,9.9-1.6,20-2.5,30.1"/>
		<path class="st0" d="M722.3,288.8c42.8,44.7,79,93.8,104.8,150.4c9.1,20,12,41.5,18.5,62"/>
		<path class="st0" d="M684.6,282.9c-38.7,15.1-74.6,34.8-103.7,65.1c-19.2,20.1-36.5,41.6-47.4,67.7c-2.8,6.6-7.2,12.5-10.9,18.7"
			/>
		<path class="st0" d="M655.5,520.2c-13.9,40.9-19.8,83.7-29.8,125.4c-6.6,27.4-12.7,54.9-19.1,82.4"/>
		<path class="st0" d="M758.4,719.4c-31.7-8.8-61.8-23.4-96-23.6c-15.3-0.1-30.1,3-45.2,3.5"/>
		<path class="st0" d="M523.9,438.6c8.2,27.2,24.1,47.1,52.4,54.9c15.7,4.3,31.2,4.2,45.5-5"/>
		<path class="st0" d="M438,364.1c-9.1,28,27.9,62.2,56.2,69.6c6.3,1.6,13.2,4.6,20.1,1.4"/>
		<path class="st0" d="M894.6,486.6c-42.5,14.9-86.2,21-131.2,20.4c-35.8-0.5-71.2-4-106-11.2c-44.4-9.1-85.3-27.3-121.6-55.1
			c-4.7-3.6-11.3-4.7-17.1-7"/>
		<path class="st0" d="M736.6,508.6c-23.7,22.1-61,22.5-83.6,1.2c-1.2-1.1-3.9-0.7-5.9-1"/>
		<path class="st0" d="M842.9,504.9c-21.1,31.6-62.4,34.8-86.5,6.8"/>
		<path class="st0" d="M595,724.2c10,10.2,24.6,8.5,36.6,13.6c5,2.1,10.9,1.9,12.9,8.4"/>
	</g>
</g>
</svg>
