<?xml version="1.0" encoding="utf-8"?>
<!-- Generator: Adobe Illustrator 28.0.0, SVG Export Plug-In . SVG Version: 6.00 Build 0)  -->
<svg version="1.1" id="Laag_1" xmlns="http://www.w3.org/2000/svg" xmlns:xlink="http://www.w3.org/1999/xlink" x="0px" y="0px"
	 viewBox="0 0 1000 1000" style="enable-background:new 0 0 1000 1000;" xml:space="preserve">
<style type="text/css">
	.st0{fill:none;stroke:#4A4A49;stroke-width:4;stroke-linecap:round;stroke-linejoin:round;stroke-miterlimit:10;}
</style>
<g>
	<g>
		<path class="st0" d="M152,459.4c2.2,22.5,5.5,102.2,30.6,112c21,8.2,42.9,8.7,65.1,7.2c29.8-2,59.6,0,89.4,1.8"/>
		<path class="st0" d="M338.4,581.6c15.9-7.1,33.9-2.4,50.1-7.4c-4.7-31.8-21.2-46.5-51.3-46.1c-34.5,0.4-69-0.9-103.5-2.7
			c-13.7-0.7-21-7.4-23-20.4c-6.6-41.5-13.7-82.9-22.5-124c-3.3-15.4-5.1-31-10.5-45.9c-1.9-5.2-4.5-9.9-7.9-13.9
			c-4.9-5.7-10.6-10.4-19.1-6.5c-8.3,3.8-14.7,8.3-14.2,19.2c1.2,24.9,3.6,49.5,7.6,74.1"/>
		<path class="st0" d="M802.2,584.2c6.8-3,13.7-5.8,20.4-9c23.3-10.9,33.1-31.6,36.8-55c8.7-54.5,13.8-109.4,13.1-164.8
			c-0.1-10.7-2-21-6.5-30.6c-6.9-14.5-19.5-15.4-29.3-2.6c-10.8,14-12.3,31-15.1,47.3c-5.4,32.2-12.7,63.9-19.4,95.8
			c-2.7,12.6-5,25.4-9.1,37.6c-5.3,16-15.8,22.4-33,22.4c-30.3,0.1-60.4,3-90.7,2.9c-23.2-0.1-41.5,15.4-47.3,36.7
			c-2.7,9.9,1,17.3,11.5,19c14.7,2.4,29.4,3.7,44.7,3.4c40.9-0.9,81.8-1.2,122.6-3.2"/>
		<path class="st0" d="M655.6,441.2c6.9-0.3,36.8-1.6,41.8-6.5c11-10.8,8.6-23.6-5.8-29.3c-8.3-3.3-17-5.3-26.2-5.2
			c-69,0.1-138-0.2-207,0.2c-38.8,0.2-77.5,1.3-116.3,2.7c-8.9,0.3-18,2.5-27,4.3c-8.7,1.8-7.1,12.6-15.2,13.3"/>
		<path class="st0" d="M304.5,421.9c-0.6,8.7,5.7,11.8,12.2,13.9c8.6,2.9,17.4,5.3,26.8,5.3c37.1-0.2,218.4-0.5,255.5,0"/>
		<path class="st0" d="M505.8,444.9c-2.8,61.3-0.7,122.7-1.2,184c-0.1,8.5,2.8,17.1,2.1,25.5c-0.6,7.7,2.3,17.2-1.4,22.7
			c-18.9,28.2-31.4,61.9-64.6,78.4c-5.8,2.9-11.2,6.4-18,6.2"/>
		<path class="st0" d="M802.2,585.5c7.7,26.4,15.4,52.8,23,79.2c9.8,34.1,19.6,68.1,29.4,102.2c0.3,1.2,0,2.5,0,3.8"/>
		<path class="st0" d="M206.8,580.4c-7.7,34-21,66.3-30.6,99.7c-8.1,28.4-18.7,56.2-23.1,85.6"/>
		<path class="st0" d="M338.4,582.9c10.6,36.6,21.5,73.2,31.9,109.9c6.8,24.2,14.8,48,19.2,72.8"/>
		<path class="st0" d="M668.1,591.9c-12.4,39.8-25.2,79.4-34.4,120.1c-4,17.4-7.3,34.9-10.9,52.4"/>
		<path class="st0" d="M522.7,706c7.8,42.5,46.5,52.8,48.2,54.5"/>
		<path class="st0" d="M507.1,677.5"/>
	</g>
	<polyline class="st0" points="516.2,357.6 516.2,290.5 502.2,290.5 502.2,383.3 	"/>
	<path class="st0" d="M507.3,277.9c0,0-21.3-7-8-28.8c8-13.2,8-13.2,8-13.2s9.2,11.1,14.5,23.5C529.6,277.9,507.3,277.9,507.3,277.9
		z"/>
</g>
</svg>
