<?xml version="1.0" encoding="utf-8"?>
<!-- Generator: Adobe Illustrator 28.0.0, SVG Export Plug-In . SVG Version: 6.00 Build 0)  -->
<svg version="1.1" id="Laag_1" xmlns="http://www.w3.org/2000/svg" xmlns:xlink="http://www.w3.org/1999/xlink" x="0px" y="0px"
	 viewBox="0 0 1000 1000" style="enable-background:new 0 0 1000 1000;" xml:space="preserve">
<style type="text/css">
	.st0{fill:none;stroke:#4A4A49;stroke-width:4.232;stroke-linecap:round;stroke-linejoin:round;stroke-miterlimit:10;}
</style>
<g>
	<path class="st0" d="M264.3,832.7c1.7,1.1,3.5,0.4,5.3,0.4c13-0.2,25.9,0.9,38.7,2.4c9.2,1.1,18.5,1.3,27.7,1.7
		c13.6,0.6,27.2,0.1,40.8-0.9c15.4-1.1,30.8-1.6,46.1-3c4.2-0.4,8.4-0.1,12.6,0c26.5,0,53,0,79.5,0.1c5.3,0,10.6-0.8,15.9-0.9
		c3.7-0.1,5.4-2,5.7-6.1c0.9-11.4-0.2-22.9-0.9-34.2c-0.2-3.1-0.6-6.3-0.6-9.4c0.2-11.8-0.4-23.7-1.1-35.5c-0.7-14-0.8-28-0.3-42
		c0.4-11.7,2-23.4,1.3-35.1c-0.4-7.2-0.6-14.4,0.1-21.6c1.1-12.1,2-24.2,2.5-36.3c0.3-7.9-0.1-15.8-0.4-23.6c0-0.7-0.3-1.6-0.3-2.5
		c-0.3-22.8-1-45.7-0.8-68.5c0.2-37.8,0.1-75.6,0.2-113.4c0-13.2-1.1-26.4-1-39.6c0-4.7-0.6-9.5-0.6-14.3c0-2.8-1.3-4.1-4.1-4.1
		c-13.9,0.1-27.7-2.2-41.6-0.8c-22.9,2.3-45.9,1.7-68.9,2.5c-26,0.9-51.9,0.5-77.9,0.4c-7.8,0-15.8-1.2-23.7-2
		c-6.4-0.7-13-0.7-19.6,0.4c-3.8,0.6-7.9,0.7-11.8,1c-6.1,0.5-12.3,0.5-18.4,1.6c-5.6,1-5.9,1.2-6.1,6.9
		c-0.5,12.1-1.7,24.2-1.2,36.3c0.3,6.3,1.2,12.5,2.1,18.7c0.1,0.8,0.2,1.6,0.3,2.5c0.8,14.5-0.8,28.8-1.8,43.2
		c-0.3,4.9-0.7,9.8-0.6,14.7c0.2,12.9-0.4,25.9-1.2,38.7c-1,16.3-2.2,32.6-1.7,48.9c1.2,40.8,2.2,81.5,2,122.3
		c-0.1,12.4,0.4,24.7,0.7,37.1c0.3,12.2,0.9,24.5,0.7,36.7c-0.2,7.9-0.7,15.8-0.8,23.7c-0.1,5.9,0.7,11.7,1.5,17.5
		c0.4,3.1,0.6,6.3,0.7,9.4c0.4,7.5,2.3,15,0.1,22.4c-0.5,1.6,1.7,3.3-0.4,4.7"/>
	<path class="st0" d="M383.3,869.5c0,9.3,5.1,17.1,13,20c10.4,3.8,24.4-4.9,23-17.9c-1-8.7-4.7-15.4-12.4-19
		c-11.8-5.6-23.6,4.5-23.6,14.5c0,0.7,0.4,1.5-0.4,2"/>
	<path class="st0" d="M429.9,315c-12.3-0.6-24.5,1-36.7,2c-6.7,0.5-13.4-0.5-20-1.7c-1.4-0.2-2.7-0.7-4.1-0.7"/>
	<path class="st0" d="M554.2,324.5c-1.7-3.6-0.5-7.6-1.5-11.4c-3.2-12.1-8.4-22.5-20.1-28.5c-4.4-2.3-9.3-3.2-14.3-3.2
		c-19.3-0.2-38.6-0.5-57.9,0c-29.2,0.8-58.5,0.1-87.7,0.8c-29.8,0.7-59.5,0.2-89.3,0.8c-10.3,0.2-20.5,2.1-28.2,10.4
		c-5.7,6.2-8,13.7-9.4,21.6c-1.6,9.2-0.8,18.5-0.8,27.7c-0.2,170.4-0.4,340.9-0.3,511.3c0,15.8,4.2,30.6,17.4,41.2
		c7.2,5.7,15.6,9.1,24.8,9.8c26.5,1.9,53,1,79.5,0.8c20-0.2,40-0.5,59.9-0.6c28.4-0.1,56.8-0.7,85.2-0.9c14.4-0.1,27.1-5.6,34.6-19
		c3.7-6.6,5.4-14,5.7-21.6c1-22.8,0.3-45.7,0.5-68.5c1-102.1,0.1-204.2,0.8-306.2c0.2-31.5-0.2-63.1,0.5-94.6
		c0.5-23.1,0.1-46.2,0.4-69.3"/>
</g>
<path class="st0" d="M501,226.9c0,0,98.1-20.4,102.7,108.9"/>
<path class="st0" d="M482.3,171.7c0,0,140.1-70.5,196.1,144.1"/>
<path class="st0" d="M482.3,106.4c0,0,222-92.8,270.9,229.4"/>
</svg>
