<svg width="246" height="391" viewBox="0 0 246 391" fill="none" xmlns="http://www.w3.org/2000/svg">
<path d="M11.5425 353.533C12.35 354.055 13.205 353.722 14.06 353.722C20.235 353.627 26.3625 354.15 32.4425 354.863C36.8125 355.385 41.23 355.48 45.6 355.67C52.06 355.955 58.52 355.718 64.98 355.243C72.295 354.72 79.61 354.483 86.8775 353.818C88.8725 353.628 90.8675 353.77 92.8625 353.818C105.45 353.818 118.037 353.818 130.625 353.865C133.142 353.865 135.66 353.485 138.177 353.438C139.935 353.39 140.742 352.488 140.885 350.54C141.312 345.125 140.79 339.663 140.457 334.295C140.362 332.823 140.172 331.303 140.172 329.83C140.267 324.225 139.982 318.573 139.65 312.967C139.317 306.317 139.27 299.667 139.507 293.017C139.697 287.46 140.457 281.903 140.125 276.345C139.935 272.925 139.84 269.505 140.172 266.085C140.695 260.337 141.122 254.59 141.36 248.842C141.502 245.09 141.312 241.338 141.17 237.633C141.17 237.3 141.027 236.873 141.027 236.445C140.885 225.615 140.552 214.738 140.647 203.908C140.742 185.953 140.695 167.997 140.742 150.042C140.742 143.772 140.22 137.503 140.267 131.233C140.267 129 139.982 126.72 139.982 124.44C139.982 123.11 139.365 122.492 138.035 122.492C131.432 122.54 124.877 121.448 118.275 122.113C107.397 123.205 96.4725 122.92 85.5475 123.3C73.1975 123.728 60.895 123.538 48.545 123.49C44.84 123.49 41.04 122.92 37.2875 122.54C34.2475 122.208 31.1125 122.207 27.9775 122.73C26.1725 123.015 24.225 123.062 22.3725 123.205C19.475 123.442 16.53 123.443 13.6325 123.965C10.9725 124.44 10.83 124.535 10.735 127.242C10.4975 132.99 9.92749 138.738 10.165 144.485C10.3075 147.478 10.735 150.422 11.1625 153.367C11.21 153.747 11.2575 154.127 11.305 154.555C11.685 161.442 10.925 168.235 10.45 175.075C10.3075 177.403 10.1175 179.73 10.165 182.058C10.26 188.185 9.975 194.36 9.595 200.44C9.12 208.183 8.55 215.925 8.7875 223.668C9.3575 243.048 9.8325 262.38 9.7375 281.76C9.69 287.65 9.9275 293.493 10.07 299.383C10.2125 305.178 10.4975 311.02 10.4025 316.815C10.3075 320.568 10.07 324.32 10.0225 328.072C9.975 330.875 10.355 333.63 10.735 336.385C10.925 337.857 11.02 339.378 11.0675 340.85C11.2575 344.413 12.16 347.975 11.115 351.49C10.8775 352.25 11.9225 353.057 10.925 353.722" stroke="#4A4A49" stroke-width="4.232" stroke-miterlimit="10" stroke-linecap="round" stroke-linejoin="round"/>
<path d="M68.0675 371.013C68.0675 375.43 70.49 379.135 74.2425 380.513C79.1825 382.318 85.8325 378.185 85.1675 372.01C84.6925 367.877 82.935 364.695 79.2775 362.985C73.6725 360.325 68.0675 365.122 68.0675 369.872C68.0675 370.205 68.2575 370.585 67.8775 370.822" stroke="#4A4A49" stroke-width="4.232" stroke-miterlimit="10" stroke-linecap="round" stroke-linejoin="round"/>
<path d="M90.2025 107.625C84.36 107.34 78.565 108.1 72.77 108.575C69.5875 108.812 66.405 108.337 63.27 107.767C62.605 107.672 61.9875 107.435 61.3225 107.435" stroke="#4A4A49" stroke-width="4.232" stroke-miterlimit="10" stroke-linecap="round" stroke-linejoin="round"/>
<path d="M149.245 112.138C148.437 110.428 149.007 108.528 148.532 106.723C147.012 100.975 144.542 96.035 138.985 93.185C136.895 92.0925 134.567 91.665 132.192 91.665C123.025 91.57 113.857 91.4275 104.69 91.665C90.82 92.045 76.9025 91.7125 63.0325 92.045C48.8775 92.3775 34.77 92.14 20.615 92.425C15.7225 92.52 10.8775 93.4225 7.21998 97.365C4.51248 100.31 3.41999 103.873 2.75499 107.625C1.99499 111.995 2.37498 116.413 2.37498 120.783C2.27998 201.723 2.18498 282.71 2.23248 363.65C2.23248 371.155 4.22749 378.185 10.4975 383.22C13.9175 385.928 17.9075 387.543 22.2775 387.875C34.865 388.778 47.4525 388.35 60.04 388.255C69.54 388.16 79.04 388.018 88.4925 387.97C101.982 387.923 115.472 387.638 128.962 387.543C135.802 387.495 141.835 384.883 145.397 378.518C147.155 375.383 147.962 371.868 148.105 368.258C148.58 357.428 148.247 346.55 148.342 335.72C148.817 287.223 148.39 238.725 148.722 190.275C148.817 175.313 148.627 160.303 148.96 145.34C149.197 134.368 149.007 123.395 149.15 112.423" stroke="#4A4A49" stroke-width="4.232" stroke-miterlimit="10" stroke-linecap="round" stroke-linejoin="round"/>
<path d="M123.975 65.7775C123.975 65.7775 170.573 56.0875 172.758 117.505" stroke="#4A4A49" stroke-width="4.232" stroke-miterlimit="10" stroke-linecap="round" stroke-linejoin="round"/>
<path d="M115.092 39.5575C115.092 39.5575 181.64 6.07 208.24 108.005" stroke="#4A4A49" stroke-width="4.232" stroke-miterlimit="10" stroke-linecap="round" stroke-linejoin="round"/>
<path d="M115.092 8.54C115.092 8.54 220.543 -35.54 243.77 117.505" stroke="#4A4A49" stroke-width="4.232" stroke-miterlimit="10" stroke-linecap="round" stroke-linejoin="round"/>
</svg>
