<svg width="268" height="264" viewBox="0 0 268 264" fill="none" xmlns="http://www.w3.org/2000/svg">
<path d="M176.77 263.422L193.579 250.223C211.633 236.154 221.345 217.103 223.959 190.458C226.201 167.299 218.232 145.634 201.796 131.066C185.361 116.374 162.7 110.895 139.79 115.876C138.794 116.125 138.296 116.249 138.047 116.374C138.047 116.498 138.171 116.996 138.42 117.619C140.039 122.848 141.533 128.202 143.027 133.556C144.148 137.541 145.393 142.148 142.28 145.136C139.167 148.124 134.56 146.879 130.451 145.758C111.899 140.654 93.3471 135.424 74.6704 130.07L45.5348 121.852C33.4572 118.366 21.3796 115.004 9.17746 111.642C6.43821 110.895 1.45776 109.526 0.337159 105.043C-0.783443 101.059 2.08032 97.5726 4.19701 95.4559C17.7687 81.7597 31.216 68.0635 44.6632 54.3672C60.3516 38.3053 76.1645 22.3678 91.8529 6.43037C95.4638 2.81955 98.5766 -0.293236 102.561 0.702854C106.545 1.69894 107.79 5.68331 109.285 10.7883L109.783 12.5314C114.265 28.7179 114.14 28.7179 130.327 27.5973H132.568C168.925 24.858 202.419 35.4415 227.072 57.1065C251.227 78.3979 265.671 108.903 267.663 143.144C270.278 186.847 254.34 221.959 220.473 247.36C212.753 253.087 205.532 256.698 197.688 258.566L176.894 263.422H176.77ZM156.225 104.794C175.525 104.794 193.703 111.518 208.022 124.218C226.699 140.778 235.913 165.431 233.298 191.579C231.555 209.508 226.574 224.574 218.356 237.15C247.119 213.991 260.566 182.614 258.2 143.766C256.332 112.016 243.01 83.7519 220.847 64.2036C197.812 43.9083 167.431 34.4454 133.191 36.8111H130.949C108.786 38.5543 106.794 37.0601 100.693 15.0217L100.32 13.7765C100.32 13.7765 99.9462 12.4069 99.6972 11.6598C99.1991 12.1579 98.7011 12.6559 98.4521 12.905C82.6391 28.8424 66.9507 44.7798 51.2623 60.8418C37.8151 74.538 24.2433 88.2343 10.7961 101.931C10.7961 101.931 10.5471 102.18 10.4226 102.304C10.7961 102.304 11.1696 102.553 11.6677 102.678C23.8698 106.039 35.9474 109.526 48.025 113.012L77.1606 121.23C95.7128 126.459 114.265 131.689 132.817 136.794C133.315 136.918 133.689 137.043 134.187 137.167C134.187 136.794 133.938 136.42 133.938 136.047C132.568 130.817 131.074 125.712 129.455 120.483C128.335 116.996 128.459 114.133 129.829 111.642C131.697 108.405 135.307 107.285 137.798 106.786C144.023 105.417 150.124 104.794 156.225 104.794Z" fill="#494948"/>
</svg>
