<?xml version="1.0" encoding="utf-8"?>
<!-- Generator: Adobe Illustrator 28.0.0, SVG Export Plug-In . SVG Version: 6.00 Build 0)  -->
<svg version="1.1" id="Laag_1" xmlns="http://www.w3.org/2000/svg" xmlns:xlink="http://www.w3.org/1999/xlink" x="0px" y="0px"
	 viewBox="0 0 1000 1000" style="enable-background:new 0 0 1000 1000;" xml:space="preserve">
<style type="text/css">
	.st0{fill:none;stroke:#4A4A49;stroke-width:0.75;stroke-linecap:round;stroke-linejoin:round;stroke-miterlimit:10;}
</style>
<g>
	<path class="st0" d="M226.4,305.5c122.7,92.4,62.2,290.5,163,401.3c74.7,93.8,191.5,51.4,238.5-45.8
		c62.6-120.3,101.3-364.9-63.1-418.6c-61.4-12.3-100.6,52.2-107.6,104.9c-19.9,118,92.9,223.8,208.1,212.4"/>
	<path class="st0" d="M227.2,294.1c-5.8-42.1-74.2-25.6-104.8-28.8c-25.9-4.7-35.3,52.3-2.1,46.5c23.8-2.8,47.7-1.8,71.5-0.4
		c14.8,2.7,35.7,3.9,35.4-16.7"/>
	<path class="st0" d="M669,556.8c41.4-1.8,81.3-17.2,117.7-36.3c25.3,40.7,74.4-22.4,105.2-31.8c25.1-13.8-7.2-51.5-28.8-36.5
		c-25.9,20.9-84.7,24.1-76.6,67.8"/>
	<path class="st0" d="M812.7,495.2c-3.1,8.3-6.1,16.5-9.2,24.8"/>
	<path class="st0" d="M840.7,486c-3,7.7-10,13.3-11,21.9"/>
	<path class="st0" d="M157.1,282.8c-8.7,2-15,6.8-17.7,15.6"/>
	<path class="st0" d="M186.8,284.2c-9.4,0.5-14.4,6.7-18.4,14.2"/>
	<path class="st0" d="M866.5,474c-6.2,1.3-6.4,12.2-7.4,17.7"/>
	<path class="st0" d="M884.9,465.5c0,6-5.5,10.7-4.2,17"/>
	<path class="st0" d="M128.7,277.1c-3.3,7-9.3,12-13.5,18.4"/>
</g>
</svg>
