<?xml version="1.0" encoding="utf-8"?>
<!-- Generator: Adobe Illustrator 28.0.0, SVG Export Plug-In . SVG Version: 6.00 Build 0)  -->
<svg version="1.1" id="Laag_1" xmlns="http://www.w3.org/2000/svg" xmlns:xlink="http://www.w3.org/1999/xlink" x="0px" y="0px"
	 viewBox="0 0 1000 1000" style="enable-background:new 0 0 1000 1000;" xml:space="preserve">
<style type="text/css">
	.st0{fill:none;stroke:#4A4A49;stroke-width:4;stroke-linecap:round;stroke-linejoin:round;stroke-miterlimit:10;}
</style>
<path class="st0" d="M695.5,664.8c34,3.5,61.5,19.8,84.2,44.4c25,27,14.6,64.3-21,73.4c-53.8,13.8-108.7,23.6-164.3,23
	c-58.8-0.7-116.8,5.3-174.9,11.9c-59.2,6.7-117.9,1.8-174.7-16.2c-14.1-4.5-28.4-6.5-42.5-9.2c-15.3-2.9-28.1-9.7-39.6-18
	c-25.9-18.6-27.1-31.6-8.7-58.6c16.1-23.5,34.5-44.3,64.2-50.6"/>
<path class="st0" d="M143.3,424.6c38.6,11.7,76.8,24.7,115.8,35c75.6,20.1,152.1,26.7,229.8,19.5c45.7-4.2,91.5-5.4,137.1-12.1
	c39.5-5.8,76.3-19.2,111.2-37c12.9-6.6,23.2-17.6,38.1-23c36.2-13.2,60-7,80.2,26c10.3,16.9,17.5,35.3,21,54.8
	c4,22.6-3.1,43.1-21.1,56.5c-39.1,29-84.6,46.3-128.4,66.5c-4.2,1.9-9.7,0.9-14.7,1.3"/>
<path class="st0" d="M754.5,411.9c-5-10.1-3.1-21.1-3.9-31.6c-2.4-29.9-17.8-49.3-44.5-61.1c-33.6-14.9-69.6-20.5-105.4-22.4
	c-35.1-1.9-70-7.7-105.3-4.9c-6.3,0.5-12.6,1.4-19,2.1"/>
<path class="st0" d="M394.1,376.1c-23.1,9-48,4.6-71.7,10.2c-34.2,8.2-66.6,20.8-98.9,34.3c-8.3,3.4-16.9,8.3-19.1,18.7"/>
<path class="st0" d="M739.7,433c10.2,18.7,0.9,36.9-2.5,54.7c-7,35.4-16.5,70.3-24.8,105.5c-7.4,31.3-18.8,61.1-31,90.9
	c-10.2,24.9-31.6,26.1-51.2,28.8c-85.9,11.9-172.3,21.4-259.1,16.8c-41.9-2.2-84.6-5.5-120.2-33.1c-23.5-18.2-35.7-44-48.4-69.6
	C175,571.7,157.6,513.1,141.4,454c-5.1-18.5-3.5-38-7.7-57c-5.8-26.3,7.2-50.8,53.8-69.5c41.4-16.7,84.9-23.1,128.6-29.3
	c6.3-0.9,14.3,0.7,18.6-2.6c9.6-7.3,16.8-1.5,18.8,4.8c7.3,23.5,25.5,39.4,38.3,59c3.5,5.4,4.4,12.5,6.5,18.8"/>
<path class="st0" d="M672.3,452c-17.1-42.9-54.7-59-95-68.9c-18.7-4.6-38.6-5.3-58.9-4.9c-26.2,0.6-53.5,0.5-80-2.5
	c-13.8-1.5-26.4,7.8-40.1,2.5"/>
<path class="st0" d="M465.8,287.6c-24.9,9.1-50.6,2.6-75.9,3.9c-12.4,0.6-24.5,0.7-35.8,6.6"/>
<path class="st0" d="M375.1,199.1c-12.2-3.3-20.5-0.2-25.5,12.6c-6.5,16.4-12.3,32.6-9.4,50.7c1.6,9.7,2.2,19.7,3.3,29.5"/>
<path class="st0" d="M484.7,199.1c-10.3,23.5-16.7,48.2-16.5,73.8c0.1,25.7,10.8,48.7,25.3,69.3c6.6,9.4,11,18.4,10.2,29.7"/>
</svg>
