<?xml version="1.0" encoding="utf-8"?>
<!-- Generator: Adobe Illustrator 28.0.0, SVG Export Plug-In . SVG Version: 6.00 Build 0)  -->
<svg version="1.1" id="Laag_1" xmlns="http://www.w3.org/2000/svg" xmlns:xlink="http://www.w3.org/1999/xlink" x="0px" y="0px"
	 viewBox="0 0 1000 1000" style="enable-background:new 0 0 1000 1000;" xml:space="preserve">
<style type="text/css">
	.st0{fill:none;stroke:#4A4A49;stroke-width:4;stroke-linecap:round;stroke-linejoin:round;stroke-miterlimit:10;}
	.st1{fill:#4A4A49;stroke:#4A4A49;stroke-width:4;stroke-linecap:round;stroke-linejoin:round;stroke-miterlimit:10;}
	.st2{fill:none;stroke:#4A4A49;stroke-width:4;stroke-linecap:round;stroke-linejoin:round;}
	.st3{fill:none;stroke:#4A4A49;stroke-width:4;stroke-linecap:round;stroke-linejoin:round;stroke-dasharray:20.4396,20.4396;}
	.st4{fill:none;stroke:#4A4A49;stroke-width:4;stroke-linecap:round;stroke-linejoin:round;stroke-dasharray:20.169,20.169;}
</style>
<path class="st0" d="M393.8,317.3c22.9,49.5,118.9,157.3,106.4,184.2"/>
<path class="st0" d="M514.7,502.8c-24.6-2.3,132.7-87.9,123.8-88.3"/>
<path class="st0" d="M263.1,506.7c-16.2,2.6-32.4,4.7-48.4,8.3c-4.2,0.9-8.2,0.4-12.2,1.2"/>
<path class="st0" d="M780.1,499.6c-36.2,0-19.1-0.7-54.7,4.8"/>
<path class="st0" d="M505.5,727.3c0,16.9,0,33.9,0,50.8"/>
<path class="st0" d="M501.2,203.6c0,16.9,0,33.9,0,50.8"/>
<path class="st0" d="M493.4,149.7"/>
<path class="st0" d="M779.1,679.3"/>
<path class="st0" d="M491.9,149.7c-15.7,3-31.4,6-47.1,8.9c-28.2,5.3-53.4,17.3-77,32.6c-52.4,34.1-93.6,80.7-128.7,133.2
	c-25.3,37.7-45.3,79.1-55.7,123.8c-11.6,49.5-15.4,99.1-3.2,150.9c13.3,56.9,41.8,101,81.5,139.3c38.3,37,83.5,61.3,133.4,75.9
	c21.6,6.3,44.1,8.6,66.6,9.7c14.6,0.7,29.3,0.9,43.9,0.4"/>
<line class="st0" x1="534.7" y1="824.7" x2="589.1" y2="865.9"/>
<line class="st0" x1="534.7" y1="820.2" x2="574.1" y2="764.6"/>
<path class="st1" d="M498.9,510.7c-1.9-1.2-3.4-2.6-4.6-4.3c-1.2-1.7-1.7-3.3-1.7-4.9v-1.9c-0.1-0.5-0.1-1.1-0.1-1.9
	c0-3.9,1.4-7.8,4.2-11.7c0.4-0.9,1.6-2.1,3.6-3.5c2-1.4,3.3-2.1,4.2-2.1c2.6,0,4.9,0.5,7,1.4c2.1,0.9,3.6,2.2,4.6,3.7
	c1.8,3.1,2.7,6.1,2.7,9.1c0,2.9-0.5,5.7-1.5,8.3c-1.3,3.7-3.5,6.4-6.5,8.1c-1.8,0.9-3.8,1.4-5.9,1.4
	C502.8,512.4,500.8,511.8,498.9,510.7z"/>
<path class="st0" d="M526.7,824.7"/>
<g>
	<g>
		<path class="st2" d="M779.1,679.3c1.8-2.8,3.5-5.7,5.2-8.6"/>
		<path class="st3" d="M794,652.8c20.3-40.9,31.3-85.9,34.6-133.3c4.9-72.2-5.5-140.5-41.4-203.1c-41.7-72.9-98.9-125.4-178.5-149.7
			c-31.4-9.6-62.9-15.6-95.1-16.8"/>
		<path class="st2" d="M503.4,149.6c-3.3,0-6.7,0-10,0.1"/>
	</g>
</g>
<g>
	<g>
		<path class="st2" d="M505.5,824.4c3.3-0.1,6.7-0.3,10-0.5"/>
		<path class="st4" d="M535.6,822.2c7.7-0.9,15.3-2,22.8-3.4c84-15.5,157.9-51.5,209.5-122.9"/>
		<path class="st2" d="M773.7,687.7c1.8-2.7,3.7-5.5,5.4-8.4"/>
	</g>
</g>
<path class="st0" d="M304,622.2c-12.5,10.6-25.3,20.8-37.2,32.1c-3.1,3-6.8,4.5-9.8,7.3"/>
<path class="st0" d="M743.2,349.3c-31.1,18.7-16.7,9.3-44.4,32.3"/>
<path class="st0" d="M625.5,686.1c8.7,14.5,17.5,29,26.2,43.5"/>
<path class="st0" d="M351.6,239.7c8.7,14.5,17.5,29,26.2,43.5"/>
<path class="st0" d="M393.8,697.8c-5.6,15.4-11.7,30.6-16.4,46.3c-1.2,4.1-3.7,7.3-4.9,11.2"/>
<path class="st0" d="M639.9,243.1c-17.7,31.6-9.9,16.3-22.6,50.1"/>
<path class="st0" d="M704.6,593.9c14.8,8.3,29.5,16.5,44.3,24.8"/>
<path class="st0" d="M245.5,342c14.8,8.3,29.5,16.5,44.3,24.8"/>
</svg>
