<?xml version="1.0" encoding="UTF-8"?>
<svg id="Laag_1" data-name="Laag 1" xmlns="http://www.w3.org/2000/svg" viewBox="0 0 20.44 21">
  <defs>
    <style>
      .cls-1 {
        fill: #494948;
      }

      .cls-1, .cls-2 {
        stroke-width: 0px;
      }

      .cls-2 {
        fill: #494948;
      }
    </style>
  </defs>
  <path class="cls-1" d="M9.82,21c-.27,0-.54,0-.82-.02-.58-.03-1.34-.09-2.08-.31-1.62-.48-3.01-1.28-4.15-2.37-1.32-1.28-2.16-2.71-2.54-4.36-.34-1.46-.31-2.95.1-4.7.3-1.29.88-2.58,1.72-3.84,1.21-1.81,2.51-3.15,3.96-4.1.83-.54,1.63-.88,2.44-1.03L9.85,0c.2-.04.4.09.44.3.04.2-.09.4-.3.44l-1.37.26c-.75.14-1.46.44-2.21.93-1.37.89-2.59,2.16-3.74,3.89-.79,1.18-1.33,2.39-1.61,3.59-.38,1.63-.41,3.01-.1,4.36.36,1.53,1.1,2.8,2.33,3.99,1.04,1.01,2.33,1.74,3.84,2.19.66.2,1.37.25,1.9.28.43.02.86.03,1.28.01.22,0,.38.15.39.36,0,.21-.15.38-.36.39-.18,0-.35,0-.53,0ZM10.33,19.6c-.21,0-.38-.17-.38-.38v-1.52c0-.21.17-.38.38-.38s.38.17.38.38v1.52c0,.21-.17.38-.38.38ZM1.27,11.75c-.17,0-.33-.12-.37-.3-.04-.2.09-.4.29-.44.08-.02.16-.02.23-.02.04,0,.08,0,.13-.01.36-.08.72-.14,1.08-.19l.38-.06c.21-.03.4.1.43.31.03.2-.1.4-.31.43l-.39.06c-.35.05-.69.11-1.04.18-.09.02-.17.02-.26.03-.04,0-.08,0-.11,0-.03,0-.05,0-.08,0ZM16.91,11.39c-.18,0-.34-.13-.37-.32-.03-.2.11-.4.31-.43.28-.04.45-.07.57-.1.31-.06.34-.06.81-.05h.31c.21,0,.37.17.37.38s-.17.37-.38.37h-.31c-.44,0-.44,0-.68.04-.12.02-.3.05-.59.1-.02,0-.04,0-.06,0ZM10.61,11.34s-.02,0-.04,0c-.07,0-.15-.04-.22-.09-.1.06-.23.07-.34.01-.19-.09-.27-.31-.18-.5.09-.37-1.03-1.95-1.7-2.9-.62-.88-1.21-1.71-1.48-2.31-.09-.19,0-.41.18-.5.19-.09.41,0,.5.18.25.54.84,1.38,1.42,2.19.91,1.29,1.57,2.25,1.77,2.93.37-.31,1.08-.76,2.4-1.57.43-.26.91-.55,1.08-.67.07-.11.2-.18.34-.17.17,0,.31.13.36.29.08.31.05.33-1.38,1.2-.7.42-1.92,1.17-2.32,1.51,0,.02,0,.04,0,.06-.02.19-.18.34-.37.34ZM10.2,3.9c-.21,0-.38-.17-.38-.38v-1.52c0-.21.17-.38.38-.38s.38.17.38.38v1.52c0,.21-.17.38-.38.38Z"/>
  <g>
    <path class="cls-2" d="M10.26,11.02s-.05-.04-.06-.07c-.02-.03-.02-.06-.02-.08v-.03s0-.02,0-.03c0-.07.02-.13.06-.2,0-.02.02-.03.05-.06.03-.02.05-.03.06-.03.03,0,.07,0,.09.02.03.02.05.04.06.06.03.05.04.1.04.15s0,.09-.02.14c-.02.06-.05.11-.09.14-.03.02-.05.02-.08.02s-.06-.01-.08-.03"/>
    <path class="cls-1" d="M10.35,11.43c-.11,0-.21-.04-.3-.1h0c-.07-.05-.13-.12-.17-.19l-.05-.09-.02-.18c0-.19.03-.32.11-.45l.12-.15c.11-.1.39-.17.59-.06l.09.05.11.15c.06.12.08.23.08.33,0,.08-.01.17-.04.25-.05.15-.13.26-.24.34l-.1.06-.2.02ZM10.22,10.71l-.07.07s.07.07.11.09c0,0,.02,0,.02.01l-.06-.17ZM10.5,10.79l.03.04s0,0,.02-.02c0-.02-.01-.04-.02-.05l-.02.02Z"/>
  </g>
  <path class="cls-1" d="M10.35,11.43c-.11,0-.21-.04-.3-.1,0,0,0,0,0,0-.07-.05-.13-.12-.17-.19-.03-.06-.07-.2-.07-.27,0-.19.03-.32.11-.45.02-.03.09-.12.12-.15.11-.1.39-.17.59-.06.06.03.17.15.21.21.06.12.08.23.08.33,0,.08-.01.17-.04.25-.05.15-.13.26-.24.34-.06.04-.22.09-.29.09ZM10.22,10.71l-.07.07s.07.07.11.09c0,0,.02,0,.02.01l-.06-.17ZM10.5,10.79l.03.04s0,0,.02-.02c0-.02-.01-.04-.02-.05l-.02.02Z"/>
  <path class="cls-1" d="M10.38,20.99c-.2,0-.37-.16-.38-.36,0-.21.15-.38.36-.39.53-.02,1.05-.07,1.53-.16,2.92-.54,5-1.85,6.35-4.01t0,0c.82-1.32,1.3-2.88,1.42-4.62.15-2.29-.23-4.21-1.19-5.88-1.28-2.24-2.95-3.65-5.12-4.32-1.16-.36-2.25-.52-3.33-.49-.21,0-.38-.16-.38-.37,0-.21.16-.38.37-.38,1.15-.03,2.32.14,3.56.53,2.36.72,4.17,2.25,5.55,4.66,1.03,1.8,1.45,3.87,1.28,6.3-.13,1.87-.64,3.54-1.53,4.97,0,0,0,0,0,0-1.47,2.35-3.71,3.77-6.85,4.36-.52.09-1.07.15-1.64.17h-.01ZM6.4,18.92s-.07,0-.11-.02c-.2-.06-.31-.27-.25-.47.02-.08.06-.15.09-.22.02-.04.04-.07.05-.12.1-.35.23-.69.36-1.04l.14-.37c.07-.19.29-.3.48-.22.19.07.3.29.23.48l-.14.38c-.12.33-.24.66-.34.99-.03.09-.06.16-.1.24-.02.03-.04.07-.05.1-.05.16-.2.26-.36.26ZM14.75,18.15c-.13,0-.25-.06-.32-.18l-.78-1.3c-.11-.18-.05-.41.13-.51.18-.1.41-.05.51.13l.78,1.3c.11.18.05.41-.13.51-.06.04-.13.05-.19.05ZM2.95,16.11c-.1,0-.2-.04-.27-.12-.14-.15-.14-.39.01-.53.06-.06.13-.1.19-.15.03-.02.07-.04.1-.07.27-.26.55-.49.84-.73l.29-.24c.16-.13.4-.11.53.04.13.16.12.39-.04.53l-.29.25c-.27.23-.54.46-.8.7-.06.06-.13.11-.2.15-.03.02-.06.04-.09.07-.07.07-.17.1-.26.1ZM17.66,14.82c-.06,0-.13-.02-.18-.05l-1.33-.74c-.18-.1-.25-.33-.14-.51.1-.18.33-.24.51-.14l1.33.74c.18.1.25.33.14.51-.07.12-.2.19-.33.19ZM16.16,7.71c-.11,0-.21-.05-.29-.13-.13-.16-.11-.4.05-.53.22-.18.35-.3.44-.38.24-.21.26-.22.67-.47l.27-.16c.18-.1.41-.05.51.13.11.18.05.41-.13.52l-.27.16q-.38.23-.56.39c-.09.08-.23.2-.45.39-.07.06-.16.09-.24.09ZM3.93,7.27c-.06,0-.12-.02-.18-.05l-1.32-.74c-.18-.1-.24-.33-.14-.51.1-.18.33-.24.51-.14l1.32.74c.18.1.24.33.14.51-.07.12-.2.19-.33.19ZM13.72,5.06s-.09,0-.13-.02c-.19-.07-.29-.29-.22-.48.1-.27.16-.43.2-.54.1-.3.12-.32.35-.73l.16-.28c.1-.18.33-.25.51-.14.18.1.25.33.14.51l-.16.28q-.21.38-.29.61c-.04.12-.1.29-.2.56-.06.15-.2.24-.35.24ZM6.56,4.76c-.13,0-.25-.06-.32-.18l-.78-1.3c-.11-.18-.05-.41.13-.52.18-.11.41-.05.52.13l.78,1.31c.11.18.05.41-.13.51-.06.04-.13.05-.19.05Z"/>
</svg>