<?xml version="1.0" encoding="utf-8"?>
<!-- Generator: Adobe Illustrator 28.0.0, SVG Export Plug-In . SVG Version: 6.00 Build 0)  -->
<svg version="1.1" id="Laag_1" xmlns="http://www.w3.org/2000/svg" xmlns:xlink="http://www.w3.org/1999/xlink" x="0px" y="0px"
	 viewBox="0 0 1000 1000" style="enable-background:new 0 0 1000 1000;" xml:space="preserve">
<style type="text/css">
	.st0{fill:none;stroke:#4A4A49;stroke-width:4.2315;stroke-linecap:round;stroke-linejoin:round;stroke-miterlimit:10;}
</style>
<path class="st0" d="M527.1,663.4c17.3,37.3-1.7,66.4-43.3,67.9c-33.1,1.2-66-1.8-98.8-3.7c-18-1-36.2-1.9-54.2-2.7
	c-30.5-1.3-55.5-14.3-79.9-30.3c-14.4-9.5-27.9-20.2-44-27.2c-24.7-10.8-50.4-11.8-76.5-9.4"/>
<path class="st0" d="M707.2,491.5"/>
<path class="st0" d="M428.3,409.6c8.7-11.8,13.6-25.7,20.2-38.6c18.3-35.5,36.3-71.2,54.2-106.9c6-12,10.6-25.3,5-37.7
	c-9-20-28-22.1-48.2-10.8c-16.1,9-28.6,22.4-40.9,36.3c-31.9,36.2-59.8,75.9-95.9,108.5c-41.3,37.3-88.4,59.8-145,59.4
	c-8.6-0.1-17.2-0.8-25.7-1.3"/>
<path class="st0" d="M433.7,408.9c4.1,4.2,8.4,6.9,14.9,6.9c61.8,0.6,291.7,6.7,337.3,8c15.6,0.5,33,11.9,35.2,23
	c3.1,15.6-5.2,32.2-20.3,40.6c-9.7,5.4-20.1,8.1-31.2,8.1c-38.8,0-180.2-1.7-195.2-0.6c-11.4,0.8-23.4-0.6-35.2-0.7"/>
<path class="st0" d="M529.9,570.7c19.6,1.8,34.2,14.6,39.3,34.5c4.3,16.9-2.9,35.9-17.6,46c-15.3,10.6-31.2,11.1-42.7,1.4"/>
<path class="st0" d="M206.2,639.1c19.4,5.7,36.9,15.5,54.2,25.7"/>
<path class="st0" d="M548.8,574.1c5.4-3.6,10.9-7.1,16.2-10.8c17.5-12.1,22.7-32,13.6-51.5c-2.2-4.8-5.8-9.1-5.4-14.9"/>
<path class="st0" d="M899.7,515.7c-11.4-9.7-27.3-10.7-38.6-20.6"/>
<path class="st0" d="M909.2,410.7c-14.6,3.1-25.2,15.1-39.9,18"/>
<path class="st0" d="M843.9,560.3c-8.1-7-13.4-16-18.5-25.1"/>
<path class="st0" d="M829.4,395.4c1.3-10.6,5.9-20,10.6-29.4"/>
<path class="st0" d="M222.5,618.8c8.6,4.1,17.2,8.1,25.7,12.2"/>
</svg>
