<?xml version="1.0" encoding="utf-8"?>
<!-- Generator: Adobe Illustrator 28.0.0, SVG Export Plug-In . SVG Version: 6.00 Build 0)  -->
<svg version="1.1" id="Laag_1" xmlns="http://www.w3.org/2000/svg" xmlns:xlink="http://www.w3.org/1999/xlink" x="0px" y="0px"
	 viewBox="0 0 1000 1000" style="enable-background:new 0 0 1000 1000;" xml:space="preserve">
<style type="text/css">
	.st0{fill:none;stroke:#4A4A49;stroke-width:4;stroke-linecap:round;stroke-linejoin:round;stroke-miterlimit:10;}
</style>
<g>
	<path class="st0" d="M294.1,401.5c10.1,26.1,13.4,53.6,16.7,81.1c5.2,44.1,8.3,88.2-1.5,132.2c-2.3,10.3-6.7,19.5-11.5,28.6
		c-3.8,7.2-7.5,10.5-17.6,5.6c-18.4-8.7-35.7-19.4-53.2-29.5c-2.9-1.7-5.5-4-8.9-4.7c-24.1-5.7-42.2-19.2-56.4-39.7
		c-12.8-18.5-25.5-36.9-34.5-57.6c-3.1-7.2-2.5-14,4.7-20c31.2-26,62.8-51.4,98.6-70.9c20-10.9,39.8-22.1,62.3-27.6
		c6.9-1.7,13.2-6.2,20-8.4c56-18.4,113.5-24.7,172-17.3c26.6,3.4,51.1,14.7,74.9,27.1c28.2,14.7,54,33.6,83.4,46.4
		c26.9,11.7,53.5,18.5,83.7,16.8c35.9-2,60.6-19.1,80.9-45.8c8.5-11.1,12-24.3,11.5-38.6c-0.3-8.7-0.6-17.4,0.9-26.2
		c1.8-10,6.2-16.6,17.4-18.9c10.3,9.2,6.9,21.3,5.1,32.6c-2.2,13.6-0.5,27.5,8,37.1c26.1,29.7,26.5,62.7,15.6,97.5
		c-7.7,24.8-7.2,47.6,11.5,67.3c8.3,8.7,9.6,19,8.6,30c-1.3,15.3-3.6,30.3-12.3,43.7c-6.7,10.2-15,8.7-22.5,3.6
		c-15.7-10.8-25.7-26.9-36.2-42.3c-16.3-23.9-29.5-50-49.9-71.1c-15.3-15.9-18.7-15.7-36.4-4c-13.2,8.8-23.1,20.9-31.8,33
		c-28.8,39.7-69.8,60.4-113.9,77c-27,10.2-52.7,23.6-81,30.8c-36.7,9.3-73.2,12.7-111.1,8.3c-27.7-3.2-54.3-9.8-81-16.7
		c-6.4-1.6-12.3-4.2-16.2-9.9"/>
	<path class="st0" d="M372.6,500.6c8,0.8,10.4,5.3,10.1,13.1c-0.4,14.7-3.7,29.1-5,43.7c-0.9,10.4-1.1,21.1,3.4,31.2
		c3.2,7.2,1.1,14.9,0.1,22.4"/>
	<path class="st0" d="M456.2,561.1c6.7,24-2.2,44.8-13.9,64.7c-2.4,4.1-6.2,7.3-6.1,12.6"/>
	<path class="st0" d="M346.5,406.5c-0.4,6.4,5.2,5.8,8.7,7.5c19.2,9.1,22.8,16.7,10.9,37.2c-2.7,4.7-4.8,11.7-12.1,12.7"/>
	<path class="st0" d="M598.3,473.8c9.3,19.9,9.7,40.3,3.1,61.1"/>
	<path class="st0" d="M515.4,490c-1.9-14.1,2-28.9-4.5-42.3c-2.8-5.7-1.4-14.7-11-15.7"/>
	<path class="st0" d="M426.3,421.5c12.3,18.7,12.6,38.9,7.5,59.8"/>
	<path class="st0" d="M443.7,508.8c0.5,13,4.1,26-2.2,38.8c-1.5,3.2-2.8,3.4-5.3,3.6"/>
	<path class="st0" d="M822.7,456.4c-5.4,9-15.3,10.8-23.7,15c-6,3-11.8,6.6-18.7,7.5"/>
	<path class="st0" d="M790.3,518.7c14.6,1,29.5-2.6,43.6,3.7"/>
	<path class="st0" d="M526,523.7c1.2,12.2,6.4,23.7,6.2,36.2"/>
	<path class="st0" d="M256.7,448.9c-4.7,16.1-11.7,30.4-29.9,34.9"/>
</g>
</svg>
