<?xml version="1.0" encoding="utf-8"?>
<!-- Generator: Adobe Illustrator 28.0.0, SVG Export Plug-In . SVG Version: 6.00 Build 0)  -->
<svg version="1.1" id="Laag_1" xmlns="http://www.w3.org/2000/svg" xmlns:xlink="http://www.w3.org/1999/xlink" x="0px" y="0px"
	 viewBox="0 0 1000 1000" style="enable-background:new 0 0 1000 1000;" xml:space="preserve">
<style type="text/css">
	.st0{fill:none;stroke:#4A4A49;stroke-width:4;stroke-linecap:round;stroke-linejoin:round;stroke-miterlimit:10;}
</style>
<g>
	<path class="st0" d="M753.1,535.5c-10.5-27.4-33.8-42.4-58.1-53.3c-113.1-48.3-126.1,13.7-129.6,28.4
		c-6.2,25.6,32.1,107.4-81.7,201.6c-29,23.2-49.7,53.6-50.3,84c-0.4,19.4,6,33.4,21.5,44c31.1,21.3,80.8,23.2,110.1,1
		c29.9-22.6,39.5-94.1,63.4-123.3c41.7-70,100.9-110.7,113.4-134.2c7.3-13.8,12.4-29.1,12-45.5"/>
	<path class="st0" d="M726.5,423.8c-10.9,4.1-16,13.6-21.9,22.7c-3.2,4.9-2.6,10.1,0.3,12.9c3.7,3.5,9,6.6,15.4,4.2
		c9.5-3.6,19.5-29.4,13.9-37.7c-1-1.5-4.2-1.6-6.3-2.4"/>
	<path class="st0" d="M645.7,429.1c3.9-3.7,8.2-5.6,9.6-12.8c2.5-13,2-25.3,0.7-38.1c-1.1-10.1-4-16.7-14.8-18.6
		c-9.2-1.6-16.5,0.8-22,8.5c-9.8,13.6-20.5,26.8-19,45.1C600.1,413.1,595.2,448.5,645.7,429.1z"/>
	<path class="st0" d="M774.7,489.6c-13.3,5.8-16.8,12.7-12.7,24.3c1.5,4.1,3.5,6.9,8.2,7.6c4.8,0.8,8-1.4,10-4.8
		c5.5-9.3,6-18.5-2.5-26.6"/>
	<path class="st0" d="M518.6,715.8c20.5,8.7,53.7,30.8,50.1,52.8"/>
	<path class="st0" d="M747.4,453.4c-4.2,5.2-8.8,10-12.3,15.6c-3.5,5.5-8.2,11.5,0.9,17c9.2,5.6,16.1,4.6,21.9-4.1
		c8-12,7-25-2.1-29.8c-2.8-1.5-4.7,0.6-7,0.8"/>
	<path class="st0" d="M688,398.3c-9.2,4.4-14.6,11.7-18,21.5c-5.1,14.9-3.6,19.3,10.7,24.2c9.2,3.2,16-2.1,19.9-14.9
		c2-6.4,3.4-12.5,2.8-19.6c-0.8-10-4.7-13.5-14.2-11.5"/>
	<path class="st0" d="M566.6,544.6c0,0-5.1,63.9,79.8,61.3"/>
</g>
<g>
	<path class="st0" d="M535.4,319.4c-10.5-27.4-33.8-42.4-58.1-53.3c-113.1-48.3-126.1,13.7-129.6,28.4
		c-6.2,25.6,32.1,107.4-81.7,201.6c-29,23.2-49.7,53.6-50.3,84c-0.4,19.4,6,33.4,21.5,44c31.1,21.3,80.8,23.2,110.1,1
		c29.9-22.6,39.5-94.1,63.4-123.3c41.7-70,100.9-110.7,113.4-134.2c7.3-13.8,12.4-29.1,12-45.5"/>
	<path class="st0" d="M508.7,207.8c-10.9,4.1-16,13.6-21.9,22.7c-3.2,4.9-2.6,10.1,0.3,12.9c3.7,3.5,9,6.6,15.4,4.2
		c9.5-3.6,19.5-29.4,13.9-37.7c-1-1.5-4.2-1.6-6.3-2.4"/>
	<path class="st0" d="M427.9,213c3.9-3.7,8.2-5.6,9.6-12.8c2.5-13,2-25.3,0.7-38.1c-1.1-10.1-4-16.7-14.8-18.6
		c-9.2-1.6-16.5,0.8-22,8.5c-9.8,13.6-20.5,26.8-19,45.1C382.4,197,377.5,232.4,427.9,213z"/>
	<path class="st0" d="M557,273.6c-13.3,5.8-16.8,12.7-12.7,24.3c1.5,4.1,3.5,6.9,8.2,7.6c4.8,0.8,8-1.4,10-4.8
		c5.5-9.3,6-18.5-2.5-26.6"/>
	<path class="st0" d="M300.8,499.8c20.5,8.7,53.7,30.8,50.1,52.8"/>
	<path class="st0" d="M529.6,237.3c-4.2,5.2-8.8,10-12.3,15.6c-3.5,5.5-8.2,11.5,0.9,17c9.2,5.6,16.1,4.6,21.9-4.1
		c8-12,7-25-2.1-29.8c-2.8-1.5-4.7,0.6-7,0.8"/>
	<path class="st0" d="M470.3,182.3c-9.2,4.4-14.6,11.7-18,21.5c-5.1,14.9-3.6,19.3,10.7,24.2c9.2,3.2,16-2.1,19.9-14.9
		c2-6.4,3.4-12.5,2.8-19.6c-0.8-10-4.7-13.5-14.2-11.5"/>
	<path class="st0" d="M348.9,328.6c0,0-5.1,63.9,79.8,61.3"/>
</g>
</svg>
