<?xml version="1.0" encoding="utf-8"?>
<!-- Generator: Adobe Illustrator 28.0.0, SVG Export Plug-In . SVG Version: 6.00 Build 0)  -->
<svg version="1.1" id="Laag_1" xmlns="http://www.w3.org/2000/svg" xmlns:xlink="http://www.w3.org/1999/xlink" x="0px" y="0px"
	 viewBox="0 0 1000 1000" style="enable-background:new 0 0 1000 1000;" xml:space="preserve">
<style type="text/css">
	.st0{fill:none;stroke:#4A4A49;stroke-width:4;stroke-linecap:round;stroke-linejoin:round;stroke-miterlimit:10;}
</style>
<g>
	<path class="st0" d="M807.4,129.6c3.4,108.8,19.4,115.1,10.3,98 M807.4,136.1c-26.7,2.8-49.9,5.4-73.2,7.4
		c-7.9,0.7-16.1,0.6-23.9-0.5"/>
	<path class="st0" d="M653.4,359c12.3,10.5,34.6,28.7,47.1,40.5c32.2,30.3,56.2,65.7,63.6,110.1c9,54.3,3.3,107.6-18.1,158.4
		c-43.1,102.1-118.3,168-226,195.6c-54.2,13.9-106.3,5.6-156.5-17.3c-41-18.7-77.5-44.5-111.1-74c-39-34.2-59.6-79-67.6-129.6
		c-6-38.3-7.6-76.9-0.6-115.2c13.2-72.3,51-129,111.3-170.8c15.9-11,31.6-23,48.9-31.5c23.2-11.4,47-21.8,73.6-23.5
		c17.2-1.1,34.2-4.1,51.4-5c47.1-2.5,90.8,9.2,131.5,32.8c13,7.5,26,14.9,39.8,22.8c31-45.7,129.1-167.4,159.8-215"/>
</g>
</svg>
