<?xml version="1.0" encoding="utf-8"?>
<!-- Generator: Adobe Illustrator 28.0.0, SVG Export Plug-In . SVG Version: 6.00 Build 0)  -->
<svg version="1.1" id="Laag_1" xmlns="http://www.w3.org/2000/svg" xmlns:xlink="http://www.w3.org/1999/xlink" x="0px" y="0px"
	 viewBox="0 0 1000 1000" style="enable-background:new 0 0 1000 1000;" xml:space="preserve">
<style type="text/css">
	.st0{fill:none;stroke:#4A4A49;stroke-width:4;stroke-linecap:round;stroke-linejoin:round;stroke-miterlimit:10;}
</style>
<path class="st0" d="M171.5,447.6c7.1,3.2,12.9,8.5,19.4,12.6c23,14.4,45.6,29.4,68.7,43.4c18.9,11.4,36.5,24.6,55.1,36.2
	c13.5,8.4,75.2,49.7,91.4,63.6c20.4,17.4,42.1,33.2,63.9,48.8c10.5,7.5,20.6,15.7,32.1,21.6c12,6.2,21.9,15.6,33.8,21.9
	c3.1,1.7,4.2,3.6,3,7.9c-4.1,15.1-0.2,36.5-3.1,51.9c-0.2,1.1-0.5,2.3-0.3,3.2c0.8,3.6-1,5.5-3.7,7.5c-6,4.5-10.6,0.1-14.8-2.5
	c-25.5-16-59.6-39.8-84.1-57.4c-17.4-12.5-35-24.9-51.8-38.2c-15.4-12.2-101.7-80.2-131.8-98.7c-26.3-16.2-52.6-32.4-78.8-48.7
	c-3.3-2-6.1-4.8-9.3-6.9c-2.8-1.8-2.7-3.9-2.4-7c1-13.7,5.1-26.8,7.2-40.3c0.4-2.3,1.1-4.8,1.1-7c0-11.3,6.3-17.8,15-23.8
	c23.3-16.2,47.8-30.5,71.9-45.4c29.3-18.1,59-35.4,88.3-53.5c30.6-18.9,61.4-37.5,91.2-57.7c11.8-8,86.6-60.5,93.7-60.3
	c3.7,0.1,6.5,1.8,9.3,3.8c9.5,6.5,304.6,205.6,312.1,210.5c10.3,6.8,18.7,16,28.7,23.2c2.3,1.7,4.7,3.3,6.9,5.1
	c1.5,1.3,2.1,2.8,1.6,5.1c-0.6,2.5-1.8,2.6-3.8,2.8c-3,0.4-5.2,2.7-7.4,4.6c-6.1,5.2-11.9,10.7-18.1,15.7
	c-8.6,6.9-18.7,11.4-28.2,16.8c-11.3,6.4-21.1,15.1-31.5,22.7c-17.1,12.6-35.2,23.7-53.3,34.9c-21.8,13.5-42.4,28.8-64.2,42.4
	c-32.7,20.3-62.9,44.1-94.5,66c-12,8.3-23.2,17.5-35.7,25.1c-2.6,1.6-5.2,2.9-8.4,2.8"/>
<path class="st0" d="M429.4,495.4c-3.5-5.9-7.9-11.2-12.1-16.7c-9.4-12.5-18.8-25.1-25.5-39.4c-3.7-8-5.9-16.5-6.2-25.1
	c-0.3-6.9,2.2-13.5,5.2-20c3.8-8.3,6.9-17,12.2-24.5c10.2-14.5,23.5-25.5,38.8-34.5c15.6-9.1,31.6-16.8,49.2-21.2
	c17-4.3,34.1-4.1,51,0.1c20.9,5.2,39.8,15,58,26.4c7.3,4.6,15,8.6,20.5,15.6c3.4,4.4,6,9.2,8.7,14"/>
<path class="st0" d="M847.7,556.6c1.3,7-0.9,13.6-2,20.4c-0.4,2.5-2.8,4.2-5,5.6c-14.3,9.3-27.6,19.9-41.3,30.1
	c-13.4,10-27.1,19.6-40.8,29.3c-18.1,12.8-36.6,25-55.2,37.1c-23.8,15.5-48.7,29.2-73.7,42.7c-23.7,12.8-38.4,31.7-60.8,46.7
	c-6.1,4.1-29.6,10.9-29.6,10.9l2.6-16.8"/>
<path class="st0" d="M884.3,469.9c2,5.2-0.6,10-1.6,14.8c-2.4,11.3-4.3,22.6-6.8,33.9c-1,4.7-2.9,9.2-3.6,13.9
	c-1.3,8.4-7.9,11.3-14,14.8c-3.7,2.1-7.3,4.3-10.1,7.5c-2.1,2.4-32,24.2-44.6,33.8c-28.9,22-58.6,42.8-88.9,62.7
	c-24.6,16.1-49.1,32.2-75.2,45.8c-27.5,14.3-45,36.8-72.8,50.6c-4.1,2.1-8.4,3.9-12.5,6.1c-2,1-13,8.5-17.6,8.8"/>
<path class="st0" d="M629.3,371.6c2.7-2.4,6.2-3.5,9.3-5c2.1-1,3,1.1,3.6,2.7c1.7,4.1,4.1,7.9,6.4,11.7c1.6,2.6,0.8,5.4-2.2,7.4
	c-6.1,3.9-12.4,7.7-18,12.1c-8,6.3-16,12.5-24.1,18.5c-26.1,19.4-53,37.6-81.2,53.8c-20.3,11.7-39.8,24.5-59.9,36.4
	c-7.5,4.4-14.1,10.3-22.2,13.6c-0.1,0,0,0.6,0,0.9"/>
<path class="st0" d="M614.4,384.1c-3.3,4.4-7.9,7.3-12.1,10.6c-23.4,18.2-47.2,35.7-72.3,51.6c-16.1,10.2-32.1,20.5-48.3,30.6
	c-6.4,4-12.2,8.8-19,12.1c-6.4,3.1-8.3,2.7-13.5-2.3c-5.6-5.5-10-11.7-14.2-18.4c-4.3-6.7-8.3-13.6-11.5-20.7
	c-3.9-8.4-8.8-16.8-7.7-26.8c0.3-3.2,0.9-6.3,1.9-9.3c1.4-3.9,0.8-8.2,2.7-12.1c2.5-5.1,3.9-10.8,7-15.7
	c6.8-10.6,14.5-20.1,25.4-27.1c4.4-2.8,8.4-6.7,13.2-8.9c5.2-2.4,9.9-6.5,16.2-5.7c2.1-3.1,5.6-3.8,8.8-4.6
	c8.8-2.2,17.6-3.5,26.9-2.3c3.8,0.5,8.3-0.5,12.5-0.1c9.3,0.9,18.3,3.2,26.9,6.9c4.2,1.8,8.9,1.6,13,3.7c12.6,6.5,26,11.7,35.7,22.7
	c4,4.5,7.2,9.4,8.8,15.3"/>
<path class="st0" d="M531.5,420.5c7-3.3-65.5-13.8-65.5-13.8L531.5,420.5z"/>
<path class="st0" d="M423.8,499.3c4.9,4.4,8,10.2,11.6,15.5c1.7,2.5,3.4,4.9,5.1,7.4"/>
<path class="st0" d="M454,357.2c4.6,5.9,8.8,12.2,13.9,17.6c0.9,0.9,1,1.8,0.9,2.8"/>
<path class="st0" d="M482.7,342.4c1.5,5,4.6,9.3,6.9,13.9c1,2,1.8,4.1,1.4,6.5"/>
<path class="st0" d="M446.1,436.5c-8.3-0.6-16.2,0.8-23.7,4.6"/>
<path class="st0" d="M419.2,410.5c4.8,0.7,9.1,2.6,13.4,4.7c1.7,0.8,3.1,2,5.1,1.3"/>
<path class="st0" d="M456.7,454.8c-1-0.3-2-0.7-2.8,0.2c-4.9,5.9-12.4,7.9-18.1,12.5"/>
<path class="st0" d="M433.6,376.7c4.6,5.1,9.3,10.2,13.9,15.3"/>
<path class="st0" d="M558.8,343.8c-0.1,3.4-2.7,5.6-4.1,8.4c-1.2,2.3-3.8,4-3.7,6.9"/>
<path class="st0" d="M518.4,335.9c1,5.7,2,11.4,3,17.2"/>
<path class="st0" d="M582.9,353c-3.2,5.1-8.5,8.2-12.1,13"/>
<path class="st0" d="M189.6,532.6c0,0-6.6,11.8,0,20.1s67.6,46.1,101,70s149.9,116.9,149.9,116.9s63.7,50.7,96,39.8"/>
</svg>
