<?xml version="1.0" encoding="utf-8"?>
<!-- Generator: Adobe Illustrator 28.0.0, SVG Export Plug-In . SVG Version: 6.00 Build 0)  -->
<svg version="1.1" id="Laag_1" xmlns="http://www.w3.org/2000/svg" xmlns:xlink="http://www.w3.org/1999/xlink" x="0px" y="0px"
	 viewBox="0 0 1000 1000" style="enable-background:new 0 0 1000 1000;" xml:space="preserve">
<style type="text/css">
	.st0{fill:none;stroke:#4A4A49;stroke-width:4;stroke-linecap:round;stroke-linejoin:round;stroke-miterlimit:10;}
</style>
<g>
	<g>
		<path class="st0" d="M519,299.6c12.4-3.9,210.4-13.4,225.7-11.1c9.7,1.5,8.1,3.3,11.4,11c6,14.1,11.7,28.9,19,41.7
			c12.2,21.1,21.5,43.5,33.4,64.7c10.9,19.3,19.2,40,29.3,59.7c6.1,11.8,10.7,24.2,17.2,35.7c1.8,3.1,2.3,6.4,2,9.9"/>
		<path class="st0" d="M751,520.6c6.6,2.9,66.8-6.3,94.1-6.3c4.6,0,8.8-3.1,12.7-1.9c7.9,2.2,11.7,8,12,16.5
			c0.3,11.8,2,23.7,1.7,35.5c-0.5,25.4-12.7,44.1-35.4,55.1c-28.7,13.8-52.7,23.4-84.2,27.2c-21.9,2.7-44.6,2.1-65.9-5.7
			c-8.4-3.1-23.3-6.5-31.3-11.3c-13.9-8.4-15.8-22.5-19.5-35.8c-4.1-14.9-3.7-30.1-2.2-45.3c0.3-2.9,0.8-6-1.6-9.1
			c-1.4-1.8,25.2-72,31.3-87.5c3.1-7.8,8-14.6,11-22.6c8.4-22.8,21.1-43.6,31-65.8c6.2-14,14.6-27.5,22.5-41
			c6.4-10.9,10.6-23.2,17.3-34.2"/>
		<path class="st0" d="M634.3,542.7c11.5-0.7,23.1-2.5,34.5-1.7c18.4,1.3,36.8,0.5,55.2,2.2c20.8,1.9,124.1-3.5,124.1-3.5
			c6.9,0,13.8,0,20.7,0"/>
		<path class="st0" d="M442.6,706.9c-29.1-2.8-57.8,3-86.7,4.5c-7.4,0.4-10.4,6.1-11.5,11c-2.5,10.9-2.9,22.3-4.3,33.4
			c-0.9,6.9,2.5,9.1,8.9,8.9c10.2-0.2,20.4-0.1,30.5,0c0,0,85.4-1.3,104.5-0.7c26.9,0.9,155.5-4,193.1-5.3
			c7.5-0.2,11.5-4.6,10.8-11.8c-0.7-7.6-1.7-23-1.8-30.6c-0.1-7.7-4.4-11.7-11-12.6c-11.1-1.6-22.3-2.2-33.5-3.1
			c0,0-82.8-1.6-86.7,3c-4.1,4.9-9.6,3.8-14.8,3.9c-21.7,0.6-74.9-2.8-79.8,2"/>
		<path class="st0" d="M743.9,276.4c-1.6,0-216.5-32.2-225-32.5"/>
		<path class="st0" d="M492.9,667.1c16.1-0.1,32.3-1,48.3,2c10.7,2,14.3,5.5,13.6,15.8c-0.4,5.8,2.5,10.5,3.2,15.8"/>
		<path class="st0" d="M510.1,522.3c-0.6,11.8,0.7,23.5,1.9,35.5c0.9,9.4-2.9,19.6-2.1,29.5c0.7,8.6,0.1,17.3,0,25.6
			c-0.3,17,2.2,34.4-2.1,51.3"/>
		<path class="st0" d="M677.6,580.2c3.7,13.6,15.3,20.6,24.6,29.6"/>
		<path class="st0" d="M510.1,522.3c1.6-12.9,11.8-256.3,9.9-265.1c-0.2-0.9,0-2,0-3c0.3-17.9,0.1-21.9-17.3-17.1
			c-9.7,2.7-14,8.1-15.7,17.1"/>
		<path class="st0" d="M638.2,522c9.9,4.3,19.9,0.3,29.5-0.5c11.5-1.1,55.1-1.4,64.4,0.8"/>
		<path class="st0" d="M704.2,578.2c-1.6,7,13.1,25.8,18.7,28.6"/>
		<path class="st0" d="M446.6,673c-1.3,1.6-3.8,3.4-3.7,4.9c0.5,9.3-3.7,18.3-2.2,27.6"/>
		<path class="st0" d="M486,257.2c0.7,2,1.9,3.9,1.9,5.9c0.2,16.5-0.7,32.9-2.6,49.3c-2.6-0.7-4.9,291-7.2,290.4"/>
		<path class="st0" d="M477.1,619.8c0.6,19.4-1.4,17.4,1,36.7l-1,13.5c-9,3.5-18.4,1.8-27.6,2"/>
	</g>
	<path class="st0" d="M425.7,292.1c-12.4-3.9-155.1-12.5-170.3-10.1c-9.7,1.5-8.1,3.3-11.4,11c-6,14.1-11.7,28.9-19,41.7
		c-12.2,21.1-21.5,43.5-33.4,64.7c-10.9,19.3-19.2,40-29.3,59.7c-6.1,11.8-10.7,24.2-17.2,35.7c-1.8,3.1-2.3,6.4-2,9.9"/>
	<path class="st0" d="M249,514.2c-6.6,2.9-66.8-6.3-94.1-6.3c-4.6,0-8.8-3.1-12.7-1.9c-7.9,2.2-11.7,8-12,16.5
		c-0.3,11.8-2,23.7-1.7,35.5c0.5,25.4,12.7,44.1,35.4,55.1c28.7,13.8,59.1,23.4,90.7,27.2c21.9,2.7,44.6,2.1,65.9-5.7
		c8.4-3.1,16.9-6.5,24.9-11.3c13.9-8.4,15.8-22.5,19.5-35.8c4.1-14.9,3.7-30.1,2.2-45.3c-0.3-2.9-0.8-6,1.6-9.1
		c1.4-1.8-25.2-72-31.3-87.5c-3.1-7.8-8-14.6-11-22.6c-8.4-22.8-21.1-43.6-31-65.8c-6.2-14-14.6-27.5-22.5-41
		c-6.4-10.9-10.6-23.2-17.3-34.2"/>
	<path class="st0" d="M365.7,536.3c-11.5-0.7-23.1-2.5-34.5-1.7c-18.4,1.3-36.8,0.5-55.2,2.2c-20.8,1.9-124.1-3.5-124.1-3.5
		c-6.9,0-13.8,0-20.7,0"/>
	<path class="st0" d="M256.1,270c1.6,0,216.5-32.2,225-32.5"/>
	<path class="st0" d="M322.4,573.7c-3.7,13.6-15.3,20.6-24.6,29.6"/>
	<path class="st0" d="M361.8,515.6c-9.9,4.3-19.9,0.3-29.5-0.5c-11.5-1.1-55.1-1.4-64.4,0.8"/>
	<path class="st0" d="M295.8,571.8c1.6,7-13.1,25.8-18.7,28.6"/>
	<line class="st0" x1="436.2" y1="293" x2="486.7" y2="297.4"/>
</g>
</svg>
