<?xml version="1.0" encoding="UTF-8"?>
<svg id="Laag_1" data-name="Laag 1" xmlns="http://www.w3.org/2000/svg" version="1.1" viewBox="0 0 40.14 39.92">
  <defs>
    <style>
      .cls-1 {
        fill: none;
        stroke: #494948;
        stroke-linecap: round;
        stroke-linejoin: round;
        stroke-width: .75px;
      }
    </style>
  </defs>
  <path class="cls-1" d="M22.67,8.64c-3.1.6-13.3.4-10.8,5.6,2.3,5.6,8.2,2.8,12.6,2.1,2.9-.7,2.8-3.4,2.4-5.7-.3-2-2.5-2.2-4.2-2M28.48.44C20.48,2.54.68,2.44.38,13.24c.3,10.1,4.2,24.3,15.6,26.3,6.1-.1,17.1-1.4,20.1-7.4C40.17,23.34,44.17-1.06,28.48.44M32.27,16.24c-.6.2-1.1.4-1.5.9-1.9,2.1-4.3,3.1-7,3.8-4.1.7-8.4,1.5-12.5.2-10,.2,1.9,15.9,7.8,14,5.3-.2,11.8-.9,13.9-6.6,1.4-3.3,3.8-10.6-.7-12.3M19.87,13.84c.1.9.9,1.2,1.5,1.6M23.07,10.74c-.1.6-.2,1.1-.4,1.7M19.17,10.94c.1.6.4,1.1.2,1.7M15.47,11.74c0,.9,1,1.3,1.2,2.1"/>
</svg>