<?xml version="1.0" encoding="utf-8"?>
<!-- Generator: Adobe Illustrator 28.0.0, SVG Export Plug-In . SVG Version: 6.00 Build 0)  -->
<svg version="1.1" id="Laag_1" xmlns="http://www.w3.org/2000/svg" xmlns:xlink="http://www.w3.org/1999/xlink" x="0px" y="0px"
	 viewBox="0 0 1000 1000" style="enable-background:new 0 0 1000 1000;" xml:space="preserve">
<style type="text/css">
	.st0{fill:none;stroke:#4A4A49;stroke-width:4;stroke-linecap:round;stroke-linejoin:round;stroke-miterlimit:10;}
</style>
<path class="st0" d="M422.8,371.6c0.6,14.8,16.8,21.5,19.6,34.2"/>
<path class="st0" d="M485.1,358.1c0.9,9.4,7.2,18.1,3.7,28.1"/>
<path class="st0" d="M549.9,354.5c-2,9.4-4.1,18.7-6.1,28.1"/>
<path class="st0" d="M496.1,405.8c2.2,14.4,14.3,19.7,24.4,26.9"/>
<path class="st0" d="M702.7,446.1c-9.8,2.7-18.9,7.2-25.6,14.8c-31.1,35.3-72.3,51.3-116.2,63c-68.3,11.7-140.6,25.2-207.8,3.4
	c-165.7,3.6,31.6,265.4,129.6,233c88.2-3.8,197-14.8,231.9-110.2c23-54.3,63.5-176.2-10.7-204"/>
<path class="st0" d="M640.4,182.1C507.9,217.4,177.3,215.5,172.3,396c5.4,168.2,69.4,404.4,260.3,438.5
	c101.3-2.5,285.4-23,334.9-123.1c66.3-147.2,133.6-553.7-125.9-529.3"/>
<path class="st0" d="M542.6,319c-51.6,10.7-222,6.8-179.5,94c37.8,92.9,137,47.1,210.1,34.5c48.3-11.9,45.9-56.9,39.4-95.5
	c-4.2-32.7-41.5-35.2-68.7-33"/>
</svg>
