<?xml version="1.0" encoding="UTF-8"?>
<svg id="Laag_1" data-name="Laag 1" xmlns="http://www.w3.org/2000/svg" viewBox="0 0 40.13 40">
  <defs>
    <style>
      .cls-1 {
        fill: #494948;
        stroke-width: 0px;
      }
    </style>
  </defs>
  <path class="cls-1" d="M16.02,40C4.75,37.99.36,24.36,0,13.3.24,4.56,12.59,2.68,21.62,1.31c2.58-.39,5.01-.76,6.78-1.23.04-.01.09-.02.13-.01h0c3.95-.37,6.94.84,8.92,3.61,5.12,7.16,1.83,22.48-.98,28.71-3.21,6.5-15.37,7.49-20.45,7.62ZM28.54.81c-1.81.48-4.24.85-6.81,1.24C12.97,3.38.97,5.21.75,13.3c.35,10.76,4.57,24.04,15.33,25.96,4.87-.13,16.69-1.07,19.71-7.19,2.91-6.47,5.76-21.36,1.05-27.95-1.81-2.53-4.58-3.65-8.24-3.3-.02,0-.04,0-.06,0ZM17.92,35.72c-2.44,0-5.23-2.04-7.21-4.19-2.43-2.64-4.43-6.36-3.43-8.71.38-.89,1.37-1.96,3.94-2.02.04,0,.08,0,.12.02,3.83,1.24,7.95.53,11.94-.16l.37-.06c2.39-.64,4.89-1.54,6.76-3.66.41-.46.97-.79,1.72-1,.05-.01.1-.02.14-.01.05,0,.11,0,.17.02,1.09.41,1.87,1.15,2.33,2.21,1.36,3.16-.58,8.42-1.47,10.54-2.31,6.31-10.03,6.66-14.21,6.84-.38.12-.77.17-1.17.17ZM11.18,21.55c-1.71.05-2.79.58-3.21,1.56-.74,1.74.61,4.99,3.29,7.91,2.71,2.94,5.71,4.44,7.64,3.79.03-.01.07-.02.1-.02,5.54-.24,11.61-.95,13.6-6.37.87-2.04,2.73-7.07,1.48-9.97-.37-.85-.96-1.43-1.82-1.77-.56.17-.98.41-1.28.75-2,2.28-4.63,3.22-7.17,3.9l-.4.07c-4.05.7-8.25,1.42-12.23.15ZM16.96,18.11c-2.29,0-4.32-.82-5.47-3.66-.53-1.09-.58-2.07-.12-2.89,1.19-2.15,5.57-2.61,8.76-2.95.98-.1,1.83-.19,2.41-.31.04,0,.08,0,.11,0,0,0,0,0,0,0,3.48-.29,4.38,1.1,4.53,2.3.26,1.57.89,5.28-2.65,6.15-.8.14-1.61.33-2.47.54-1.69.4-3.47.83-5.12.83ZM22.66,9.04c-.61.12-1.47.21-2.45.32-2.86.3-7.18.76-8.18,2.57-.33.6-.28,1.33.15,2.22,1.75,4.31,5.81,3.34,9.73,2.41.87-.21,1.7-.4,2.49-.54,2.49-.62,2.46-2.91,2.06-5.31-.17-1.3-1.43-1.86-3.73-1.67-.02,0-.04,0-.06,0ZM21.29,15.86c-.07,0-.15-.02-.22-.07-.1-.07-.2-.13-.3-.2-.56-.37-1.19-.78-1.33-1.67-.03-.2.11-.4.31-.43.2-.03.4.11.43.31.09.56.51.83,1,1.15.11.07.21.14.32.21.17.12.21.35.09.52-.07.1-.19.16-.31.16ZM16.6,14.25c-.17,0-.33-.12-.37-.29-.05-.25-.26-.48-.47-.72-.32-.36-.68-.78-.71-1.4,0-.21.15-.38.36-.39.19-.02.38.15.39.36.02.35.25.62.52.93.26.29.55.62.64,1.06.04.2-.08.4-.29.45-.03,0-.05,0-.08,0ZM19.39,13.07s-.08,0-.13-.02c-.19-.07-.3-.28-.23-.48.1-.27.01-.54-.09-.86-.06-.21-.13-.43-.15-.66-.02-.21.13-.39.34-.41.2-.02.39.13.41.34.02.16.07.33.12.52.12.39.26.83.08,1.34-.05.15-.2.25-.35.25ZM22.69,12.85s-.05,0-.08,0c-.2-.04-.33-.24-.29-.45l.37-1.69c.04-.2.24-.33.45-.29.2.04.33.24.29.45l-.37,1.69c-.04.18-.19.3-.37.3Z"/>
</svg>