<?xml version="1.0" encoding="utf-8"?>
<!-- Generator: Adobe Illustrator 28.0.0, SVG Export Plug-In . SVG Version: 6.00 Build 0)  -->
<svg version="1.1" id="Laag_1" xmlns="http://www.w3.org/2000/svg" xmlns:xlink="http://www.w3.org/1999/xlink" x="0px" y="0px"
	 viewBox="0 0 1000 1000" style="enable-background:new 0 0 1000 1000;" xml:space="preserve">
<style type="text/css">
	.st0{fill:none;stroke:#4A4A49;stroke-width:4;stroke-linecap:round;stroke-linejoin:round;stroke-miterlimit:10;}
</style>
<g>
	<path class="st0" d="M250.6,818.9c-3.7-7.1-3.6-14.9-3.8-22.5c-0.9-28-4.6-55.9-3.3-84c0.6-13.1,2.5-26.1,4.3-39.1
		c2.7-19.1,5.1-38.3,7-57.5c3-30.6,8.9-60.5,18-90.1c11.5-37.4,27.7-72.1,51.5-102.9c8.2-10.6,19.2-19.1,28.9-28.6
		c12.7-12.5,25-25.5,39.7-35.6c17.1-11.7,36.7-18.3,55.3-27.1c16.4-7.8,33.2-6.5,49.9-8.5c11.1-1.3,22.5-2.3,33.7-2
		c14.4,0.4,28.8-0.3,43.2,5.2c12.3,4.7,25.5,7.1,37.5,13c15.2,7.5,29.2,17,42.3,27.8c11.5,9.5,18.1,22.7,25.8,35.1
		c22.4,35.8,37.9,74.4,46.3,115.7c2.8,13.8,4.1,27.7,5.4,41.7c1.2,13,3,26,4.5,39c1.4,11.9,2.8,23.8,3.9,35.7
		c2.5,27.1,3.2,54.2,3.9,81.4c0.5,18.9,0.3,37.9-0.5,56.9c-0.5,12.8-0.5,25.6-0.7,38.4c0,1.8,0.1,3.8-0.7,5.2
		c-3.4,6.4-2.3,12.8-0.6,19.2"/>
	<path class="st0" d="M738.8,824.9c-12.9-2.6-26-2-39-3.2c-14.5-1.3-29.1-1.5-43.6-0.6c-19,1.2-38-0.4-56.9-1.7
		c-31.1-2.1-62.2-1.8-93.3-2.5c-41.7-1-83.3-0.4-125-0.4c-33.8,0-67.5,1.8-101.2,4.3c-8.5,0.6-17.2,2.3-25.9-0.9
		c-3.2-1.2-7.4,0.2-11.2,0.4"/>
	<path class="st0" d="M802.3,169.4c-7.1-5.7-15.6-5-23.8-4.5c-4,0.2-7.9,0.3-11.9,0.5c-56.9,2.5-113.8,1.6-170.6,1
		c-30.2-0.3-166-0.5-181.9-0.3c-37.9,0.4-75.9,1.4-113.8,2.3c-30.2,0.7-60.5,1-90.6,4.8c-1.9,0.2-3.8,0.2-5.3,1.4"/>
	<path class="st0" d="M197.7,179.3c0.4,6.3,5.5,9.3,9.3,13.2c10.7,11,19.9,23.2,31,33.8c18,17.3,39.7,28,62.9,36.3
		c20.7,7.4,41.9,13.1,63.5,17.2c20.1,3.8,40.2,7.5,60.9,7.3c6-0.1,12.3-0.1,17.8,2.1c7,2.9,13.7,1.1,20.6,0.7
		c11.4-0.7,22.9-0.1,34.4-0.2c17.4-0.1,97.9-7.1,97.9-7.1c28.7-5,57.8-7.7,85.3-18c27.6-10.4,53.9-23.1,74.8-44.8
		c11.7-12.1,24.2-23.4,36.3-35.1c3.4-3.3,7-6.6,8.5-11.3"/>
	<path class="st0" d="M484.7,466.9c3.5,13.5,6.1,27.2,10.7,40.3c4.5,12.8,6.8,26.8,12.3,41.2c3.1,8.2,4.4,17.1,6.3,25.7"/>
	<path class="st0" d="M453,293c2.2,10.8,2.1,22.1,6.6,32.4"/>
	<path class="st0" d="M498.7,408.8c-10.1,1.1-20.3,2.1-30.4,3.3c-26.5,3.2-49.1,13.3-67.7,33.5c-18.8,20.5-33.6,43-41.3,69.7
		c-2.8,9.8-4,19.9-3.7,30.4c0.4,12.9,1.1,25.6,2.8,38.4c2.3,17.2,9.6,32.5,17.3,47.6c2.9,5.7,6.7,11,9.8,16.6
		c12.4,21.9,31.5,34.4,55.6,39.6c15.7,3.4,31.7,5.1,47.6,7.5c15.4,2.4,30.5-0.1,45.7-1c32.8-2.1,62-14.5,87.9-34.3
		c20.5-15.8,31.3-37.9,36.4-62.7c11.1-54.3-3.7-102.5-37.1-145.4c-18.2-23.3-42.8-36.9-72.6-40.7c-8.6-1.1-17.2-1.7-25.8-1.8
		c-7.9-0.1-15.9-0.4-23.8-0.6"/>
	<path class="st0" d="M512.6,554.6c-1.2,0.1-2.4,0.2-3.6,0.4c-3.1,0.4-5.8,1.6-7.9,3.9c-2.2,2.4-3.9,5-4.8,8.2
		c-0.3,1.1-0.5,2.3-0.4,3.6c0,1.5,0.1,3,0.3,4.5c0.3,2,1.1,3.8,2,5.6c0.3,0.7,0.8,1.3,1.2,1.9c1.4,2.6,3.7,4,6.5,4.6
		c1.8,0.4,3.7,0.6,5.6,0.9c1.8,0.3,3.6,0,5.3-0.1c3.8-0.2,7.3-1.7,10.3-4c2.4-1.8,3.7-4.4,4.3-7.3c1.3-6.4-0.4-12-4.3-17
		c-2.1-2.7-5-4.3-8.5-4.8c-1-0.1-2-0.2-3-0.2C514.5,554.7,513.6,554.7,512.6,554.6"/>
	<g>
		<path class="st0" d="M402.4,571.2c-7.5,1.2-15.1,2.2-22.6,3.9c-2,0.4-3.8,0.2-5.7,0.6"/>
		<path class="st0" d="M643.6,567.9c-16.9,0-8.9-0.3-25.5,2.2"/>
		<path class="st0" d="M513.5,429.8c0,7.9,0,15.8,0,23.7"/>
		<path class="st0" d="M626.4,497.8c-14.5,8.7-7.8,4.3-20.7,15.1"/>
		<path class="st0" d="M443.7,446.6c4.1,6.8,8.2,13.5,12.2,20.3"/>
		<path class="st0" d="M578.2,448.2c-8.3,14.7-4.6,7.6-10.5,23.4"/>
		<path class="st0" d="M394.2,494.4c6.9,3.9,13.8,7.7,20.7,11.6"/>
	</g>
	<path class="st0" d="M560.1,290.7"/>
	<line class="st0" x1="576.9" y1="284.2" x2="567.7" y2="324.1"/>
</g>
</svg>
