<svg width="174" height="172" viewBox="0 0 174 172" fill="none" xmlns="http://www.w3.org/2000/svg">
<path d="M145.381 171.312C145.381 171.312 145.14 171.312 145.06 171.312C142.811 171.151 140.804 170.509 139.439 169.304C134.54 165.289 130.204 161.595 126.109 157.58C120.327 160.953 114.144 163.683 107.64 165.691C99.8506 168.1 92.6235 169.545 85.6373 169.947C78.8921 170.348 72.1468 169.947 65.4818 168.903C57.1306 167.538 49.1808 164.326 42.034 159.347C39.625 161.676 36.9751 163.683 34.4055 165.61L32.6388 166.976C30.9525 168.26 28.5435 170.107 25.6527 170.91C24.8497 171.151 22.6012 171.713 20.5937 170.027C19.6301 169.144 18.5862 167.538 19.6301 165.048C20.4331 162.398 21.7179 160.471 23.0027 158.544C24.127 156.777 24.7694 155.653 25.4921 154.529C26.9375 152.2 28.3829 149.711 30.1495 147.462C28.6238 145.294 27.0981 142.966 25.6527 140.316C19.3089 129.074 15.2939 116.225 13.7682 102.012C12.9652 95.1867 13.2864 88.5217 14.6515 82.0976C16.5787 73.104 19.4695 65.3148 23.5649 58.2483C24.2073 57.2044 24.8497 56.1605 25.4921 55.1969C26.3754 53.8318 27.1784 52.6273 27.8208 51.3425C26.8572 50.1379 25.8936 48.7728 25.0906 47.2471C23.8861 48.1304 22.6815 49.0137 21.477 49.9773C19.9513 51.1819 18.5059 52.3061 16.8999 53.4303C16.5787 53.6712 16.0166 53.8318 15.5348 53.9924C14.6515 54.3939 13.6076 54.3136 12.7243 53.7515C9.75312 51.8243 7.6653 49.1743 5.57748 46.3638C-0.766275 37.9322 -1.72988 28.3764 2.84726 18.901C5.97899 12.4769 11.5197 7.57855 19.871 4.12561C26.0542 1.55599 32.157 0.752984 38.1796 1.55599C46.8521 2.8408 53.4367 8.14065 57.6124 17.3752C57.6124 17.5358 57.773 17.6964 57.773 17.857C57.9336 18.2585 57.9336 18.7404 57.773 19.1419C57.773 19.5434 57.5321 19.9449 57.2912 20.3464C57.2109 20.507 57.0503 20.6676 56.97 20.7479C54.32 23.6387 50.7065 26.931 47.6551 29.581C48.4581 30.4643 49.3414 31.3476 50.0641 32.3915C50.4656 32.2309 50.8671 31.99 51.3489 31.8294C56.6488 29.581 62.591 27.8143 68.9348 26.6901C72.3074 26.128 75.68 25.8068 79.0527 25.4053L80.739 25.2447C86.36 24.6826 92.3826 24.9235 99.2082 25.8068C105.07 26.6098 110.611 28.0552 115.83 29.9825C116.473 30.2234 117.115 30.384 117.758 30.5446C118.239 30.6249 118.721 30.7855 119.283 30.9461C119.605 30.6249 119.926 30.4643 120.086 30.2234C121.13 29.4204 122.254 28.4567 123.298 27.5734C122.094 26.4492 120.648 25.4856 119.203 24.4417C118.48 23.8796 117.677 23.3978 116.955 22.8357C114.867 21.31 112.458 18.7403 115.429 14.3238C123.298 3.0817 134.38 -1.65604 147.549 0.512081C156.543 2.03779 164.091 7.17704 169.953 15.7692C172.603 19.704 173.165 24.1205 173.486 28.6173C173.968 35.4429 172.603 41.3852 169.23 46.7653L168.427 48.1304C166.982 50.4591 165.376 53.1091 162.565 54.956C162.003 55.2772 161.522 55.4378 160.879 55.4378C160.317 55.4378 159.675 55.2772 159.193 54.956L158.229 54.3136C157.266 53.7515 156.382 53.1894 155.499 52.4667C153.893 51.2622 152.126 50.1379 150.36 49.0137C149.958 48.7728 149.557 48.4516 149.075 48.2107L146.345 52.2258C150.119 57.6059 153.09 63.7891 155.097 70.454C157.025 76.7175 158.149 83.0613 158.47 89.3247C158.872 97.5154 158.47 104.18 157.346 110.283C156.302 115.503 154.857 121.606 152.046 127.468C148.593 134.614 145.702 139.593 140.162 145.535C143.213 150.514 146.425 155.733 148.834 161.354C149.396 162.639 149.878 163.844 150.199 165.129C150.761 167.297 149.958 168.742 149.396 169.465C148.834 170.107 147.63 171.151 145.381 171.151V171.312ZM131.168 154.127C134.781 157.741 138.716 161.114 143.213 164.727C143.293 164.727 143.454 164.888 143.695 164.968C143.534 164.647 143.454 164.326 143.293 164.004C141.205 159.186 138.475 154.609 135.745 150.112C134.3 151.477 132.854 152.843 131.248 154.127H131.168ZM33.6828 52.547C32.7191 54.6348 31.5146 56.4817 30.3101 58.3286C29.6677 59.2922 29.1056 60.1755 28.5435 61.1391C24.7694 67.6435 22.0391 74.8706 20.3528 83.2219C19.1483 89.0035 18.8271 95.1064 19.5498 101.209C21.0755 114.78 24.7694 126.584 30.7116 137.264C34.7267 144.411 38.7417 149.309 43.2385 152.843C50.2247 158.223 58.0139 161.595 66.3652 162.96C72.5483 164.004 78.8921 164.326 85.1555 164.004C91.6599 163.603 98.4052 162.318 105.713 160.07C111.896 158.142 117.918 155.493 123.379 152.28C126.51 150.434 129.16 148.025 131.81 145.535C139.439 138.228 142.49 133.33 146.425 125.139C148.914 119.919 150.279 114.218 151.243 109.4C152.367 103.779 152.688 97.5957 152.287 89.8868C151.966 84.1052 150.922 78.2432 149.155 72.4616C147.308 66.2784 144.658 60.8982 141.205 55.9196C137.351 50.3788 132.131 45.7214 124.423 40.8231C123.62 40.3413 122.897 39.8594 122.094 39.3776C120.889 38.6549 119.765 38.0125 118.641 37.2095C118.239 36.8883 117.196 36.6474 116.312 36.4868C115.429 36.2459 114.465 36.005 113.582 35.6838C108.844 33.8369 103.705 32.5521 98.3249 31.8294C91.9811 30.9461 86.36 30.7855 81.2208 31.2673L79.5345 31.4279C76.3224 31.7491 73.1104 32.0703 69.8984 32.6324C63.9561 33.6763 58.4957 35.2823 53.5973 37.3701C46.3703 40.4216 40.5886 45.5608 34.0842 52.2258C33.9236 52.3864 33.763 52.547 33.6024 52.7076L33.6828 52.547ZM33.8433 152.28C32.6388 153.967 31.5949 155.733 30.4707 157.58C29.748 158.785 29.0253 159.909 28.3026 161.114L27.9011 161.756C27.4193 162.479 27.0178 163.121 26.6163 163.764C27.339 163.282 28.0617 162.8 28.8647 162.157L30.6313 160.792C32.8797 159.106 35.1282 157.42 37.1357 155.573C36.0115 154.529 34.8873 153.485 33.8433 152.28ZM120.327 17.857C120.327 17.857 120.408 17.9373 120.488 18.0176L122.656 19.5434C124.503 20.8282 126.51 22.1933 128.197 23.8796C129.642 25.2447 131.328 26.4492 133.095 27.734C134.942 29.0188 136.709 30.3037 138.395 31.8294C142.008 35.202 145.301 38.3337 148.673 40.8231C150.199 41.9473 151.805 42.9912 153.411 43.9548C155.338 45.1593 157.185 46.3638 158.952 47.6486C159.434 48.0501 159.996 48.3713 160.558 48.6925C161.522 47.6486 162.325 46.3638 163.208 44.9184L164.091 43.473C166.741 39.2973 167.865 34.5596 167.464 29.0188C167.223 25.2447 166.821 21.8721 164.974 19.1419C159.996 11.8345 153.893 7.65885 146.505 6.37404C135.504 4.52712 126.912 8.22095 120.327 17.6964V17.857ZM33.4418 7.09674C29.6677 7.09674 25.8936 7.89975 22.0391 9.50576C15.053 12.3966 10.6364 16.1707 8.14711 21.31C4.61388 28.7779 5.33658 35.9247 10.2349 42.5094C11.6 44.3563 12.9652 46.0426 14.4909 47.4077C15.5348 46.6047 16.5787 45.8017 17.6226 44.9987C20.0316 43.1518 22.5209 41.1443 25.3315 39.5382C26.6163 38.8155 27.6602 37.8519 28.7844 36.8883C29.5874 36.1656 30.4707 35.4429 31.2737 34.8005C34.807 32.2309 38.2599 29.5006 41.4719 26.6901C45.6476 23.1569 48.7793 20.1858 51.108 17.857C47.8157 11.5936 43.2385 8.14065 37.1357 7.25735C35.9312 7.09674 34.6464 7.01644 33.3615 7.01644L33.4418 7.09674ZM125.065 33.9975C125.065 33.9975 125.226 34.0778 125.306 34.1581C126.109 34.6399 126.992 35.1217 127.795 35.6838C133.898 39.5382 138.556 43.3927 142.33 47.488L144.016 44.9184C140.724 42.3488 137.672 39.4579 134.701 36.6474C132.854 34.8808 131.248 33.7566 129.642 32.6324C129.08 32.2309 128.598 31.9097 128.036 31.5082C127.073 32.3915 126.109 33.1945 125.145 33.9975H125.065ZM30.0692 43.7139C30.551 44.5972 31.0328 45.4805 31.5146 46.2032C35.9312 41.7867 40.1068 38.0928 44.7642 35.202C44.2824 34.6399 43.7203 33.9975 43.1582 33.4354C40.5083 35.6035 37.6978 37.7716 34.9676 39.7791C34.2449 40.3413 33.5221 40.9837 32.7994 41.5458C31.9161 42.2685 31.1131 42.9912 30.1495 43.7139H30.0692ZM84.5934 159.508C84.5934 159.508 84.3525 159.508 84.2722 159.508C82.5859 159.347 81.4617 157.821 81.6223 156.215L82.6662 146.499C82.8268 144.813 84.3525 143.688 85.9585 143.849C87.6449 144.01 88.8494 145.535 88.6085 147.141L87.5646 156.858C87.4039 158.383 86.1191 159.508 84.5934 159.508ZM67.5697 159.106C67.5697 159.106 66.9273 159.106 66.6864 158.945C54.32 155.011 44.1218 147.864 36.4933 137.585C34.3252 134.695 32.157 131.563 30.7919 127.949C30.2298 126.424 31.0328 124.657 32.5585 124.095C34.0843 123.533 35.8509 124.336 36.413 125.862C37.4569 128.752 39.3038 131.322 41.3113 133.972C48.2172 143.207 57.3715 149.631 68.5333 153.164C70.1393 153.646 71.0226 155.332 70.4605 156.938C70.059 158.223 68.8545 159.026 67.5697 159.026V159.106ZM96.1567 159.106C94.5507 159.106 93.1856 157.821 93.1053 156.215C93.1053 154.529 94.3901 153.164 95.9961 153.084C96.9597 153.084 98.0037 152.682 99.2885 152.2L100.573 151.799C112.779 147.784 122.254 141.36 129.642 132.125C134.46 126.183 137.11 119.437 137.833 111.568C137.993 109.882 139.519 108.677 141.125 108.838C142.811 108.998 144.016 110.444 143.855 112.13C143.052 121.204 140.001 128.993 134.38 135.899C126.27 146.017 115.83 153.084 102.5 157.5L101.376 157.902C99.8506 158.464 98.1642 159.026 96.237 159.106H96.1567ZM56.4882 133.089H56.167C54.4806 133.089 53.1958 131.643 53.2761 129.957C53.2761 128.271 54.5609 126.986 56.4079 127.066C57.0503 127.066 57.4518 127.066 57.9336 126.665C66.847 120.401 74.6361 112.933 81.7026 105.706C80.2572 104.18 79.2936 102.173 79.2936 99.9244C79.2936 98.6396 79.6148 97.3548 80.1769 96.2306C77.4467 92.6974 74.9573 89.1641 72.3877 85.5506C68.9348 80.6522 65.3212 75.6736 61.4668 71.0161C60.4229 69.7313 60.5835 67.8041 61.8683 66.7602C63.1531 65.7163 65 65.8769 66.1243 67.1617C70.1393 71.9798 73.7528 77.119 77.2861 82.0173C79.6951 85.39 82.1041 88.7626 84.6737 92.1352C85.557 91.814 86.6009 91.5731 87.6449 91.5731C92.222 91.5731 95.9158 95.267 95.9158 99.8441C95.9158 104.421 92.222 108.115 87.6449 108.115C87.5646 108.276 87.4843 108.436 87.3237 108.517C79.6951 116.386 71.3438 124.577 61.4668 131.483C60.0214 132.527 58.4154 133.008 56.6488 133.008L56.4882 133.089ZM87.4842 97.676C86.2797 97.676 85.2358 98.6396 85.2358 99.9244C85.2358 101.209 86.2797 102.173 87.4842 102.173C88.6888 102.173 89.7327 101.209 89.7327 99.9244C89.7327 98.6396 88.6888 97.676 87.4842 97.676ZM141.607 103.377C141.607 103.377 141.286 103.377 141.205 103.377C139.198 103.056 136.869 103.056 134.059 103.377C132.292 103.538 130.927 102.333 130.766 100.727C130.606 99.1214 131.81 97.5957 133.416 97.4351C136.709 97.1139 139.519 97.1139 142.008 97.4351C143.695 97.676 144.819 99.2017 144.578 100.808C144.337 102.333 143.052 103.377 141.607 103.377ZM31.4343 103.136C29.8283 103.136 28.4632 101.852 28.3829 100.165C28.3829 98.479 29.6677 97.1139 31.354 97.1139L38.9826 96.873C40.5886 96.873 41.9537 98.1578 42.034 99.8441C42.034 101.53 40.7492 102.896 39.0629 102.896L31.4343 103.136ZM142.892 87.2369C141.366 87.2369 140.081 86.1127 139.921 84.587C139.439 80.1704 138.315 75.9145 136.548 71.8191C133.416 64.3512 128.919 58.7301 122.817 54.4742C121.612 53.6712 120.408 52.7879 119.203 51.9046C115.349 49.094 111.735 46.4441 107.479 45.1593C105.873 44.6775 104.99 42.9912 105.472 41.3852C105.953 39.7791 107.64 38.8958 109.246 39.3776C114.546 40.9837 118.721 44.0351 122.817 47.0062C123.941 47.8092 125.065 48.6925 126.27 49.4955C133.256 54.3136 138.636 60.9786 142.169 69.4101C144.096 73.9873 145.381 78.8856 145.943 83.8643C146.104 85.5506 144.98 86.996 143.293 87.1566C143.213 87.1566 143.052 87.1566 142.972 87.1566L142.892 87.2369ZM28.3026 82.0173C26.7769 82.0173 25.4921 80.8128 25.3315 79.2871C25.1709 77.7614 25.6527 76.5569 26.0542 75.8342C29.1056 68.4465 32.96 62.3437 37.8584 56.8832C46.6112 47.2471 57.5321 41.6261 70.3802 40.1003C72.0665 39.9397 73.5119 41.064 73.7528 42.7503C73.9134 44.4366 72.7892 45.882 71.1029 46.1229C59.5396 47.488 50.1444 52.3061 42.3552 60.8982C37.8584 65.7966 34.4055 71.3373 31.7555 77.8417L31.354 78.8053C31.5146 80.4916 30.3904 81.8567 28.7041 82.0173C28.6238 82.0173 28.4632 82.0173 28.3829 82.0173H28.3026ZM90.3751 53.7515C88.7691 53.7515 87.4039 52.4667 87.4039 50.8607L87.0024 40.1003C87.0024 38.414 88.207 37.0489 89.8933 36.9686C91.6599 36.808 92.9447 38.1731 93.025 39.8594L93.4265 50.6198C93.4265 52.3061 92.222 53.6712 90.5357 53.7515C90.5357 53.7515 90.5357 53.7515 90.4554 53.7515H90.3751Z" fill="#494948"/>
</svg>
