<?xml version="1.0" encoding="utf-8"?>
<!-- Generator: Adobe Illustrator 28.0.0, SVG Export Plug-In . SVG Version: 6.00 Build 0)  -->
<svg version="1.1" id="Laag_1" xmlns="http://www.w3.org/2000/svg" xmlns:xlink="http://www.w3.org/1999/xlink" x="0px" y="0px"
	 viewBox="0 0 1000 1000" style="enable-background:new 0 0 1000 1000;" xml:space="preserve">
<style type="text/css">
	.st0{fill:none;stroke:#4A4A49;stroke-width:4;stroke-linecap:round;stroke-linejoin:round;stroke-miterlimit:10;}
</style>
<g>
	<path class="st0" d="M316.6,301.8c-25.3,21.1-48.2,44.3-65.3,73c-15.5,26.1-26.4,53.4-30.7,83.8c-5.3,37.8-0.1,74.6,5.3,111.7
		c4.3,29.6,11.1,58,24,85.1c11.7,24.7,28.6,45,48,63.7c40.7,39.3,102.4,69.5,164.8,78.6c55.6,8.2,107.1-3.1,158.4-23.6
		c31.8-12.7,57.8-33.6,82.6-54.8c16-13.8,27.7-34.8,38.1-54.7c26.4-50.4,42-103.8,42.3-160.8c0.1-29.2-9.7-56.7-19.8-83.7
		c-14.7-39.2-35-74.3-67.3-102.7c-46.7-41.1-98.7-68.2-161-76.1c-15.1-1.9-31.4-4.7-45.1-3.1c-19.8,2.2-40.3,4.8-60.1,10.1
		c-40.8,10.9-77.7,29.6-112.9,52.2"/>
	<g>
		<path class="st0" d="M365.7,432.1c23.1,12.2,40.2,32.1,59.9,48.5C450,500.7,477,517,501,537.4c7.4,6.3,15.2,0.7,22.2-2.8
			c29.1-14.5,58.1-29.1,87.2-43.6c0.5-0.3,1.2-0.2,1.9-0.3"/>
	</g>
	<path class="st0" d="M704.6,721.7c13,15.6,18.9,35,26.2,53.3c6.9,17.3,17.9,32.3,25.4,49.1c3.3,7.4,12.3,15.8,3.8,23.4
		c-7.3,6.5-17.1,0-24.7-2.8c-8.4-3-15.9-9.4-22.7-15.5c-22.2-19.9-47.1-36.1-70.5-54.4c-1.7-1.3-2.7-3.5-4-5.3"/>
	<path class="st0" d="M648.8,208.8c25-19.6,48.9-41.1,83.7-41.4c11.2-0.1,21.8,1.2,31.9,5.6c30.1,13.2,55.7,30.7,65.4,65
		c3.8,13.4,2.8,26-0.5,38.6c-7.4,28.9-16.1,50.6-34.8,60c-17.9-10-31.1-25.5-43.3-41.5c-14.8-19.5-33.6-34.1-53.4-47.6
		c-18-12.2-35.5-24.8-51.8-39.3"/>
	<path class="st0" d="M308.6,735c-16.7,33.2-30.9,67.4-40.2,103.6c-1.4,5.3-1.4,10.2,1.9,13.1c4.2,3.7,9.5,1.4,14.4-1
		c12.8-6.3,22.6-16.3,33.1-25.4c19.1-16.4,36.8-34.2,51.9-54.4"/>
	<path class="st0" d="M368.4,198.2c-15.4-11.7-32.6-20.7-49.2-30.6c-18.2-10.8-38.1-7-57.1-4.7c-14.8,1.8-30,5.7-42.6,15.4
		c-36.9,28.4-43.9,66.7-30.1,110.1c3.9,12.4,10.3,25.3,23.8,33.1c16.8-13,30.2-29,45.9-42.6c16-14,34.6-23.1,52.3-34
		c19.2-11.9,38.3-23.8,54.4-40c1.5-1.5,3.3-2.8,2.6-5.3"/>
	<path class="st0" d="M501.3,292.5c-13.3-7.3-27.2-1.4-39.7,0.8c-24.3,4.2-48.4,11.2-70.6,23.1c-34.2,18.4-65.3,40.5-87.7,73.1
		c-24.2,35.2-37.9,73.8-34.4,116.9c3,38.3,5.9,76.7,20.9,113c16.2,39.1,42.7,68.6,78.6,90.3c31,18.8,63.6,33.1,99.7,38.6
		c30,4.5,60,3.3,88.9-4.4c43.7-11.7,83.5-31.7,114.3-66.1c31.3-34.9,49.6-75.8,57.5-122.1c8.9-51.9-3.3-100.1-24.7-146
		c-18.8-40.4-50.6-69.3-90.9-89.9c-17.9-9.1-35.3-18.7-54.8-23.1c-18.2-4.1-36.6-10.3-55.8-4.9"/>
	<path class="st0" d="M518.6,237.4c0.1-9.6-0.8-19.2,2-27.8c6.5-2.1,13.5-3,19.1-6.3c9.6-5.6,14.7-19.2-2.6-26.2
		c-5.4-2.2-11.5-3.9-17.2-3.9c-14.2,0.1-28.4-1.5-42.6,2.1c-6.3,1.6-11,3.1-11.7,9.7c-0.7,6.8,1.6,12.2,9.1,14.7
		c5.1,1.7,9.8,4.7,14.7,7.2"/>
	<path class="st0" d="M272.7,518.4c16.8,1.3,33.7,2.7,50.5,4"/>
	<path class="st0" d="M501.3,293.8c0,14.2,0,28.3,0,42.5"/>
	<path class="st0" d="M727.2,513.1c-13.9,4.5-28.3,2-42.5,2.7"/>
	<path class="st0" d="M501.3,707.1c3.1,13.6,0.5,27.5,1.3,41.2"/>
	<path class="st0" d="M167.7,146.3c13.5,13.3,26.9,26.8,41.9,38.5"/>
	<path class="st0" d="M725.9,273.9c-12.6,10.5-25.1,21-34.6,34.6"/>
	<path class="st0" d="M282,264.6c11.5,12,23,23.9,34.6,35.9"/>
	<path class="st0" d="M826.9,155c-10.6,10.9-21.3,21.7-31.9,32.6"/>
	<path class="st0" d="M599.6,681.9c4.7,12,9.3,23.9,14,35.9"/>
	<path class="st0" d="M676,611.4c8.9,5.4,18.5,9.3,28.6,12"/>
	<path class="st0" d="M585.3,340.9c6.2-8.4,10.8-17.6,14.3-27.5"/>
	<path class="st0" d="M393.9,354.7c-6.2-8.4-10.8-17.6-14.3-27.5"/>
	<path class="st0" d="M695.3,398.8c-9.9,4-20.4,6.8-29.2,13.3"/>
	<path class="st0" d="M405.6,691.2c-4.9,9.3-9.7,18.6-14.6,27.9"/>
	<path class="st0" d="M493.3,206.1c-6.3-0.8-3.9,4.1-3.9,6.6c0.1,7.5,0.8,15.1,1.2,22.6"/>
	<path class="st0" d="M296.6,406.8c8.8,4.3,15.5,12.1,25.2,14.6"/>
	<path class="st0" d="M331.2,628.7c-10.3,1.3-19.2,6.1-27.9,11.3"/>
</g>
</svg>
