<svg width="335" height="339" viewBox="0 0 335 339" fill="none" xmlns="http://www.w3.org/2000/svg">
<path d="M140.08 339C135.096 339 129.951 337.23 125.127 333.85C114.355 326.285 110.174 314.214 113.551 300.533C116.606 287.978 125.931 280.735 139.92 280.092C156.481 279.287 166.61 287.495 170.147 304.074C171.273 305.683 171.755 307.775 170.951 309.868C165.163 325.158 156.802 334.976 146.673 338.034C144.422 338.678 142.171 339 139.92 339H140.08ZM142.171 292.163C142.171 292.163 141.045 292.163 140.563 292.163C132.041 292.485 127.057 296.187 125.288 303.43C123.841 309.546 123.841 318.076 132.202 324.032C136.061 326.768 139.759 327.573 143.296 326.446C149.084 324.675 154.712 317.915 158.892 307.936C158.892 307.614 158.732 307.293 158.571 306.971C156.32 296.348 151.818 292.163 142.331 292.163H142.171ZM294.757 338.839C294.757 338.839 293.471 338.839 292.827 338.517L286.878 336.586C270.478 330.792 263.082 318.72 265.815 302.786C268.227 288.461 278.196 280.253 292.827 280.253C300.867 280.253 317.91 280.253 323.055 300.211C327.075 316.145 320.644 328.699 304.886 335.781C303.279 336.425 301.51 336.425 300.063 335.781C298.937 337.552 297.008 338.678 294.918 338.678L294.757 338.839ZM292.827 292.324C283.823 292.324 279.161 296.187 277.714 304.878C276.588 311.155 276.749 320.169 291.059 325.158L296.686 327.09C296.686 327.09 297.008 327.09 297.169 327.251C297.812 326.285 298.777 325.319 299.902 324.836C310.514 320.169 314.051 313.409 311.318 303.269C309.228 294.899 304.886 292.324 292.827 292.324ZM142.331 259.812C133.327 259.812 119.982 259.007 114.033 246.292C109.049 235.508 115.319 226.494 120.304 219.091L121.59 217.159C126.735 209.594 132.202 203.8 138.473 199.615L120.786 156.963C103.421 115.115 86.2169 73.2678 69.0128 31.4202C64.35 19.9926 59.848 16.6126 49.7184 17.2564C39.2673 17.7392 28.977 16.2907 19.0082 14.6811C14.667 14.0373 10.4865 13.3935 6.14529 12.9107C3.09035 12.5888 0.678555 9.69161 1.00013 6.31161C1.48249 3.09257 4.37664 0.678279 7.75316 1.00018C12.2552 1.48304 16.5964 2.12685 21.0984 2.93161C30.9064 4.38018 40.0712 5.82876 49.2361 5.3459C68.3696 4.38018 75.605 15.164 80.4286 26.9135C84.2875 36.4097 88.3072 46.0669 92.166 55.563C97.3112 51.5392 103.421 51.8611 107.762 52.183H109.692L193.622 55.563C231.889 57.0116 270.317 58.6211 308.585 59.9088C318.071 60.2307 325.628 60.8745 330.291 66.1859C334.471 71.0145 334.632 77.7745 333.667 87.9145C331.095 113.506 327.879 139.097 324.663 164.528L324.02 169.195C322.895 177.565 319.679 188.832 303.118 190.28C286.396 191.729 269.674 193.499 252.952 195.431C225.78 198.489 197.481 201.547 169.665 202.674C152.3 203.317 141.527 209.273 131.719 223.919L130.433 225.851C125.77 232.611 123.198 236.795 125.127 241.141C127.7 246.774 133.649 247.74 144.261 247.74C189.603 247.579 235.105 247.579 280.447 247.579H325.789C329.165 247.579 331.899 250.315 331.899 253.695C331.899 257.075 329.165 259.812 325.789 259.812H280.447C235.105 259.812 189.763 259.812 144.261 259.812H142.331ZM96.8288 67.4735C108.566 95.8011 120.304 124.129 131.88 152.456L149.084 194.304C154.873 192.212 161.465 191.085 168.7 190.763C196.195 189.636 224.172 186.578 251.184 183.52C268.066 181.589 284.788 179.818 301.671 178.37C308.585 177.726 310.514 175.634 311.639 167.908L312.283 163.24C315.498 137.81 318.714 112.379 321.287 86.7878C322.091 79.7059 321.93 75.3602 320.804 74.2335C319.357 72.4631 310.996 72.1411 307.781 72.1411C269.513 70.6926 231.085 69.244 192.818 67.7954L106.637 64.4154C101.813 64.0935 99.8838 64.2545 98.2759 66.1859C97.7936 66.8297 97.1504 67.3126 96.5073 67.6345L96.8288 67.4735Z" fill="#494948"/>
</svg>
