<?xml version="1.0" encoding="utf-8"?>
<!-- Generator: Adobe Illustrator 28.0.0, SVG Export Plug-In . SVG Version: 6.00 Build 0)  -->
<svg version="1.1" id="Laag_1" xmlns="http://www.w3.org/2000/svg" xmlns:xlink="http://www.w3.org/1999/xlink" x="0px" y="0px"
	 viewBox="0 0 1000 1000" style="enable-background:new 0 0 1000 1000;" xml:space="preserve">
<style type="text/css">
	.st0{fill:none;stroke:#4A4A49;stroke-width:4;stroke-linecap:round;stroke-linejoin:round;stroke-miterlimit:10;}
</style>
<g>
	<path class="st0" d="M515.6,354.6c15.3-42.2,23.8-96.1,15.1-138.6c-12.9-12.8-0.7-34.1-17-45.7c-6.1-5.4-10.9-5.8-16,1.1
		c-43.1,52.4-4,120.6-14.4,181.4"/>
	<path class="st0" d="M460.5,357.5c-12.3-56.5,14.3-117.8-7.5-173c-44.9-68.5-45.5,60.5-44.8,88.4c0.3,29.9,37.7,41.2,30.7,73.2
		c-3.4,9.9,4.2,19.3,2.7,28.5c-44.5,150.4-53,312.4-36,467.7c3.8,14.5,0.3,54.9,22.8,48.4c45.1-53.8,56.2-131.1,76.9-196.8
		c20.8-73,33.7-147.7,46.6-222.4c-0.2-25.4,9.2-50.5,10.1-75c-2-28.3,5.2-61.4,28.7-79.2c37.1-26.4,21.9-75.1,19.1-112.9
		c0.2-4.6-0.8-9.1-5.7-10.3c-4.6-1.1-5.9,3.7-7.4,6.5c-4.3,8.2-12,13.8-16.8,21.1c-31.7,37.9-36.7,90.1-48.9,136.6"/>
	<path class="st0" d="M585.9,213c-8.6-33.6,15.9-75.5-12.6-103.4c-20.6-6.3-32.9,93.7-41.6,103.4"/>
	<path class="st0" d="M585,220.6c4.9,26.2-6.7,54.7-18.8,78.1c-11,20.2-7.5,46-19.2,66.4"/>
	<path class="st0" d="M527.9,216.8c-18.8,42.1-30.9,89.1-27.6,135.9"/>
	<path class="st0" d="M453.8,603.6c-16.5-0.3-32.3-4.5-48.5-7.6"/>
	<path class="st0" d="M538.4,528.6c-12.9-1-24.2-7.1-36.1-11.4"/>
	<path class="st0" d="M477.6,665.4c5.5,10.4,19.5,7.4,28.5,13.3"/>
	<path class="st0" d="M523.2,429.7c2.8,9.3,20.3,7.1,28.5,11.4"/>
	<path class="st0" d="M431.9,414.5c9.5,1.3,19,2.5,28.5,3.8"/>
	<path class="st0" d="M525.1,599.8c-9.6-1.4-18.5-4.8-27.6-8.1"/>
	<path class="st0" d="M439.5,532.4c8.3,0.6,16.2,4.6,24.7,3.8"/>
	<path class="st0" d="M494.7,466.8c-8.7,0.9-16-3.5-23.8-6.2"/>
	<path class="st0" d="M558.3,375.5c-31.9-24.9-82.9-31.6-115-5.7"/>
</g>
<path class="st0" d="M682.7,883.5"/>
</svg>
